<?xml version="1.0" encoding="utf-8" standalone="no"?>
<!DOCTYPE svg PUBLIC "-//W3C//DTD SVG 1.1//EN"
  "http://www.w3.org/Graphics/SVG/1.1/DTD/svg11.dtd">
<svg xmlns:xlink="http://www.w3.org/1999/xlink" width="712.478125pt" height="424.174062pt" viewBox="0 0 712.478125 424.174062" xmlns="http://www.w3.org/2000/svg" version="1.1">
 <metadata>
  <rdf:RDF xmlns:dc="http://purl.org/dc/elements/1.1/" xmlns:cc="http://creativecommons.org/ns#" xmlns:rdf="http://www.w3.org/1999/02/22-rdf-syntax-ns#">
   <cc:Work>
    <dc:type rdf:resource="http://purl.org/dc/dcmitype/StillImage"/>
    <dc:date>2025-12-17T20:16:04.714863</dc:date>
    <dc:format>image/svg+xml</dc:format>
    <dc:creator>
     <cc:Agent>
      <dc:title>Matplotlib v3.5.0, https://matplotlib.org/</dc:title>
     </cc:Agent>
    </dc:creator>
   </cc:Work>
  </rdf:RDF>
 </metadata>
 <defs>
  <style type="text/css">*{stroke-linejoin: round; stroke-linecap: butt}</style>
 </defs>
 <g id="figure_1">
  <g id="patch_1">
   <path d="M 0 424.174062 
L 712.478125 424.174062 
L 712.478125 0 
L 0 0 
z
" style="fill: #ffffff"/>
  </g>
  <g id="axes_1">
   <g id="patch_2">
    <path d="M 37.340625 387.575625 
L 705.278125 387.575625 
L 705.278125 24.246875 
L 37.340625 24.246875 
z
" style="fill: #ffffff"/>
   </g>
   <g id="patch_3">
    <path d="M 67.70142 387.575625 
L 192.716461 387.575625 
L 192.716461 41.548244 
L 67.70142 41.548244 
z
" clip-path="url(#pd2c6967440)" style="fill: #ffa500; opacity: 0.8"/>
   </g>
   <g id="patch_4">
    <path d="M 424.887249 387.575625 
L 549.902289 387.575625 
L 549.902289 280.471912 
L 424.887249 280.471912 
z
" clip-path="url(#pd2c6967440)" style="fill: #ffa500; opacity: 0.8"/>
   </g>
   <g id="patch_5">
    <path d="M 192.716461 387.575625 
L 317.731501 387.575625 
L 317.731501 222.800682 
L 192.716461 222.800682 
z
" clip-path="url(#pd2c6967440)" style="fill: #008000; opacity: 0.8"/>
   </g>
   <g id="patch_6">
    <path d="M 549.902289 387.575625 
L 674.91733 387.575625 
L 674.91733 387.575625 
L 549.902289 387.575625 
z
" clip-path="url(#pd2c6967440)" style="fill: #008000; opacity: 0.8"/>
   </g>
   <g id="matplotlib.axis_1">
    <g id="xtick_1">
     <g id="line2d_1">
      <defs>
       <path id="m5a33a825a4" d="M 0 0 
L 0 3.5 
" style="stroke: #000000; stroke-width: 0.8"/>
      </defs>
      <g>
       <use xlink:href="#m5a33a825a4" x="192.716461" y="387.575625" style="stroke: #000000; stroke-width: 0.8"/>
      </g>
     </g>
     <g id="text_1">
      <!-- 总切换次数 -->
      <g transform="translate(167.716461 402.46625)scale(0.1 -0.1)">
       <defs>
        <path id="SimHei-603b" d="M 4550 4850 
Q 4375 4650 4025 3900 
L 5100 3900 
Q 5075 3425 5075 2950 
Q 5075 2500 5100 2025 
L 1175 2025 
Q 1200 2550 1200 3000 
Q 1200 3475 1175 3900 
L 2175 3900 
Q 1900 4350 1525 4750 
Q 1700 4850 1875 5050 
Q 2350 4550 2575 4200 
Q 2400 4075 2250 3900 
L 3550 3900 
Q 3875 4700 3950 5100 
Q 4300 4925 4550 4850 
z
M 4600 2450 
L 4600 3525 
L 1650 3525 
L 1650 2450 
L 4600 2450 
z
M 2275 1450 
Q 2250 1050 2250 675 
Q 2250 300 2262 112 
Q 2275 -75 2675 -75 
L 4000 -75 
Q 4325 -75 4400 550 
Q 4650 400 4925 325 
Q 4775 -200 4562 -337 
Q 4350 -475 4000 -450 
L 2325 -450 
Q 1850 -450 1825 -175 
Q 1800 100 1800 525 
Q 1800 975 1775 1450 
L 2275 1450 
z
M 1350 1325 
Q 1050 300 825 -250 
Q 625 -150 375 -50 
Q 675 525 900 1500 
Q 1100 1425 1350 1325 
z
M 4950 1575 
Q 5700 825 6000 450 
Q 5825 275 5625 100 
Q 5375 450 4600 1275 
Q 4750 1375 4950 1575 
z
M 3350 575 
Q 2975 1175 2675 1500 
Q 2825 1650 3000 1800 
Q 3225 1575 3750 875 
Q 3525 775 3350 575 
z
" transform="scale(0.015625)"/>
        <path id="SimHei-5207" d="M 4200 125 
Q 4875 125 5037 187 
Q 5200 250 5225 525 
L 5400 4175 
L 4250 4175 
Q 4275 2875 4075 1987 
Q 3875 1100 3500 575 
Q 3125 50 2425 -575 
Q 2275 -375 1900 -250 
Q 2550 200 2937 675 
Q 3325 1150 3550 1925 
Q 3775 2700 3750 4175 
Q 3200 4175 2700 4150 
L 2700 4600 
Q 3175 4575 3625 4575 
L 5900 4575 
Q 5875 4200 5850 3700 
L 5700 325 
Q 5625 -250 5312 -337 
Q 5000 -425 4450 -525 
Q 4400 -200 4200 125 
z
M 1175 4275 
Q 1175 4625 1150 5000 
L 1650 5000 
Q 1625 4625 1625 4300 
L 1625 3275 
Q 2150 3350 2700 3425 
Q 2725 3150 2750 2975 
Q 2325 2925 1625 2850 
L 1625 1050 
Q 2325 1475 2650 1750 
Q 2725 1550 2875 1300 
Q 2325 975 1225 200 
Q 1075 500 925 650 
Q 1175 850 1175 1125 
L 1175 2775 
Q 675 2725 325 2675 
Q 300 2975 275 3150 
Q 650 3175 1175 3225 
L 1175 4275 
z
" transform="scale(0.015625)"/>
        <path id="SimHei-6362" d="M 1225 4550 
Q 1225 4900 1200 5200 
L 1700 5200 
Q 1650 4925 1650 4550 
L 1650 3800 
Q 1925 3800 2300 3825 
L 2300 3425 
Q 2725 3850 3000 4300 
Q 3275 4750 3425 5200 
Q 3625 5075 3950 4950 
Q 3800 4800 3600 4450 
L 5325 4450 
Q 4825 3750 4575 3325 
L 5600 3325 
L 5600 1650 
Q 5875 1650 6150 1675 
L 6150 1250 
Q 5725 1275 5450 1275 
L 4500 1275 
Q 4725 700 5237 325 
Q 5750 -50 6150 -150 
Q 5875 -375 5775 -625 
Q 5375 -450 4925 -37 
Q 4475 375 4150 1000 
Q 3775 50 2250 -625 
Q 2175 -425 1925 -200 
Q 2650 0 3137 425 
Q 3625 850 3775 1275 
L 2650 1275 
Q 2500 1275 2100 1250 
L 2100 1675 
Q 2475 1650 2675 1650 
L 2675 2675 
Q 2675 3050 2650 3150 
L 2550 3025 
Q 2400 3200 2175 3325 
L 2275 3400 
Q 1925 3425 1650 3425 
L 1650 2350 
Q 1925 2475 2200 2650 
Q 2225 2450 2275 2225 
Q 2025 2100 1650 1900 
L 1650 50 
Q 1650 -275 1462 -400 
Q 1275 -525 725 -600 
Q 700 -375 525 -75 
Q 1050 -100 1137 -50 
Q 1225 0 1225 150 
L 1225 1700 
Q 800 1475 525 1300 
Q 425 1525 250 1750 
Q 875 1975 1225 2150 
L 1225 3425 
Q 675 3425 300 3400 
L 300 3825 
Q 650 3800 1225 3800 
L 1225 4550 
z
M 5175 1650 
L 5175 2950 
L 4375 2950 
Q 4375 2300 4325 1650 
L 5175 1650 
z
M 3850 1650 
Q 3900 2300 3925 2950 
L 3100 2950 
L 3100 1650 
L 3850 1650 
z
M 3400 4100 
Q 3075 3625 2800 3325 
L 4100 3325 
L 4550 4100 
L 3400 4100 
z
" transform="scale(0.015625)"/>
        <path id="SimHei-6b21" d="M 4150 3025 
Q 4000 2550 4050 2187 
Q 4100 1825 4275 1450 
Q 4450 1075 4800 750 
Q 5150 425 5475 212 
Q 5800 0 6150 -150 
Q 5875 -350 5750 -625 
Q 5250 -325 4887 -25 
Q 4525 275 4275 612 
Q 4025 950 3825 1425 
Q 3525 625 2950 125 
Q 2375 -375 1850 -650 
Q 1675 -400 1475 -225 
Q 2025 0 2487 362 
Q 2950 725 3162 1100 
Q 3375 1475 3450 1825 
Q 3525 2175 3537 2400 
Q 3550 2625 3525 3125 
Q 3825 3050 4150 3025 
z
M 3700 4975 
Q 3625 4900 3475 4575 
Q 3325 4250 3250 4075 
L 5775 4075 
Q 5650 3725 5550 3362 
Q 5450 3000 5275 2500 
Q 5000 2575 4775 2600 
Q 5025 3350 5100 3650 
L 3100 3650 
Q 2975 3400 2812 3100 
Q 2650 2800 2425 2450 
Q 2275 2600 1975 2700 
Q 2300 3050 2625 3762 
Q 2950 4475 3125 5200 
Q 3450 5025 3700 4975 
z
M 2025 2000 
Q 1825 1675 1475 1087 
Q 1125 500 725 -200 
Q 500 -25 250 175 
Q 725 725 1037 1262 
Q 1350 1800 1575 2325 
Q 1750 2175 2025 2000 
z
M 900 4750 
Q 1725 3725 1950 3375 
Q 1750 3250 1500 3050 
Q 1250 3525 500 4425 
Q 700 4575 900 4750 
z
" transform="scale(0.015625)"/>
        <path id="SimHei-6570" d="M 4525 4925 
Q 4475 4800 4400 4587 
Q 4325 4375 4175 3825 
L 5325 3825 
Q 5575 3825 5925 3850 
L 5925 3400 
Q 5650 3425 5500 3425 
Q 5500 3025 5362 2162 
Q 5225 1300 4875 675 
Q 5125 375 5437 137 
Q 5750 -100 6025 -200 
Q 5725 -425 5625 -625 
Q 5325 -450 5075 -225 
Q 4825 0 4575 325 
Q 4300 25 3987 -187 
Q 3675 -400 3200 -650 
Q 3075 -425 2850 -300 
Q 3225 -150 3650 125 
Q 4075 400 4300 675 
Q 4125 1025 3962 1425 
Q 3800 1825 3675 2475 
Q 3600 2275 3425 1950 
Q 3250 2050 3000 2150 
Q 3400 2850 3650 3675 
Q 3900 4500 3975 5100 
Q 4275 4975 4525 4925 
z
M 2100 2250 
Q 2000 2150 1875 1925 
L 3250 1925 
Q 3100 1300 2725 675 
Q 3125 525 3350 400 
Q 3225 225 3125 25 
Q 2900 175 2450 325 
Q 1950 -225 725 -650 
Q 600 -375 400 -275 
Q 1575 0 2000 475 
Q 1300 650 850 775 
Q 1000 1000 1250 1525 
Q 1000 1525 425 1500 
L 425 1950 
Q 900 1925 1400 1925 
Q 1500 2150 1550 2425 
Q 1825 2325 2100 2250 
z
M 1775 3950 
Q 1775 4550 1750 5100 
L 2250 5100 
Q 2225 4575 2225 3950 
Q 3075 3950 3425 3975 
L 3425 3525 
Q 3075 3550 2225 3550 
Q 2225 2825 2250 2425 
L 1750 2425 
Q 1775 2775 1775 3300 
Q 1650 3100 1300 2787 
Q 950 2475 650 2300 
Q 525 2525 275 2625 
Q 500 2700 875 2975 
Q 1250 3250 1450 3550 
Q 950 3550 500 3525 
L 500 3975 
Q 925 3950 1775 3950 
z
M 3975 3175 
Q 4200 1700 4600 1125 
Q 4850 1700 4937 2287 
Q 5025 2875 5050 3425 
L 4075 3425 
L 3975 3175 
z
M 1450 1000 
Q 1750 925 2275 800 
Q 2475 1050 2650 1525 
L 1725 1525 
Q 1600 1275 1450 1000 
z
M 3325 4825 
Q 3200 4625 3125 4450 
Q 3050 4275 2925 4025 
Q 2725 4125 2525 4175 
Q 2725 4500 2900 5000 
Q 3150 4875 3325 4825 
z
M 2575 3375 
Q 2900 3050 3200 2725 
Q 3050 2600 2875 2425 
Q 2525 2850 2300 3100 
Q 2450 3225 2575 3375 
z
M 925 5000 
Q 1275 4650 1500 4300 
L 1125 4075 
Q 950 4425 600 4725 
Q 825 4875 925 5000 
z
" transform="scale(0.015625)"/>
       </defs>
       <use xlink:href="#SimHei-603b"/>
       <use xlink:href="#SimHei-5207" x="100"/>
       <use xlink:href="#SimHei-6362" x="200"/>
       <use xlink:href="#SimHei-6b21" x="300"/>
       <use xlink:href="#SimHei-6570" x="400"/>
      </g>
     </g>
    </g>
    <g id="xtick_2">
     <g id="line2d_2">
      <g>
       <use xlink:href="#m5a33a825a4" x="549.902289" y="387.575625" style="stroke: #000000; stroke-width: 0.8"/>
      </g>
     </g>
     <g id="text_2">
      <!-- 乒乓切换次数 -->
      <g transform="translate(519.902289 402.505313)scale(0.1 -0.1)">
       <defs>
        <path id="SimHei-4e52" d="M 4425 2825 
L 4425 1575 
L 5350 1575 
Q 5625 1575 6100 1600 
L 6100 1100 
Q 5675 1125 5325 1125 
L 975 1125 
Q 625 1125 275 1100 
L 275 1600 
Q 625 1575 975 1575 
L 1450 1575 
L 1450 3800 
Q 1450 4200 1425 4525 
Q 1975 4525 3037 4675 
Q 4100 4825 4700 5075 
Q 4900 4775 5050 4600 
Q 4350 4450 3562 4337 
Q 2775 4225 1975 4150 
L 1975 3250 
L 4650 3250 
Q 5000 3250 5625 3275 
L 5625 2800 
Q 5050 2825 4650 2825 
L 4425 2825 
z
M 3900 1575 
L 3900 2825 
L 1975 2825 
L 1975 1575 
L 3900 1575 
z
M 2650 725 
Q 2425 525 1975 150 
Q 1525 -225 900 -675 
Q 700 -375 575 -275 
Q 1575 325 2250 1100 
Q 2500 825 2650 725 
z
" transform="scale(0.015625)"/>
        <path id="SimHei-4e53" d="M 5125 4550 
Q 4425 4450 3637 4375 
Q 2850 4300 2025 4250 
L 2025 3250 
L 4700 3250 
Q 4950 3250 5650 3275 
L 5650 2850 
Q 4900 2875 4700 2875 
L 4300 2875 
L 4300 1575 
L 5300 1575 
Q 5475 1575 6125 1600 
L 6125 1125 
Q 5525 1150 5300 1150 
L 1150 1150 
Q 775 1150 300 1125 
L 300 1600 
Q 775 1575 1150 1575 
L 1525 1575 
L 1525 4025 
Q 1525 4350 1500 4650 
Q 2475 4675 3400 4775 
Q 4325 4875 4825 5050 
Q 4975 4725 5125 4550 
z
M 3800 1575 
L 3800 2875 
L 2025 2875 
L 2025 1575 
L 3800 1575 
z
M 4075 1075 
Q 4525 775 4975 412 
Q 5425 50 5800 -250 
Q 5675 -350 5425 -650 
Q 4925 -175 3750 700 
Q 3950 900 4075 1075 
z
" transform="scale(0.015625)"/>
       </defs>
       <use xlink:href="#SimHei-4e52"/>
       <use xlink:href="#SimHei-4e53" x="100"/>
       <use xlink:href="#SimHei-5207" x="200"/>
       <use xlink:href="#SimHei-6362" x="300"/>
       <use xlink:href="#SimHei-6b21" x="400"/>
       <use xlink:href="#SimHei-6570" x="500"/>
      </g>
     </g>
    </g>
    <g id="text_3">
     <!-- 指标类型 -->
     <g transform="translate(351.309375 415.724063)scale(0.1 -0.1)">
      <defs>
       <path id="SimHei-6307" d="M 5625 2225 
Q 5600 1925 5600 1350 
L 5600 300 
Q 5600 -225 5625 -525 
L 5125 -525 
L 5125 -125 
L 3300 -125 
L 3300 -625 
L 2800 -625 
Q 2825 -300 2825 300 
L 2825 1350 
Q 2825 1925 2800 2225 
L 5625 2225 
z
M 500 25 
Q 1075 -25 1175 37 
Q 1275 100 1275 275 
L 1275 1675 
Q 1050 1600 925 1537 
Q 800 1475 475 1275 
Q 400 1525 225 1800 
Q 625 1900 825 1975 
Q 1025 2050 1275 2125 
L 1275 3300 
L 1100 3300 
Q 775 3300 450 3275 
L 450 3725 
Q 750 3700 1100 3700 
L 1275 3700 
L 1275 4450 
Q 1275 4800 1250 5125 
L 1775 5125 
Q 1750 4850 1750 4450 
L 1750 3700 
Q 2075 3700 2425 3725 
L 2425 3275 
Q 2050 3300 1750 3300 
L 1750 2325 
Q 1850 2350 2025 2425 
L 2375 2575 
Q 2350 2300 2375 2100 
Q 2225 2050 2062 1987 
Q 1900 1925 1750 1850 
L 1750 100 
Q 1725 -200 1575 -337 
Q 1425 -475 675 -525 
Q 625 -250 500 25 
z
M 3325 5025 
Q 3300 4675 3300 4125 
Q 4125 4275 4512 4412 
Q 4900 4550 5225 4725 
Q 5325 4475 5575 4250 
Q 5450 4225 5237 4175 
Q 5025 4125 4725 4050 
Q 4425 3975 4037 3887 
Q 3650 3800 3300 3725 
L 3300 3175 
Q 3275 2925 3700 2925 
L 4925 2925 
Q 5300 2925 5387 3087 
Q 5475 3250 5550 3600 
Q 5750 3400 6050 3300 
Q 5825 2725 5700 2637 
Q 5575 2550 5275 2525 
L 3350 2525 
Q 3050 2525 2937 2687 
Q 2825 2850 2825 2975 
L 2825 4125 
Q 2825 4775 2800 5025 
L 3325 5025 
z
M 5125 275 
L 5125 875 
L 3300 875 
L 3300 275 
L 5125 275 
z
M 5125 1250 
L 5125 1825 
L 3300 1825 
L 3300 1250 
L 5125 1250 
z
" transform="scale(0.015625)"/>
       <path id="SimHei-6807" d="M 1275 4400 
Q 1275 4800 1250 5175 
L 1750 5175 
Q 1725 4825 1725 4400 
L 1725 3800 
Q 2125 3800 2575 3825 
L 2575 3350 
Q 2125 3375 1725 3375 
L 1725 2525 
Q 1900 2650 2075 2800 
Q 2400 2275 2650 1775 
Q 2375 1650 2175 1500 
Q 2025 2000 1725 2425 
L 1725 475 
Q 1725 -50 1750 -575 
L 1250 -575 
Q 1275 -25 1275 475 
L 1275 2100 
Q 1025 1400 500 750 
Q 350 950 125 1125 
Q 550 1550 812 2187 
Q 1075 2825 1150 3375 
Q 675 3375 325 3325 
L 325 3825 
Q 800 3800 1275 3800 
L 1275 4400 
z
M 5175 3125 
Q 5675 3125 6050 3150 
L 6050 2675 
Q 5675 2700 5275 2700 
L 4500 2700 
L 4500 175 
Q 4500 -225 4275 -350 
Q 4050 -475 3475 -550 
Q 3425 -250 3275 25 
Q 3775 25 3900 62 
Q 4025 100 4025 350 
L 4025 2700 
L 3400 2700 
Q 2775 2700 2500 2650 
L 2500 3150 
Q 2825 3125 3400 3125 
L 5175 3125 
z
M 4900 4775 
Q 5425 4775 5750 4800 
L 5750 4300 
Q 5275 4350 4750 4350 
L 3525 4350 
Q 3125 4350 2750 4300 
L 2750 4800 
Q 3100 4775 3525 4775 
L 4900 4775 
z
M 5275 2025 
Q 5825 1175 6200 500 
Q 5925 375 5650 200 
Q 5375 925 4825 1725 
Q 5075 1850 5275 2025 
z
M 3600 1775 
Q 3500 1625 3225 975 
Q 2950 325 2800 50 
Q 2575 175 2300 275 
Q 2625 775 2787 1187 
Q 2950 1600 3050 2000 
Q 3325 1875 3600 1775 
z
" transform="scale(0.015625)"/>
       <path id="SimHei-7c7b" d="M 2125 3875 
Q 1750 4375 1325 4725 
Q 1525 4875 1675 5050 
L 2525 4225 
Q 2400 4125 2200 3875 
L 3025 3875 
L 3025 4550 
Q 3025 4900 3000 5125 
L 3525 5125 
Q 3500 4850 3500 4550 
L 3500 3875 
L 4325 3875 
Q 4125 4050 4000 4150 
Q 4450 4575 4800 5175 
Q 5000 5000 5275 4825 
Q 5100 4675 4912 4475 
Q 4725 4275 4400 3875 
L 5025 3875 
Q 5425 3875 5900 3900 
L 5900 3450 
Q 5425 3475 5025 3475 
L 3500 3475 
L 3500 3050 
Q 3500 2650 3525 2175 
L 3175 2175 
Q 3475 2075 3675 2000 
Q 3575 1875 3525 1575 
L 5025 1575 
Q 5525 1575 6025 1600 
L 6025 1150 
Q 5550 1175 5050 1175 
L 3675 1175 
Q 4050 600 4712 275 
Q 5375 -50 6050 -175 
Q 5850 -350 5725 -675 
Q 4975 -450 4350 -37 
Q 3725 375 3300 950 
Q 3050 350 2425 -50 
Q 1800 -450 775 -700 
Q 650 -425 475 -225 
Q 1375 -100 2012 225 
Q 2650 550 2900 1175 
L 1625 1175 
Q 1025 1175 525 1150 
L 525 1600 
Q 950 1575 1600 1575 
L 3025 1575 
Q 3075 1825 3100 2175 
L 3000 2175 
Q 3025 2675 3025 3050 
L 3025 3325 
Q 2725 2900 2237 2550 
Q 1750 2200 925 1825 
Q 850 2025 625 2275 
Q 1175 2400 1725 2737 
Q 2275 3075 2600 3475 
L 1550 3475 
Q 1050 3475 600 3425 
L 600 3900 
Q 1075 3875 1550 3875 
L 2125 3875 
z
M 4100 3450 
Q 4850 3000 5800 2350 
Q 5575 2125 5425 1925 
Q 4700 2550 3825 3075 
Q 3975 3250 4100 3450 
z
" transform="scale(0.015625)"/>
       <path id="SimHei-578b" d="M 2625 1775 
Q 2650 2325 2650 2700 
L 2650 3000 
L 1825 3000 
Q 1725 2375 1425 2000 
Q 1125 1625 775 1425 
Q 650 1650 375 1900 
Q 850 2075 1062 2362 
Q 1275 2650 1350 3000 
Q 900 3000 375 2975 
L 375 3450 
Q 925 3425 1400 3425 
Q 1425 3950 1425 4475 
Q 1075 4475 700 4450 
L 700 4900 
Q 1050 4875 1525 4875 
L 3000 4875 
Q 3275 4875 3650 4900 
L 3650 4450 
Q 3325 4475 3125 4475 
L 3125 3425 
Q 3450 3425 3825 3450 
L 3825 2975 
Q 3450 3000 3125 3000 
L 3125 2675 
Q 3125 2225 3150 1775 
L 2625 1775 
z
M 3000 1175 
Q 3000 1375 2975 1725 
L 3500 1725 
Q 3475 1375 3475 1175 
L 4550 1175 
Q 5050 1175 5450 1200 
L 5450 725 
Q 4975 750 4550 750 
L 3475 750 
L 3475 -50 
L 5275 -50 
Q 5700 -50 6100 -25 
L 6100 -500 
Q 5725 -475 5300 -475 
L 1250 -475 
Q 775 -475 400 -500 
L 400 -25 
Q 775 -50 1250 -50 
L 3000 -50 
L 3000 750 
L 2025 750 
Q 1500 750 975 725 
L 1050 1200 
Q 1500 1175 2025 1175 
L 3000 1175 
z
M 5775 5200 
Q 5750 4775 5750 4325 
L 5750 2400 
Q 5775 1950 5612 1775 
Q 5450 1600 4900 1525 
Q 4825 1775 4675 2100 
Q 5175 2075 5237 2150 
Q 5300 2225 5300 2525 
L 5300 4325 
Q 5300 4775 5275 5200 
L 5775 5200 
z
M 4600 4750 
Q 4575 4450 4575 3975 
L 4575 3200 
Q 4575 2825 4600 2425 
L 4100 2425 
Q 4125 2825 4125 3200 
L 4125 3975 
Q 4125 4450 4100 4750 
L 4600 4750 
z
M 2650 3425 
L 2650 4475 
L 1875 4475 
Q 1850 3750 1850 3425 
L 2650 3425 
z
" transform="scale(0.015625)"/>
      </defs>
      <use xlink:href="#SimHei-6307"/>
      <use xlink:href="#SimHei-6807" x="100"/>
      <use xlink:href="#SimHei-7c7b" x="200"/>
      <use xlink:href="#SimHei-578b" x="300"/>
     </g>
    </g>
   </g>
   <g id="matplotlib.axis_2">
    <g id="ytick_1">
     <g id="line2d_3">
      <path d="M 37.340625 387.575625 
L 705.278125 387.575625 
" clip-path="url(#pd2c6967440)" style="fill: none; stroke: #b0b0b0; stroke-opacity: 0.3; stroke-width: 0.8; stroke-linecap: square"/>
     </g>
     <g id="line2d_4">
      <defs>
       <path id="md5b1584612" d="M 0 0 
L -3.5 0 
" style="stroke: #000000; stroke-width: 0.8"/>
      </defs>
      <g>
       <use xlink:href="#md5b1584612" x="37.340625" y="387.575625" style="stroke: #000000; stroke-width: 0.8"/>
      </g>
     </g>
     <g id="text_4">
      <!-- 0 -->
      <g transform="translate(25.340625 391.013125)scale(0.1 -0.1)">
       <defs>
        <path id="SimHei-30" d="M 225 2537 
Q 250 3200 412 3587 
Q 575 3975 875 4225 
Q 1175 4475 1612 4475 
Q 2050 4475 2375 4112 
Q 2700 3750 2800 3200 
Q 2900 2650 2862 1937 
Q 2825 1225 2612 775 
Q 2400 325 1975 150 
Q 1550 -25 1125 187 
Q 700 400 525 750 
Q 350 1100 275 1487 
Q 200 1875 225 2537 
z
M 750 2687 
Q 675 2000 800 1462 
Q 925 925 1212 700 
Q 1500 475 1800 612 
Q 2100 750 2237 1162 
Q 2375 1575 2375 2062 
Q 2375 2550 2337 2950 
Q 2300 3350 2112 3675 
Q 1925 4000 1612 4012 
Q 1300 4025 1062 3700 
Q 825 3375 750 2687 
z
" transform="scale(0.015625)"/>
       </defs>
       <use xlink:href="#SimHei-30"/>
      </g>
     </g>
    </g>
    <g id="ytick_2">
     <g id="line2d_5">
      <path d="M 37.340625 346.381889 
L 705.278125 346.381889 
" clip-path="url(#pd2c6967440)" style="fill: none; stroke: #b0b0b0; stroke-opacity: 0.3; stroke-width: 0.8; stroke-linecap: square"/>
     </g>
     <g id="line2d_6">
      <g>
       <use xlink:href="#md5b1584612" x="37.340625" y="346.381889" style="stroke: #000000; stroke-width: 0.8"/>
      </g>
     </g>
     <g id="text_5">
      <!-- 5 -->
      <g transform="translate(25.340625 349.819389)scale(0.1 -0.1)">
       <defs>
        <path id="SimHei-35" d="M 550 1325 
Q 725 650 1150 575 
Q 1575 500 1837 662 
Q 2100 825 2212 1087 
Q 2325 1350 2312 1675 
Q 2300 2000 2137 2225 
Q 1975 2450 1725 2525 
Q 1475 2600 1162 2525 
Q 850 2450 650 2175 
L 225 2225 
Q 275 2375 700 4375 
L 2675 4375 
L 2675 3925 
L 1075 3925 
Q 950 3250 825 2850 
Q 1200 3025 1525 3012 
Q 1850 3000 2150 2862 
Q 2450 2725 2587 2487 
Q 2725 2250 2787 2012 
Q 2850 1775 2837 1500 
Q 2825 1225 2725 937 
Q 2625 650 2425 462 
Q 2225 275 1937 162 
Q 1650 50 1275 75 
Q 900 100 562 350 
Q 225 600 100 1200 
L 550 1325 
z
" transform="scale(0.015625)"/>
       </defs>
       <use xlink:href="#SimHei-35"/>
      </g>
     </g>
    </g>
    <g id="ytick_3">
     <g id="line2d_7">
      <path d="M 37.340625 305.188153 
L 705.278125 305.188153 
" clip-path="url(#pd2c6967440)" style="fill: none; stroke: #b0b0b0; stroke-opacity: 0.3; stroke-width: 0.8; stroke-linecap: square"/>
     </g>
     <g id="line2d_8">
      <g>
       <use xlink:href="#md5b1584612" x="37.340625" y="305.188153" style="stroke: #000000; stroke-width: 0.8"/>
      </g>
     </g>
     <g id="text_6">
      <!-- 10 -->
      <g transform="translate(20.340625 308.625653)scale(0.1 -0.1)">
       <defs>
        <path id="SimHei-31" d="M 1400 3600 
Q 1075 3275 575 2975 
L 575 3450 
Q 1200 3875 1600 4450 
L 1900 4450 
L 1900 150 
L 1400 150 
L 1400 3600 
z
" transform="scale(0.015625)"/>
       </defs>
       <use xlink:href="#SimHei-31"/>
       <use xlink:href="#SimHei-30" x="50"/>
      </g>
     </g>
    </g>
    <g id="ytick_4">
     <g id="line2d_9">
      <path d="M 37.340625 263.994418 
L 705.278125 263.994418 
" clip-path="url(#pd2c6967440)" style="fill: none; stroke: #b0b0b0; stroke-opacity: 0.3; stroke-width: 0.8; stroke-linecap: square"/>
     </g>
     <g id="line2d_10">
      <g>
       <use xlink:href="#md5b1584612" x="37.340625" y="263.994418" style="stroke: #000000; stroke-width: 0.8"/>
      </g>
     </g>
     <g id="text_7">
      <!-- 15 -->
      <g transform="translate(20.340625 267.431918)scale(0.1 -0.1)">
       <use xlink:href="#SimHei-31"/>
       <use xlink:href="#SimHei-35" x="50"/>
      </g>
     </g>
    </g>
    <g id="ytick_5">
     <g id="line2d_11">
      <path d="M 37.340625 222.800682 
L 705.278125 222.800682 
" clip-path="url(#pd2c6967440)" style="fill: none; stroke: #b0b0b0; stroke-opacity: 0.3; stroke-width: 0.8; stroke-linecap: square"/>
     </g>
     <g id="line2d_12">
      <g>
       <use xlink:href="#md5b1584612" x="37.340625" y="222.800682" style="stroke: #000000; stroke-width: 0.8"/>
      </g>
     </g>
     <g id="text_8">
      <!-- 20 -->
      <g transform="translate(20.340625 226.238182)scale(0.1 -0.1)">
       <defs>
        <path id="SimHei-32" d="M 300 250 
Q 325 625 650 925 
Q 975 1225 1475 1862 
Q 1975 2500 2125 2850 
Q 2275 3200 2237 3450 
Q 2200 3700 2000 3862 
Q 1800 4025 1537 4000 
Q 1275 3975 1037 3800 
Q 800 3625 675 3275 
L 200 3350 
Q 400 3925 712 4187 
Q 1025 4450 1450 4475 
Q 1700 4500 1900 4462 
Q 2100 4425 2312 4287 
Q 2525 4150 2662 3875 
Q 2800 3600 2762 3212 
Q 2725 2825 2375 2287 
Q 2025 1750 1025 600 
L 2825 600 
L 2825 150 
L 300 150 
L 300 250 
z
" transform="scale(0.015625)"/>
       </defs>
       <use xlink:href="#SimHei-32"/>
       <use xlink:href="#SimHei-30" x="50"/>
      </g>
     </g>
    </g>
    <g id="ytick_6">
     <g id="line2d_13">
      <path d="M 37.340625 181.606946 
L 705.278125 181.606946 
" clip-path="url(#pd2c6967440)" style="fill: none; stroke: #b0b0b0; stroke-opacity: 0.3; stroke-width: 0.8; stroke-linecap: square"/>
     </g>
     <g id="line2d_14">
      <g>
       <use xlink:href="#md5b1584612" x="37.340625" y="181.606946" style="stroke: #000000; stroke-width: 0.8"/>
      </g>
     </g>
     <g id="text_9">
      <!-- 25 -->
      <g transform="translate(20.340625 185.044446)scale(0.1 -0.1)">
       <use xlink:href="#SimHei-32"/>
       <use xlink:href="#SimHei-35" x="50"/>
      </g>
     </g>
    </g>
    <g id="ytick_7">
     <g id="line2d_15">
      <path d="M 37.340625 140.41321 
L 705.278125 140.41321 
" clip-path="url(#pd2c6967440)" style="fill: none; stroke: #b0b0b0; stroke-opacity: 0.3; stroke-width: 0.8; stroke-linecap: square"/>
     </g>
     <g id="line2d_16">
      <g>
       <use xlink:href="#md5b1584612" x="37.340625" y="140.41321" style="stroke: #000000; stroke-width: 0.8"/>
      </g>
     </g>
     <g id="text_10">
      <!-- 30 -->
      <g transform="translate(20.340625 143.85071)scale(0.1 -0.1)">
       <defs>
        <path id="SimHei-33" d="M 250 1225 
L 700 1300 
Q 800 975 1025 762 
Q 1250 550 1587 562 
Q 1925 575 2125 837 
Q 2325 1100 2300 1437 
Q 2275 1775 2037 1962 
Q 1800 2150 1275 2225 
L 1275 2550 
Q 1800 2600 2037 2825 
Q 2275 3050 2250 3412 
Q 2225 3775 1925 3937 
Q 1625 4100 1287 3975 
Q 950 3850 750 3275 
L 300 3350 
Q 450 3800 712 4100 
Q 975 4400 1425 4450 
Q 1875 4500 2212 4337 
Q 2550 4175 2687 3837 
Q 2825 3500 2725 3100 
Q 2625 2700 2150 2400 
Q 2500 2250 2687 1950 
Q 2875 1650 2812 1162 
Q 2750 675 2375 375 
Q 2000 75 1525 87 
Q 1050 100 700 387 
Q 350 675 250 1225 
z
" transform="scale(0.015625)"/>
       </defs>
       <use xlink:href="#SimHei-33"/>
       <use xlink:href="#SimHei-30" x="50"/>
      </g>
     </g>
    </g>
    <g id="ytick_8">
     <g id="line2d_17">
      <path d="M 37.340625 99.219474 
L 705.278125 99.219474 
" clip-path="url(#pd2c6967440)" style="fill: none; stroke: #b0b0b0; stroke-opacity: 0.3; stroke-width: 0.8; stroke-linecap: square"/>
     </g>
     <g id="line2d_18">
      <g>
       <use xlink:href="#md5b1584612" x="37.340625" y="99.219474" style="stroke: #000000; stroke-width: 0.8"/>
      </g>
     </g>
     <g id="text_11">
      <!-- 35 -->
      <g transform="translate(20.340625 102.656974)scale(0.1 -0.1)">
       <use xlink:href="#SimHei-33"/>
       <use xlink:href="#SimHei-35" x="50"/>
      </g>
     </g>
    </g>
    <g id="ytick_9">
     <g id="line2d_19">
      <path d="M 37.340625 58.025738 
L 705.278125 58.025738 
" clip-path="url(#pd2c6967440)" style="fill: none; stroke: #b0b0b0; stroke-opacity: 0.3; stroke-width: 0.8; stroke-linecap: square"/>
     </g>
     <g id="line2d_20">
      <g>
       <use xlink:href="#md5b1584612" x="37.340625" y="58.025738" style="stroke: #000000; stroke-width: 0.8"/>
      </g>
     </g>
     <g id="text_12">
      <!-- 40 -->
      <g transform="translate(20.340625 61.463238)scale(0.1 -0.1)">
       <defs>
        <path id="SimHei-34" d="M 2000 1100 
L 75 1100 
L 75 1525 
L 2100 4450 
L 2475 4450 
L 2475 1525 
L 3075 1525 
L 3075 1100 
L 2475 1100 
L 2475 150 
L 2000 150 
L 2000 1100 
z
M 2000 1525 
L 2000 3500 
L 600 1525 
L 2000 1525 
z
" transform="scale(0.015625)"/>
       </defs>
       <use xlink:href="#SimHei-34"/>
       <use xlink:href="#SimHei-30" x="50"/>
      </g>
     </g>
    </g>
    <g id="text_13">
     <!-- 次数 -->
     <g transform="translate(15.090625 215.91125)rotate(-90)scale(0.1 -0.1)">
      <use xlink:href="#SimHei-6b21"/>
      <use xlink:href="#SimHei-6570" x="100"/>
     </g>
    </g>
   </g>
   <g id="patch_7">
    <path d="M 37.340625 387.575625 
L 37.340625 24.246875 
" style="fill: none; stroke: #000000; stroke-width: 0.8; stroke-linejoin: miter; stroke-linecap: square"/>
   </g>
   <g id="patch_8">
    <path d="M 705.278125 387.575625 
L 705.278125 24.246875 
" style="fill: none; stroke: #000000; stroke-width: 0.8; stroke-linejoin: miter; stroke-linecap: square"/>
   </g>
   <g id="patch_9">
    <path d="M 37.340625 387.575625 
L 705.278125 387.575625 
" style="fill: none; stroke: #000000; stroke-width: 0.8; stroke-linejoin: miter; stroke-linecap: square"/>
   </g>
   <g id="patch_10">
    <path d="M 37.340625 24.246875 
L 705.278125 24.246875 
" style="fill: none; stroke: #000000; stroke-width: 0.8; stroke-linejoin: miter; stroke-linecap: square"/>
   </g>
   <g id="text_14">
    <!-- 42 -->
    <g transform="translate(125.208941 38.650495)scale(0.1 -0.1)">
     <use xlink:href="#SimHei-34"/>
     <use xlink:href="#SimHei-32" x="50"/>
    </g>
   </g>
   <g id="text_15">
    <!-- 13 -->
    <g transform="translate(482.394769 277.574162)scale(0.1 -0.1)">
     <use xlink:href="#SimHei-31"/>
     <use xlink:href="#SimHei-33" x="50"/>
    </g>
   </g>
   <g id="text_16">
    <!-- 20 -->
    <g transform="translate(250.223981 219.902932)scale(0.1 -0.1)">
     <use xlink:href="#SimHei-32"/>
     <use xlink:href="#SimHei-30" x="50"/>
    </g>
   </g>
   <g id="text_17">
    <!-- 0 -->
    <g transform="translate(609.909809 384.677876)scale(0.1 -0.1)">
     <use xlink:href="#SimHei-30"/>
    </g>
   </g>
   <g id="text_18">
    <g id="patch_11">
     <path d="M 504.896875 64.82975 
L 614.896875 64.82975 
Q 617.896875 64.82975 617.896875 61.82975 
L 617.896875 41.931312 
Q 617.896875 38.931312 614.896875 38.931312 
L 504.896875 38.931312 
Q 501.896875 38.931312 501.896875 41.931312 
L 501.896875 61.82975 
Q 501.896875 64.82975 504.896875 64.82975 
z
" style="fill: #add8e6; opacity: 0.5; stroke: #000000; stroke-linejoin: miter"/>
    </g>
    <!-- 乒乓减少比例：100.00% -->
    <g transform="translate(504.896875 49.861)scale(0.1 -0.1)">
     <defs>
      <path id="SimHei-51cf" d="M 3850 4100 
Q 3825 4550 3800 5125 
Q 4075 5100 4350 5100 
Q 4300 4900 4300 4100 
L 4825 4100 
Q 5250 4100 5775 4125 
L 5775 3675 
Q 5300 3700 4850 3700 
L 4325 3700 
Q 4300 2525 4600 1525 
Q 5000 2275 5200 3175 
Q 5450 3025 5725 2950 
Q 5600 2675 5325 2050 
Q 5050 1425 4800 975 
Q 5200 200 5412 75 
Q 5625 -50 5775 700 
Q 5900 575 6200 450 
Q 6025 -100 5825 -375 
Q 5625 -650 5325 -475 
Q 5025 -300 4525 550 
Q 4025 -100 3375 -600 
Q 3200 -350 3000 -200 
Q 3650 100 4300 1050 
Q 3925 2025 3875 3700 
L 2100 3700 
L 2100 2250 
Q 2150 500 1450 -625 
Q 1250 -450 950 -350 
Q 1375 175 1525 962 
Q 1675 1750 1675 2700 
Q 1675 3650 1650 4100 
L 3850 4100 
z
M 3725 2300 
Q 3700 2000 3700 1400 
Q 3700 825 3725 600 
L 2400 600 
Q 2425 950 2425 1400 
Q 2425 1875 2400 2300 
L 3725 2300 
z
M 1600 2025 
Q 1325 1525 1050 975 
Q 775 425 650 125 
Q 400 350 175 450 
Q 475 825 712 1300 
Q 950 1775 1150 2325 
Q 1375 2150 1600 2025 
z
M 775 4450 
Q 1200 3775 1500 3275 
Q 1275 3150 1025 2950 
Q 900 3275 325 4150 
Q 575 4325 775 4450 
z
M 2375 3175 
L 3700 3175 
L 3700 2775 
L 2375 2775 
L 2375 3175 
z
M 3300 950 
L 3300 1925 
L 2825 1925 
L 2825 950 
L 3300 950 
z
M 4975 5150 
Q 5200 4925 5575 4475 
Q 5375 4325 5200 4175 
Q 4925 4575 4625 4850 
Q 4825 5025 4975 5150 
z
" transform="scale(0.015625)"/>
      <path id="SimHei-5c11" d="M 5375 1875 
Q 4775 1225 4250 775 
Q 3725 325 2937 -12 
Q 2150 -350 825 -550 
Q 750 -225 500 -50 
Q 1225 -25 2225 262 
Q 3225 550 3900 1137 
Q 4575 1725 4850 2225 
Q 5050 2000 5375 1875 
z
M 3425 5125 
Q 3400 4750 3400 4150 
L 3400 2400 
Q 3400 1950 3425 1350 
L 2875 1350 
Q 2900 1950 2900 2400 
L 2900 4150 
Q 2900 4725 2850 5125 
L 3425 5125 
z
M 2275 3875 
Q 2100 3650 1712 3112 
Q 1325 2575 775 1825 
Q 600 2025 325 2150 
Q 925 2775 1275 3312 
Q 1625 3850 1750 4175 
Q 2025 3975 2275 3875 
z
M 4400 4225 
Q 5500 3350 6025 2800 
Q 5775 2650 5600 2425 
Q 5200 2950 4050 3850 
Q 4300 4025 4400 4225 
z
" transform="scale(0.015625)"/>
      <path id="SimHei-6bd4" d="M 3775 5100 
Q 3750 4575 3750 4100 
L 3750 3050 
Q 4925 3600 5475 4175 
Q 5675 3900 5900 3675 
Q 5600 3500 5037 3187 
Q 4475 2875 3750 2550 
L 3750 450 
Q 3750 100 4050 100 
L 5000 100 
Q 5175 100 5262 250 
Q 5350 400 5450 900 
Q 5650 775 6025 675 
Q 5850 0 5650 -175 
Q 5450 -350 5225 -350 
L 3900 -350 
Q 3250 -350 3250 275 
L 3250 4000 
Q 3250 4550 3225 5100 
L 3775 5100 
z
M 1275 4975 
Q 1250 4575 1250 4000 
L 1250 3150 
L 1850 3150 
Q 2325 3150 2875 3175 
L 2875 2650 
Q 2325 2675 1850 2675 
L 1250 2675 
L 1250 475 
Q 1650 650 1962 812 
Q 2275 975 2850 1275 
Q 2900 950 2950 750 
Q 2375 475 1762 175 
Q 1150 -125 925 -325 
Q 750 -100 575 200 
Q 700 300 750 600 
L 750 3950 
Q 750 4550 725 4975 
L 1275 4975 
z
" transform="scale(0.015625)"/>
      <path id="SimHei-4f8b" d="M 3450 4725 
Q 3825 4725 4100 4750 
L 4100 4300 
Q 3825 4325 3500 4325 
L 3150 4325 
Q 3125 4025 3025 3350 
L 4050 3350 
Q 4000 2050 3612 1050 
Q 3225 50 2300 -600 
Q 2200 -400 1900 -150 
Q 2750 250 3200 1325 
Q 2975 1525 2550 1800 
Q 2700 2000 2825 2175 
Q 3200 1875 3350 1775 
Q 3500 2250 3575 2950 
L 2925 2950 
Q 2800 2425 2225 1575 
Q 2025 1775 1775 1925 
Q 2125 2275 2375 2837 
Q 2625 3400 2675 4325 
Q 2300 4325 2150 4300 
L 2150 4750 
Q 2400 4725 2800 4725 
L 3450 4725 
z
M 2050 4975 
Q 1875 4775 1550 3850 
L 1550 475 
Q 1550 -25 1575 -600 
L 1075 -600 
Q 1100 -75 1100 425 
L 1100 3000 
Q 950 2700 650 2250 
Q 550 2375 200 2625 
Q 525 2925 937 3762 
Q 1350 4600 1450 5200 
Q 1650 5075 2050 4975 
z
M 5950 5075 
Q 5900 4775 5900 4300 
L 5900 250 
Q 5900 -275 5700 -400 
Q 5500 -525 4850 -575 
Q 4825 -300 4650 50 
Q 5175 0 5300 25 
Q 5425 50 5450 300 
L 5450 4275 
Q 5450 4750 5400 5075 
L 5950 5075 
z
M 4925 4225 
Q 4875 3875 4875 3250 
L 4875 1800 
Q 4875 1200 4900 925 
L 4375 925 
Q 4425 1200 4425 1775 
L 4425 3275 
Q 4400 3850 4375 4225 
L 4925 4225 
z
" transform="scale(0.015625)"/>
      <path id="SimHei-ff1a" d="M 1200 2425 
L 2025 2425 
L 2025 1600 
L 1200 1600 
L 1200 2425 
z
M 1200 825 
L 2025 825 
L 2025 0 
L 1200 0 
L 1200 825 
z
" transform="scale(0.015625)"/>
      <path id="SimHei-2e" d="M 1075 125 
L 500 125 
L 500 675 
L 1075 675 
L 1075 125 
z
" transform="scale(0.015625)"/>
      <path id="SimHei-25" d="M 1400 3325 
Q 1400 2600 1187 2400 
Q 975 2200 775 2200 
Q 575 2200 362 2400 
Q 150 2600 150 3325 
Q 150 4050 362 4250 
Q 575 4450 775 4450 
Q 975 4450 1187 4250 
Q 1400 4050 1400 3325 
z
M 2625 4375 
L 700 75 
L 500 150 
L 2425 4450 
L 2625 4375 
z
M 2975 1200 
Q 2975 475 2762 275 
Q 2550 75 2350 75 
Q 2150 75 1937 275 
Q 1725 475 1725 1200 
Q 1725 1925 1937 2125 
Q 2150 2325 2350 2325 
Q 2550 2325 2762 2125 
Q 2975 1925 2975 1200 
z
M 1000 3325 
Q 1000 3775 950 3925 
Q 900 4075 775 4075 
Q 650 4075 600 3925 
Q 550 3775 550 3325 
Q 550 2875 600 2725 
Q 650 2575 775 2575 
Q 900 2575 950 2725 
Q 1000 2875 1000 3325 
z
M 2575 1200 
Q 2575 1650 2525 1800 
Q 2475 1950 2350 1950 
Q 2225 1950 2175 1800 
Q 2125 1650 2125 1200 
Q 2125 750 2175 600 
Q 2225 450 2350 450 
Q 2475 450 2525 600 
Q 2575 750 2575 1200 
z
" transform="scale(0.015625)"/>
     </defs>
     <use xlink:href="#SimHei-4e52"/>
     <use xlink:href="#SimHei-4e53" x="100"/>
     <use xlink:href="#SimHei-51cf" x="200"/>
     <use xlink:href="#SimHei-5c11" x="300"/>
     <use xlink:href="#SimHei-6bd4" x="400"/>
     <use xlink:href="#SimHei-4f8b" x="500"/>
     <use xlink:href="#SimHei-ff1a" x="600"/>
     <use xlink:href="#SimHei-31" x="700"/>
     <use xlink:href="#SimHei-30" x="750"/>
     <use xlink:href="#SimHei-30" x="800"/>
     <use xlink:href="#SimHei-2e" x="850"/>
     <use xlink:href="#SimHei-30" x="900"/>
     <use xlink:href="#SimHei-30" x="950"/>
     <use xlink:href="#SimHei-25" x="1000"/>
    </g>
    <!-- 总切换减少比例：52.38% -->
    <g transform="translate(504.896875 60.57975)scale(0.1 -0.1)">
     <defs>
      <path id="SimHei-38" d="M 175 1375 
Q 175 1675 325 1962 
Q 475 2250 825 2425 
Q 525 2600 425 2812 
Q 325 3025 312 3300 
Q 300 3575 387 3775 
Q 475 3975 650 4150 
Q 825 4325 1037 4387 
Q 1250 4450 1500 4450 
Q 1750 4450 1950 4400 
Q 2150 4350 2375 4187 
Q 2600 4025 2700 3725 
Q 2800 3425 2687 3025 
Q 2575 2625 2100 2400 
Q 2525 2275 2700 2012 
Q 2875 1750 2875 1375 
Q 2875 1000 2762 775 
Q 2650 550 2512 400 
Q 2375 250 2137 162 
Q 1900 75 1537 75 
Q 1175 75 912 162 
Q 650 250 475 425 
Q 300 600 237 837 
Q 175 1075 175 1375 
z
M 687 1400 
Q 675 1100 787 875 
Q 900 650 1200 587 
Q 1500 525 1825 600 
Q 2150 675 2275 950 
Q 2400 1225 2362 1500 
Q 2325 1775 2050 1962 
Q 1775 2150 1450 2125 
Q 1125 2100 912 1900 
Q 700 1700 687 1400 
z
M 775 3350 
Q 775 3100 950 2875 
Q 1125 2650 1500 2650 
Q 1875 2650 2062 2875 
Q 2250 3100 2237 3412 
Q 2225 3725 2012 3875 
Q 1800 4025 1437 4000 
Q 1075 3975 925 3787 
Q 775 3600 775 3350 
z
" transform="scale(0.015625)"/>
     </defs>
     <use xlink:href="#SimHei-603b"/>
     <use xlink:href="#SimHei-5207" x="100"/>
     <use xlink:href="#SimHei-6362" x="200"/>
     <use xlink:href="#SimHei-51cf" x="300"/>
     <use xlink:href="#SimHei-5c11" x="400"/>
     <use xlink:href="#SimHei-6bd4" x="500"/>
     <use xlink:href="#SimHei-4f8b" x="600"/>
     <use xlink:href="#SimHei-ff1a" x="700"/>
     <use xlink:href="#SimHei-35" x="800"/>
     <use xlink:href="#SimHei-32" x="850"/>
     <use xlink:href="#SimHei-2e" x="900"/>
     <use xlink:href="#SimHei-33" x="950"/>
     <use xlink:href="#SimHei-38" x="1000"/>
     <use xlink:href="#SimHei-25" x="1050"/>
    </g>
   </g>
   <g id="text_19">
    <!-- 切换次数对比 -->
    <g transform="translate(329.309375 18.246875)scale(0.14 -0.14)">
     <defs>
      <path id="SimHei-5bf9" d="M 525 4250 
Q 900 4225 1400 4225 
L 2825 4225 
Q 2575 2625 2200 1750 
Q 2825 875 3125 400 
Q 2950 275 2725 75 
Q 2200 975 1950 1300 
Q 1650 775 1350 425 
Q 1050 75 600 -350 
Q 425 -125 200 -25 
Q 625 275 975 675 
Q 1325 1075 1650 1700 
Q 1050 2425 550 2900 
Q 700 3025 900 3225 
Q 1625 2425 1875 2150 
Q 2200 3050 2300 3825 
L 1400 3825 
Q 900 3825 525 3800 
L 525 4250 
z
M 2925 3700 
Q 3525 3675 3750 3675 
L 4825 3675 
L 4825 4425 
Q 4825 4750 4775 5125 
L 5350 5125 
Q 5325 4825 5325 4375 
L 5325 3675 
Q 5575 3675 6150 3700 
L 6150 3250 
Q 5575 3275 5325 3275 
L 5325 125 
Q 5350 -350 5012 -475 
Q 4675 -600 4250 -650 
Q 4175 -350 4025 -100 
Q 4575 -100 4712 -37 
Q 4850 25 4825 325 
L 4825 3275 
L 3775 3275 
Q 3550 3275 2925 3225 
L 2925 3700 
z
M 3450 2725 
Q 3875 1975 4175 1325 
Q 3850 1200 3700 1075 
Q 3475 1750 3050 2475 
Q 3225 2550 3450 2725 
z
" transform="scale(0.015625)"/>
     </defs>
     <use xlink:href="#SimHei-5207"/>
     <use xlink:href="#SimHei-6362" x="100"/>
     <use xlink:href="#SimHei-6b21" x="200"/>
     <use xlink:href="#SimHei-6570" x="300"/>
     <use xlink:href="#SimHei-5bf9" x="400"/>
     <use xlink:href="#SimHei-6bd4" x="500"/>
    </g>
   </g>
   <g id="legend_1">
    <g id="patch_12">
     <path d="M 626.278125 60.957812 
L 698.278125 60.957812 
Q 700.278125 60.957812 700.278125 58.957812 
L 700.278125 31.246875 
Q 700.278125 29.246875 698.278125 29.246875 
L 626.278125 29.246875 
Q 624.278125 29.246875 624.278125 31.246875 
L 624.278125 58.957812 
Q 624.278125 60.957812 626.278125 60.957812 
z
" style="fill: #ffffff; opacity: 0.8; stroke: #cccccc; stroke-linejoin: miter"/>
    </g>
    <g id="patch_13">
     <path d="M 628.278125 41.371875 
L 648.278125 41.371875 
L 648.278125 34.371875 
L 628.278125 34.371875 
z
" style="fill: #ffa500; opacity: 0.8"/>
    </g>
    <g id="text_20">
     <!-- 传统规则 -->
     <g transform="translate(656.278125 41.371875)scale(0.1 -0.1)">
      <defs>
       <path id="SimHei-4f20" d="M 5500 1975 
Q 5025 925 4700 250 
Q 4975 100 5450 -200 
Q 5300 -375 5125 -675 
Q 4700 -375 4012 12 
Q 3325 400 3050 525 
Q 3175 750 3275 950 
Q 3600 800 4275 475 
Q 4525 975 4750 1550 
L 2800 1550 
Q 2950 2000 3125 2650 
L 2575 2650 
Q 2200 2650 1925 2625 
L 1925 3075 
Q 2250 3050 2600 3050 
L 3200 3050 
Q 3300 3525 3350 3825 
L 2975 3825 
Q 2525 3825 2250 3800 
L 2250 4250 
Q 2550 4225 2950 4225 
L 3425 4225 
Q 3525 4950 3525 5225 
Q 3850 5150 4100 5125 
Q 4025 5000 3875 4225 
L 4950 4225 
Q 5350 4225 5700 4250 
L 5700 3800 
Q 5375 3825 4925 3825 
L 3825 3825 
Q 3775 3550 3675 3050 
L 5250 3050 
Q 5750 3050 6025 3075 
L 6025 2625 
Q 5725 2650 5250 2650 
L 3600 2650 
Q 3500 2250 3425 1975 
L 5500 1975 
z
M 2225 4875 
Q 2025 4675 1650 3750 
L 1650 550 
Q 1650 -25 1675 -525 
L 1125 -525 
Q 1175 -125 1175 525 
L 1175 3000 
Q 800 2400 550 2050 
Q 450 2250 200 2450 
Q 500 2800 925 3525 
Q 1350 4250 1625 5175 
Q 1850 5050 2225 4875 
z
" transform="scale(0.015625)"/>
       <path id="SimHei-7edf" d="M 5150 4300 
Q 5525 4300 5950 4325 
L 5950 3875 
Q 5550 3900 5175 3900 
L 3775 3900 
Q 3975 3750 4250 3600 
Q 4050 3450 3837 3162 
Q 3625 2875 3225 2375 
Q 3800 2375 5025 2500 
Q 4925 2625 4625 2975 
Q 4850 3100 5025 3250 
Q 5450 2800 5950 2100 
Q 5700 1950 5525 1775 
Q 5375 1975 5275 2125 
Q 4925 2100 4825 2075 
L 4825 200 
Q 4825 -100 5075 -100 
L 5325 -100 
Q 5550 -100 5625 575 
Q 5850 400 6150 325 
Q 5925 -525 5525 -525 
L 4850 -525 
Q 4350 -525 4350 0 
L 4350 2025 
Q 4000 2000 3875 1975 
Q 3900 1050 3637 462 
Q 3375 -125 2625 -700 
Q 2500 -500 2175 -375 
Q 2575 -125 2850 175 
Q 3125 475 3275 850 
Q 3425 1225 3400 1925 
Q 3025 1900 2725 1825 
Q 2650 2200 2525 2475 
Q 2825 2500 3187 2975 
Q 3550 3450 3675 3900 
L 3275 3900 
Q 2950 3900 2475 3875 
L 2475 4325 
Q 2875 4300 3250 4300 
L 5150 4300 
z
M 1875 4825 
Q 1700 4600 1500 4250 
Q 1300 3900 900 3250 
Q 1375 3275 1650 3275 
Q 1850 3625 1975 3975 
Q 2250 3800 2550 3675 
Q 2375 3500 2075 3037 
Q 1775 2575 1225 1725 
Q 1950 1800 2500 1900 
Q 2375 1600 2375 1425 
Q 2150 1400 1587 1325 
Q 1025 1250 600 1125 
Q 525 1375 425 1625 
Q 700 1700 950 2075 
Q 1200 2450 1450 2900 
Q 1225 2875 925 2837 
Q 625 2800 425 2750 
Q 325 3000 200 3225 
Q 500 3300 862 4025 
Q 1225 4750 1275 5075 
Q 1575 4925 1875 4825 
z
M 2550 825 
Q 2525 575 2550 350 
Q 1975 200 1412 37 
Q 850 -125 550 -250 
Q 450 0 275 275 
Q 900 375 1450 500 
Q 2000 625 2550 825 
z
M 4100 5275 
Q 4375 4825 4500 4575 
Q 4325 4500 4025 4350 
Q 3825 4825 3650 5075 
Q 3950 5175 4100 5275 
z
" transform="scale(0.015625)"/>
       <path id="SimHei-89c4" d="M 1875 1725 
Q 2475 1275 3000 825 
Q 2800 600 2625 375 
Q 2275 850 1750 1250 
Q 1575 850 1312 387 
Q 1050 -75 700 -525 
Q 500 -275 200 -150 
Q 525 75 787 450 
Q 1050 825 1237 1287 
Q 1425 1750 1450 2250 
L 1225 2250 
Q 850 2250 400 2225 
L 400 2675 
Q 850 2650 1250 2650 
L 1475 2650 
L 1475 3725 
Q 975 3725 650 3700 
L 650 4150 
Q 1000 4125 1475 4125 
Q 1475 4975 1450 5300 
Q 1725 5275 2050 5225 
Q 1950 5075 1937 4737 
Q 1925 4400 1925 4125 
Q 2475 4125 2700 4150 
L 2700 3700 
Q 2400 3725 1925 3725 
L 1925 2650 
Q 2600 2650 2825 2675 
L 2825 2225 
Q 2600 2250 1900 2250 
Q 1900 2050 1875 1725 
z
M 4675 3700 
Q 4600 3400 4550 2775 
Q 4500 2150 4425 1675 
L 4850 1675 
Q 4825 1425 4825 1000 
L 4825 300 
Q 4825 -25 4987 -75 
Q 5150 -125 5325 -112 
Q 5500 -100 5562 25 
Q 5625 150 5700 675 
Q 5900 500 6200 400 
Q 6000 -275 5862 -412 
Q 5725 -550 5400 -550 
L 4925 -550 
Q 4375 -550 4375 25 
L 4375 1550 
Q 4275 1175 4112 875 
Q 3950 575 3562 200 
Q 3175 -175 2375 -625 
Q 2225 -400 1950 -225 
Q 2725 100 3187 525 
Q 3650 950 3837 1375 
Q 4025 1800 4075 2462 
Q 4125 3125 4125 3800 
Q 4450 3725 4675 3700 
z
M 5700 4875 
Q 5675 4475 5675 3275 
Q 5675 2075 5700 1575 
L 5225 1575 
L 5225 4450 
L 3450 4450 
L 3450 1550 
L 3000 1550 
Q 3025 2125 3025 3275 
Q 3025 4425 3000 4875 
L 5700 4875 
z
" transform="scale(0.015625)"/>
       <path id="SimHei-5219" d="M 3350 4875 
Q 3325 4475 3325 4025 
L 3325 2275 
Q 3325 1750 3350 1325 
L 2825 1325 
L 2825 4450 
L 1150 4450 
L 1150 1300 
L 600 1300 
Q 625 1725 625 2175 
L 625 4000 
Q 625 4525 600 4875 
L 3350 4875 
z
M 5775 5225 
Q 5750 4875 5750 4475 
L 5750 -25 
Q 5750 -425 5537 -512 
Q 5325 -600 4775 -675 
Q 4700 -375 4575 -75 
Q 5025 -75 5137 -50 
Q 5250 -25 5250 300 
L 5250 4475 
Q 5250 4875 5225 5225 
L 5775 5225 
z
M 2300 3825 
Q 2225 3525 2212 3187 
Q 2200 2850 2187 2237 
Q 2175 1625 2000 1137 
Q 1825 650 1600 325 
Q 1375 0 725 -525 
Q 500 -300 225 -100 
Q 825 175 1137 575 
Q 1450 975 1575 1487 
Q 1700 2000 1700 2575 
Q 1700 3150 1675 3875 
Q 1950 3825 2300 3825 
z
M 4600 4450 
Q 4575 4175 4575 3825 
L 4575 1675 
Q 4575 1175 4600 775 
L 4050 775 
Q 4075 1200 4075 1675 
L 4075 3825 
Q 4075 4125 4050 4450 
L 4600 4450 
z
M 2450 1025 
Q 2775 775 3062 537 
Q 3350 300 3575 100 
Q 3400 -25 3200 -300 
Q 2900 0 2650 225 
Q 2400 450 2125 650 
Q 2300 825 2450 1025 
z
" transform="scale(0.015625)"/>
      </defs>
      <use xlink:href="#SimHei-4f20"/>
      <use xlink:href="#SimHei-7edf" x="100"/>
      <use xlink:href="#SimHei-89c4" x="200"/>
      <use xlink:href="#SimHei-5219" x="300"/>
     </g>
    </g>
    <g id="patch_14">
     <path d="M 628.278125 55.707812 
L 648.278125 55.707812 
L 648.278125 48.707812 
L 628.278125 48.707812 
z
" style="fill: #008000; opacity: 0.8"/>
    </g>
    <g id="text_21">
     <!-- 改进规则 -->
     <g transform="translate(656.278125 55.707812)scale(0.1 -0.1)">
      <defs>
       <path id="SimHei-6539" d="M 4600 900 
Q 4850 575 5337 250 
Q 5825 -75 6175 -200 
Q 6000 -325 5775 -675 
Q 5450 -475 5087 -200 
Q 4725 75 4275 525 
Q 3850 125 3387 -150 
Q 2925 -425 2350 -675 
Q 2250 -450 2000 -225 
Q 2525 -75 3087 225 
Q 3650 525 4025 950 
Q 3825 1250 3600 1675 
Q 3375 2100 3175 2500 
L 3050 2325 
Q 2800 2500 2650 2600 
Q 2900 2900 3237 3562 
Q 3575 4225 3800 5125 
Q 4100 4975 4350 4950 
Q 4200 4700 4075 4387 
Q 3950 4075 3825 3775 
L 5075 3775 
Q 5600 3775 5950 3800 
L 5950 3350 
Q 5700 3375 5300 3375 
Q 5150 1850 4600 900 
z
M 2600 4500 
Q 2575 3925 2575 3350 
Q 2575 2775 2600 2275 
L 1125 2275 
L 1125 325 
Q 2050 825 2500 1175 
Q 2550 875 2650 700 
Q 2175 425 1725 150 
Q 1275 -125 800 -450 
Q 650 -225 450 -25 
Q 675 175 650 500 
L 650 1875 
Q 650 2225 625 2675 
L 2125 2675 
L 2125 4100 
L 1300 4100 
Q 875 4100 425 4075 
L 425 4525 
Q 875 4500 1300 4500 
L 2600 4500 
z
M 3200 2575 
Q 3425 2650 3575 2750 
Q 3750 2325 3950 1937 
Q 4150 1550 4325 1300 
Q 4725 2050 4825 3375 
L 3675 3375 
Q 3450 2975 3200 2575 
z
" transform="scale(0.015625)"/>
       <path id="SimHei-8fdb" d="M 4400 4100 
Q 4400 4600 4375 5200 
L 4900 5200 
Q 4875 4900 4875 4100 
Q 5400 4100 5900 4125 
L 5900 3650 
Q 5400 3675 4875 3675 
L 4875 2575 
Q 5475 2575 6025 2600 
L 6025 2125 
Q 5475 2150 4875 2150 
L 4875 1125 
Q 4875 700 4900 250 
L 4375 250 
Q 4375 700 4400 1125 
L 4400 2150 
L 3450 2150 
Q 3350 1475 3162 1050 
Q 2975 625 2600 200 
Q 2350 400 2125 525 
Q 2600 950 2750 1312 
Q 2900 1675 2975 2150 
Q 2400 2150 1975 2125 
L 1975 2600 
Q 2425 2575 3025 2575 
Q 3075 3150 3075 3675 
Q 2575 3675 2100 3625 
L 2100 4125 
Q 2575 4100 3100 4100 
Q 3100 4675 3075 5200 
Q 3325 5175 3600 5150 
Q 3575 4825 3550 4100 
L 4400 4100 
z
M 1600 3125 
Q 1550 2575 1550 2200 
L 1550 625 
Q 2275 125 3100 37 
Q 3925 -50 4712 -25 
Q 5500 0 6125 100 
Q 6000 -200 5975 -525 
Q 4775 -525 4012 -500 
Q 3250 -475 2612 -312 
Q 1975 -150 1650 37 
Q 1325 225 1087 37 
Q 850 -150 575 -450 
Q 425 -225 200 -50 
Q 800 400 1075 575 
L 1075 2700 
Q 800 2700 375 2650 
L 375 3150 
Q 875 3125 1125 3125 
L 1600 3125 
z
M 4400 2575 
L 4400 3675 
L 3550 3675 
Q 3525 3150 3475 2575 
L 4400 2575 
z
M 1200 5050 
Q 1600 4250 1700 3925 
Q 1425 3875 1200 3725 
Q 1125 4175 700 4850 
L 1200 5050 
z
" transform="scale(0.015625)"/>
      </defs>
      <use xlink:href="#SimHei-6539"/>
      <use xlink:href="#SimHei-8fdb" x="100"/>
      <use xlink:href="#SimHei-89c4" x="200"/>
      <use xlink:href="#SimHei-5219" x="300"/>
     </g>
    </g>
   </g>
  </g>
 </g>
 <defs>
  <clipPath id="pd2c6967440">
   <rect x="37.340625" y="24.246875" width="667.9375" height="363.32875"/>
  </clipPath>
 </defs>
</svg>
