<?xml version="1.0" encoding="utf-8" standalone="no"?>
<!DOCTYPE svg PUBLIC "-//W3C//DTD SVG 1.1//EN"
  "http://www.w3.org/Graphics/SVG/1.1/DTD/svg11.dtd">
<svg xmlns:xlink="http://www.w3.org/1999/xlink" width="856.324062pt" height="424.11375pt" viewBox="0 0 856.324062 424.11375" xmlns="http://www.w3.org/2000/svg" version="1.1">
 <metadata>
  <rdf:RDF xmlns:dc="http://purl.org/dc/elements/1.1/" xmlns:cc="http://creativecommons.org/ns#" xmlns:rdf="http://www.w3.org/1999/02/22-rdf-syntax-ns#">
   <cc:Work>
    <dc:type rdf:resource="http://purl.org/dc/dcmitype/StillImage"/>
    <dc:date>2025-12-17T20:16:03.306200</dc:date>
    <dc:format>image/svg+xml</dc:format>
    <dc:creator>
     <cc:Agent>
      <dc:title>Matplotlib v3.5.0, https://matplotlib.org/</dc:title>
     </cc:Agent>
    </dc:creator>
   </cc:Work>
  </rdf:RDF>
 </metadata>
 <defs>
  <style type="text/css">*{stroke-linejoin: round; stroke-linecap: butt}</style>
 </defs>
 <g id="figure_1">
  <g id="patch_1">
   <path d="M 0 424.11375 
L 856.324062 424.11375 
L 856.324062 0 
L 0 0 
z
" style="fill: #ffffff"/>
  </g>
  <g id="axes_1">
   <g id="patch_2">
    <path d="M 47.457813 388.491875 
L 849.124063 388.491875 
L 849.124063 24.465625 
L 47.457813 24.465625 
z
" style="fill: #ffffff"/>
   </g>
   <g id="matplotlib.axis_1">
    <g id="xtick_1">
     <g id="line2d_1">
      <path d="M 83.897188 388.491875 
L 83.897188 24.465625 
" clip-path="url(#pf6dbf4d9ea)" style="fill: none; stroke: #b0b0b0; stroke-opacity: 0.3; stroke-width: 0.8; stroke-linecap: square"/>
     </g>
     <g id="line2d_2">
      <defs>
       <path id="mf831520904" d="M 0 0 
L 0 3.5 
" style="stroke: #000000; stroke-width: 0.8"/>
      </defs>
      <g>
       <use xlink:href="#mf831520904" x="83.897188" y="388.491875" style="stroke: #000000; stroke-width: 0.8"/>
      </g>
     </g>
     <g id="text_1">
      <!-- 0 -->
      <g transform="translate(81.397188 402.366875)scale(0.1 -0.1)">
       <defs>
        <path id="SimHei-30" d="M 225 2537 
Q 250 3200 412 3587 
Q 575 3975 875 4225 
Q 1175 4475 1612 4475 
Q 2050 4475 2375 4112 
Q 2700 3750 2800 3200 
Q 2900 2650 2862 1937 
Q 2825 1225 2612 775 
Q 2400 325 1975 150 
Q 1550 -25 1125 187 
Q 700 400 525 750 
Q 350 1100 275 1487 
Q 200 1875 225 2537 
z
M 750 2687 
Q 675 2000 800 1462 
Q 925 925 1212 700 
Q 1500 475 1800 612 
Q 2100 750 2237 1162 
Q 2375 1575 2375 2062 
Q 2375 2550 2337 2950 
Q 2300 3350 2112 3675 
Q 1925 4000 1612 4012 
Q 1300 4025 1062 3700 
Q 825 3375 750 2687 
z
" transform="scale(0.015625)"/>
       </defs>
       <use xlink:href="#SimHei-30"/>
      </g>
     </g>
    </g>
    <g id="xtick_2">
     <g id="line2d_3">
      <path d="M 229.946787 388.491875 
L 229.946787 24.465625 
" clip-path="url(#pf6dbf4d9ea)" style="fill: none; stroke: #b0b0b0; stroke-opacity: 0.3; stroke-width: 0.8; stroke-linecap: square"/>
     </g>
     <g id="line2d_4">
      <g>
       <use xlink:href="#mf831520904" x="229.946787" y="388.491875" style="stroke: #000000; stroke-width: 0.8"/>
      </g>
     </g>
     <g id="text_2">
      <!-- 100 -->
      <g transform="translate(222.446787 402.366875)scale(0.1 -0.1)">
       <defs>
        <path id="SimHei-31" d="M 1400 3600 
Q 1075 3275 575 2975 
L 575 3450 
Q 1200 3875 1600 4450 
L 1900 4450 
L 1900 150 
L 1400 150 
L 1400 3600 
z
" transform="scale(0.015625)"/>
       </defs>
       <use xlink:href="#SimHei-31"/>
       <use xlink:href="#SimHei-30" x="50"/>
       <use xlink:href="#SimHei-30" x="100"/>
      </g>
     </g>
    </g>
    <g id="xtick_3">
     <g id="line2d_5">
      <path d="M 375.996386 388.491875 
L 375.996386 24.465625 
" clip-path="url(#pf6dbf4d9ea)" style="fill: none; stroke: #b0b0b0; stroke-opacity: 0.3; stroke-width: 0.8; stroke-linecap: square"/>
     </g>
     <g id="line2d_6">
      <g>
       <use xlink:href="#mf831520904" x="375.996386" y="388.491875" style="stroke: #000000; stroke-width: 0.8"/>
      </g>
     </g>
     <g id="text_3">
      <!-- 200 -->
      <g transform="translate(368.496386 402.366875)scale(0.1 -0.1)">
       <defs>
        <path id="SimHei-32" d="M 300 250 
Q 325 625 650 925 
Q 975 1225 1475 1862 
Q 1975 2500 2125 2850 
Q 2275 3200 2237 3450 
Q 2200 3700 2000 3862 
Q 1800 4025 1537 4000 
Q 1275 3975 1037 3800 
Q 800 3625 675 3275 
L 200 3350 
Q 400 3925 712 4187 
Q 1025 4450 1450 4475 
Q 1700 4500 1900 4462 
Q 2100 4425 2312 4287 
Q 2525 4150 2662 3875 
Q 2800 3600 2762 3212 
Q 2725 2825 2375 2287 
Q 2025 1750 1025 600 
L 2825 600 
L 2825 150 
L 300 150 
L 300 250 
z
" transform="scale(0.015625)"/>
       </defs>
       <use xlink:href="#SimHei-32"/>
       <use xlink:href="#SimHei-30" x="50"/>
       <use xlink:href="#SimHei-30" x="100"/>
      </g>
     </g>
    </g>
    <g id="xtick_4">
     <g id="line2d_7">
      <path d="M 522.045985 388.491875 
L 522.045985 24.465625 
" clip-path="url(#pf6dbf4d9ea)" style="fill: none; stroke: #b0b0b0; stroke-opacity: 0.3; stroke-width: 0.8; stroke-linecap: square"/>
     </g>
     <g id="line2d_8">
      <g>
       <use xlink:href="#mf831520904" x="522.045985" y="388.491875" style="stroke: #000000; stroke-width: 0.8"/>
      </g>
     </g>
     <g id="text_4">
      <!-- 300 -->
      <g transform="translate(514.545985 402.366875)scale(0.1 -0.1)">
       <defs>
        <path id="SimHei-33" d="M 250 1225 
L 700 1300 
Q 800 975 1025 762 
Q 1250 550 1587 562 
Q 1925 575 2125 837 
Q 2325 1100 2300 1437 
Q 2275 1775 2037 1962 
Q 1800 2150 1275 2225 
L 1275 2550 
Q 1800 2600 2037 2825 
Q 2275 3050 2250 3412 
Q 2225 3775 1925 3937 
Q 1625 4100 1287 3975 
Q 950 3850 750 3275 
L 300 3350 
Q 450 3800 712 4100 
Q 975 4400 1425 4450 
Q 1875 4500 2212 4337 
Q 2550 4175 2687 3837 
Q 2825 3500 2725 3100 
Q 2625 2700 2150 2400 
Q 2500 2250 2687 1950 
Q 2875 1650 2812 1162 
Q 2750 675 2375 375 
Q 2000 75 1525 87 
Q 1050 100 700 387 
Q 350 675 250 1225 
z
" transform="scale(0.015625)"/>
       </defs>
       <use xlink:href="#SimHei-33"/>
       <use xlink:href="#SimHei-30" x="50"/>
       <use xlink:href="#SimHei-30" x="100"/>
      </g>
     </g>
    </g>
    <g id="xtick_5">
     <g id="line2d_9">
      <path d="M 668.095584 388.491875 
L 668.095584 24.465625 
" clip-path="url(#pf6dbf4d9ea)" style="fill: none; stroke: #b0b0b0; stroke-opacity: 0.3; stroke-width: 0.8; stroke-linecap: square"/>
     </g>
     <g id="line2d_10">
      <g>
       <use xlink:href="#mf831520904" x="668.095584" y="388.491875" style="stroke: #000000; stroke-width: 0.8"/>
      </g>
     </g>
     <g id="text_5">
      <!-- 400 -->
      <g transform="translate(660.595584 402.366875)scale(0.1 -0.1)">
       <defs>
        <path id="SimHei-34" d="M 2000 1100 
L 75 1100 
L 75 1525 
L 2100 4450 
L 2475 4450 
L 2475 1525 
L 3075 1525 
L 3075 1100 
L 2475 1100 
L 2475 150 
L 2000 150 
L 2000 1100 
z
M 2000 1525 
L 2000 3500 
L 600 1525 
L 2000 1525 
z
" transform="scale(0.015625)"/>
       </defs>
       <use xlink:href="#SimHei-34"/>
       <use xlink:href="#SimHei-30" x="50"/>
       <use xlink:href="#SimHei-30" x="100"/>
      </g>
     </g>
    </g>
    <g id="xtick_6">
     <g id="line2d_11">
      <path d="M 814.145183 388.491875 
L 814.145183 24.465625 
" clip-path="url(#pf6dbf4d9ea)" style="fill: none; stroke: #b0b0b0; stroke-opacity: 0.3; stroke-width: 0.8; stroke-linecap: square"/>
     </g>
     <g id="line2d_12">
      <g>
       <use xlink:href="#mf831520904" x="814.145183" y="388.491875" style="stroke: #000000; stroke-width: 0.8"/>
      </g>
     </g>
     <g id="text_6">
      <!-- 500 -->
      <g transform="translate(806.645183 402.366875)scale(0.1 -0.1)">
       <defs>
        <path id="SimHei-35" d="M 550 1325 
Q 725 650 1150 575 
Q 1575 500 1837 662 
Q 2100 825 2212 1087 
Q 2325 1350 2312 1675 
Q 2300 2000 2137 2225 
Q 1975 2450 1725 2525 
Q 1475 2600 1162 2525 
Q 850 2450 650 2175 
L 225 2225 
Q 275 2375 700 4375 
L 2675 4375 
L 2675 3925 
L 1075 3925 
Q 950 3250 825 2850 
Q 1200 3025 1525 3012 
Q 1850 3000 2150 2862 
Q 2450 2725 2587 2487 
Q 2725 2250 2787 2012 
Q 2850 1775 2837 1500 
Q 2825 1225 2725 937 
Q 2625 650 2425 462 
Q 2225 275 1937 162 
Q 1650 50 1275 75 
Q 900 100 562 350 
Q 225 600 100 1200 
L 550 1325 
z
" transform="scale(0.015625)"/>
       </defs>
       <use xlink:href="#SimHei-35"/>
       <use xlink:href="#SimHei-30" x="50"/>
       <use xlink:href="#SimHei-30" x="100"/>
      </g>
     </g>
    </g>
    <g id="text_7">
     <!-- 时间步 -->
     <g transform="translate(433.290937 415.66375)scale(0.1 -0.1)">
      <defs>
       <path id="SimHei-65f6" d="M 2525 4575 
Q 2500 3675 2500 2400 
Q 2500 1125 2525 400 
L 2000 400 
L 2000 875 
L 1000 875 
L 1000 50 
L 475 50 
Q 500 1200 500 2350 
Q 500 3525 475 4575 
L 2525 4575 
z
M 4875 3825 
Q 4875 4575 4850 5225 
L 5400 5225 
Q 5375 4575 5375 3825 
Q 5750 3825 6175 3850 
L 6175 3375 
Q 5750 3400 5375 3400 
L 5375 50 
Q 5375 -325 5075 -425 
Q 4775 -525 4300 -575 
Q 4300 -275 4025 0 
Q 4500 -50 4687 -25 
Q 4875 0 4875 300 
L 4875 3400 
Q 3625 3400 2775 3375 
L 2775 3850 
Q 3575 3825 4875 3825 
z
M 2000 1300 
L 2000 2550 
L 1000 2550 
L 1000 1300 
L 2000 1300 
z
M 2000 2975 
L 2000 4150 
L 1000 4150 
L 1000 2975 
L 2000 2975 
z
M 3550 2725 
Q 3875 2200 4175 1600 
Q 3925 1525 3650 1375 
Q 3450 1975 3075 2500 
Q 3300 2600 3550 2725 
z
" transform="scale(0.015625)"/>
       <path id="SimHei-95f4" d="M 4450 3550 
Q 4425 3075 4425 2725 
L 4425 1400 
Q 4425 1075 4450 625 
L 1925 625 
Q 1950 1075 1950 1425 
L 1950 2725 
Q 1950 3075 1925 3550 
L 4450 3550 
z
M 5800 4875 
Q 5775 4400 5775 3925 
L 5775 250 
Q 5800 -325 5462 -450 
Q 5125 -575 4725 -625 
Q 4700 -325 4525 -25 
Q 5000 -50 5137 25 
Q 5275 100 5275 350 
L 5275 4450 
L 3775 4450 
Q 3175 4450 2650 4425 
L 2650 4900 
Q 3175 4875 3775 4875 
L 5800 4875 
z
M 550 -525 
Q 600 -25 600 525 
L 600 3150 
Q 600 3675 550 4025 
L 1125 4025 
Q 1100 3650 1100 3300 
L 1100 500 
Q 1100 0 1125 -525 
L 550 -525 
z
M 3950 1025 
L 3950 1950 
L 2425 1950 
L 2425 1025 
L 3950 1025 
z
M 3950 2350 
L 3950 3150 
L 2425 3150 
L 2425 2350 
L 3950 2350 
z
M 1525 5300 
Q 1750 5000 2225 4350 
Q 1950 4225 1700 4075 
Q 1450 4575 1075 5025 
Q 1350 5225 1525 5300 
z
" transform="scale(0.015625)"/>
       <path id="SimHei-6b65" d="M 4800 4250 
Q 5150 4250 5550 4275 
L 5550 3825 
Q 5150 3850 4800 3850 
L 3700 3850 
L 3700 3000 
L 5125 3000 
Q 5675 3000 6100 3025 
L 6100 2550 
Q 5675 2575 5125 2575 
L 1475 2575 
Q 1050 2575 475 2525 
L 475 3025 
Q 1050 3000 1475 3000 
L 1725 3000 
L 1725 3775 
Q 1725 4225 1700 4500 
L 2225 4500 
Q 2200 4175 2200 3775 
L 2200 3000 
L 3225 3000 
Q 3225 4750 3200 5100 
L 3725 5100 
Q 3700 4750 3700 4250 
L 4800 4250 
z
M 3725 2400 
Q 3700 1975 3700 1600 
L 3700 450 
Q 4250 750 4725 1225 
Q 5200 1700 5400 2050 
Q 5650 1825 5900 1700 
Q 5675 1475 5362 1150 
Q 5050 825 4537 437 
Q 4025 50 3212 -225 
Q 2400 -500 800 -650 
Q 725 -400 500 -150 
Q 1275 -150 2100 -25 
Q 2925 100 3225 275 
L 3225 1600 
Q 3225 1975 3200 2400 
L 3725 2400 
z
M 2600 1875 
Q 2275 1600 1975 1275 
Q 1675 950 1075 400 
Q 875 600 700 725 
Q 1175 1075 1562 1512 
Q 1950 1950 2125 2200 
Q 2325 2025 2600 1875 
z
" transform="scale(0.015625)"/>
      </defs>
      <use xlink:href="#SimHei-65f6"/>
      <use xlink:href="#SimHei-95f4" x="100"/>
      <use xlink:href="#SimHei-6b65" x="200"/>
     </g>
    </g>
   </g>
   <g id="matplotlib.axis_2">
    <g id="ytick_1">
     <g id="line2d_13">
      <path d="M 47.457813 371.945227 
L 849.124063 371.945227 
" clip-path="url(#pf6dbf4d9ea)" style="fill: none; stroke: #b0b0b0; stroke-opacity: 0.3; stroke-width: 0.8; stroke-linecap: square"/>
     </g>
     <g id="line2d_14">
      <defs>
       <path id="meb1254719e" d="M 0 0 
L -3.5 0 
" style="stroke: #000000; stroke-width: 0.8"/>
      </defs>
      <g>
       <use xlink:href="#meb1254719e" x="47.457813" y="371.945227" style="stroke: #000000; stroke-width: 0.8"/>
      </g>
     </g>
     <g id="text_8">
      <!-- -140 -->
      <g transform="translate(20.457813 375.382727)scale(0.1 -0.1)">
       <defs>
        <path id="SimHei-2d" d="M 2975 2125 
L 125 2125 
L 125 2525 
L 2975 2525 
L 2975 2125 
z
" transform="scale(0.015625)"/>
       </defs>
       <use xlink:href="#SimHei-2d"/>
       <use xlink:href="#SimHei-31" x="50"/>
       <use xlink:href="#SimHei-34" x="100"/>
       <use xlink:href="#SimHei-30" x="150"/>
      </g>
     </g>
    </g>
    <g id="ytick_2">
     <g id="line2d_15">
      <path d="M 47.457813 330.578608 
L 849.124063 330.578608 
" clip-path="url(#pf6dbf4d9ea)" style="fill: none; stroke: #b0b0b0; stroke-opacity: 0.3; stroke-width: 0.8; stroke-linecap: square"/>
     </g>
     <g id="line2d_16">
      <g>
       <use xlink:href="#meb1254719e" x="47.457813" y="330.578608" style="stroke: #000000; stroke-width: 0.8"/>
      </g>
     </g>
     <g id="text_9">
      <!-- -130 -->
      <g transform="translate(20.457813 334.016108)scale(0.1 -0.1)">
       <use xlink:href="#SimHei-2d"/>
       <use xlink:href="#SimHei-31" x="50"/>
       <use xlink:href="#SimHei-33" x="100"/>
       <use xlink:href="#SimHei-30" x="150"/>
      </g>
     </g>
    </g>
    <g id="ytick_3">
     <g id="line2d_17">
      <path d="M 47.457813 289.211989 
L 849.124063 289.211989 
" clip-path="url(#pf6dbf4d9ea)" style="fill: none; stroke: #b0b0b0; stroke-opacity: 0.3; stroke-width: 0.8; stroke-linecap: square"/>
     </g>
     <g id="line2d_18">
      <g>
       <use xlink:href="#meb1254719e" x="47.457813" y="289.211989" style="stroke: #000000; stroke-width: 0.8"/>
      </g>
     </g>
     <g id="text_10">
      <!-- -120 -->
      <g transform="translate(20.457813 292.649489)scale(0.1 -0.1)">
       <use xlink:href="#SimHei-2d"/>
       <use xlink:href="#SimHei-31" x="50"/>
       <use xlink:href="#SimHei-32" x="100"/>
       <use xlink:href="#SimHei-30" x="150"/>
      </g>
     </g>
    </g>
    <g id="ytick_4">
     <g id="line2d_19">
      <path d="M 47.457813 247.845369 
L 849.124063 247.845369 
" clip-path="url(#pf6dbf4d9ea)" style="fill: none; stroke: #b0b0b0; stroke-opacity: 0.3; stroke-width: 0.8; stroke-linecap: square"/>
     </g>
     <g id="line2d_20">
      <g>
       <use xlink:href="#meb1254719e" x="47.457813" y="247.845369" style="stroke: #000000; stroke-width: 0.8"/>
      </g>
     </g>
     <g id="text_11">
      <!-- -110 -->
      <g transform="translate(20.457813 251.282869)scale(0.1 -0.1)">
       <use xlink:href="#SimHei-2d"/>
       <use xlink:href="#SimHei-31" x="50"/>
       <use xlink:href="#SimHei-31" x="100"/>
       <use xlink:href="#SimHei-30" x="150"/>
      </g>
     </g>
    </g>
    <g id="ytick_5">
     <g id="line2d_21">
      <path d="M 47.457813 206.47875 
L 849.124063 206.47875 
" clip-path="url(#pf6dbf4d9ea)" style="fill: none; stroke: #b0b0b0; stroke-opacity: 0.3; stroke-width: 0.8; stroke-linecap: square"/>
     </g>
     <g id="line2d_22">
      <g>
       <use xlink:href="#meb1254719e" x="47.457813" y="206.47875" style="stroke: #000000; stroke-width: 0.8"/>
      </g>
     </g>
     <g id="text_12">
      <!-- -100 -->
      <g transform="translate(20.457813 209.91625)scale(0.1 -0.1)">
       <use xlink:href="#SimHei-2d"/>
       <use xlink:href="#SimHei-31" x="50"/>
       <use xlink:href="#SimHei-30" x="100"/>
       <use xlink:href="#SimHei-30" x="150"/>
      </g>
     </g>
    </g>
    <g id="ytick_6">
     <g id="line2d_23">
      <path d="M 47.457813 165.112131 
L 849.124063 165.112131 
" clip-path="url(#pf6dbf4d9ea)" style="fill: none; stroke: #b0b0b0; stroke-opacity: 0.3; stroke-width: 0.8; stroke-linecap: square"/>
     </g>
     <g id="line2d_24">
      <g>
       <use xlink:href="#meb1254719e" x="47.457813" y="165.112131" style="stroke: #000000; stroke-width: 0.8"/>
      </g>
     </g>
     <g id="text_13">
      <!-- -90 -->
      <g transform="translate(25.457813 168.549631)scale(0.1 -0.1)">
       <defs>
        <path id="SimHei-39" d="M 800 75 
Q 1350 1000 1700 1750 
Q 1075 1650 662 1912 
Q 250 2175 162 2625 
Q 75 3075 175 3437 
Q 275 3800 487 4037 
Q 700 4275 1000 4375 
Q 1300 4475 1537 4475 
Q 1775 4475 2025 4375 
Q 2275 4275 2475 4075 
Q 2675 3875 2750 3662 
Q 2825 3450 2825 3112 
Q 2825 2775 2575 2250 
Q 2325 1725 1350 75 
L 800 75 
z
M 662 2875 
Q 700 2550 937 2337 
Q 1175 2125 1450 2150 
Q 1725 2175 1887 2300 
Q 2050 2425 2200 2725 
Q 2300 3100 2250 3362 
Q 2200 3625 1987 3800 
Q 1775 3975 1525 3975 
Q 1375 4000 1137 3900 
Q 900 3800 762 3500 
Q 625 3200 662 2875 
z
" transform="scale(0.015625)"/>
       </defs>
       <use xlink:href="#SimHei-2d"/>
       <use xlink:href="#SimHei-39" x="50"/>
       <use xlink:href="#SimHei-30" x="100"/>
      </g>
     </g>
    </g>
    <g id="ytick_7">
     <g id="line2d_25">
      <path d="M 47.457813 123.745511 
L 849.124063 123.745511 
" clip-path="url(#pf6dbf4d9ea)" style="fill: none; stroke: #b0b0b0; stroke-opacity: 0.3; stroke-width: 0.8; stroke-linecap: square"/>
     </g>
     <g id="line2d_26">
      <g>
       <use xlink:href="#meb1254719e" x="47.457813" y="123.745511" style="stroke: #000000; stroke-width: 0.8"/>
      </g>
     </g>
     <g id="text_14">
      <!-- -80 -->
      <g transform="translate(25.457813 127.183011)scale(0.1 -0.1)">
       <defs>
        <path id="SimHei-38" d="M 175 1375 
Q 175 1675 325 1962 
Q 475 2250 825 2425 
Q 525 2600 425 2812 
Q 325 3025 312 3300 
Q 300 3575 387 3775 
Q 475 3975 650 4150 
Q 825 4325 1037 4387 
Q 1250 4450 1500 4450 
Q 1750 4450 1950 4400 
Q 2150 4350 2375 4187 
Q 2600 4025 2700 3725 
Q 2800 3425 2687 3025 
Q 2575 2625 2100 2400 
Q 2525 2275 2700 2012 
Q 2875 1750 2875 1375 
Q 2875 1000 2762 775 
Q 2650 550 2512 400 
Q 2375 250 2137 162 
Q 1900 75 1537 75 
Q 1175 75 912 162 
Q 650 250 475 425 
Q 300 600 237 837 
Q 175 1075 175 1375 
z
M 687 1400 
Q 675 1100 787 875 
Q 900 650 1200 587 
Q 1500 525 1825 600 
Q 2150 675 2275 950 
Q 2400 1225 2362 1500 
Q 2325 1775 2050 1962 
Q 1775 2150 1450 2125 
Q 1125 2100 912 1900 
Q 700 1700 687 1400 
z
M 775 3350 
Q 775 3100 950 2875 
Q 1125 2650 1500 2650 
Q 1875 2650 2062 2875 
Q 2250 3100 2237 3412 
Q 2225 3725 2012 3875 
Q 1800 4025 1437 4000 
Q 1075 3975 925 3787 
Q 775 3600 775 3350 
z
" transform="scale(0.015625)"/>
       </defs>
       <use xlink:href="#SimHei-2d"/>
       <use xlink:href="#SimHei-38" x="50"/>
       <use xlink:href="#SimHei-30" x="100"/>
      </g>
     </g>
    </g>
    <g id="ytick_8">
     <g id="line2d_27">
      <path d="M 47.457813 82.378892 
L 849.124063 82.378892 
" clip-path="url(#pf6dbf4d9ea)" style="fill: none; stroke: #b0b0b0; stroke-opacity: 0.3; stroke-width: 0.8; stroke-linecap: square"/>
     </g>
     <g id="line2d_28">
      <g>
       <use xlink:href="#meb1254719e" x="47.457813" y="82.378892" style="stroke: #000000; stroke-width: 0.8"/>
      </g>
     </g>
     <g id="text_15">
      <!-- -70 -->
      <g transform="translate(25.457813 85.816392)scale(0.1 -0.1)">
       <defs>
        <path id="SimHei-37" d="M 850 150 
Q 1300 2050 2425 3925 
L 275 3925 
L 275 4375 
L 2950 4375 
L 2950 3950 
Q 1775 2050 1400 150 
L 850 150 
z
" transform="scale(0.015625)"/>
       </defs>
       <use xlink:href="#SimHei-2d"/>
       <use xlink:href="#SimHei-37" x="50"/>
       <use xlink:href="#SimHei-30" x="100"/>
      </g>
     </g>
    </g>
    <g id="ytick_9">
     <g id="line2d_29">
      <path d="M 47.457813 41.012273 
L 849.124063 41.012273 
" clip-path="url(#pf6dbf4d9ea)" style="fill: none; stroke: #b0b0b0; stroke-opacity: 0.3; stroke-width: 0.8; stroke-linecap: square"/>
     </g>
     <g id="line2d_30">
      <g>
       <use xlink:href="#meb1254719e" x="47.457813" y="41.012273" style="stroke: #000000; stroke-width: 0.8"/>
      </g>
     </g>
     <g id="text_16">
      <!-- -60 -->
      <g transform="translate(25.457813 44.449773)scale(0.1 -0.1)">
       <defs>
        <path id="SimHei-36" d="M 250 1612 
Q 275 1975 387 2225 
Q 500 2475 725 2850 
L 1750 4450 
L 2325 4450 
L 1275 2800 
Q 1950 2975 2350 2750 
Q 2750 2525 2887 2237 
Q 3025 1950 3037 1612 
Q 3050 1275 2937 950 
Q 2825 625 2537 362 
Q 2250 100 1737 75 
Q 1225 50 862 262 
Q 500 475 362 862 
Q 225 1250 250 1612 
z
M 1025 787 
Q 1250 550 1625 525 
Q 2000 500 2250 775 
Q 2500 1050 2500 1575 
Q 2500 2100 2187 2300 
Q 1875 2500 1487 2450 
Q 1100 2400 925 2075 
Q 750 1750 775 1387 
Q 800 1025 1025 787 
z
" transform="scale(0.015625)"/>
       </defs>
       <use xlink:href="#SimHei-2d"/>
       <use xlink:href="#SimHei-36" x="50"/>
       <use xlink:href="#SimHei-30" x="100"/>
      </g>
     </g>
    </g>
    <g id="text_17">
     <!-- 信号强度(dBm) -->
     <g transform="translate(15.207813 238.97875)rotate(-90)scale(0.1 -0.1)">
      <defs>
       <path id="SimHei-4fe1" d="M 5650 1575 
Q 5625 1275 5625 575 
Q 5625 -100 5650 -450 
L 5175 -450 
L 5175 -25 
L 3025 -25 
L 3025 -550 
L 2525 -550 
Q 2550 -175 2550 500 
Q 2550 1200 2525 1575 
L 5650 1575 
z
M 2125 4975 
Q 1975 4825 1650 3975 
L 1650 550 
Q 1650 -200 1675 -625 
L 1125 -625 
Q 1200 -175 1200 575 
L 1200 3100 
Q 900 2500 625 2100 
Q 475 2350 250 2500 
Q 525 2800 925 3562 
Q 1325 4325 1525 5175 
Q 1800 5075 2125 4975 
z
M 5175 375 
L 5175 1225 
L 3025 1225 
L 3025 375 
L 5175 375 
z
M 6075 3900 
Q 5575 3925 4100 3925 
Q 2625 3925 2100 3900 
L 2100 4325 
L 6075 4325 
L 6075 3900 
z
M 5700 3000 
Q 5275 3025 4150 3025 
Q 3025 3025 2475 3000 
L 2475 3425 
Q 2950 3400 4100 3400 
Q 5275 3400 5700 3425 
L 5700 3000 
z
M 5700 2125 
Q 5350 2150 4175 2150 
Q 3025 2150 2475 2125 
L 2475 2550 
Q 3000 2525 4175 2525 
Q 5375 2525 5700 2550 
L 5700 2125 
z
M 4025 5200 
Q 4100 5050 4175 4875 
Q 4250 4700 4325 4500 
Q 4100 4425 3875 4375 
Q 3700 4900 3575 5025 
Q 3825 5125 4025 5200 
z
" transform="scale(0.015625)"/>
       <path id="SimHei-53f7" d="M 5025 4925 
Q 5000 4550 5000 4075 
Q 5000 3600 5025 3175 
L 1400 3175 
Q 1425 3525 1425 4000 
Q 1425 4500 1400 4925 
L 5025 4925 
z
M 5175 2625 
Q 5650 2625 6025 2650 
L 6025 2200 
Q 5650 2225 5175 2225 
L 2450 2225 
Q 2350 1875 2225 1450 
L 5175 1450 
Q 5100 1050 5062 775 
Q 5025 500 4950 112 
Q 4875 -275 4650 -412 
Q 4425 -550 3225 -625 
Q 3125 -350 2975 -50 
Q 3875 -75 4112 -50 
Q 4350 -25 4425 212 
Q 4500 450 4575 1025 
L 1600 1025 
Q 1825 1625 1950 2225 
L 1350 2225 
Q 825 2225 375 2200 
L 375 2650 
Q 825 2625 1350 2625 
L 5175 2625 
z
M 4525 3575 
L 4525 4525 
L 1900 4525 
L 1900 3575 
L 4525 3575 
z
" transform="scale(0.015625)"/>
       <path id="SimHei-5f3a" d="M 2350 25 
Q 3100 75 3950 225 
L 3950 1200 
L 3100 1200 
L 3100 975 
L 2625 975 
Q 2650 1725 2650 2050 
L 2650 2875 
L 3950 2875 
L 3950 3500 
L 2850 3500 
Q 2875 3900 2875 4275 
Q 2875 4675 2850 5025 
L 5525 5025 
Q 5500 4675 5500 4275 
Q 5500 3900 5525 3500 
L 4400 3500 
L 4400 2875 
L 5750 2875 
Q 5725 2575 5725 2075 
Q 5725 1575 5750 1200 
L 4400 1200 
L 4400 275 
L 5250 425 
Q 5150 575 5050 750 
Q 5300 825 5475 925 
Q 5925 200 6175 -250 
Q 5925 -350 5725 -500 
Q 5625 -250 5425 100 
Q 5125 50 4225 -137 
Q 3325 -325 2600 -525 
Q 2525 -200 2350 25 
z
M 600 -25 
Q 1250 -25 1400 50 
Q 1550 125 1575 325 
L 1675 1850 
L 500 1850 
Q 550 2350 562 2762 
Q 575 3175 575 3575 
L 1800 3575 
L 1800 4550 
L 1275 4550 
Q 825 4550 425 4525 
L 425 4950 
Q 850 4925 1275 4925 
L 2275 4925 
Q 2250 4525 2250 4075 
Q 2250 3650 2275 3200 
L 1075 3200 
L 1025 2225 
L 2175 2225 
Q 2125 1775 2100 1425 
L 2025 150 
Q 1975 -250 1637 -387 
Q 1300 -525 850 -600 
Q 775 -275 600 -25 
z
M 5050 3875 
L 5050 4650 
L 3325 4650 
L 3325 3875 
L 5050 3875 
z
M 3950 1575 
L 3950 2500 
L 3100 2500 
L 3100 1575 
L 3950 1575 
z
M 5250 1575 
L 5250 2500 
L 4400 2500 
L 4400 1575 
L 5250 1575 
z
" transform="scale(0.015625)"/>
       <path id="SimHei-5ea6" d="M 1750 1675 
Q 2450 1650 2875 1650 
L 5200 1650 
Q 4975 1250 4650 850 
Q 4325 450 4025 200 
Q 4350 50 4950 -50 
Q 5550 -150 6100 -150 
Q 5950 -300 5825 -650 
Q 5100 -550 4550 -412 
Q 4000 -275 3625 -100 
Q 3100 -325 2587 -462 
Q 2075 -600 1525 -675 
Q 1450 -475 1225 -250 
Q 1675 -250 2250 -125 
Q 2825 0 3250 200 
Q 2825 550 2400 1275 
L 1750 1250 
L 1750 1675 
z
M 2975 5075 
Q 3250 5150 3475 5250 
Q 3625 4975 3775 4525 
L 4700 4525 
Q 4975 4525 5700 4550 
L 5700 4100 
Q 5000 4125 4650 4125 
L 1375 4125 
Q 1375 3000 1350 2312 
Q 1325 1625 1212 950 
Q 1100 275 725 -525 
Q 500 -375 250 -300 
Q 650 400 762 1075 
Q 875 1750 887 2800 
Q 900 3850 875 4525 
L 3200 4525 
Q 3100 4850 2975 5075 
z
M 2475 3300 
Q 2475 3700 2450 3925 
L 2975 3925 
Q 2950 3725 2950 3300 
L 4300 3300 
Q 4300 3700 4275 3950 
L 4800 3950 
Q 4775 3650 4775 3300 
Q 5325 3300 5725 3325 
L 5725 2900 
Q 5350 2925 4775 2925 
Q 4775 2250 4800 1950 
L 2450 1950 
Q 2475 2350 2475 2925 
Q 2175 2925 1600 2900 
L 1600 3325 
Q 2175 3300 2475 3300 
z
M 4300 2350 
L 4300 2925 
L 2950 2925 
L 2950 2350 
L 4300 2350 
z
M 2875 1275 
Q 3200 775 3650 425 
Q 4025 700 4425 1275 
L 2900 1275 
L 2875 1275 
z
" transform="scale(0.015625)"/>
       <path id="SimHei-28" d="M 2975 -200 
L 2700 -475 
Q 2075 125 1762 775 
Q 1450 1425 1450 2250 
Q 1450 3075 1762 3725 
Q 2075 4375 2700 5000 
L 2975 4725 
Q 2400 4175 2112 3587 
Q 1825 3000 1825 2250 
Q 1825 1500 2112 912 
Q 2400 325 2975 -200 
z
" transform="scale(0.015625)"/>
       <path id="SimHei-64" d="M 2750 125 
L 2250 125 
L 2250 500 
Q 2100 275 1900 175 
Q 1700 75 1425 75 
Q 925 75 575 437 
Q 225 800 225 1525 
Q 225 2250 575 2625 
Q 925 3000 1425 3000 
Q 1700 3000 1900 2887 
Q 2100 2775 2250 2550 
L 2250 4400 
L 2750 4400 
L 2750 125 
z
M 2250 1525 
Q 2250 2000 2037 2275 
Q 1825 2550 1525 2550 
Q 1150 2550 962 2275 
Q 775 2000 775 1525 
Q 775 1050 962 787 
Q 1150 525 1525 525 
Q 1825 525 2037 787 
Q 2250 1050 2250 1525 
z
" transform="scale(0.015625)"/>
       <path id="SimHei-42" d="M 2950 1400 
Q 2950 675 2550 400 
Q 2150 125 1525 125 
L 275 125 
L 275 4400 
L 1575 4400 
Q 2200 4400 2512 4075 
Q 2825 3750 2825 3300 
Q 2825 2850 2612 2637 
Q 2400 2425 2175 2350 
Q 2475 2275 2712 2037 
Q 2950 1800 2950 1400 
z
M 2250 3300 
Q 2250 3625 2062 3775 
Q 1875 3925 1600 3925 
L 850 3925 
L 850 2600 
L 1575 2600 
Q 1850 2600 2050 2762 
Q 2250 2925 2250 3300 
z
M 2350 1400 
Q 2350 1800 2087 1962 
Q 1825 2125 1500 2125 
L 850 2125 
L 850 600 
L 1425 600 
Q 1875 600 2112 775 
Q 2350 950 2350 1400 
z
" transform="scale(0.015625)"/>
       <path id="SimHei-6d" d="M 3050 125 
L 2550 125 
L 2550 2150 
Q 2550 2300 2500 2400 
Q 2450 2500 2300 2500 
Q 2125 2500 1975 2312 
Q 1825 2125 1825 1825 
L 1825 125 
L 1325 125 
L 1325 2150 
Q 1325 2300 1275 2400 
Q 1225 2500 1075 2500 
Q 900 2500 750 2312 
Q 600 2125 600 1825 
L 600 125 
L 100 125 
L 100 2925 
L 600 2925 
L 600 2550 
Q 725 2750 900 2862 
Q 1075 2975 1275 2975 
Q 1475 2975 1612 2862 
Q 1750 2750 1800 2550 
Q 1925 2750 2087 2862 
Q 2250 2975 2450 2975 
Q 2750 2975 2900 2812 
Q 3050 2650 3050 2350 
L 3050 125 
z
" transform="scale(0.015625)"/>
       <path id="SimHei-29" d="M 1675 2250 
Q 1675 1425 1362 775 
Q 1050 125 425 -475 
L 150 -200 
Q 725 325 1012 912 
Q 1300 1500 1300 2250 
Q 1300 3000 1012 3587 
Q 725 4175 150 4725 
L 425 5000 
Q 1050 4375 1362 3725 
Q 1675 3075 1675 2250 
z
" transform="scale(0.015625)"/>
      </defs>
      <use xlink:href="#SimHei-4fe1"/>
      <use xlink:href="#SimHei-53f7" x="100"/>
      <use xlink:href="#SimHei-5f3a" x="200"/>
      <use xlink:href="#SimHei-5ea6" x="300"/>
      <use xlink:href="#SimHei-28" x="400"/>
      <use xlink:href="#SimHei-64" x="450"/>
      <use xlink:href="#SimHei-42" x="500"/>
      <use xlink:href="#SimHei-6d" x="550"/>
      <use xlink:href="#SimHei-29" x="600"/>
     </g>
    </g>
   </g>
   <g id="line2d_31">
    <path d="M 83.897188 211.422808 
L 85.357683 196.909105 
L 86.818179 282.376602 
L 88.278675 304.820024 
L 89.739171 278.678402 
L 91.199667 292.460117 
L 92.660163 368.198258 
L 94.120659 357.509665 
L 95.581155 316.237818 
L 97.041651 369.635984 
L 98.502147 329.532981 
L 99.962643 338.048461 
L 101.423139 366.10497 
L 102.883635 303.019415 
L 104.344131 302.736017 
L 105.804627 319.952738 
L 107.265123 301.234567 
L 108.725619 354.404082 
L 110.186115 289.50976 
L 111.646611 251.838309 
L 113.107107 362.62416 
L 114.567603 263.315511 
L 116.028099 270.989721 
L 117.488595 188.446793 
L 118.949091 215.706669 
L 120.409587 231.610545 
L 121.870083 168.954781 
L 123.330579 180.300351 
L 124.791075 127.582475 
L 126.251571 135.354395 
L 127.712067 90.200791 
L 129.172563 185.609171 
L 130.633059 91.346202 
L 132.093555 60.10835 
L 133.554051 106.504097 
L 135.014547 41.012273 
L 136.475043 77.539435 
L 137.935539 45.784602 
L 139.396035 41.012273 
L 140.856531 74.151822 
L 142.317027 79.385677 
L 143.777523 92.084699 
L 145.238019 71.190538 
L 146.698515 64.914316 
L 148.159011 87.489136 
L 149.619507 106.384216 
L 151.080003 113.847078 
L 152.540499 190.803801 
L 154.000995 177.955677 
L 155.461491 138.789299 
L 156.921987 218.004261 
L 158.382483 216.227626 
L 159.842979 208.505508 
L 161.303475 280.227944 
L 162.763971 309.91891 
L 164.224467 331.602411 
L 165.684963 288.220855 
L 167.145459 317.709357 
L 168.605955 339.435426 
L 170.066451 371.945227 
L 171.526947 329.335511 
L 172.987443 321.272427 
L 174.447939 307.809681 
L 175.908435 319.397197 
L 177.368931 357.03818 
L 178.829427 371.945227 
L 180.289923 363.063044 
L 181.750419 371.945227 
L 183.210915 354.76539 
L 184.671411 289.532893 
L 186.131907 303.60552 
L 187.592403 305.970886 
L 189.052899 253.537583 
L 190.513395 295.354063 
L 191.973891 125.39805 
L 193.434387 258.305839 
L 194.894883 184.946712 
L 196.355379 147.192487 
L 197.815875 170.334568 
L 199.276371 52.185025 
L 200.736867 105.066174 
L 202.197363 119.314824 
L 203.657859 130.854006 
L 205.118355 41.012273 
L 206.578851 41.408332 
L 208.039347 44.209828 
L 209.499843 95.62104 
L 210.960339 79.109612 
L 212.420835 41.012273 
L 213.881331 88.468516 
L 215.341827 68.251348 
L 216.802323 111.203765 
L 218.262819 53.446508 
L 219.723315 79.004324 
L 221.183811 81.282222 
L 222.644307 79.749734 
L 224.104803 151.060398 
L 225.565299 175.841646 
L 227.025795 178.697499 
L 228.486291 179.057495 
L 229.946787 153.995118 
L 231.407283 226.418329 
L 232.867779 225.072722 
L 234.328275 221.499021 
L 235.788771 271.14607 
L 237.249267 287.246753 
L 238.709763 371.945227 
L 240.170259 344.962833 
L 241.630755 364.936487 
L 244.551747 277.711077 
L 246.012243 353.295954 
L 247.472739 353.828119 
L 248.933235 371.945227 
L 250.393731 315.181915 
L 251.854227 355.093553 
L 253.314723 336.809629 
L 254.775219 282.128419 
L 256.235715 350.202863 
L 257.696211 327.228395 
L 259.156707 326.319016 
L 260.617203 238.266671 
L 262.077699 280.087756 
L 263.538195 175.940135 
L 264.998691 220.170958 
L 266.459186 280.625269 
L 267.919682 162.637127 
L 269.380178 147.670774 
L 270.840674 149.829961 
L 272.30117 100.294672 
L 273.761666 84.736142 
L 275.222162 84.298196 
L 276.682658 55.448296 
L 278.143154 99.110297 
L 279.60365 53.572474 
L 281.064146 135.194395 
L 282.524642 41.012273 
L 283.985138 46.05073 
L 285.445634 101.197783 
L 286.90613 57.084182 
L 288.366626 78.252191 
L 289.827122 96.613118 
L 291.287618 44.233798 
L 292.748114 119.990258 
L 294.20861 120.189025 
L 295.669106 152.660174 
L 297.129602 132.115147 
L 298.590098 113.795385 
L 300.050594 194.983046 
L 301.51109 194.558105 
L 302.971586 197.446923 
L 304.432082 228.231209 
L 305.892578 229.839087 
L 307.353074 288.010767 
L 308.81357 260.990614 
L 310.274066 274.27136 
L 311.734562 371.772365 
L 313.195058 340.865982 
L 314.655554 293.408173 
L 316.11605 367.174678 
L 317.576546 324.712409 
L 319.037042 371.945227 
L 320.497538 371.945227 
L 321.958034 334.180607 
L 323.41853 371.945227 
L 324.879026 358.41553 
L 326.339522 368.826771 
L 327.800018 353.280696 
L 329.260514 341.883714 
L 330.72101 265.22111 
L 332.181506 243.874292 
L 333.642002 271.269831 
L 335.102498 256.95397 
L 336.562994 253.095745 
L 339.483986 236.944826 
L 340.944482 195.498708 
L 342.404978 189.409966 
L 343.865474 125.138034 
L 345.32597 203.167704 
L 346.786466 125.32586 
L 348.246962 85.340833 
L 349.707458 58.575275 
L 351.167954 87.09248 
L 352.62845 76.711128 
L 354.088946 77.638402 
L 355.549442 77.693974 
L 358.470434 41.012273 
L 359.93093 41.012273 
L 361.391426 56.913666 
L 362.851922 88.890378 
L 364.312418 105.246299 
L 365.772914 47.612064 
L 367.23341 108.330008 
L 368.693906 141.558257 
L 370.154402 107.965082 
L 371.614898 179.205116 
L 373.075394 167.138337 
L 374.53589 159.708637 
L 375.996386 232.303455 
L 377.456882 238.134864 
L 378.917378 295.382697 
L 380.377874 320.656282 
L 381.83837 258.554169 
L 383.298866 261.555708 
L 384.759362 346.847721 
L 386.219858 321.239591 
L 387.680354 371.945227 
L 389.14085 350.892228 
L 390.601346 366.618386 
L 392.061842 371.945227 
L 393.522338 371.945227 
L 394.982834 366.991954 
L 396.44333 341.07906 
L 397.903826 356.836801 
L 399.364322 310.585889 
L 400.824818 317.967443 
L 402.285314 304.292031 
L 403.74581 305.698529 
L 405.206306 359.985742 
L 406.666802 230.280397 
L 408.127298 292.918816 
L 409.587794 172.765152 
L 411.04829 199.045516 
L 412.508786 236.365365 
L 413.969282 181.338615 
L 415.429778 121.283626 
L 416.890274 126.828917 
L 418.35077 159.482578 
L 419.811266 85.517622 
L 421.271762 117.701901 
L 422.732258 82.828719 
L 424.192754 75.843976 
L 425.65325 126.410004 
L 427.113746 77.487248 
L 428.574242 41.012273 
L 430.034738 51.534865 
L 431.495234 41.012273 
L 432.95573 77.761597 
L 434.416226 64.503937 
L 437.337218 110.300649 
L 438.797714 126.081045 
L 440.25821 65.248935 
L 441.718706 124.477798 
L 443.179202 124.91775 
L 444.639698 148.124307 
L 446.100194 244.532327 
L 447.56069 227.968106 
L 449.021185 185.578724 
L 450.481681 281.588262 
L 451.942177 334.926382 
L 454.863169 247.917492 
L 456.323665 252.869935 
L 457.784161 351.007555 
L 459.244657 301.409606 
L 460.705153 362.471117 
L 462.165649 362.016021 
L 463.626145 327.285887 
L 465.086641 350.793706 
L 466.547137 216.363011 
L 468.007633 321.451733 
L 469.468129 327.963015 
L 470.928625 312.159016 
L 472.389121 371.945227 
L 473.849617 257.266791 
L 475.310113 307.778649 
L 476.770609 282.673378 
L 478.231105 324.537093 
L 479.691601 228.61803 
L 481.152097 282.339014 
L 482.612593 221.786617 
L 484.073089 174.714321 
L 485.533585 230.952759 
L 486.994081 193.209672 
L 488.454577 142.688805 
L 489.915073 145.340009 
L 491.375569 105.297793 
L 492.836065 112.226546 
L 494.296561 135.599303 
L 495.757057 133.05598 
L 497.217553 41.012273 
L 498.678049 131.187644 
L 500.138545 41.012273 
L 501.599041 43.195849 
L 503.059537 71.336498 
L 504.520033 69.090804 
L 507.441025 56.363907 
L 508.901521 57.843777 
L 510.362017 64.069497 
L 511.822513 143.004669 
L 513.283009 138.076212 
L 514.743505 92.129184 
L 516.204001 174.915588 
L 517.664497 163.869572 
L 519.124993 206.91151 
L 520.585489 219.448613 
L 522.045985 178.640577 
L 523.506481 224.14419 
L 524.966977 277.903507 
L 526.427473 297.63135 
L 527.887969 292.692521 
L 529.348465 310.717813 
L 530.808961 356.001548 
L 532.269457 314.576466 
L 533.729953 340.542253 
L 535.190449 350.15761 
L 536.650945 346.382767 
L 538.111441 371.945227 
L 539.571937 353.988252 
L 541.032433 369.505985 
L 542.492929 359.140051 
L 543.953425 363.14871 
L 545.413921 355.012472 
L 546.874417 304.144098 
L 548.334913 322.968605 
L 549.795409 281.851635 
L 551.255905 293.658636 
L 552.716401 269.655069 
L 554.176897 194.297203 
L 555.637393 305.41811 
L 557.097889 185.275837 
L 558.558385 136.086012 
L 560.018881 194.484411 
L 561.479377 190.392142 
L 562.939873 166.289255 
L 564.400369 148.473311 
L 565.860865 125.526517 
L 567.321361 77.558936 
L 568.781857 99.177616 
L 570.242353 61.618517 
L 571.702849 99.581818 
L 573.163345 53.700374 
L 574.623841 41.012273 
L 576.084337 59.348916 
L 577.544833 60.63567 
L 579.005329 47.108895 
L 580.465825 42.705716 
L 583.386817 110.111318 
L 584.847313 78.828979 
L 586.307809 96.657119 
L 587.768305 131.298245 
L 589.228801 94.854282 
L 590.689297 86.903204 
L 592.149793 166.349405 
L 593.610289 200.380687 
L 595.070785 237.609806 
L 596.531281 293.830977 
L 597.991777 292.430401 
L 599.452273 253.327331 
L 600.912769 271.29717 
L 602.373265 278.324474 
L 603.833761 327.448227 
L 605.294257 313.879738 
L 606.754753 356.42241 
L 608.215249 311.169319 
L 609.675745 366.36321 
L 611.136241 371.945227 
L 612.596737 332.535069 
L 614.057233 344.637688 
L 615.517729 371.945227 
L 616.978225 334.821675 
L 618.438721 338.685898 
L 619.899217 320.581069 
L 621.359713 307.00648 
L 622.820209 247.380206 
L 624.280705 285.429293 
L 625.741201 292.121048 
L 627.201697 313.247538 
L 628.662193 270.637508 
L 630.122689 282.832814 
L 631.583184 144.771657 
L 633.04368 209.220363 
L 634.504176 159.227119 
L 635.964672 211.416889 
L 637.425168 81.128917 
L 638.885664 48.68629 
L 640.34616 81.357289 
L 641.806656 47.086209 
L 643.267152 43.284569 
L 644.727648 41.012273 
L 646.188144 43.117394 
L 647.64864 62.242303 
L 649.109136 124.195676 
L 652.030128 41.012273 
L 653.490624 41.012273 
L 654.95112 88.602061 
L 656.411616 41.012273 
L 657.872112 147.772985 
L 659.332608 137.670099 
L 660.793104 107.766184 
L 662.2536 93.465699 
L 663.714096 208.734811 
L 665.174592 165.299429 
L 666.635088 253.830463 
L 668.095584 164.114354 
L 669.55608 224.98893 
L 671.016576 257.718285 
L 672.477072 260.735015 
L 673.937568 273.838843 
L 675.398064 325.859151 
L 676.85856 300.513731 
L 678.319056 316.360806 
L 679.779552 335.707642 
L 681.240048 337.209148 
L 682.700544 371.945227 
L 684.16104 314.923254 
L 685.621536 301.410161 
L 687.082032 352.369054 
L 688.542528 361.242446 
L 690.003024 314.303953 
L 691.46352 364.40124 
L 692.924016 324.671302 
L 694.384512 355.18149 
L 695.845008 296.246679 
L 697.305504 335.676483 
L 698.766 334.837886 
L 700.226496 236.414253 
L 701.686992 268.808463 
L 703.147488 215.818386 
L 704.607984 254.765796 
L 706.06848 147.105401 
L 707.528976 172.199661 
L 708.989472 152.679372 
L 710.449968 63.696654 
L 711.910464 74.16984 
L 713.37096 41.012273 
L 714.831456 91.160044 
L 716.291952 123.837489 
L 717.752448 109.877171 
L 719.212944 69.347953 
L 720.67344 124.589572 
L 722.133936 41.012273 
L 723.594432 41.012273 
L 726.515424 99.403415 
L 727.97592 67.680368 
L 729.436416 41.012273 
L 730.896912 101.296853 
L 732.357408 51.199671 
L 733.817904 168.409526 
L 735.2784 180.878271 
L 736.738896 145.041103 
L 738.199392 169.478357 
L 739.659888 166.530962 
L 741.120384 224.238318 
L 742.58088 269.007174 
L 744.041376 242.567811 
L 745.501872 275.468372 
L 746.962368 276.112249 
L 748.422864 267.107872 
L 749.88336 312.393621 
L 751.343856 291.437036 
L 752.804352 315.170704 
L 754.264848 302.441405 
L 755.725344 363.969047 
L 757.18584 339.680657 
L 758.646336 329.590347 
L 760.106832 351.290341 
L 761.567328 345.906344 
L 763.027824 316.578955 
L 764.48832 361.593523 
L 765.948816 324.703461 
L 767.409312 292.208087 
L 768.869808 293.619507 
L 770.330304 268.480413 
L 771.7908 194.548443 
L 773.251296 183.918461 
L 774.711792 279.443755 
L 776.172288 267.390842 
L 777.632784 203.915198 
L 779.09328 194.973258 
L 780.553776 192.806263 
L 782.014272 256.973739 
L 783.474768 147.167472 
L 784.935264 91.07172 
L 786.39576 55.263614 
L 787.856256 53.012433 
L 789.316752 79.314018 
L 790.777248 41.05698 
L 792.237744 55.387562 
L 793.69824 41.012273 
L 795.158736 41.012273 
L 796.619232 118.6952 
L 799.540224 68.738827 
L 801.00072 154.895205 
L 802.461216 97.194732 
L 803.921712 84.332881 
L 805.382208 181.629524 
L 806.842704 155.927416 
L 808.3032 94.917955 
L 809.763696 155.119465 
L 811.224192 165.888169 
L 812.684687 153.611606 
L 812.684687 153.611606 
" clip-path="url(#pf6dbf4d9ea)" style="fill: none; stroke: #003366; stroke-width: 1.5; stroke-linecap: square"/>
   </g>
   <g id="line2d_32">
    <path d="M 83.897188 172.674861 
L 85.357683 180.87787 
L 86.818179 147.19709 
L 88.278675 109.179512 
L 89.739171 133.688622 
L 91.199667 121.659454 
L 92.660163 41.012273 
L 94.120659 58.287475 
L 95.581155 83.092595 
L 97.041651 60.275857 
L 98.502147 63.719312 
L 99.962643 73.080285 
L 101.423139 41.012273 
L 102.883635 129.753748 
L 104.344131 95.83592 
L 105.804627 81.174297 
L 107.265123 113.590646 
L 108.725619 76.689881 
L 110.186115 126.190533 
L 111.646611 146.530594 
L 113.107107 64.562255 
L 114.567603 150.018506 
L 116.028099 150.493171 
L 117.488595 190.844041 
L 118.949091 185.28408 
L 120.409587 198.330745 
L 121.870083 263.728875 
L 123.330579 230.570829 
L 124.791075 274.538123 
L 126.251571 301.518503 
L 127.712067 318.025825 
L 129.172563 268.674874 
L 130.633059 317.476994 
L 132.093555 359.846151 
L 133.554051 320.539017 
L 135.014547 352.412074 
L 136.475043 361.307517 
L 137.935539 371.945227 
L 139.396035 369.159783 
L 140.856531 332.970423 
L 142.317027 302.303377 
L 143.777523 340.587194 
L 145.238019 321.805686 
L 146.698515 330.631228 
L 148.159011 358.283739 
L 149.619507 305.496536 
L 151.080003 283.853647 
L 152.540499 244.236494 
L 154.000995 212.072064 
L 155.461491 264.536735 
L 156.921987 201.641885 
L 158.382483 193.74991 
L 159.842979 183.828926 
L 161.303475 126.337239 
L 162.763971 105.678225 
L 164.224467 94.801313 
L 165.684963 131.104957 
L 167.145459 86.062634 
L 168.605955 61.880859 
L 170.066451 45.611591 
L 171.526947 70.449117 
L 172.987443 101.279752 
L 174.447939 80.081007 
L 175.908435 119.196074 
L 177.368931 45.51016 
L 178.829427 54.90736 
L 180.289923 91.254532 
L 181.750419 41.012273 
L 183.210915 87.212777 
L 184.671411 123.486776 
L 186.131907 109.705692 
L 187.592403 80.261981 
L 189.052899 154.409395 
L 190.513395 136.244387 
L 191.973891 264.902882 
L 193.434387 188.219331 
L 194.894883 244.403974 
L 196.355379 261.51149 
L 197.815875 242.347759 
L 199.276371 336.027263 
L 200.736867 308.017359 
L 202.197363 303.130676 
L 203.657859 278.242166 
L 205.118355 325.235068 
L 206.578851 364.552396 
L 208.039347 360.330447 
L 209.499843 310.251319 
L 212.420835 371.945227 
L 213.881331 337.549671 
L 215.341827 344.706586 
L 216.802323 308.143385 
L 218.262819 344.536987 
L 219.723315 329.167786 
L 221.183811 309.70737 
L 222.644307 340.538754 
L 224.104803 264.270384 
L 225.565299 274.059939 
L 227.025795 228.402061 
L 228.486291 224.917794 
L 229.946787 237.182873 
L 231.407283 233.925717 
L 232.867779 151.17628 
L 234.328275 176.367338 
L 235.788771 122.928176 
L 237.249267 115.324956 
L 238.709763 41.012273 
L 240.170259 96.513686 
L 241.630755 77.83587 
L 243.091251 48.753103 
L 244.551747 129.492121 
L 246.012243 57.653012 
L 247.472739 44.857446 
L 248.933235 41.012273 
L 250.393731 65.557141 
L 251.854227 51.731153 
L 253.314723 44.96393 
L 254.775219 122.537376 
L 256.235715 54.289683 
L 257.696211 69.912101 
L 259.156707 82.7287 
L 260.617203 154.108884 
L 262.077699 101.587214 
L 263.538195 234.505396 
L 264.998691 152.744257 
L 266.459186 152.902541 
L 267.919682 258.845653 
L 269.380178 276.208292 
L 270.840674 263.231949 
L 272.30117 295.00399 
L 273.761666 345.236781 
L 275.222162 304.441575 
L 276.682658 339.443946 
L 278.143154 313.516436 
L 279.60365 371.945227 
L 281.064146 286.335545 
L 282.524642 357.183915 
L 283.985138 371.945227 
L 285.445634 320.354387 
L 286.90613 363.243684 
L 288.366626 342.565152 
L 289.827122 278.559346 
L 291.287618 371.945227 
L 292.748114 310.062822 
L 294.20861 297.965961 
L 295.669106 263.488486 
L 297.129602 327.915436 
L 298.590098 317.706925 
L 300.050594 201.052563 
L 301.51109 220.270262 
L 302.971586 204.868223 
L 304.432082 197.469176 
L 305.892578 194.384824 
L 307.353074 155.098229 
L 308.81357 99.654143 
L 310.274066 125.419425 
L 311.734562 49.552209 
L 313.195058 44.438213 
L 314.655554 104.907402 
L 316.11605 51.605485 
L 317.576546 126.381818 
L 319.037042 41.012273 
L 320.497538 58.256847 
L 321.958034 105.940162 
L 323.41853 41.012273 
L 327.800018 41.012273 
L 329.260514 96.591391 
L 330.72101 123.59993 
L 333.642002 163.92883 
L 335.102498 158.963144 
L 336.562994 165.248111 
L 338.02349 194.504074 
L 339.483986 189.148542 
L 340.944482 252.250593 
L 342.404978 203.022276 
L 343.865474 288.476112 
L 345.32597 207.705343 
L 346.786466 276.443216 
L 348.246962 324.353455 
L 349.707458 349.495218 
L 351.167954 339.281779 
L 352.62845 363.694232 
L 354.088946 314.795841 
L 355.549442 350.438616 
L 357.009938 360.577977 
L 358.470434 365.119089 
L 359.93093 371.945227 
L 361.391426 359.21571 
L 362.851922 326.235093 
L 364.312418 328.590146 
L 365.772914 353.733195 
L 367.23341 317.036144 
L 368.693906 269.774425 
L 370.154402 301.188817 
L 371.614898 242.422293 
L 373.075394 231.57323 
L 374.53589 238.614533 
L 375.996386 185.586996 
L 377.456882 167.133363 
L 378.917378 124.797987 
L 380.377874 103.037882 
L 381.83837 173.114724 
L 383.298866 143.377475 
L 384.759362 90.711596 
L 386.219858 78.167529 
L 387.680354 77.09789 
L 389.14085 41.012273 
L 390.601346 59.156715 
L 392.061842 49.611216 
L 393.522338 49.927697 
L 394.982834 41.012273 
L 396.44333 76.005807 
L 397.903826 41.012273 
L 399.364322 109.312056 
L 400.824818 89.662501 
L 402.285314 123.544537 
L 403.74581 81.344395 
L 405.206306 63.890022 
L 406.666802 200.055398 
L 408.127298 128.904484 
L 409.587794 225.83321 
L 411.04829 214.090964 
L 412.508786 180.486439 
L 413.969282 230.846421 
L 415.429778 289.184682 
L 416.890274 280.865266 
L 418.35077 235.701114 
L 419.811266 331.927906 
L 421.271762 324.396427 
L 422.732258 326.15795 
L 424.192754 326.228406 
L 425.65325 283.749279 
L 427.113746 309.263907 
L 428.574242 351.124984 
L 430.034738 356.097476 
L 431.495234 364.884155 
L 432.95573 302.399206 
L 434.416226 371.945227 
L 435.876722 343.454898 
L 437.337218 317.629493 
L 438.797714 299.145783 
L 440.25821 349.341949 
L 441.718706 312.675254 
L 443.179202 285.299002 
L 444.639698 283.762841 
L 446.100194 173.11282 
L 447.56069 221.754681 
L 449.021185 234.729869 
L 450.481681 137.799542 
L 451.942177 114.883922 
L 453.402673 104.143314 
L 454.863169 161.58668 
L 456.323665 142.431369 
L 457.784161 41.012273 
L 459.244657 104.054061 
L 460.705153 69.887778 
L 462.165649 42.942737 
L 463.626145 85.886441 
L 465.086641 59.706428 
L 466.547137 158.137922 
L 468.007633 104.123415 
L 469.468129 68.630254 
L 470.928625 127.06907 
L 472.389121 42.392587 
L 473.849617 144.932579 
L 475.310113 122.087419 
L 476.770609 92.451763 
L 478.231105 66.094072 
L 479.691601 183.760279 
L 481.152097 136.325901 
L 482.612593 183.02812 
L 484.073089 215.472001 
L 485.533585 199.732503 
L 486.994081 199.988744 
L 488.454577 268.459329 
L 489.915073 266.157882 
L 491.375569 303.793306 
L 492.836065 296.868446 
L 494.296561 295.82195 
L 495.757057 266.395652 
L 497.217553 360.072565 
L 498.678049 284.576983 
L 500.138545 371.945227 
L 501.599041 371.945227 
L 503.059537 329.618419 
L 504.520033 358.430215 
L 505.980529 371.945227 
L 508.901521 321.598233 
L 510.362017 345.593054 
L 511.822513 275.391605 
L 513.283009 287.281684 
L 514.743505 308.985923 
L 516.204001 227.127064 
L 517.664497 244.232817 
L 519.124993 202.376225 
L 520.585489 189.147349 
L 522.045985 230.963827 
L 524.966977 136.032384 
L 526.427473 130.441766 
L 527.887969 118.998991 
L 529.348465 117.226483 
L 530.808961 53.849548 
L 532.269457 104.435464 
L 533.729953 43.355383 
L 535.190449 68.010955 
L 536.650945 69.204391 
L 538.111441 41.012273 
L 542.492929 41.012273 
L 543.953425 84.524442 
L 545.413921 67.848984 
L 546.874417 101.560931 
L 548.334913 96.53179 
L 549.795409 120.20358 
L 551.255905 125.015382 
L 552.716401 119.238969 
L 554.176897 191.005893 
L 555.637393 106.004733 
L 557.097889 232.410216 
L 558.558385 283.35052 
L 560.018881 210.52776 
L 561.479377 230.842168 
L 562.939873 266.895052 
L 564.400369 260.536025 
L 565.860865 285.118998 
L 567.321361 331.674204 
L 568.781857 328.89008 
L 570.242353 342.36745 
L 571.702849 311.96116 
L 573.163345 360.533757 
L 574.623841 371.945227 
L 576.084337 369.751788 
L 577.544833 344.923672 
L 579.005329 366.38934 
L 580.465825 368.872907 
L 581.926321 327.188347 
L 583.386817 311.35675 
L 584.847313 314.606918 
L 586.307809 302.450759 
L 587.768305 293.975504 
L 589.228801 346.208764 
L 590.689297 283.989159 
L 592.149793 271.485384 
L 593.610289 221.955813 
L 595.070785 197.601945 
L 596.531281 148.382537 
L 597.991777 121.717519 
L 599.452273 135.453386 
L 600.912769 131.186378 
L 602.373265 173.870778 
L 603.833761 102.617679 
L 605.294257 88.36522 
L 606.754753 81.741441 
L 608.215249 91.658012 
L 609.675745 44.266014 
L 611.136241 41.012273 
L 612.596737 59.733922 
L 614.057233 58.108768 
L 615.517729 41.012273 
L 616.978225 84.914546 
L 618.438721 71.062865 
L 619.899217 99.807669 
L 621.359713 103.279622 
L 622.820209 151.611073 
L 624.280705 131.870378 
L 625.741201 109.501032 
L 627.201697 133.852568 
L 628.662193 171.415097 
L 630.122689 112.278588 
L 631.583184 248.513109 
L 633.04368 218.463869 
L 634.504176 238.047973 
L 635.964672 209.260099 
L 637.425168 294.419884 
L 638.885664 324.498964 
L 640.34616 344.243259 
L 641.806656 345.173063 
L 643.267152 364.231823 
L 644.727648 362.630799 
L 646.188144 343.208278 
L 647.64864 327.314066 
L 649.109136 273.842302 
L 652.030128 371.945227 
L 653.490624 366.23698 
L 654.95112 326.470614 
L 656.411616 342.444091 
L 657.872112 248.979172 
L 659.332608 262.668463 
L 660.793104 294.848955 
L 662.2536 338.283552 
L 663.714096 214.45969 
L 665.174592 217.788192 
L 666.635088 177.417245 
L 668.095584 257.260066 
L 669.55608 186.190046 
L 671.016576 140.16792 
L 672.477072 127.434715 
L 673.937568 124.386182 
L 675.398064 95.913888 
L 676.85856 146.964215 
L 678.319056 68.704168 
L 679.779552 73.243861 
L 681.240048 52.015226 
L 682.700544 41.012273 
L 684.16104 88.411787 
L 685.621536 102.79493 
L 687.082032 41.012273 
L 688.542528 60.883723 
L 690.003024 83.676411 
L 691.46352 41.012273 
L 692.924016 82.637155 
L 694.384512 44.347973 
L 695.845008 107.999933 
L 697.305504 57.277016 
L 698.766 77.548853 
L 700.226496 179.422154 
L 701.686992 163.252107 
L 703.147488 195.274669 
L 704.607984 201.496889 
L 706.06848 247.27081 
L 707.528976 249.767445 
L 708.989472 243.595751 
L 710.449968 353.512055 
L 711.910464 341.862765 
L 713.37096 361.82194 
L 714.831456 329.088824 
L 716.291952 323.643144 
L 717.752448 299.693734 
L 719.212944 346.33322 
L 720.67344 304.127666 
L 722.133936 351.998092 
L 723.594432 365.852235 
L 725.054928 341.507501 
L 726.515424 321.216297 
L 727.97592 319.887155 
L 729.436416 369.698752 
L 730.896912 328.985084 
L 732.357408 333.880968 
L 733.817904 265.911041 
L 735.2784 257.5711 
L 736.738896 269.226197 
L 738.199392 228.67779 
L 739.659888 243.142719 
L 741.120384 187.880305 
L 742.58088 118.45686 
L 744.041376 182.933532 
L 745.501872 87.28518 
L 746.962368 130.846779 
L 748.422864 153.835044 
L 749.88336 86.961704 
L 751.343856 111.121993 
L 752.804352 74.710179 
L 754.264848 96.605868 
L 755.725344 42.73051 
L 757.18584 71.975603 
L 758.646336 83.522303 
L 760.106832 63.423379 
L 761.567328 75.369062 
L 763.027824 71.202461 
L 764.48832 41.012273 
L 765.948816 61.006526 
L 767.409312 136.088664 
L 768.869808 131.576379 
L 770.330304 128.037133 
L 771.7908 234.428296 
L 773.251296 220.269815 
L 774.711792 141.430519 
L 776.172288 160.844365 
L 777.632784 224.446324 
L 779.09328 225.098322 
L 780.553776 245.025154 
L 782.014272 186.653738 
L 783.474768 261.782144 
L 784.935264 303.169269 
L 786.39576 357.040818 
L 787.856256 350.51363 
L 789.316752 339.195059 
L 790.777248 369.156893 
L 792.237744 360.371788 
L 793.69824 371.945227 
L 795.158736 371.945227 
L 796.619232 315.937835 
L 798.079728 303.380349 
L 799.540224 348.481198 
L 801.00072 251.652979 
L 802.461216 325.83254 
L 803.921712 334.797755 
L 805.382208 224.620504 
L 806.842704 235.62295 
L 808.3032 270.147051 
L 809.763696 234.889376 
L 811.224192 241.449052 
L 812.684687 244.886899 
L 812.684687 244.886899 
" clip-path="url(#pf6dbf4d9ea)" style="fill: none; stroke: #990000; stroke-width: 1.5; stroke-linecap: square"/>
   </g>
   <g id="patch_3">
    <path d="M 47.457813 388.491875 
L 47.457813 24.465625 
" style="fill: none; stroke: #000000; stroke-width: 0.8; stroke-linejoin: miter; stroke-linecap: square"/>
   </g>
   <g id="patch_4">
    <path d="M 849.124063 388.491875 
L 849.124063 24.465625 
" style="fill: none; stroke: #000000; stroke-width: 0.8; stroke-linejoin: miter; stroke-linecap: square"/>
   </g>
   <g id="patch_5">
    <path d="M 47.457813 388.491875 
L 849.124062 388.491875 
" style="fill: none; stroke: #000000; stroke-width: 0.8; stroke-linejoin: miter; stroke-linecap: square"/>
   </g>
   <g id="patch_6">
    <path d="M 47.457813 24.465625 
L 849.124062 24.465625 
" style="fill: none; stroke: #000000; stroke-width: 0.8; stroke-linejoin: miter; stroke-linecap: square"/>
   </g>
   <g id="text_18">
    <!-- 小区A/B信号强度（RSRP）时序变化 -->
    <g transform="translate(339.790937 18.465625)scale(0.14 -0.14)">
     <defs>
      <path id="SimHei-5c0f" d="M 3500 5150 
Q 3475 4800 3475 4200 
L 3475 175 
Q 3475 -300 3225 -425 
Q 2975 -550 2375 -600 
Q 2325 -300 2150 -25 
Q 2700 -25 2837 0 
Q 2975 25 2975 300 
L 2975 4200 
Q 2975 4650 2950 5150 
L 3500 5150 
z
M 2075 3400 
Q 1850 2775 1550 1962 
Q 1250 1150 1025 750 
Q 775 950 500 1000 
Q 925 1750 1175 2487 
Q 1425 3225 1500 3575 
Q 1800 3425 2075 3400 
z
M 4675 3600 
Q 5675 1800 5875 1150 
Q 5625 1100 5375 925 
Q 5000 2000 4225 3325 
Q 4425 3425 4675 3600 
z
" transform="scale(0.015625)"/>
      <path id="SimHei-533a" d="M 5850 4525 
Q 5475 4550 4850 4550 
L 1150 4550 
L 1150 -75 
L 5225 -75 
Q 5725 -75 6025 -50 
L 6025 -500 
Q 5700 -475 5175 -475 
L 625 -475 
Q 650 125 650 400 
L 650 4200 
Q 650 4625 625 4975 
L 5850 4975 
L 5850 4525 
z
M 2275 3875 
Q 3150 3275 3800 2700 
Q 4375 3375 4650 4050 
Q 4925 3875 5300 3700 
Q 5025 3525 4825 3225 
Q 4625 2925 4225 2375 
Q 5075 1675 5600 1000 
Q 5300 800 5175 575 
Q 4775 1175 3850 1950 
Q 3475 1525 3087 1175 
Q 2700 825 2125 400 
Q 1900 625 1625 775 
Q 2125 1000 2525 1312 
Q 2925 1625 3475 2300 
Q 2850 2875 1925 3450 
Q 2175 3650 2275 3875 
z
" transform="scale(0.015625)"/>
      <path id="SimHei-41" d="M 3075 125 
L 2475 125 
L 2125 1450 
L 1025 1450 
L 675 125 
L 75 125 
L 1325 4450 
L 1825 4450 
L 3075 125 
z
M 2000 1925 
L 1600 3450 
L 1550 3450 
L 1150 1925 
L 2000 1925 
z
" transform="scale(0.015625)"/>
      <path id="SimHei-2f" d="M 3000 4550 
L 350 -175 
L 100 -25 
L 2750 4700 
L 3000 4550 
z
" transform="scale(0.015625)"/>
      <path id="SimHei-ff08" d="M 5425 5100 
L 5700 4775 
Q 4275 3725 4325 2350 
Q 4350 1025 5675 50 
L 5400 -275 
Q 3875 825 3925 2500 
Q 3925 3875 5425 5100 
z
" transform="scale(0.015625)"/>
      <path id="SimHei-52" d="M 3000 125 
L 2400 125 
L 1500 1975 
L 850 1975 
L 850 125 
L 275 125 
L 275 4400 
L 1525 4400 
Q 2125 4400 2500 4112 
Q 2875 3825 2875 3175 
Q 2875 2675 2625 2400 
Q 2375 2125 2050 2050 
L 3000 125 
z
M 2300 3175 
Q 2300 3525 2087 3725 
Q 1875 3925 1400 3925 
L 850 3925 
L 850 2450 
L 1550 2450 
Q 1850 2450 2075 2612 
Q 2300 2775 2300 3175 
z
" transform="scale(0.015625)"/>
      <path id="SimHei-53" d="M 2900 1325 
Q 2900 750 2537 412 
Q 2175 75 1550 75 
Q 925 75 575 425 
Q 225 775 225 1300 
L 225 1475 
L 800 1475 
L 800 1325 
Q 800 950 1025 750 
Q 1250 550 1550 550 
Q 1950 550 2137 762 
Q 2325 975 2325 1275 
Q 2325 1525 2100 1737 
Q 1875 1950 1450 2125 
Q 850 2350 587 2625 
Q 325 2900 325 3275 
Q 325 3800 687 4125 
Q 1050 4450 1550 4450 
Q 2200 4450 2487 4062 
Q 2775 3675 2775 3225 
L 2200 3225 
Q 2225 3500 2050 3725 
Q 1875 3950 1550 3950 
Q 1250 3950 1075 3787 
Q 900 3625 900 3350 
Q 900 3125 1037 2962 
Q 1175 2800 1750 2575 
Q 2300 2350 2600 2037 
Q 2900 1725 2900 1325 
z
" transform="scale(0.015625)"/>
      <path id="SimHei-50" d="M 2950 3100 
Q 2950 2500 2600 2150 
Q 2250 1800 1625 1800 
L 900 1800 
L 900 125 
L 325 125 
L 325 4400 
L 1625 4400 
Q 2250 4400 2600 4050 
Q 2950 3700 2950 3100 
z
M 2375 3100 
Q 2375 3575 2150 3750 
Q 1925 3925 1475 3925 
L 900 3925 
L 900 2275 
L 1475 2275 
Q 1925 2275 2150 2450 
Q 2375 2625 2375 3100 
z
" transform="scale(0.015625)"/>
      <path id="SimHei-ff09" d="M 1000 5100 
Q 2500 3875 2500 2500 
Q 2550 825 1025 -275 
L 750 50 
Q 2075 1025 2100 2350 
Q 2150 3725 725 4775 
L 1000 5100 
z
" transform="scale(0.015625)"/>
      <path id="SimHei-5e8f" d="M 4000 2075 
L 5975 2075 
Q 5750 1525 5575 1025 
Q 5325 1100 5050 1150 
Q 5175 1450 5275 1700 
L 4050 1700 
L 4050 150 
Q 4050 -375 3762 -462 
Q 3475 -550 2950 -575 
Q 2875 -300 2750 0 
Q 3350 -75 3475 25 
Q 3600 125 3575 375 
L 3575 1700 
L 2450 1700 
Q 2050 1700 1675 1675 
L 1675 2100 
Q 2100 2075 2425 2075 
L 3675 2075 
Q 3325 2400 2875 2775 
Q 2975 2875 3250 3100 
Q 3400 2975 3725 2725 
L 4575 3275 
L 3000 3275 
Q 2400 3275 1950 3250 
L 1950 3700 
Q 2400 3675 3000 3675 
L 5400 3675 
L 5400 3250 
Q 4700 2875 4025 2450 
L 4275 2250 
L 4000 2075 
z
M 3725 5275 
Q 3825 4925 3925 4525 
L 4850 4525 
Q 5425 4525 6000 4550 
L 6000 4125 
Q 5425 4150 4850 4150 
L 1400 4150 
Q 1400 2750 1362 2137 
Q 1325 1525 1200 887 
Q 1075 250 775 -350 
Q 625 -250 250 -125 
Q 475 300 600 700 
Q 725 1100 800 1637 
Q 875 2175 875 2825 
Q 875 3500 850 4525 
L 3350 4525 
Q 3275 4825 3150 5150 
Q 3425 5200 3725 5275 
z
" transform="scale(0.015625)"/>
      <path id="SimHei-53d8" d="M 5200 1975 
Q 4950 1600 4537 1137 
Q 4125 675 3675 375 
Q 3925 225 4600 87 
Q 5275 -50 6000 -75 
Q 5700 -400 5650 -625 
Q 4850 -525 4212 -312 
Q 3575 -100 3225 125 
Q 2800 -125 2150 -325 
Q 1500 -525 700 -675 
Q 600 -425 400 -175 
Q 950 -150 1687 12 
Q 2425 175 2825 375 
Q 2275 775 1675 1575 
Q 1350 1575 1000 1550 
L 1000 2000 
Q 1450 1975 2075 1975 
L 5200 1975 
z
M 3225 5275 
Q 3400 4900 3550 4475 
L 4675 4475 
Q 5400 4475 5975 4500 
L 5975 4025 
Q 5375 4050 4725 4050 
L 4125 4050 
L 4125 2950 
Q 4125 2550 4150 2150 
L 3600 2150 
Q 3625 2550 3625 2950 
L 3625 4050 
L 2750 4050 
L 2750 2950 
Q 2750 2675 2775 2150 
L 2225 2150 
Q 2250 2675 2250 2950 
L 2250 4050 
L 1700 4050 
Q 975 4050 425 4025 
L 425 4500 
Q 950 4475 1700 4475 
L 2975 4475 
Q 2925 4675 2700 5125 
Q 2950 5150 3225 5275 
z
M 2200 1575 
Q 2650 975 3250 600 
Q 3850 1000 4275 1575 
L 2200 1575 
z
M 4850 3750 
Q 5375 3275 5950 2675 
Q 5750 2525 5500 2300 
Q 5075 2800 4450 3400 
Q 4675 3575 4850 3750 
z
M 1825 3500 
Q 1700 3375 1425 3025 
Q 1150 2675 825 2300 
Q 575 2475 375 2600 
Q 975 3150 1300 3825 
Q 1525 3650 1825 3500 
z
" transform="scale(0.015625)"/>
      <path id="SimHei-5316" d="M 3925 5025 
Q 3900 4900 3900 4400 
L 3900 2625 
Q 4375 3025 4775 3450 
Q 5175 3875 5400 4300 
Q 5600 4100 5900 3925 
Q 5700 3700 5225 3212 
Q 4750 2725 4487 2512 
Q 4225 2300 3900 2025 
L 3900 450 
Q 3900 50 4225 50 
L 5200 50 
Q 5400 75 5462 262 
Q 5525 450 5575 850 
Q 5800 650 6150 600 
Q 6000 -100 5825 -250 
Q 5650 -400 5350 -400 
L 3950 -400 
Q 3425 -400 3400 200 
L 3400 1675 
Q 3225 1525 2962 1350 
Q 2700 1175 2375 975 
Q 2225 1225 2025 1400 
Q 2350 1550 2737 1787 
Q 3125 2025 3400 2250 
L 3400 4500 
Q 3400 4800 3375 5025 
L 3925 5025 
z
M 2400 4850 
Q 2175 4550 2075 4337 
Q 1975 4125 1825 3775 
L 1825 675 
Q 1825 -75 1850 -550 
L 1325 -550 
Q 1350 -125 1350 650 
L 1350 3050 
Q 1125 2725 962 2525 
Q 800 2325 675 2175 
Q 500 2375 275 2525 
Q 625 2850 875 3212 
Q 1125 3575 1312 3912 
Q 1500 4250 1625 4575 
Q 1750 4900 1825 5100 
Q 1975 4975 2400 4850 
z
" transform="scale(0.015625)"/>
     </defs>
     <use xlink:href="#SimHei-5c0f"/>
     <use xlink:href="#SimHei-533a" x="100"/>
     <use xlink:href="#SimHei-41" x="200"/>
     <use xlink:href="#SimHei-2f" x="250"/>
     <use xlink:href="#SimHei-42" x="300"/>
     <use xlink:href="#SimHei-4fe1" x="350"/>
     <use xlink:href="#SimHei-53f7" x="450"/>
     <use xlink:href="#SimHei-5f3a" x="550"/>
     <use xlink:href="#SimHei-5ea6" x="650"/>
     <use xlink:href="#SimHei-ff08" x="750"/>
     <use xlink:href="#SimHei-52" x="850"/>
     <use xlink:href="#SimHei-53" x="900"/>
     <use xlink:href="#SimHei-52" x="950"/>
     <use xlink:href="#SimHei-50" x="1000"/>
     <use xlink:href="#SimHei-ff09" x="1050"/>
     <use xlink:href="#SimHei-65f6" x="1150"/>
     <use xlink:href="#SimHei-5e8f" x="1250"/>
     <use xlink:href="#SimHei-53d8" x="1350"/>
     <use xlink:href="#SimHei-5316" x="1450"/>
    </g>
   </g>
   <g id="legend_1">
    <g id="patch_7">
     <path d="M 720.124063 60.98125 
L 842.124063 60.98125 
Q 844.124063 60.98125 844.124063 58.98125 
L 844.124063 31.465625 
Q 844.124063 29.465625 842.124063 29.465625 
L 720.124063 29.465625 
Q 718.124063 29.465625 718.124063 31.465625 
L 718.124063 58.98125 
Q 718.124063 60.98125 720.124063 60.98125 
z
" style="fill: #ffffff; opacity: 0.8; stroke: #cccccc; stroke-linejoin: miter"/>
    </g>
    <g id="line2d_33">
     <path d="M 722.124063 37.973437 
L 732.124063 37.973437 
L 742.124063 37.973437 
" style="fill: none; stroke: #003366; stroke-width: 1.5; stroke-linecap: square"/>
    </g>
    <g id="text_19">
     <!-- 小区A信号强度(dBm) -->
     <g transform="translate(750.124063 41.473437)scale(0.1 -0.1)">
      <use xlink:href="#SimHei-5c0f"/>
      <use xlink:href="#SimHei-533a" x="100"/>
      <use xlink:href="#SimHei-41" x="200"/>
      <use xlink:href="#SimHei-4fe1" x="250"/>
      <use xlink:href="#SimHei-53f7" x="350"/>
      <use xlink:href="#SimHei-5f3a" x="450"/>
      <use xlink:href="#SimHei-5ea6" x="550"/>
      <use xlink:href="#SimHei-28" x="650"/>
      <use xlink:href="#SimHei-64" x="700"/>
      <use xlink:href="#SimHei-42" x="750"/>
      <use xlink:href="#SimHei-6d" x="800"/>
      <use xlink:href="#SimHei-29" x="850"/>
     </g>
    </g>
    <g id="line2d_34">
     <path d="M 722.124063 52.23125 
L 732.124063 52.23125 
L 742.124063 52.23125 
" style="fill: none; stroke: #990000; stroke-width: 1.5; stroke-linecap: square"/>
    </g>
    <g id="text_20">
     <!-- 小区B信号强度(dBm) -->
     <g transform="translate(750.124063 55.73125)scale(0.1 -0.1)">
      <use xlink:href="#SimHei-5c0f"/>
      <use xlink:href="#SimHei-533a" x="100"/>
      <use xlink:href="#SimHei-42" x="200"/>
      <use xlink:href="#SimHei-4fe1" x="250"/>
      <use xlink:href="#SimHei-53f7" x="350"/>
      <use xlink:href="#SimHei-5f3a" x="450"/>
      <use xlink:href="#SimHei-5ea6" x="550"/>
      <use xlink:href="#SimHei-28" x="650"/>
      <use xlink:href="#SimHei-64" x="700"/>
      <use xlink:href="#SimHei-42" x="750"/>
      <use xlink:href="#SimHei-6d" x="800"/>
      <use xlink:href="#SimHei-29" x="850"/>
     </g>
    </g>
   </g>
  </g>
 </g>
 <defs>
  <clipPath id="pf6dbf4d9ea">
   <rect x="47.457813" y="24.465625" width="801.66625" height="364.02625"/>
  </clipPath>
 </defs>
</svg>
