<?xml version="1.0" encoding="utf-8" standalone="no"?>
<!DOCTYPE svg PUBLIC "-//W3C//DTD SVG 1.1//EN"
  "http://www.w3.org/Graphics/SVG/1.1/DTD/svg11.dtd">
<svg xmlns:xlink="http://www.w3.org/1999/xlink" width="856.649687pt" height="424.078438pt" viewBox="0 0 856.649687 424.078438" xmlns="http://www.w3.org/2000/svg" version="1.1">
 <metadata>
  <rdf:RDF xmlns:dc="http://purl.org/dc/elements/1.1/" xmlns:cc="http://creativecommons.org/ns#" xmlns:rdf="http://www.w3.org/1999/02/22-rdf-syntax-ns#">
   <cc:Work>
    <dc:type rdf:resource="http://purl.org/dc/dcmitype/StillImage"/>
    <dc:date>2025-12-17T20:16:03.475467</dc:date>
    <dc:format>image/svg+xml</dc:format>
    <dc:creator>
     <cc:Agent>
      <dc:title>Matplotlib v3.5.0, https://matplotlib.org/</dc:title>
     </cc:Agent>
    </dc:creator>
   </cc:Work>
  </rdf:RDF>
 </metadata>
 <defs>
  <style type="text/css">*{stroke-linejoin: round; stroke-linecap: butt}</style>
 </defs>
 <g id="figure_1">
  <g id="patch_1">
   <path d="M -0 424.078438 
L 856.649687 424.078438 
L 856.649687 0 
L -0 0 
z
" style="fill: #ffffff"/>
  </g>
  <g id="axes_1">
   <g id="patch_2">
    <path d="M 47.535938 388.456563 
L 849.449687 388.456563 
L 849.449687 24.520312 
L 47.535938 24.520312 
z
" style="fill: #ffffff"/>
   </g>
   <g id="matplotlib.axis_1">
    <g id="xtick_1">
     <g id="line2d_1">
      <path d="M 83.986562 388.456563 
L 83.986562 24.520312 
" clip-path="url(#p59cd7ed1da)" style="fill: none; stroke: #b0b0b0; stroke-opacity: 0.3; stroke-width: 0.8; stroke-linecap: square"/>
     </g>
     <g id="line2d_2">
      <defs>
       <path id="m68de9304bc" d="M 0 0 
L 0 3.5 
" style="stroke: #000000; stroke-width: 0.8"/>
      </defs>
      <g>
       <use xlink:href="#m68de9304bc" x="83.986562" y="388.456563" style="stroke: #000000; stroke-width: 0.8"/>
      </g>
     </g>
     <g id="text_1">
      <!-- 0 -->
      <g transform="translate(81.486562 402.331563)scale(0.1 -0.1)">
       <defs>
        <path id="SimHei-30" d="M 225 2537 
Q 250 3200 412 3587 
Q 575 3975 875 4225 
Q 1175 4475 1612 4475 
Q 2050 4475 2375 4112 
Q 2700 3750 2800 3200 
Q 2900 2650 2862 1937 
Q 2825 1225 2612 775 
Q 2400 325 1975 150 
Q 1550 -25 1125 187 
Q 700 400 525 750 
Q 350 1100 275 1487 
Q 200 1875 225 2537 
z
M 750 2687 
Q 675 2000 800 1462 
Q 925 925 1212 700 
Q 1500 475 1800 612 
Q 2100 750 2237 1162 
Q 2375 1575 2375 2062 
Q 2375 2550 2337 2950 
Q 2300 3350 2112 3675 
Q 1925 4000 1612 4012 
Q 1300 4025 1062 3700 
Q 825 3375 750 2687 
z
" transform="scale(0.015625)"/>
       </defs>
       <use xlink:href="#SimHei-30"/>
      </g>
     </g>
    </g>
    <g id="xtick_2">
     <g id="line2d_3">
      <path d="M 230.081252 388.456563 
L 230.081252 24.520312 
" clip-path="url(#p59cd7ed1da)" style="fill: none; stroke: #b0b0b0; stroke-opacity: 0.3; stroke-width: 0.8; stroke-linecap: square"/>
     </g>
     <g id="line2d_4">
      <g>
       <use xlink:href="#m68de9304bc" x="230.081252" y="388.456563" style="stroke: #000000; stroke-width: 0.8"/>
      </g>
     </g>
     <g id="text_2">
      <!-- 100 -->
      <g transform="translate(222.581252 402.331563)scale(0.1 -0.1)">
       <defs>
        <path id="SimHei-31" d="M 1400 3600 
Q 1075 3275 575 2975 
L 575 3450 
Q 1200 3875 1600 4450 
L 1900 4450 
L 1900 150 
L 1400 150 
L 1400 3600 
z
" transform="scale(0.015625)"/>
       </defs>
       <use xlink:href="#SimHei-31"/>
       <use xlink:href="#SimHei-30" x="50"/>
       <use xlink:href="#SimHei-30" x="100"/>
      </g>
     </g>
    </g>
    <g id="xtick_3">
     <g id="line2d_5">
      <path d="M 376.175941 388.456563 
L 376.175941 24.520312 
" clip-path="url(#p59cd7ed1da)" style="fill: none; stroke: #b0b0b0; stroke-opacity: 0.3; stroke-width: 0.8; stroke-linecap: square"/>
     </g>
     <g id="line2d_6">
      <g>
       <use xlink:href="#m68de9304bc" x="376.175941" y="388.456563" style="stroke: #000000; stroke-width: 0.8"/>
      </g>
     </g>
     <g id="text_3">
      <!-- 200 -->
      <g transform="translate(368.675941 402.331563)scale(0.1 -0.1)">
       <defs>
        <path id="SimHei-32" d="M 300 250 
Q 325 625 650 925 
Q 975 1225 1475 1862 
Q 1975 2500 2125 2850 
Q 2275 3200 2237 3450 
Q 2200 3700 2000 3862 
Q 1800 4025 1537 4000 
Q 1275 3975 1037 3800 
Q 800 3625 675 3275 
L 200 3350 
Q 400 3925 712 4187 
Q 1025 4450 1450 4475 
Q 1700 4500 1900 4462 
Q 2100 4425 2312 4287 
Q 2525 4150 2662 3875 
Q 2800 3600 2762 3212 
Q 2725 2825 2375 2287 
Q 2025 1750 1025 600 
L 2825 600 
L 2825 150 
L 300 150 
L 300 250 
z
" transform="scale(0.015625)"/>
       </defs>
       <use xlink:href="#SimHei-32"/>
       <use xlink:href="#SimHei-30" x="50"/>
       <use xlink:href="#SimHei-30" x="100"/>
      </g>
     </g>
    </g>
    <g id="xtick_4">
     <g id="line2d_7">
      <path d="M 522.270631 388.456563 
L 522.270631 24.520312 
" clip-path="url(#p59cd7ed1da)" style="fill: none; stroke: #b0b0b0; stroke-opacity: 0.3; stroke-width: 0.8; stroke-linecap: square"/>
     </g>
     <g id="line2d_8">
      <g>
       <use xlink:href="#m68de9304bc" x="522.270631" y="388.456563" style="stroke: #000000; stroke-width: 0.8"/>
      </g>
     </g>
     <g id="text_4">
      <!-- 300 -->
      <g transform="translate(514.770631 402.331563)scale(0.1 -0.1)">
       <defs>
        <path id="SimHei-33" d="M 250 1225 
L 700 1300 
Q 800 975 1025 762 
Q 1250 550 1587 562 
Q 1925 575 2125 837 
Q 2325 1100 2300 1437 
Q 2275 1775 2037 1962 
Q 1800 2150 1275 2225 
L 1275 2550 
Q 1800 2600 2037 2825 
Q 2275 3050 2250 3412 
Q 2225 3775 1925 3937 
Q 1625 4100 1287 3975 
Q 950 3850 750 3275 
L 300 3350 
Q 450 3800 712 4100 
Q 975 4400 1425 4450 
Q 1875 4500 2212 4337 
Q 2550 4175 2687 3837 
Q 2825 3500 2725 3100 
Q 2625 2700 2150 2400 
Q 2500 2250 2687 1950 
Q 2875 1650 2812 1162 
Q 2750 675 2375 375 
Q 2000 75 1525 87 
Q 1050 100 700 387 
Q 350 675 250 1225 
z
" transform="scale(0.015625)"/>
       </defs>
       <use xlink:href="#SimHei-33"/>
       <use xlink:href="#SimHei-30" x="50"/>
       <use xlink:href="#SimHei-30" x="100"/>
      </g>
     </g>
    </g>
    <g id="xtick_5">
     <g id="line2d_9">
      <path d="M 668.36532 388.456563 
L 668.36532 24.520312 
" clip-path="url(#p59cd7ed1da)" style="fill: none; stroke: #b0b0b0; stroke-opacity: 0.3; stroke-width: 0.8; stroke-linecap: square"/>
     </g>
     <g id="line2d_10">
      <g>
       <use xlink:href="#m68de9304bc" x="668.36532" y="388.456563" style="stroke: #000000; stroke-width: 0.8"/>
      </g>
     </g>
     <g id="text_5">
      <!-- 400 -->
      <g transform="translate(660.86532 402.331563)scale(0.1 -0.1)">
       <defs>
        <path id="SimHei-34" d="M 2000 1100 
L 75 1100 
L 75 1525 
L 2100 4450 
L 2475 4450 
L 2475 1525 
L 3075 1525 
L 3075 1100 
L 2475 1100 
L 2475 150 
L 2000 150 
L 2000 1100 
z
M 2000 1525 
L 2000 3500 
L 600 1525 
L 2000 1525 
z
" transform="scale(0.015625)"/>
       </defs>
       <use xlink:href="#SimHei-34"/>
       <use xlink:href="#SimHei-30" x="50"/>
       <use xlink:href="#SimHei-30" x="100"/>
      </g>
     </g>
    </g>
    <g id="xtick_6">
     <g id="line2d_11">
      <path d="M 814.460009 388.456563 
L 814.460009 24.520312 
" clip-path="url(#p59cd7ed1da)" style="fill: none; stroke: #b0b0b0; stroke-opacity: 0.3; stroke-width: 0.8; stroke-linecap: square"/>
     </g>
     <g id="line2d_12">
      <g>
       <use xlink:href="#m68de9304bc" x="814.460009" y="388.456563" style="stroke: #000000; stroke-width: 0.8"/>
      </g>
     </g>
     <g id="text_6">
      <!-- 500 -->
      <g transform="translate(806.960009 402.331563)scale(0.1 -0.1)">
       <defs>
        <path id="SimHei-35" d="M 550 1325 
Q 725 650 1150 575 
Q 1575 500 1837 662 
Q 2100 825 2212 1087 
Q 2325 1350 2312 1675 
Q 2300 2000 2137 2225 
Q 1975 2450 1725 2525 
Q 1475 2600 1162 2525 
Q 850 2450 650 2175 
L 225 2225 
Q 275 2375 700 4375 
L 2675 4375 
L 2675 3925 
L 1075 3925 
Q 950 3250 825 2850 
Q 1200 3025 1525 3012 
Q 1850 3000 2150 2862 
Q 2450 2725 2587 2487 
Q 2725 2250 2787 2012 
Q 2850 1775 2837 1500 
Q 2825 1225 2725 937 
Q 2625 650 2425 462 
Q 2225 275 1937 162 
Q 1650 50 1275 75 
Q 900 100 562 350 
Q 225 600 100 1200 
L 550 1325 
z
" transform="scale(0.015625)"/>
       </defs>
       <use xlink:href="#SimHei-35"/>
       <use xlink:href="#SimHei-30" x="50"/>
       <use xlink:href="#SimHei-30" x="100"/>
      </g>
     </g>
    </g>
    <g id="text_7">
     <!-- 时间步 -->
     <g transform="translate(433.492812 415.628438)scale(0.1 -0.1)">
      <defs>
       <path id="SimHei-65f6" d="M 2525 4575 
Q 2500 3675 2500 2400 
Q 2500 1125 2525 400 
L 2000 400 
L 2000 875 
L 1000 875 
L 1000 50 
L 475 50 
Q 500 1200 500 2350 
Q 500 3525 475 4575 
L 2525 4575 
z
M 4875 3825 
Q 4875 4575 4850 5225 
L 5400 5225 
Q 5375 4575 5375 3825 
Q 5750 3825 6175 3850 
L 6175 3375 
Q 5750 3400 5375 3400 
L 5375 50 
Q 5375 -325 5075 -425 
Q 4775 -525 4300 -575 
Q 4300 -275 4025 0 
Q 4500 -50 4687 -25 
Q 4875 0 4875 300 
L 4875 3400 
Q 3625 3400 2775 3375 
L 2775 3850 
Q 3575 3825 4875 3825 
z
M 2000 1300 
L 2000 2550 
L 1000 2550 
L 1000 1300 
L 2000 1300 
z
M 2000 2975 
L 2000 4150 
L 1000 4150 
L 1000 2975 
L 2000 2975 
z
M 3550 2725 
Q 3875 2200 4175 1600 
Q 3925 1525 3650 1375 
Q 3450 1975 3075 2500 
Q 3300 2600 3550 2725 
z
" transform="scale(0.015625)"/>
       <path id="SimHei-95f4" d="M 4450 3550 
Q 4425 3075 4425 2725 
L 4425 1400 
Q 4425 1075 4450 625 
L 1925 625 
Q 1950 1075 1950 1425 
L 1950 2725 
Q 1950 3075 1925 3550 
L 4450 3550 
z
M 5800 4875 
Q 5775 4400 5775 3925 
L 5775 250 
Q 5800 -325 5462 -450 
Q 5125 -575 4725 -625 
Q 4700 -325 4525 -25 
Q 5000 -50 5137 25 
Q 5275 100 5275 350 
L 5275 4450 
L 3775 4450 
Q 3175 4450 2650 4425 
L 2650 4900 
Q 3175 4875 3775 4875 
L 5800 4875 
z
M 550 -525 
Q 600 -25 600 525 
L 600 3150 
Q 600 3675 550 4025 
L 1125 4025 
Q 1100 3650 1100 3300 
L 1100 500 
Q 1100 0 1125 -525 
L 550 -525 
z
M 3950 1025 
L 3950 1950 
L 2425 1950 
L 2425 1025 
L 3950 1025 
z
M 3950 2350 
L 3950 3150 
L 2425 3150 
L 2425 2350 
L 3950 2350 
z
M 1525 5300 
Q 1750 5000 2225 4350 
Q 1950 4225 1700 4075 
Q 1450 4575 1075 5025 
Q 1350 5225 1525 5300 
z
" transform="scale(0.015625)"/>
       <path id="SimHei-6b65" d="M 4800 4250 
Q 5150 4250 5550 4275 
L 5550 3825 
Q 5150 3850 4800 3850 
L 3700 3850 
L 3700 3000 
L 5125 3000 
Q 5675 3000 6100 3025 
L 6100 2550 
Q 5675 2575 5125 2575 
L 1475 2575 
Q 1050 2575 475 2525 
L 475 3025 
Q 1050 3000 1475 3000 
L 1725 3000 
L 1725 3775 
Q 1725 4225 1700 4500 
L 2225 4500 
Q 2200 4175 2200 3775 
L 2200 3000 
L 3225 3000 
Q 3225 4750 3200 5100 
L 3725 5100 
Q 3700 4750 3700 4250 
L 4800 4250 
z
M 3725 2400 
Q 3700 1975 3700 1600 
L 3700 450 
Q 4250 750 4725 1225 
Q 5200 1700 5400 2050 
Q 5650 1825 5900 1700 
Q 5675 1475 5362 1150 
Q 5050 825 4537 437 
Q 4025 50 3212 -225 
Q 2400 -500 800 -650 
Q 725 -400 500 -150 
Q 1275 -150 2100 -25 
Q 2925 100 3225 275 
L 3225 1600 
Q 3225 1975 3200 2400 
L 3725 2400 
z
M 2600 1875 
Q 2275 1600 1975 1275 
Q 1675 950 1075 400 
Q 875 600 700 725 
Q 1175 1075 1562 1512 
Q 1950 1950 2125 2200 
Q 2325 2025 2600 1875 
z
" transform="scale(0.015625)"/>
      </defs>
      <use xlink:href="#SimHei-65f6"/>
      <use xlink:href="#SimHei-95f4" x="100"/>
      <use xlink:href="#SimHei-6b65" x="200"/>
     </g>
    </g>
   </g>
   <g id="matplotlib.axis_2">
    <g id="ytick_1">
     <g id="line2d_13">
      <path d="M 47.535938 345.794179 
L 849.449687 345.794179 
" clip-path="url(#p59cd7ed1da)" style="fill: none; stroke: #b0b0b0; stroke-opacity: 0.3; stroke-width: 0.8; stroke-linecap: square"/>
     </g>
     <g id="line2d_14">
      <defs>
       <path id="m2bcc3b690b" d="M 0 0 
L -3.5 0 
" style="stroke: #000000; stroke-width: 0.8"/>
      </defs>
      <g>
       <use xlink:href="#m2bcc3b690b" x="47.535938" y="345.794179" style="stroke: #000000; stroke-width: 0.8"/>
      </g>
     </g>
     <g id="text_8">
      <!-- 2.5 -->
      <g transform="translate(25.535938 349.231679)scale(0.1 -0.1)">
       <defs>
        <path id="SimHei-2e" d="M 1075 125 
L 500 125 
L 500 675 
L 1075 675 
L 1075 125 
z
" transform="scale(0.015625)"/>
       </defs>
       <use xlink:href="#SimHei-32"/>
       <use xlink:href="#SimHei-2e" x="50"/>
       <use xlink:href="#SimHei-35" x="100"/>
      </g>
     </g>
    </g>
    <g id="ytick_2">
     <g id="line2d_15">
      <path d="M 47.535938 302.261135 
L 849.449687 302.261135 
" clip-path="url(#p59cd7ed1da)" style="fill: none; stroke: #b0b0b0; stroke-opacity: 0.3; stroke-width: 0.8; stroke-linecap: square"/>
     </g>
     <g id="line2d_16">
      <g>
       <use xlink:href="#m2bcc3b690b" x="47.535938" y="302.261135" style="stroke: #000000; stroke-width: 0.8"/>
      </g>
     </g>
     <g id="text_9">
      <!-- 5.0 -->
      <g transform="translate(25.535938 305.698635)scale(0.1 -0.1)">
       <use xlink:href="#SimHei-35"/>
       <use xlink:href="#SimHei-2e" x="50"/>
       <use xlink:href="#SimHei-30" x="100"/>
      </g>
     </g>
    </g>
    <g id="ytick_3">
     <g id="line2d_17">
      <path d="M 47.535938 258.728091 
L 849.449687 258.728091 
" clip-path="url(#p59cd7ed1da)" style="fill: none; stroke: #b0b0b0; stroke-opacity: 0.3; stroke-width: 0.8; stroke-linecap: square"/>
     </g>
     <g id="line2d_18">
      <g>
       <use xlink:href="#m2bcc3b690b" x="47.535938" y="258.728091" style="stroke: #000000; stroke-width: 0.8"/>
      </g>
     </g>
     <g id="text_10">
      <!-- 7.5 -->
      <g transform="translate(25.535938 262.165591)scale(0.1 -0.1)">
       <defs>
        <path id="SimHei-37" d="M 850 150 
Q 1300 2050 2425 3925 
L 275 3925 
L 275 4375 
L 2950 4375 
L 2950 3950 
Q 1775 2050 1400 150 
L 850 150 
z
" transform="scale(0.015625)"/>
       </defs>
       <use xlink:href="#SimHei-37"/>
       <use xlink:href="#SimHei-2e" x="50"/>
       <use xlink:href="#SimHei-35" x="100"/>
      </g>
     </g>
    </g>
    <g id="ytick_4">
     <g id="line2d_19">
      <path d="M 47.535938 215.195046 
L 849.449687 215.195046 
" clip-path="url(#p59cd7ed1da)" style="fill: none; stroke: #b0b0b0; stroke-opacity: 0.3; stroke-width: 0.8; stroke-linecap: square"/>
     </g>
     <g id="line2d_20">
      <g>
       <use xlink:href="#m2bcc3b690b" x="47.535938" y="215.195046" style="stroke: #000000; stroke-width: 0.8"/>
      </g>
     </g>
     <g id="text_11">
      <!-- 10.0 -->
      <g transform="translate(20.535938 218.632546)scale(0.1 -0.1)">
       <use xlink:href="#SimHei-31"/>
       <use xlink:href="#SimHei-30" x="50"/>
       <use xlink:href="#SimHei-2e" x="100"/>
       <use xlink:href="#SimHei-30" x="150"/>
      </g>
     </g>
    </g>
    <g id="ytick_5">
     <g id="line2d_21">
      <path d="M 47.535938 171.662002 
L 849.449687 171.662002 
" clip-path="url(#p59cd7ed1da)" style="fill: none; stroke: #b0b0b0; stroke-opacity: 0.3; stroke-width: 0.8; stroke-linecap: square"/>
     </g>
     <g id="line2d_22">
      <g>
       <use xlink:href="#m2bcc3b690b" x="47.535938" y="171.662002" style="stroke: #000000; stroke-width: 0.8"/>
      </g>
     </g>
     <g id="text_12">
      <!-- 12.5 -->
      <g transform="translate(20.535938 175.099502)scale(0.1 -0.1)">
       <use xlink:href="#SimHei-31"/>
       <use xlink:href="#SimHei-32" x="50"/>
       <use xlink:href="#SimHei-2e" x="100"/>
       <use xlink:href="#SimHei-35" x="150"/>
      </g>
     </g>
    </g>
    <g id="ytick_6">
     <g id="line2d_23">
      <path d="M 47.535938 128.128958 
L 849.449687 128.128958 
" clip-path="url(#p59cd7ed1da)" style="fill: none; stroke: #b0b0b0; stroke-opacity: 0.3; stroke-width: 0.8; stroke-linecap: square"/>
     </g>
     <g id="line2d_24">
      <g>
       <use xlink:href="#m2bcc3b690b" x="47.535938" y="128.128958" style="stroke: #000000; stroke-width: 0.8"/>
      </g>
     </g>
     <g id="text_13">
      <!-- 15.0 -->
      <g transform="translate(20.535938 131.566458)scale(0.1 -0.1)">
       <use xlink:href="#SimHei-31"/>
       <use xlink:href="#SimHei-35" x="50"/>
       <use xlink:href="#SimHei-2e" x="100"/>
       <use xlink:href="#SimHei-30" x="150"/>
      </g>
     </g>
    </g>
    <g id="ytick_7">
     <g id="line2d_25">
      <path d="M 47.535938 84.595914 
L 849.449687 84.595914 
" clip-path="url(#p59cd7ed1da)" style="fill: none; stroke: #b0b0b0; stroke-opacity: 0.3; stroke-width: 0.8; stroke-linecap: square"/>
     </g>
     <g id="line2d_26">
      <g>
       <use xlink:href="#m2bcc3b690b" x="47.535938" y="84.595914" style="stroke: #000000; stroke-width: 0.8"/>
      </g>
     </g>
     <g id="text_14">
      <!-- 17.5 -->
      <g transform="translate(20.535938 88.033414)scale(0.1 -0.1)">
       <use xlink:href="#SimHei-31"/>
       <use xlink:href="#SimHei-37" x="50"/>
       <use xlink:href="#SimHei-2e" x="100"/>
       <use xlink:href="#SimHei-35" x="150"/>
      </g>
     </g>
    </g>
    <g id="ytick_8">
     <g id="line2d_27">
      <path d="M 47.535938 41.062869 
L 849.449687 41.062869 
" clip-path="url(#p59cd7ed1da)" style="fill: none; stroke: #b0b0b0; stroke-opacity: 0.3; stroke-width: 0.8; stroke-linecap: square"/>
     </g>
     <g id="line2d_28">
      <g>
       <use xlink:href="#m2bcc3b690b" x="47.535938" y="41.062869" style="stroke: #000000; stroke-width: 0.8"/>
      </g>
     </g>
     <g id="text_15">
      <!-- 20.0 -->
      <g transform="translate(20.535938 44.500369)scale(0.1 -0.1)">
       <use xlink:href="#SimHei-32"/>
       <use xlink:href="#SimHei-30" x="50"/>
       <use xlink:href="#SimHei-2e" x="100"/>
       <use xlink:href="#SimHei-30" x="150"/>
      </g>
     </g>
    </g>
    <g id="text_16">
     <!-- 传输延迟(ms) -->
     <g transform="translate(15.285938 236.488437)rotate(-90)scale(0.1 -0.1)">
      <defs>
       <path id="SimHei-4f20" d="M 5500 1975 
Q 5025 925 4700 250 
Q 4975 100 5450 -200 
Q 5300 -375 5125 -675 
Q 4700 -375 4012 12 
Q 3325 400 3050 525 
Q 3175 750 3275 950 
Q 3600 800 4275 475 
Q 4525 975 4750 1550 
L 2800 1550 
Q 2950 2000 3125 2650 
L 2575 2650 
Q 2200 2650 1925 2625 
L 1925 3075 
Q 2250 3050 2600 3050 
L 3200 3050 
Q 3300 3525 3350 3825 
L 2975 3825 
Q 2525 3825 2250 3800 
L 2250 4250 
Q 2550 4225 2950 4225 
L 3425 4225 
Q 3525 4950 3525 5225 
Q 3850 5150 4100 5125 
Q 4025 5000 3875 4225 
L 4950 4225 
Q 5350 4225 5700 4250 
L 5700 3800 
Q 5375 3825 4925 3825 
L 3825 3825 
Q 3775 3550 3675 3050 
L 5250 3050 
Q 5750 3050 6025 3075 
L 6025 2625 
Q 5725 2650 5250 2650 
L 3600 2650 
Q 3500 2250 3425 1975 
L 5500 1975 
z
M 2225 4875 
Q 2025 4675 1650 3750 
L 1650 550 
Q 1650 -25 1675 -525 
L 1125 -525 
Q 1175 -125 1175 525 
L 1175 3000 
Q 800 2400 550 2050 
Q 450 2250 200 2450 
Q 500 2800 925 3525 
Q 1350 4250 1625 5175 
Q 1850 5050 2225 4875 
z
" transform="scale(0.015625)"/>
       <path id="SimHei-8f93" d="M 3225 3650 
Q 2725 3100 2550 2950 
L 4100 2950 
Q 4075 2675 4075 2275 
L 4075 -100 
Q 4100 -325 3962 -425 
Q 3825 -525 3475 -600 
Q 3400 -350 3225 -100 
Q 3650 -100 3650 25 
L 3650 675 
L 2975 675 
L 2975 -575 
L 2525 -575 
Q 2550 -125 2550 325 
L 2550 2075 
Q 2550 2500 2525 2925 
L 2375 2800 
Q 2200 3000 1950 3100 
Q 2575 3525 3025 4087 
Q 3475 4650 3775 5300 
Q 4075 5150 4325 5100 
L 4225 4975 
Q 4700 4325 5225 3975 
Q 5750 3625 6200 3475 
Q 5975 3275 5825 3025 
Q 5275 3300 4875 3650 
L 4875 3350 
L 3225 3350 
L 3225 3650 
z
M 2225 825 
Q 1975 775 1725 675 
Q 1725 -100 1750 -650 
L 1275 -650 
Q 1300 -100 1300 575 
Q 725 425 475 325 
Q 400 575 250 825 
Q 650 875 1300 1025 
L 1300 1975 
Q 700 1925 400 1800 
L 225 2225 
Q 425 2350 600 2850 
Q 775 3350 875 3825 
Q 625 3825 350 3800 
L 350 4250 
Q 675 4225 950 4225 
Q 1050 4700 1075 5175 
Q 1400 5075 1675 5025 
Q 1525 4850 1400 4225 
Q 1925 4225 2300 4250 
L 2300 3800 
Q 1850 3825 1325 3825 
Q 1075 2900 825 2325 
L 1300 2375 
Q 1300 2700 1275 3125 
L 1750 3125 
Q 1725 2900 1725 2425 
L 2150 2475 
L 2150 2075 
L 1725 2025 
L 1725 1125 
L 2225 1250 
L 2225 825 
z
M 5775 2925 
Q 5750 2525 5750 2150 
L 5750 -100 
Q 5750 -375 5625 -475 
Q 5500 -575 5000 -675 
Q 4950 -450 4750 -175 
Q 5300 -200 5325 0 
L 5325 2100 
Q 5325 2500 5300 2925 
L 5775 2925 
z
M 4975 2700 
Q 4950 2400 4950 2000 
L 4950 900 
Q 4950 425 4975 125 
L 4475 125 
Q 4500 500 4500 875 
L 4500 2000 
Q 4500 2350 4475 2700 
L 4975 2700 
z
M 4750 3750 
Q 4450 4025 3975 4675 
Q 3575 4075 3300 3750 
L 4750 3750 
z
M 3650 2000 
L 3650 2575 
L 2975 2575 
L 2975 2000 
L 3650 2000 
z
M 3650 1075 
L 3650 1625 
L 2975 1625 
L 2975 1075 
L 3650 1075 
z
" transform="scale(0.015625)"/>
       <path id="SimHei-5ef6" d="M 2100 4750 
Q 1500 3450 1275 2875 
L 2175 2875 
Q 2050 2200 1937 1712 
Q 1825 1225 1650 750 
Q 2025 425 2712 212 
Q 3400 0 4175 -25 
Q 4950 -50 6175 75 
Q 5950 -200 5925 -475 
Q 4825 -500 4112 -462 
Q 3400 -425 2900 -312 
Q 2400 -200 2075 -37 
Q 1750 125 1425 375 
Q 1050 -150 650 -525 
Q 500 -350 250 -200 
Q 725 200 1100 700 
Q 825 1025 687 1250 
Q 550 1475 400 1775 
Q 500 1825 800 2000 
Q 950 1700 1050 1537 
Q 1150 1375 1300 1175 
Q 1475 1625 1650 2500 
Q 1000 2500 725 2425 
L 600 2875 
Q 825 3000 1050 3500 
Q 1275 4000 1400 4350 
Q 800 4350 400 4325 
L 400 4775 
Q 1125 4750 1450 4750 
L 2100 4750 
z
M 5675 4625 
Q 5350 4625 4500 4400 
L 4500 3100 
Q 5200 3100 5600 3125 
L 5600 2675 
Q 5200 2700 4500 2700 
L 4500 1200 
Q 4975 1200 5675 1225 
L 5675 750 
Q 5000 775 4600 775 
L 2700 775 
Q 2725 1400 2725 1825 
L 2725 2400 
Q 2725 2850 2700 3525 
L 3275 3525 
Q 3225 2850 3225 2200 
L 3225 1200 
L 4000 1200 
L 4000 4325 
Q 3075 4175 2650 4100 
Q 2600 4275 2450 4575 
Q 3300 4650 3887 4762 
Q 4475 4875 5200 5175 
Q 5275 5050 5675 4625 
z
" transform="scale(0.015625)"/>
       <path id="SimHei-8fdf" d="M 5575 4825 
Q 5550 4100 5550 3700 
Q 5550 3300 5575 2550 
L 5075 2550 
L 5075 2825 
L 3175 2825 
Q 3150 2150 2987 1675 
Q 2825 1200 2400 475 
Q 2200 625 1900 750 
Q 2300 1200 2462 1625 
Q 2625 2050 2675 2425 
Q 2725 2800 2725 3400 
Q 2725 4000 2700 4825 
L 5575 4825 
z
M 1650 2975 
Q 1625 2500 1625 2000 
L 1625 600 
Q 2450 75 3800 50 
Q 5150 25 6150 150 
Q 5900 -175 5850 -450 
Q 4925 -450 4212 -437 
Q 3500 -425 3075 -362 
Q 2650 -300 2312 -175 
Q 1975 -50 1725 100 
Q 1475 250 1250 37 
Q 1025 -175 775 -550 
Q 575 -350 325 -175 
Q 900 325 1175 525 
L 1175 2550 
Q 725 2550 375 2525 
L 375 3000 
Q 750 2975 1175 2975 
L 1650 2975 
z
M 5075 3275 
L 5075 4375 
L 3175 4375 
L 3175 3275 
L 5075 3275 
z
M 4150 2450 
Q 4500 2175 5675 925 
Q 5475 775 5225 500 
Q 4650 1225 3800 2075 
Q 3975 2225 4150 2450 
z
M 1275 5100 
Q 1600 4450 1825 3900 
Q 1550 3800 1350 3700 
Q 1125 4325 825 4900 
Q 1075 4975 1275 5100 
z
" transform="scale(0.015625)"/>
       <path id="SimHei-28" d="M 2975 -200 
L 2700 -475 
Q 2075 125 1762 775 
Q 1450 1425 1450 2250 
Q 1450 3075 1762 3725 
Q 2075 4375 2700 5000 
L 2975 4725 
Q 2400 4175 2112 3587 
Q 1825 3000 1825 2250 
Q 1825 1500 2112 912 
Q 2400 325 2975 -200 
z
" transform="scale(0.015625)"/>
       <path id="SimHei-6d" d="M 3050 125 
L 2550 125 
L 2550 2150 
Q 2550 2300 2500 2400 
Q 2450 2500 2300 2500 
Q 2125 2500 1975 2312 
Q 1825 2125 1825 1825 
L 1825 125 
L 1325 125 
L 1325 2150 
Q 1325 2300 1275 2400 
Q 1225 2500 1075 2500 
Q 900 2500 750 2312 
Q 600 2125 600 1825 
L 600 125 
L 100 125 
L 100 2925 
L 600 2925 
L 600 2550 
Q 725 2750 900 2862 
Q 1075 2975 1275 2975 
Q 1475 2975 1612 2862 
Q 1750 2750 1800 2550 
Q 1925 2750 2087 2862 
Q 2250 2975 2450 2975 
Q 2750 2975 2900 2812 
Q 3050 2650 3050 2350 
L 3050 125 
z
" transform="scale(0.015625)"/>
       <path id="SimHei-73" d="M 2750 900 
Q 2750 500 2437 287 
Q 2125 75 1650 75 
Q 1050 75 725 312 
Q 400 550 400 1000 
L 900 1000 
Q 900 700 1112 600 
Q 1325 500 1625 500 
Q 1925 500 2075 612 
Q 2225 725 2225 900 
Q 2225 1025 2100 1150 
Q 1975 1275 1475 1350 
Q 900 1425 687 1637 
Q 475 1850 475 2200 
Q 475 2500 762 2737 
Q 1050 2975 1600 2975 
Q 2100 2975 2387 2750 
Q 2675 2525 2675 2150 
L 2175 2150 
Q 2175 2375 2012 2462 
Q 1850 2550 1600 2550 
Q 1275 2550 1137 2437 
Q 1000 2325 1000 2175 
Q 1000 2000 1125 1900 
Q 1250 1800 1650 1750 
Q 2300 1650 2525 1437 
Q 2750 1225 2750 900 
z
" transform="scale(0.015625)"/>
       <path id="SimHei-29" d="M 1675 2250 
Q 1675 1425 1362 775 
Q 1050 125 425 -475 
L 150 -200 
Q 725 325 1012 912 
Q 1300 1500 1300 2250 
Q 1300 3000 1012 3587 
Q 725 4175 150 4725 
L 425 5000 
Q 1050 4375 1362 3725 
Q 1675 3075 1675 2250 
z
" transform="scale(0.015625)"/>
      </defs>
      <use xlink:href="#SimHei-4f20"/>
      <use xlink:href="#SimHei-8f93" x="100"/>
      <use xlink:href="#SimHei-5ef6" x="200"/>
      <use xlink:href="#SimHei-8fdf" x="300"/>
      <use xlink:href="#SimHei-28" x="400"/>
      <use xlink:href="#SimHei-6d" x="450"/>
      <use xlink:href="#SimHei-73" x="500"/>
      <use xlink:href="#SimHei-29" x="550"/>
     </g>
    </g>
   </g>
   <g id="line2d_29">
    <path d="M 83.986562 184.092868 
L 85.447509 182.250215 
L 86.908456 151.42275 
L 88.369403 107.583371 
L 89.83035 153.716682 
L 91.291297 135.195884 
L 92.752244 41.062869 
L 94.213191 53.209999 
L 95.674138 110.270434 
L 97.135085 67.49802 
L 98.596031 75.074591 
L 100.056978 69.856771 
L 101.517925 44.131591 
L 102.978872 123.895469 
L 104.439819 118.72166 
L 105.900766 80.244765 
L 107.361713 104.643805 
L 108.82266 93.915221 
L 110.283607 124.646478 
L 111.744553 160.71313 
L 113.2055 69.263209 
L 114.666447 111.734525 
L 116.127394 146.375111 
L 117.588341 220.712302 
L 119.049288 197.101575 
L 120.510235 198.712789 
L 121.971182 259.806796 
L 123.432129 225.723446 
L 124.893076 260.656226 
L 126.354022 300.630434 
L 127.814969 309.86621 
L 129.275916 257.645965 
L 132.19781 371.914006 
L 133.658757 318.886269 
L 135.119704 371.914006 
L 136.580651 335.875687 
L 138.041598 362.318057 
L 139.502544 371.914006 
L 140.963491 345.366152 
L 142.424438 330.595366 
L 143.885385 348.019158 
L 145.346332 337.437344 
L 146.807279 333.355456 
L 148.268226 330.759957 
L 149.729173 311.921704 
L 151.19012 306.330773 
L 152.651067 230.579398 
L 154.112013 219.728341 
L 155.57296 259.834843 
L 157.033907 210.461707 
L 158.494854 218.314766 
L 161.416748 125.530237 
L 162.877695 107.957105 
L 164.338642 80.920068 
L 165.799589 158.354341 
L 167.260535 100.616777 
L 168.721482 65.245645 
L 170.182429 41.062869 
L 171.643376 90.659953 
L 173.104323 65.078562 
L 174.56527 104.043358 
L 176.026217 94.974624 
L 177.487164 50.417386 
L 178.948111 45.326679 
L 180.409057 85.63391 
L 181.870004 42.141183 
L 183.330951 72.480183 
L 184.791898 130.267327 
L 186.252845 108.757657 
L 187.713792 101.356262 
L 189.174739 158.516079 
L 190.635686 120.877994 
L 192.096633 249.876861 
L 193.55758 193.72529 
L 195.018526 209.794279 
L 196.479473 245.780871 
L 197.94042 258.036311 
L 199.401367 328.179608 
L 200.862314 299.788512 
L 202.323261 294.717348 
L 203.784208 274.798612 
L 205.245155 338.197673 
L 206.706102 357.80581 
L 208.167048 371.914006 
L 209.627995 336.801395 
L 211.088942 346.490762 
L 212.549889 371.914006 
L 214.010836 335.754557 
L 215.471783 330.865081 
L 216.93273 312.44398 
L 218.393677 353.987597 
L 219.854624 329.185411 
L 221.315571 309.916993 
L 222.776517 362.989197 
L 224.237464 271.580166 
L 225.698411 247.05393 
L 227.159358 227.236788 
L 228.620305 234.361139 
L 230.081252 269.173291 
L 231.542199 191.520315 
L 233.003146 183.748155 
L 234.464093 187.082147 
L 235.925039 143.23077 
L 237.385986 104.383061 
L 238.846933 47.3812 
L 240.30788 106.524522 
L 241.768827 60.765827 
L 243.229774 59.229209 
L 244.690721 120.348005 
L 246.151668 72.283627 
L 247.612615 57.80712 
L 249.073561 41.131004 
L 250.534508 61.211742 
L 251.995455 49.324365 
L 253.456402 82.503126 
L 254.917349 120.996261 
L 256.378296 52.054382 
L 257.839243 67.780604 
L 259.30019 89.124516 
L 260.761137 160.614897 
L 262.222084 108.671693 
L 263.68303 205.590607 
L 265.143977 168.751907 
L 266.604924 147.699448 
L 268.065871 247.934855 
L 269.526818 259.550857 
L 270.987765 267.06074 
L 272.448712 304.080428 
L 273.909659 346.100615 
L 275.370606 304.822456 
L 276.831552 357.380647 
L 278.292499 315.874092 
L 279.753446 354.152969 
L 281.214393 287.091431 
L 282.67534 369.922258 
L 284.136287 356.132397 
L 285.597234 338.535552 
L 287.058181 367.756491 
L 288.519128 319.945841 
L 289.980075 297.897622 
L 291.441021 371.914006 
L 292.901968 318.417897 
L 294.362915 307.190153 
L 295.823862 271.876504 
L 297.284809 318.164748 
L 298.745756 314.507787 
L 300.206703 220.683306 
L 301.66765 200.341431 
L 303.128597 202.062359 
L 304.589543 154.890784 
L 306.05049 181.133236 
L 307.511437 127.937719 
L 308.972384 126.935597 
L 310.433331 129.04985 
L 311.894278 52.471319 
L 313.355225 63.132504 
L 314.816172 115.32752 
L 316.277119 41.842976 
L 317.738066 107.683918 
L 319.199012 50.414497 
L 320.659959 41.062869 
L 322.120906 95.468653 
L 323.581853 41.062869 
L 325.0428 67.552512 
L 326.503747 41.062869 
L 327.964694 53.940187 
L 329.425641 98.236923 
L 330.886588 127.681816 
L 332.347534 160.921888 
L 333.808481 161.356783 
L 335.269428 157.556311 
L 336.730375 170.121187 
L 338.191322 195.699655 
L 339.652269 206.185579 
L 341.113216 227.591469 
L 342.574163 218.161677 
L 344.03511 275.204009 
L 345.496056 196.775074 
L 348.41795 344.760208 
L 349.878897 364.305073 
L 351.339844 312.127027 
L 352.800791 347.886153 
L 354.261738 323.147643 
L 355.722685 333.320196 
L 357.183632 371.914006 
L 358.644579 364.00713 
L 360.105525 365.514974 
L 361.566472 371.117256 
L 363.027419 312.214164 
L 364.488366 321.519204 
L 365.949313 359.079197 
L 367.41026 293.76621 
L 368.871207 260.278577 
L 370.332154 289.629221 
L 371.793101 262.987767 
L 373.254047 227.855453 
L 374.714994 241.65645 
L 376.175941 183.11415 
L 377.636888 150.426691 
L 379.097835 105.321142 
L 380.558782 99.118151 
L 382.019729 171.134105 
L 383.480676 132.987369 
L 384.941623 80.526574 
L 386.40257 69.734645 
L 387.863516 63.409108 
L 389.324463 41.062869 
L 390.78541 52.321203 
L 392.246357 41.062869 
L 393.707304 41.062869 
L 395.168251 55.682723 
L 396.629198 68.547161 
L 398.090145 64.419916 
L 399.551092 94.45456 
L 401.012038 83.91369 
L 402.472985 119.39954 
L 403.933932 106.708891 
L 405.394879 41.062869 
L 406.855826 209.1946 
L 408.316773 147.859961 
L 409.77772 215.491768 
L 411.238667 191.294945 
L 412.699614 178.853266 
L 414.16056 220.825953 
L 415.621507 273.334433 
L 417.082454 300.572755 
L 418.543401 268.199795 
L 420.004348 312.129732 
L 421.465295 289.777016 
L 422.926242 319.1618 
L 424.387189 367.406968 
L 425.848136 253.008062 
L 427.309083 335.132117 
L 428.770029 371.914006 
L 430.230976 345.625127 
L 431.691923 355.676245 
L 433.15287 313.66628 
L 434.613817 366.933238 
L 436.074764 336.064509 
L 437.535711 309.940195 
L 438.996658 280.711153 
L 440.457605 367.689451 
L 441.918551 300.572294 
L 443.379498 283.190758 
L 444.840445 286.226142 
L 446.301392 171.99504 
L 447.762339 204.593024 
L 449.223286 220.496687 
L 450.684233 131.732933 
L 452.14518 95.046845 
L 453.606127 110.395133 
L 455.067074 177.611654 
L 456.52802 132.167881 
L 457.988967 53.837203 
L 459.449914 117.210284 
L 460.910861 72.996802 
L 462.371808 41.062869 
L 463.832755 86.275778 
L 465.293702 69.098831 
L 466.754649 155.489251 
L 468.215596 99.334367 
L 469.676542 68.130215 
L 471.137489 100.987654 
L 472.598436 41.414051 
L 474.059383 128.991674 
L 475.52033 118.387933 
L 476.981277 109.878417 
L 478.442224 81.829068 
L 479.903171 199.133309 
L 481.364118 124.647622 
L 482.825065 195.297809 
L 484.286011 235.661808 
L 485.746958 204.478488 
L 487.207905 231.452314 
L 488.668852 275.856703 
L 490.129799 269.180861 
L 491.590746 294.934579 
L 493.051693 289.375723 
L 494.51264 300.70657 
L 495.973587 287.746931 
L 497.434533 371.914006 
L 498.89548 279.905918 
L 500.356427 371.914006 
L 501.817374 367.429432 
L 503.278321 349.442005 
L 504.739268 349.478475 
L 506.200215 369.025132 
L 507.661162 345.019102 
L 509.122109 358.333816 
L 510.583055 349.807999 
L 512.044002 295.46942 
L 513.504949 288.615118 
L 514.965896 316.607675 
L 516.426843 232.546553 
L 517.88779 259.290367 
L 519.348737 209.461827 
L 520.809684 190.006651 
L 522.270631 220.757828 
L 523.731578 167.09326 
L 525.192524 130.234091 
L 526.653471 131.584078 
L 528.114418 126.684144 
L 529.575365 124.669117 
L 531.036312 55.088712 
L 532.497259 113.060954 
L 533.958206 47.314083 
L 535.419153 79.685978 
L 536.8801 70.157472 
L 538.341046 47.703134 
L 539.801993 41.062869 
L 541.26294 44.419191 
L 542.723887 41.062869 
L 544.184834 59.782235 
L 545.645781 49.641568 
L 547.106728 93.957162 
L 548.567675 84.892126 
L 550.028622 138.055049 
L 551.489569 128.661815 
L 552.950515 117.011928 
L 554.411462 190.655607 
L 555.872409 126.756573 
L 557.333356 233.760939 
L 558.794303 241.027375 
L 560.25525 185.854751 
L 561.716197 229.705963 
L 563.177144 241.940543 
L 564.638091 271.804854 
L 566.099037 321.903075 
L 567.559984 356.432773 
L 569.020931 309.892382 
L 570.481878 363.701518 
L 571.942825 316.332132 
L 573.403772 359.455847 
L 574.864719 352.019719 
L 576.325666 348.980486 
L 577.786613 316.901391 
L 579.247559 370.135526 
L 580.708506 367.746009 
L 582.169453 343.051758 
L 583.6304 301.330655 
L 585.091347 341.563002 
L 586.552294 311.952902 
L 588.013241 287.005093 
L 589.474188 320.650056 
L 590.935135 304.319373 
L 592.396082 260.871287 
L 595.317975 188.824605 
L 596.778922 117.342951 
L 598.239869 140.009576 
L 599.700816 142.595207 
L 601.161763 111.336811 
L 602.62271 147.103519 
L 604.083657 103.376602 
L 605.544604 95.673694 
L 607.00555 51.107547 
L 608.466497 91.942996 
L 609.927444 49.675948 
L 611.388391 41.062869 
L 612.849338 72.780186 
L 614.310285 41.062869 
L 615.771232 41.062869 
L 617.232179 86.203386 
L 618.693126 79.528753 
L 620.154073 97.528731 
L 621.615019 92.227323 
L 623.075966 127.816349 
L 624.536913 136.411331 
L 625.99786 125.982529 
L 627.458807 138.66426 
L 628.919754 157.522176 
L 630.380701 130.888756 
L 631.841648 255.419652 
L 633.302595 219.954016 
L 634.763541 257.928782 
L 636.224488 198.702467 
L 637.685435 319.020182 
L 639.146382 356.275327 
L 640.607329 360.322338 
L 642.068276 371.914006 
L 643.529223 351.905576 
L 644.99017 371.914006 
L 646.451117 352.118605 
L 647.912064 348.942677 
L 649.37301 278.703619 
L 650.833957 326.034724 
L 652.294904 364.390058 
L 653.755851 370.438161 
L 655.216798 340.302287 
L 656.677745 359.373917 
L 658.138692 248.421887 
L 659.599639 252.821388 
L 661.060586 256.107049 
L 662.521532 343.321635 
L 663.982479 184.393158 
L 665.443426 235.691752 
L 666.904373 166.282092 
L 668.36532 244.743769 
L 669.826267 197.295348 
L 671.287214 160.858511 
L 672.748161 132.941255 
L 674.209108 152.625373 
L 675.670054 78.719418 
L 677.131001 133.696699 
L 678.591948 99.181728 
L 680.052895 73.98473 
L 681.513842 41.062869 
L 682.974789 46.656013 
L 684.435736 91.606667 
L 685.896683 116.123395 
L 687.35763 41.062869 
L 688.818577 45.783191 
L 690.279523 75.913959 
L 691.74047 42.897149 
L 693.201417 79.023804 
L 694.662364 62.336724 
L 696.123311 100.795465 
L 697.584258 71.512497 
L 699.045205 83.113163 
L 700.506152 176.944776 
L 701.967099 153.53111 
L 703.428045 181.365642 
L 704.888992 174.475994 
L 706.349939 273.995957 
L 707.810886 233.835706 
L 709.271833 224.363118 
L 710.73278 339.755081 
L 712.193727 336.572084 
L 713.654674 371.914006 
L 715.115621 349.034748 
L 716.576568 306.408757 
L 718.037514 288.454034 
L 719.498461 334.427916 
L 720.959408 307.338069 
L 722.420355 371.914006 
L 723.881302 371.914006 
L 725.342249 354.701884 
L 726.803196 319.009831 
L 728.264143 339.301909 
L 729.72509 365.222317 
L 731.186036 314.86516 
L 732.646983 335.432327 
L 734.10793 269.815703 
L 735.568877 250.11939 
L 737.029824 307.746522 
L 738.490771 245.997943 
L 739.951718 260.442327 
L 741.412665 179.126109 
L 742.873612 131.485252 
L 744.334558 181.0603 
L 745.795505 103.711836 
L 747.256452 147.805611 
L 748.717399 113.755779 
L 750.178346 86.608115 
L 751.639293 118.35577 
L 753.10024 78.88942 
L 754.561187 116.553303 
L 756.022134 49.677336 
L 757.483081 63.18728 
L 758.944027 86.495778 
L 760.404974 63.954938 
L 761.865921 55.429971 
L 763.326868 81.25253 
L 764.787815 56.121011 
L 766.248762 71.907828 
L 767.709709 140.300069 
L 769.170656 134.299193 
L 770.631603 162.89183 
L 772.092549 227.582631 
L 773.553496 232.909414 
L 775.014443 120.875602 
L 776.47539 141.605311 
L 777.936337 231.389823 
L 779.397284 210.399693 
L 780.858231 259.072666 
L 782.319178 169.97905 
L 783.780125 254.263044 
L 785.241072 309.359114 
L 786.702018 339.09411 
L 788.162965 364.260979 
L 789.623912 331.197116 
L 791.084859 371.914006 
L 794.006753 371.914006 
L 795.4677 370.938458 
L 796.928647 308.800059 
L 798.389594 293.833825 
L 799.85054 325.765739 
L 801.311487 277.099976 
L 802.772434 318.05951 
L 804.233381 339.282575 
L 805.694328 253.704115 
L 807.155275 259.70535 
L 808.616222 293.024921 
L 810.077169 262.857968 
L 811.538116 250.664101 
L 812.999062 253.86066 
L 812.999062 253.86066 
" clip-path="url(#p59cd7ed1da)" style="fill: none; stroke: #003366; stroke-width: 1.5; stroke-linecap: square"/>
   </g>
   <g id="line2d_30">
    <path d="M 83.986562 242.854923 
L 85.447509 229.600377 
L 86.908456 269.336934 
L 88.369403 292.067681 
L 89.83035 264.782942 
L 91.291297 300.357841 
L 92.752244 355.740107 
L 94.213191 362.928675 
L 95.674138 305.510492 
L 97.135085 364.218081 
L 98.596031 333.846085 
L 100.056978 323.550488 
L 101.517925 371.914006 
L 102.978872 306.342161 
L 104.439819 301.663358 
L 105.900766 318.457537 
L 107.361713 323.309688 
L 108.82266 371.838915 
L 110.283607 295.445004 
L 111.744553 255.394631 
L 113.2055 329.342818 
L 114.666447 274.891649 
L 116.127394 267.060897 
L 117.588341 183.484435 
L 119.049288 225.779313 
L 120.510235 213.280234 
L 121.971182 146.791425 
L 123.432129 176.21969 
L 124.893076 136.160449 
L 126.354022 123.802048 
L 127.814969 124.160062 
L 129.275916 171.887009 
L 130.736863 85.82628 
L 132.19781 55.392187 
L 133.658757 97.834962 
L 135.119704 41.062869 
L 136.580651 70.484853 
L 138.041598 41.062869 
L 139.502544 51.121432 
L 140.963491 69.195436 
L 142.424438 83.419653 
L 143.885385 76.466447 
L 145.346332 83.934948 
L 146.807279 80.501828 
L 148.268226 49.396559 
L 149.729173 117.949281 
L 151.19012 108.929429 
L 152.651067 191.811363 
L 154.112013 178.131703 
L 155.57296 118.813374 
L 157.033907 233.416563 
L 158.494854 221.715619 
L 159.955801 226.018007 
L 161.416748 291.564579 
L 162.877695 295.965135 
L 164.338642 335.422535 
L 165.799589 287.964957 
L 167.260535 310.189388 
L 168.721482 356.866152 
L 170.182429 371.914006 
L 171.643376 329.593307 
L 173.104323 350.480762 
L 174.56527 319.577988 
L 176.026217 320.864445 
L 177.487164 371.914006 
L 178.948111 368.554022 
L 180.409057 319.411756 
L 181.870004 363.840407 
L 183.330951 329.17411 
L 184.791898 277.923329 
L 186.252845 317.081587 
L 187.713792 308.96764 
L 189.174739 255.477879 
L 190.635686 275.573888 
L 192.096633 143.376828 
L 193.55758 211.874355 
L 195.018526 179.786203 
L 196.479473 151.002768 
L 197.94042 149.563423 
L 199.401367 69.019932 
L 200.862314 96.75756 
L 202.323261 112.727148 
L 203.784208 159.285071 
L 205.245155 73.667725 
L 206.706102 45.656934 
L 208.167048 44.100439 
L 209.627995 90.550115 
L 211.088942 55.871118 
L 212.549889 61.447846 
L 214.010836 76.385821 
L 215.471783 88.177248 
L 216.93273 97.373329 
L 218.393677 60.423592 
L 219.854624 78.80119 
L 221.315571 103.221324 
L 222.776517 60.095261 
L 224.237464 136.851604 
L 225.698411 157.618637 
L 227.159358 174.554932 
L 228.620305 177.69679 
L 230.081252 170.795241 
L 231.542199 206.043072 
L 233.003146 218.63328 
L 234.464093 227.138617 
L 235.925039 283.892058 
L 237.385986 306.745659 
L 238.846933 371.914006 
L 240.30788 323.51566 
L 241.768827 338.130689 
L 243.229774 359.963572 
L 244.690721 297.960051 
L 246.151668 355.537924 
L 247.612615 360.418287 
L 249.073561 371.914006 
L 250.534508 341.444948 
L 251.995455 354.042356 
L 253.456402 340.174057 
L 254.917349 299.020387 
L 256.378296 345.188039 
L 257.839243 312.690361 
L 259.30019 321.54394 
L 260.761137 250.513846 
L 262.222084 298.297264 
L 263.68303 196.390555 
L 265.143977 241.400207 
L 266.604924 266.546169 
L 268.065871 170.328528 
L 269.526818 132.360842 
L 270.987765 149.785667 
L 272.448712 118.205408 
L 273.909659 64.709972 
L 275.370606 103.707631 
L 276.831552 71.622403 
L 278.292499 78.231241 
L 279.753446 41.062869 
L 281.214393 110.06158 
L 282.67534 41.062869 
L 284.136287 57.678765 
L 285.597234 80.282259 
L 287.058181 43.859165 
L 288.519128 65.280525 
L 289.980075 139.582506 
L 291.441021 42.0982 
L 292.901968 107.670186 
L 294.362915 112.654879 
L 295.823862 144.38852 
L 297.284809 106.076396 
L 298.745756 120.595098 
L 300.206703 193.286614 
L 301.66765 212.576571 
L 303.128597 211.601703 
L 304.589543 246.070169 
L 306.05049 256.87893 
L 307.511437 278.187836 
L 308.972384 303.764921 
L 310.433331 292.042461 
L 311.894278 371.914006 
L 313.355225 339.400035 
L 314.816172 281.972443 
L 316.277119 362.081439 
L 317.738066 323.912193 
L 319.199012 367.15075 
L 320.659959 371.914006 
L 322.120906 334.673632 
L 323.581853 371.914006 
L 325.0428 371.914006 
L 326.503747 369.706734 
L 327.964694 370.262674 
L 329.425641 309.979078 
L 330.886588 283.104504 
L 332.347534 269.2159 
L 333.808481 239.184204 
L 335.269428 266.460784 
L 336.730375 240.377585 
L 338.191322 238.285623 
L 339.652269 235.158065 
L 341.113216 197.057157 
L 342.574163 216.402764 
L 344.03511 126.586719 
L 345.496056 213.567043 
L 346.957003 124.086851 
L 348.41795 65.917109 
L 349.878897 63.644915 
L 351.339844 96.659377 
L 352.800791 69.741526 
L 354.261738 72.624302 
L 355.722685 87.257768 
L 357.183632 45.877023 
L 358.644579 41.062869 
L 360.105525 41.062869 
L 361.566472 56.762231 
L 363.027419 95.870555 
L 364.488366 68.029811 
L 365.949313 61.755968 
L 367.41026 131.760513 
L 368.871207 157.385692 
L 370.332154 104.599065 
L 371.793101 183.374106 
L 373.254047 182.512041 
L 374.714994 152.866804 
L 376.175941 223.886676 
L 377.636888 246.706678 
L 379.097835 284.309202 
L 380.558782 289.801577 
L 382.019729 249.187747 
L 383.480676 276.143692 
L 384.941623 339.009215 
L 386.40257 334.318706 
L 387.863516 343.832016 
L 389.324463 367.199635 
L 390.78541 356.841498 
L 392.246357 371.914006 
L 393.707304 354.494964 
L 395.168251 355.999314 
L 396.629198 332.902812 
L 398.090145 351.881779 
L 399.551092 329.295335 
L 401.012038 325.293746 
L 402.472985 307.448628 
L 403.933932 297.439201 
L 405.394879 371.914006 
L 406.855826 201.152025 
L 408.316773 261.861041 
L 409.77772 174.741359 
L 411.238667 198.212344 
L 412.699614 244.406229 
L 414.16056 190.431066 
L 415.621507 112.570863 
L 417.082454 112.018959 
L 418.543401 150.255195 
L 420.004348 92.353342 
L 421.465295 126.760447 
L 422.926242 99.122327 
L 424.387189 41.062869 
L 425.848136 152.586248 
L 427.309083 81.412633 
L 428.770029 41.062869 
L 430.230976 76.886371 
L 431.691923 41.062869 
L 433.15287 80.589037 
L 434.613817 41.578559 
L 436.074764 42.103083 
L 437.535711 120.015452 
L 438.996658 115.372796 
L 440.457605 73.521513 
L 441.918551 107.438547 
L 443.379498 122.654055 
L 444.840445 146.436413 
L 446.301392 234.553017 
L 447.762339 229.931378 
L 449.223286 167.836412 
L 450.684233 261.694002 
L 452.14518 316.124057 
L 453.606127 293.102537 
L 455.067074 232.296954 
L 456.52802 283.980672 
L 457.988967 366.307406 
L 459.449914 311.130303 
L 460.910861 339.393743 
L 462.371808 355.669209 
L 463.832755 322.611577 
L 465.293702 351.800846 
L 466.754649 257.584361 
L 468.215596 307.988306 
L 469.676542 335.249378 
L 471.137489 283.136619 
L 472.598436 371.914006 
L 474.059383 283.1835 
L 475.52033 297.566432 
L 476.981277 298.396649 
L 478.442224 335.551893 
L 479.903171 230.764402 
L 481.364118 280.967292 
L 482.825065 226.324551 
L 484.286011 192.019775 
L 485.746958 197.313174 
L 487.207905 171.974954 
L 488.668852 138.2402 
L 490.129799 143.609689 
L 491.590746 107.244367 
L 493.051693 123.467272 
L 494.51264 118.74524 
L 495.973587 160.288857 
L 497.434533 41.062869 
L 498.89548 154.475592 
L 500.356427 41.062869 
L 501.817374 57.041381 
L 503.278321 79.288089 
L 504.739268 74.822439 
L 506.200215 45.065621 
L 507.661162 46.920229 
L 509.122109 86.459428 
L 510.583055 54.142203 
L 512.044002 123.657889 
L 513.504949 137.30111 
L 514.965896 116.468312 
L 516.426843 156.927484 
L 517.88779 182.223708 
L 519.348737 219.32256 
L 520.809684 207.941692 
L 522.270631 186.76118 
L 523.731578 227.546367 
L 525.192524 276.824815 
L 526.653471 302.600083 
L 528.114418 275.788829 
L 529.575365 295.776726 
L 531.036312 353.171899 
L 532.497259 304.841024 
L 533.958206 337.698087 
L 535.419153 339.035733 
L 536.8801 356.387504 
L 538.341046 367.217933 
L 539.801993 350.119131 
L 541.26294 371.914006 
L 542.723887 371.914006 
L 544.184834 340.337439 
L 545.645781 358.861901 
L 547.106728 325.430254 
L 548.567675 312.249289 
L 550.028622 270.822391 
L 551.489569 285.179646 
L 552.950515 296.580438 
L 554.411462 239.015574 
L 555.872409 298.206313 
L 557.333356 168.23022 
L 558.794303 149.180604 
L 560.25525 214.119801 
L 561.716197 190.075395 
L 563.177144 172.506506 
L 566.099037 99.32871 
L 567.559984 82.352536 
L 569.020931 70.145013 
L 570.481878 46.140162 
L 571.942825 84.564734 
L 573.403772 70.676174 
L 574.864719 55.332905 
L 576.325666 48.564904 
L 577.786613 67.640765 
L 579.247559 41.062869 
L 580.708506 41.062869 
L 582.169453 88.30641 
L 583.6304 106.938745 
L 585.091347 70.763792 
L 586.552294 108.838292 
L 588.013241 120.422196 
L 589.474188 101.45049 
L 590.935135 100.786871 
L 592.396082 151.3632 
L 593.857028 195.235166 
L 595.317975 235.307161 
L 596.778922 290.489091 
L 598.239869 280.035806 
L 599.700816 267.27134 
L 601.161763 295.119012 
L 602.62271 272.965702 
L 604.083657 316.280073 
L 605.544604 341.952552 
L 607.00555 344.756732 
L 608.466497 329.241915 
L 609.927444 371.914006 
L 611.388391 371.914006 
L 612.849338 370.455825 
L 614.310285 371.914006 
L 615.771232 371.914006 
L 617.232179 309.581934 
L 618.693126 347.703962 
L 620.154073 322.855004 
L 621.615019 310.977616 
L 623.075966 270.950863 
L 624.536913 284.033215 
L 625.99786 294.6935 
L 627.458807 280.958538 
L 628.919754 242.681279 
L 630.380701 299.992922 
L 631.841648 177.760512 
L 633.302595 205.730851 
L 634.763541 172.102432 
L 636.224488 205.935305 
L 637.685435 103.522831 
L 639.146382 57.466077 
L 640.607329 62.372696 
L 642.068276 41.062869 
L 643.529223 45.55954 
L 644.99017 41.062869 
L 646.451117 71.9715 
L 647.912064 78.06018 
L 649.37301 118.951566 
L 652.294904 43.132481 
L 653.755851 57.539219 
L 655.216798 103.322453 
L 656.677745 46.349646 
L 658.138692 163.095089 
L 659.599639 134.236148 
L 661.060586 130.329473 
L 662.521532 86.147546 
L 663.982479 195.006055 
L 665.443426 156.556406 
L 666.904373 247.917906 
L 668.36532 163.574194 
L 669.826267 214.161102 
L 671.287214 256.029559 
L 672.748161 277.625663 
L 674.209108 271.647787 
L 675.670054 352.87219 
L 677.131001 276.502331 
L 678.591948 324.283735 
L 680.052895 346.018251 
L 681.513842 342.640363 
L 682.974789 371.914006 
L 684.435736 321.83642 
L 685.896683 283.68285 
L 687.35763 371.914006 
L 688.818577 365.779113 
L 690.279523 319.284891 
L 691.74047 363.13007 
L 693.201417 324.795906 
L 694.662364 363.120808 
L 696.123311 304.202291 
L 697.584258 355.320286 
L 699.045205 322.886748 
L 700.506152 233.617098 
L 701.967099 255.747014 
L 703.428045 249.208257 
L 704.888992 224.749509 
L 706.349939 137.556449 
L 707.810886 162.432365 
L 709.271833 167.484735 
L 710.73278 51.419338 
L 712.193727 62.449491 
L 713.654674 41.062869 
L 715.115621 67.776415 
L 716.576568 97.610216 
L 718.037514 91.627725 
L 719.498461 53.874 
L 720.959408 105.954712 
L 722.420355 54.397609 
L 723.881302 54.523018 
L 725.342249 59.317231 
L 726.803196 82.034549 
L 728.264143 84.965187 
L 729.72509 41.062869 
L 731.186036 83.504214 
L 732.646983 66.893306 
L 734.10793 167.073349 
L 735.568877 163.132259 
L 737.029824 144.891768 
L 738.490771 172.982272 
L 739.951718 173.891047 
L 741.412665 226.241027 
L 742.873612 286.482892 
L 744.334558 228.374556 
L 745.795505 299.230861 
L 747.256452 305.692154 
L 748.717399 259.515457 
L 750.178346 305.253898 
L 751.639293 301.024182 
L 753.10024 322.025955 
L 754.561187 320.223413 
L 756.022134 354.197211 
L 757.483081 336.325357 
L 758.944027 330.370694 
L 760.404974 349.367 
L 761.865921 342.936833 
L 763.326868 348.394852 
L 764.787815 357.475619 
L 766.248762 345.649664 
L 767.709709 296.447426 
L 769.170656 278.140615 
L 770.631603 271.019089 
L 772.092549 186.956341 
L 773.553496 193.817529 
L 775.014443 282.419479 
L 776.47539 269.341044 
L 777.936337 193.903391 
L 779.397284 179.157913 
L 780.858231 184.746113 
L 782.319178 225.266959 
L 783.780125 142.141743 
L 785.241072 104.01646 
L 786.702018 87.786699 
L 788.162965 44.837817 
L 789.623912 79.433786 
L 791.084859 51.621529 
L 794.006753 41.062869 
L 795.4677 41.062869 
L 796.928647 125.644888 
L 798.389594 110.637624 
L 799.85054 74.784611 
L 801.311487 131.816191 
L 802.772434 88.980474 
L 804.233381 81.504397 
L 805.694328 163.874226 
L 807.155275 132.243658 
L 808.616222 108.738675 
L 810.077169 163.595161 
L 811.538116 160.734865 
L 812.999062 164.464847 
L 812.999062 164.464847 
" clip-path="url(#p59cd7ed1da)" style="fill: none; stroke: #990000; stroke-width: 1.5; stroke-linecap: square"/>
   </g>
   <g id="patch_3">
    <path d="M 47.535938 388.456563 
L 47.535938 24.520313 
" style="fill: none; stroke: #000000; stroke-width: 0.8; stroke-linejoin: miter; stroke-linecap: square"/>
   </g>
   <g id="patch_4">
    <path d="M 849.449687 388.456563 
L 849.449687 24.520313 
" style="fill: none; stroke: #000000; stroke-width: 0.8; stroke-linejoin: miter; stroke-linecap: square"/>
   </g>
   <g id="patch_5">
    <path d="M 47.535937 388.456563 
L 849.449687 388.456563 
" style="fill: none; stroke: #000000; stroke-width: 0.8; stroke-linejoin: miter; stroke-linecap: square"/>
   </g>
   <g id="patch_6">
    <path d="M 47.535937 24.520312 
L 849.449687 24.520312 
" style="fill: none; stroke: #000000; stroke-width: 0.8; stroke-linejoin: miter; stroke-linecap: square"/>
   </g>
   <g id="text_17">
    <!-- 小区A/B传输延迟时序变化 -->
    <g transform="translate(367.992812 18.520312)scale(0.14 -0.14)">
     <defs>
      <path id="SimHei-5c0f" d="M 3500 5150 
Q 3475 4800 3475 4200 
L 3475 175 
Q 3475 -300 3225 -425 
Q 2975 -550 2375 -600 
Q 2325 -300 2150 -25 
Q 2700 -25 2837 0 
Q 2975 25 2975 300 
L 2975 4200 
Q 2975 4650 2950 5150 
L 3500 5150 
z
M 2075 3400 
Q 1850 2775 1550 1962 
Q 1250 1150 1025 750 
Q 775 950 500 1000 
Q 925 1750 1175 2487 
Q 1425 3225 1500 3575 
Q 1800 3425 2075 3400 
z
M 4675 3600 
Q 5675 1800 5875 1150 
Q 5625 1100 5375 925 
Q 5000 2000 4225 3325 
Q 4425 3425 4675 3600 
z
" transform="scale(0.015625)"/>
      <path id="SimHei-533a" d="M 5850 4525 
Q 5475 4550 4850 4550 
L 1150 4550 
L 1150 -75 
L 5225 -75 
Q 5725 -75 6025 -50 
L 6025 -500 
Q 5700 -475 5175 -475 
L 625 -475 
Q 650 125 650 400 
L 650 4200 
Q 650 4625 625 4975 
L 5850 4975 
L 5850 4525 
z
M 2275 3875 
Q 3150 3275 3800 2700 
Q 4375 3375 4650 4050 
Q 4925 3875 5300 3700 
Q 5025 3525 4825 3225 
Q 4625 2925 4225 2375 
Q 5075 1675 5600 1000 
Q 5300 800 5175 575 
Q 4775 1175 3850 1950 
Q 3475 1525 3087 1175 
Q 2700 825 2125 400 
Q 1900 625 1625 775 
Q 2125 1000 2525 1312 
Q 2925 1625 3475 2300 
Q 2850 2875 1925 3450 
Q 2175 3650 2275 3875 
z
" transform="scale(0.015625)"/>
      <path id="SimHei-41" d="M 3075 125 
L 2475 125 
L 2125 1450 
L 1025 1450 
L 675 125 
L 75 125 
L 1325 4450 
L 1825 4450 
L 3075 125 
z
M 2000 1925 
L 1600 3450 
L 1550 3450 
L 1150 1925 
L 2000 1925 
z
" transform="scale(0.015625)"/>
      <path id="SimHei-2f" d="M 3000 4550 
L 350 -175 
L 100 -25 
L 2750 4700 
L 3000 4550 
z
" transform="scale(0.015625)"/>
      <path id="SimHei-42" d="M 2950 1400 
Q 2950 675 2550 400 
Q 2150 125 1525 125 
L 275 125 
L 275 4400 
L 1575 4400 
Q 2200 4400 2512 4075 
Q 2825 3750 2825 3300 
Q 2825 2850 2612 2637 
Q 2400 2425 2175 2350 
Q 2475 2275 2712 2037 
Q 2950 1800 2950 1400 
z
M 2250 3300 
Q 2250 3625 2062 3775 
Q 1875 3925 1600 3925 
L 850 3925 
L 850 2600 
L 1575 2600 
Q 1850 2600 2050 2762 
Q 2250 2925 2250 3300 
z
M 2350 1400 
Q 2350 1800 2087 1962 
Q 1825 2125 1500 2125 
L 850 2125 
L 850 600 
L 1425 600 
Q 1875 600 2112 775 
Q 2350 950 2350 1400 
z
" transform="scale(0.015625)"/>
      <path id="SimHei-5e8f" d="M 4000 2075 
L 5975 2075 
Q 5750 1525 5575 1025 
Q 5325 1100 5050 1150 
Q 5175 1450 5275 1700 
L 4050 1700 
L 4050 150 
Q 4050 -375 3762 -462 
Q 3475 -550 2950 -575 
Q 2875 -300 2750 0 
Q 3350 -75 3475 25 
Q 3600 125 3575 375 
L 3575 1700 
L 2450 1700 
Q 2050 1700 1675 1675 
L 1675 2100 
Q 2100 2075 2425 2075 
L 3675 2075 
Q 3325 2400 2875 2775 
Q 2975 2875 3250 3100 
Q 3400 2975 3725 2725 
L 4575 3275 
L 3000 3275 
Q 2400 3275 1950 3250 
L 1950 3700 
Q 2400 3675 3000 3675 
L 5400 3675 
L 5400 3250 
Q 4700 2875 4025 2450 
L 4275 2250 
L 4000 2075 
z
M 3725 5275 
Q 3825 4925 3925 4525 
L 4850 4525 
Q 5425 4525 6000 4550 
L 6000 4125 
Q 5425 4150 4850 4150 
L 1400 4150 
Q 1400 2750 1362 2137 
Q 1325 1525 1200 887 
Q 1075 250 775 -350 
Q 625 -250 250 -125 
Q 475 300 600 700 
Q 725 1100 800 1637 
Q 875 2175 875 2825 
Q 875 3500 850 4525 
L 3350 4525 
Q 3275 4825 3150 5150 
Q 3425 5200 3725 5275 
z
" transform="scale(0.015625)"/>
      <path id="SimHei-53d8" d="M 5200 1975 
Q 4950 1600 4537 1137 
Q 4125 675 3675 375 
Q 3925 225 4600 87 
Q 5275 -50 6000 -75 
Q 5700 -400 5650 -625 
Q 4850 -525 4212 -312 
Q 3575 -100 3225 125 
Q 2800 -125 2150 -325 
Q 1500 -525 700 -675 
Q 600 -425 400 -175 
Q 950 -150 1687 12 
Q 2425 175 2825 375 
Q 2275 775 1675 1575 
Q 1350 1575 1000 1550 
L 1000 2000 
Q 1450 1975 2075 1975 
L 5200 1975 
z
M 3225 5275 
Q 3400 4900 3550 4475 
L 4675 4475 
Q 5400 4475 5975 4500 
L 5975 4025 
Q 5375 4050 4725 4050 
L 4125 4050 
L 4125 2950 
Q 4125 2550 4150 2150 
L 3600 2150 
Q 3625 2550 3625 2950 
L 3625 4050 
L 2750 4050 
L 2750 2950 
Q 2750 2675 2775 2150 
L 2225 2150 
Q 2250 2675 2250 2950 
L 2250 4050 
L 1700 4050 
Q 975 4050 425 4025 
L 425 4500 
Q 950 4475 1700 4475 
L 2975 4475 
Q 2925 4675 2700 5125 
Q 2950 5150 3225 5275 
z
M 2200 1575 
Q 2650 975 3250 600 
Q 3850 1000 4275 1575 
L 2200 1575 
z
M 4850 3750 
Q 5375 3275 5950 2675 
Q 5750 2525 5500 2300 
Q 5075 2800 4450 3400 
Q 4675 3575 4850 3750 
z
M 1825 3500 
Q 1700 3375 1425 3025 
Q 1150 2675 825 2300 
Q 575 2475 375 2600 
Q 975 3150 1300 3825 
Q 1525 3650 1825 3500 
z
" transform="scale(0.015625)"/>
      <path id="SimHei-5316" d="M 3925 5025 
Q 3900 4900 3900 4400 
L 3900 2625 
Q 4375 3025 4775 3450 
Q 5175 3875 5400 4300 
Q 5600 4100 5900 3925 
Q 5700 3700 5225 3212 
Q 4750 2725 4487 2512 
Q 4225 2300 3900 2025 
L 3900 450 
Q 3900 50 4225 50 
L 5200 50 
Q 5400 75 5462 262 
Q 5525 450 5575 850 
Q 5800 650 6150 600 
Q 6000 -100 5825 -250 
Q 5650 -400 5350 -400 
L 3950 -400 
Q 3425 -400 3400 200 
L 3400 1675 
Q 3225 1525 2962 1350 
Q 2700 1175 2375 975 
Q 2225 1225 2025 1400 
Q 2350 1550 2737 1787 
Q 3125 2025 3400 2250 
L 3400 4500 
Q 3400 4800 3375 5025 
L 3925 5025 
z
M 2400 4850 
Q 2175 4550 2075 4337 
Q 1975 4125 1825 3775 
L 1825 675 
Q 1825 -75 1850 -550 
L 1325 -550 
Q 1350 -125 1350 650 
L 1350 3050 
Q 1125 2725 962 2525 
Q 800 2325 675 2175 
Q 500 2375 275 2525 
Q 625 2850 875 3212 
Q 1125 3575 1312 3912 
Q 1500 4250 1625 4575 
Q 1750 4900 1825 5100 
Q 1975 4975 2400 4850 
z
" transform="scale(0.015625)"/>
     </defs>
     <use xlink:href="#SimHei-5c0f"/>
     <use xlink:href="#SimHei-533a" x="100"/>
     <use xlink:href="#SimHei-41" x="200"/>
     <use xlink:href="#SimHei-2f" x="250"/>
     <use xlink:href="#SimHei-42" x="300"/>
     <use xlink:href="#SimHei-4f20" x="350"/>
     <use xlink:href="#SimHei-8f93" x="450"/>
     <use xlink:href="#SimHei-5ef6" x="550"/>
     <use xlink:href="#SimHei-8fdf" x="650"/>
     <use xlink:href="#SimHei-65f6" x="750"/>
     <use xlink:href="#SimHei-5e8f" x="850"/>
     <use xlink:href="#SimHei-53d8" x="950"/>
     <use xlink:href="#SimHei-5316" x="1050"/>
    </g>
   </g>
   <g id="legend_1">
    <g id="patch_7">
     <path d="M 725.449687 61.192187 
L 842.449687 61.192187 
Q 844.449687 61.192187 844.449687 59.192187 
L 844.449687 31.520312 
Q 844.449687 29.520312 842.449687 29.520312 
L 725.449687 29.520312 
Q 723.449687 29.520312 723.449687 31.520312 
L 723.449687 59.192187 
Q 723.449687 61.192187 725.449687 61.192187 
z
" style="fill: #ffffff; opacity: 0.8; stroke: #cccccc; stroke-linejoin: miter"/>
    </g>
    <g id="line2d_31">
     <path d="M 727.449687 38.10625 
L 737.449687 38.10625 
L 747.449687 38.10625 
" style="fill: none; stroke: #003366; stroke-width: 1.5; stroke-linecap: square"/>
    </g>
    <g id="text_18">
     <!-- 小区A传输延迟(ms) -->
     <g transform="translate(755.449687 41.60625)scale(0.1 -0.1)">
      <use xlink:href="#SimHei-5c0f"/>
      <use xlink:href="#SimHei-533a" x="100"/>
      <use xlink:href="#SimHei-41" x="200"/>
      <use xlink:href="#SimHei-4f20" x="250"/>
      <use xlink:href="#SimHei-8f93" x="350"/>
      <use xlink:href="#SimHei-5ef6" x="450"/>
      <use xlink:href="#SimHei-8fdf" x="550"/>
      <use xlink:href="#SimHei-28" x="650"/>
      <use xlink:href="#SimHei-6d" x="700"/>
      <use xlink:href="#SimHei-73" x="750"/>
      <use xlink:href="#SimHei-29" x="800"/>
     </g>
    </g>
    <g id="line2d_32">
     <path d="M 727.449687 52.442187 
L 737.449687 52.442187 
L 747.449687 52.442187 
" style="fill: none; stroke: #990000; stroke-width: 1.5; stroke-linecap: square"/>
    </g>
    <g id="text_19">
     <!-- 小区B传输延迟(ms) -->
     <g transform="translate(755.449687 55.942187)scale(0.1 -0.1)">
      <use xlink:href="#SimHei-5c0f"/>
      <use xlink:href="#SimHei-533a" x="100"/>
      <use xlink:href="#SimHei-42" x="200"/>
      <use xlink:href="#SimHei-4f20" x="250"/>
      <use xlink:href="#SimHei-8f93" x="350"/>
      <use xlink:href="#SimHei-5ef6" x="450"/>
      <use xlink:href="#SimHei-8fdf" x="550"/>
      <use xlink:href="#SimHei-28" x="650"/>
      <use xlink:href="#SimHei-6d" x="700"/>
      <use xlink:href="#SimHei-73" x="750"/>
      <use xlink:href="#SimHei-29" x="800"/>
     </g>
    </g>
   </g>
  </g>
 </g>
 <defs>
  <clipPath id="p59cd7ed1da">
   <rect x="47.535938" y="24.520312" width="801.91375" height="363.93625"/>
  </clipPath>
 </defs>
</svg>
