<?xml version="1.0" encoding="utf-8" standalone="no"?>
<!DOCTYPE svg PUBLIC "-//W3C//DTD SVG 1.1//EN"
  "http://www.w3.org/Graphics/SVG/1.1/DTD/svg11.dtd">
<svg xmlns:xlink="http://www.w3.org/1999/xlink" width="856.556875pt" height="424.11375pt" viewBox="0 0 856.556875 424.11375" xmlns="http://www.w3.org/2000/svg" version="1.1">
 <metadata>
  <rdf:RDF xmlns:dc="http://purl.org/dc/elements/1.1/" xmlns:cc="http://creativecommons.org/ns#" xmlns:rdf="http://www.w3.org/1999/02/22-rdf-syntax-ns#">
   <cc:Work>
    <dc:type rdf:resource="http://purl.org/dc/dcmitype/StillImage"/>
    <dc:date>2025-12-17T20:16:03.624756</dc:date>
    <dc:format>image/svg+xml</dc:format>
    <dc:creator>
     <cc:Agent>
      <dc:title>Matplotlib v3.5.0, https://matplotlib.org/</dc:title>
     </cc:Agent>
    </dc:creator>
   </cc:Work>
  </rdf:RDF>
 </metadata>
 <defs>
  <style type="text/css">*{stroke-linejoin: round; stroke-linecap: butt}</style>
 </defs>
 <g id="figure_1">
  <g id="patch_1">
   <path d="M 0 424.11375 
L 856.556875 424.11375 
L 856.556875 0 
L 0 0 
z
" style="fill: #ffffff"/>
  </g>
  <g id="axes_1">
   <g id="patch_2">
    <path d="M 37.340625 388.491875 
L 849.356875 388.491875 
L 849.356875 24.465625 
L 37.340625 24.465625 
z
" style="fill: #ffffff"/>
   </g>
   <g id="matplotlib.axis_1">
    <g id="xtick_1">
     <g id="line2d_1">
      <path d="M 74.250455 388.491875 
L 74.250455 24.465625 
" clip-path="url(#pebfb9ce81c)" style="fill: none; stroke: #b0b0b0; stroke-opacity: 0.3; stroke-width: 0.8; stroke-linecap: square"/>
     </g>
     <g id="line2d_2">
      <defs>
       <path id="m51b8d1d41c" d="M 0 0 
L 0 3.5 
" style="stroke: #000000; stroke-width: 0.8"/>
      </defs>
      <g>
       <use xlink:href="#m51b8d1d41c" x="74.250455" y="388.491875" style="stroke: #000000; stroke-width: 0.8"/>
      </g>
     </g>
     <g id="text_1">
      <!-- 0 -->
      <g transform="translate(71.750455 402.366875)scale(0.1 -0.1)">
       <defs>
        <path id="SimHei-30" d="M 225 2537 
Q 250 3200 412 3587 
Q 575 3975 875 4225 
Q 1175 4475 1612 4475 
Q 2050 4475 2375 4112 
Q 2700 3750 2800 3200 
Q 2900 2650 2862 1937 
Q 2825 1225 2612 775 
Q 2400 325 1975 150 
Q 1550 -25 1125 187 
Q 700 400 525 750 
Q 350 1100 275 1487 
Q 200 1875 225 2537 
z
M 750 2687 
Q 675 2000 800 1462 
Q 925 925 1212 700 
Q 1500 475 1800 612 
Q 2100 750 2237 1162 
Q 2375 1575 2375 2062 
Q 2375 2550 2337 2950 
Q 2300 3350 2112 3675 
Q 1925 4000 1612 4012 
Q 1300 4025 1062 3700 
Q 825 3375 750 2687 
z
" transform="scale(0.015625)"/>
       </defs>
       <use xlink:href="#SimHei-30"/>
      </g>
     </g>
    </g>
    <g id="xtick_2">
     <g id="line2d_3">
      <path d="M 222.185643 388.491875 
L 222.185643 24.465625 
" clip-path="url(#pebfb9ce81c)" style="fill: none; stroke: #b0b0b0; stroke-opacity: 0.3; stroke-width: 0.8; stroke-linecap: square"/>
     </g>
     <g id="line2d_4">
      <g>
       <use xlink:href="#m51b8d1d41c" x="222.185643" y="388.491875" style="stroke: #000000; stroke-width: 0.8"/>
      </g>
     </g>
     <g id="text_2">
      <!-- 100 -->
      <g transform="translate(214.685643 402.366875)scale(0.1 -0.1)">
       <defs>
        <path id="SimHei-31" d="M 1400 3600 
Q 1075 3275 575 2975 
L 575 3450 
Q 1200 3875 1600 4450 
L 1900 4450 
L 1900 150 
L 1400 150 
L 1400 3600 
z
" transform="scale(0.015625)"/>
       </defs>
       <use xlink:href="#SimHei-31"/>
       <use xlink:href="#SimHei-30" x="50"/>
       <use xlink:href="#SimHei-30" x="100"/>
      </g>
     </g>
    </g>
    <g id="xtick_3">
     <g id="line2d_5">
      <path d="M 370.120832 388.491875 
L 370.120832 24.465625 
" clip-path="url(#pebfb9ce81c)" style="fill: none; stroke: #b0b0b0; stroke-opacity: 0.3; stroke-width: 0.8; stroke-linecap: square"/>
     </g>
     <g id="line2d_6">
      <g>
       <use xlink:href="#m51b8d1d41c" x="370.120832" y="388.491875" style="stroke: #000000; stroke-width: 0.8"/>
      </g>
     </g>
     <g id="text_3">
      <!-- 200 -->
      <g transform="translate(362.620832 402.366875)scale(0.1 -0.1)">
       <defs>
        <path id="SimHei-32" d="M 300 250 
Q 325 625 650 925 
Q 975 1225 1475 1862 
Q 1975 2500 2125 2850 
Q 2275 3200 2237 3450 
Q 2200 3700 2000 3862 
Q 1800 4025 1537 4000 
Q 1275 3975 1037 3800 
Q 800 3625 675 3275 
L 200 3350 
Q 400 3925 712 4187 
Q 1025 4450 1450 4475 
Q 1700 4500 1900 4462 
Q 2100 4425 2312 4287 
Q 2525 4150 2662 3875 
Q 2800 3600 2762 3212 
Q 2725 2825 2375 2287 
Q 2025 1750 1025 600 
L 2825 600 
L 2825 150 
L 300 150 
L 300 250 
z
" transform="scale(0.015625)"/>
       </defs>
       <use xlink:href="#SimHei-32"/>
       <use xlink:href="#SimHei-30" x="50"/>
       <use xlink:href="#SimHei-30" x="100"/>
      </g>
     </g>
    </g>
    <g id="xtick_4">
     <g id="line2d_7">
      <path d="M 518.05602 388.491875 
L 518.05602 24.465625 
" clip-path="url(#pebfb9ce81c)" style="fill: none; stroke: #b0b0b0; stroke-opacity: 0.3; stroke-width: 0.8; stroke-linecap: square"/>
     </g>
     <g id="line2d_8">
      <g>
       <use xlink:href="#m51b8d1d41c" x="518.05602" y="388.491875" style="stroke: #000000; stroke-width: 0.8"/>
      </g>
     </g>
     <g id="text_4">
      <!-- 300 -->
      <g transform="translate(510.55602 402.366875)scale(0.1 -0.1)">
       <defs>
        <path id="SimHei-33" d="M 250 1225 
L 700 1300 
Q 800 975 1025 762 
Q 1250 550 1587 562 
Q 1925 575 2125 837 
Q 2325 1100 2300 1437 
Q 2275 1775 2037 1962 
Q 1800 2150 1275 2225 
L 1275 2550 
Q 1800 2600 2037 2825 
Q 2275 3050 2250 3412 
Q 2225 3775 1925 3937 
Q 1625 4100 1287 3975 
Q 950 3850 750 3275 
L 300 3350 
Q 450 3800 712 4100 
Q 975 4400 1425 4450 
Q 1875 4500 2212 4337 
Q 2550 4175 2687 3837 
Q 2825 3500 2725 3100 
Q 2625 2700 2150 2400 
Q 2500 2250 2687 1950 
Q 2875 1650 2812 1162 
Q 2750 675 2375 375 
Q 2000 75 1525 87 
Q 1050 100 700 387 
Q 350 675 250 1225 
z
" transform="scale(0.015625)"/>
       </defs>
       <use xlink:href="#SimHei-33"/>
       <use xlink:href="#SimHei-30" x="50"/>
       <use xlink:href="#SimHei-30" x="100"/>
      </g>
     </g>
    </g>
    <g id="xtick_5">
     <g id="line2d_9">
      <path d="M 665.991209 388.491875 
L 665.991209 24.465625 
" clip-path="url(#pebfb9ce81c)" style="fill: none; stroke: #b0b0b0; stroke-opacity: 0.3; stroke-width: 0.8; stroke-linecap: square"/>
     </g>
     <g id="line2d_10">
      <g>
       <use xlink:href="#m51b8d1d41c" x="665.991209" y="388.491875" style="stroke: #000000; stroke-width: 0.8"/>
      </g>
     </g>
     <g id="text_5">
      <!-- 400 -->
      <g transform="translate(658.491209 402.366875)scale(0.1 -0.1)">
       <defs>
        <path id="SimHei-34" d="M 2000 1100 
L 75 1100 
L 75 1525 
L 2100 4450 
L 2475 4450 
L 2475 1525 
L 3075 1525 
L 3075 1100 
L 2475 1100 
L 2475 150 
L 2000 150 
L 2000 1100 
z
M 2000 1525 
L 2000 3500 
L 600 1525 
L 2000 1525 
z
" transform="scale(0.015625)"/>
       </defs>
       <use xlink:href="#SimHei-34"/>
       <use xlink:href="#SimHei-30" x="50"/>
       <use xlink:href="#SimHei-30" x="100"/>
      </g>
     </g>
    </g>
    <g id="xtick_6">
     <g id="line2d_11">
      <path d="M 813.926397 388.491875 
L 813.926397 24.465625 
" clip-path="url(#pebfb9ce81c)" style="fill: none; stroke: #b0b0b0; stroke-opacity: 0.3; stroke-width: 0.8; stroke-linecap: square"/>
     </g>
     <g id="line2d_12">
      <g>
       <use xlink:href="#m51b8d1d41c" x="813.926397" y="388.491875" style="stroke: #000000; stroke-width: 0.8"/>
      </g>
     </g>
     <g id="text_6">
      <!-- 500 -->
      <g transform="translate(806.426397 402.366875)scale(0.1 -0.1)">
       <defs>
        <path id="SimHei-35" d="M 550 1325 
Q 725 650 1150 575 
Q 1575 500 1837 662 
Q 2100 825 2212 1087 
Q 2325 1350 2312 1675 
Q 2300 2000 2137 2225 
Q 1975 2450 1725 2525 
Q 1475 2600 1162 2525 
Q 850 2450 650 2175 
L 225 2225 
Q 275 2375 700 4375 
L 2675 4375 
L 2675 3925 
L 1075 3925 
Q 950 3250 825 2850 
Q 1200 3025 1525 3012 
Q 1850 3000 2150 2862 
Q 2450 2725 2587 2487 
Q 2725 2250 2787 2012 
Q 2850 1775 2837 1500 
Q 2825 1225 2725 937 
Q 2625 650 2425 462 
Q 2225 275 1937 162 
Q 1650 50 1275 75 
Q 900 100 562 350 
Q 225 600 100 1200 
L 550 1325 
z
" transform="scale(0.015625)"/>
       </defs>
       <use xlink:href="#SimHei-35"/>
       <use xlink:href="#SimHei-30" x="50"/>
       <use xlink:href="#SimHei-30" x="100"/>
      </g>
     </g>
    </g>
    <g id="text_7">
     <!-- 时间步 -->
     <g transform="translate(428.34875 415.66375)scale(0.1 -0.1)">
      <defs>
       <path id="SimHei-65f6" d="M 2525 4575 
Q 2500 3675 2500 2400 
Q 2500 1125 2525 400 
L 2000 400 
L 2000 875 
L 1000 875 
L 1000 50 
L 475 50 
Q 500 1200 500 2350 
Q 500 3525 475 4575 
L 2525 4575 
z
M 4875 3825 
Q 4875 4575 4850 5225 
L 5400 5225 
Q 5375 4575 5375 3825 
Q 5750 3825 6175 3850 
L 6175 3375 
Q 5750 3400 5375 3400 
L 5375 50 
Q 5375 -325 5075 -425 
Q 4775 -525 4300 -575 
Q 4300 -275 4025 0 
Q 4500 -50 4687 -25 
Q 4875 0 4875 300 
L 4875 3400 
Q 3625 3400 2775 3375 
L 2775 3850 
Q 3575 3825 4875 3825 
z
M 2000 1300 
L 2000 2550 
L 1000 2550 
L 1000 1300 
L 2000 1300 
z
M 2000 2975 
L 2000 4150 
L 1000 4150 
L 1000 2975 
L 2000 2975 
z
M 3550 2725 
Q 3875 2200 4175 1600 
Q 3925 1525 3650 1375 
Q 3450 1975 3075 2500 
Q 3300 2600 3550 2725 
z
" transform="scale(0.015625)"/>
       <path id="SimHei-95f4" d="M 4450 3550 
Q 4425 3075 4425 2725 
L 4425 1400 
Q 4425 1075 4450 625 
L 1925 625 
Q 1950 1075 1950 1425 
L 1950 2725 
Q 1950 3075 1925 3550 
L 4450 3550 
z
M 5800 4875 
Q 5775 4400 5775 3925 
L 5775 250 
Q 5800 -325 5462 -450 
Q 5125 -575 4725 -625 
Q 4700 -325 4525 -25 
Q 5000 -50 5137 25 
Q 5275 100 5275 350 
L 5275 4450 
L 3775 4450 
Q 3175 4450 2650 4425 
L 2650 4900 
Q 3175 4875 3775 4875 
L 5800 4875 
z
M 550 -525 
Q 600 -25 600 525 
L 600 3150 
Q 600 3675 550 4025 
L 1125 4025 
Q 1100 3650 1100 3300 
L 1100 500 
Q 1100 0 1125 -525 
L 550 -525 
z
M 3950 1025 
L 3950 1950 
L 2425 1950 
L 2425 1025 
L 3950 1025 
z
M 3950 2350 
L 3950 3150 
L 2425 3150 
L 2425 2350 
L 3950 2350 
z
M 1525 5300 
Q 1750 5000 2225 4350 
Q 1950 4225 1700 4075 
Q 1450 4575 1075 5025 
Q 1350 5225 1525 5300 
z
" transform="scale(0.015625)"/>
       <path id="SimHei-6b65" d="M 4800 4250 
Q 5150 4250 5550 4275 
L 5550 3825 
Q 5150 3850 4800 3850 
L 3700 3850 
L 3700 3000 
L 5125 3000 
Q 5675 3000 6100 3025 
L 6100 2550 
Q 5675 2575 5125 2575 
L 1475 2575 
Q 1050 2575 475 2525 
L 475 3025 
Q 1050 3000 1475 3000 
L 1725 3000 
L 1725 3775 
Q 1725 4225 1700 4500 
L 2225 4500 
Q 2200 4175 2200 3775 
L 2200 3000 
L 3225 3000 
Q 3225 4750 3200 5100 
L 3725 5100 
Q 3700 4750 3700 4250 
L 4800 4250 
z
M 3725 2400 
Q 3700 1975 3700 1600 
L 3700 450 
Q 4250 750 4725 1225 
Q 5200 1700 5400 2050 
Q 5650 1825 5900 1700 
Q 5675 1475 5362 1150 
Q 5050 825 4537 437 
Q 4025 50 3212 -225 
Q 2400 -500 800 -650 
Q 725 -400 500 -150 
Q 1275 -150 2100 -25 
Q 2925 100 3225 275 
L 3225 1600 
Q 3225 1975 3200 2400 
L 3725 2400 
z
M 2600 1875 
Q 2275 1600 1975 1275 
Q 1675 950 1075 400 
Q 875 600 700 725 
Q 1175 1075 1562 1512 
Q 1950 1950 2125 2200 
Q 2325 2025 2600 1875 
z
" transform="scale(0.015625)"/>
      </defs>
      <use xlink:href="#SimHei-65f6"/>
      <use xlink:href="#SimHei-95f4" x="100"/>
      <use xlink:href="#SimHei-6b65" x="200"/>
     </g>
    </g>
   </g>
   <g id="matplotlib.axis_2">
    <g id="ytick_1">
     <g id="line2d_13">
      <path d="M 37.340625 371.945227 
L 849.356875 371.945227 
" clip-path="url(#pebfb9ce81c)" style="fill: none; stroke: #b0b0b0; stroke-opacity: 0.3; stroke-width: 0.8; stroke-linecap: square"/>
     </g>
     <g id="line2d_14">
      <defs>
       <path id="mafdd103b6f" d="M 0 0 
L -3.5 0 
" style="stroke: #000000; stroke-width: 0.8"/>
      </defs>
      <g>
       <use xlink:href="#mafdd103b6f" x="37.340625" y="371.945227" style="stroke: #000000; stroke-width: 0.8"/>
      </g>
     </g>
     <g id="text_8">
      <!-- 0 -->
      <g transform="translate(25.340625 375.382727)scale(0.1 -0.1)">
       <use xlink:href="#SimHei-30"/>
      </g>
     </g>
    </g>
    <g id="ytick_2">
     <g id="line2d_15">
      <path d="M 37.340625 316.789735 
L 849.356875 316.789735 
" clip-path="url(#pebfb9ce81c)" style="fill: none; stroke: #b0b0b0; stroke-opacity: 0.3; stroke-width: 0.8; stroke-linecap: square"/>
     </g>
     <g id="line2d_16">
      <g>
       <use xlink:href="#mafdd103b6f" x="37.340625" y="316.789735" style="stroke: #000000; stroke-width: 0.8"/>
      </g>
     </g>
     <g id="text_9">
      <!-- 5 -->
      <g transform="translate(25.340625 320.227235)scale(0.1 -0.1)">
       <use xlink:href="#SimHei-35"/>
      </g>
     </g>
    </g>
    <g id="ytick_3">
     <g id="line2d_17">
      <path d="M 37.340625 261.634242 
L 849.356875 261.634242 
" clip-path="url(#pebfb9ce81c)" style="fill: none; stroke: #b0b0b0; stroke-opacity: 0.3; stroke-width: 0.8; stroke-linecap: square"/>
     </g>
     <g id="line2d_18">
      <g>
       <use xlink:href="#mafdd103b6f" x="37.340625" y="261.634242" style="stroke: #000000; stroke-width: 0.8"/>
      </g>
     </g>
     <g id="text_10">
      <!-- 10 -->
      <g transform="translate(20.340625 265.071742)scale(0.1 -0.1)">
       <use xlink:href="#SimHei-31"/>
       <use xlink:href="#SimHei-30" x="50"/>
      </g>
     </g>
    </g>
    <g id="ytick_4">
     <g id="line2d_19">
      <path d="M 37.340625 206.47875 
L 849.356875 206.47875 
" clip-path="url(#pebfb9ce81c)" style="fill: none; stroke: #b0b0b0; stroke-opacity: 0.3; stroke-width: 0.8; stroke-linecap: square"/>
     </g>
     <g id="line2d_20">
      <g>
       <use xlink:href="#mafdd103b6f" x="37.340625" y="206.47875" style="stroke: #000000; stroke-width: 0.8"/>
      </g>
     </g>
     <g id="text_11">
      <!-- 15 -->
      <g transform="translate(20.340625 209.91625)scale(0.1 -0.1)">
       <use xlink:href="#SimHei-31"/>
       <use xlink:href="#SimHei-35" x="50"/>
      </g>
     </g>
    </g>
    <g id="ytick_5">
     <g id="line2d_21">
      <path d="M 37.340625 151.323258 
L 849.356875 151.323258 
" clip-path="url(#pebfb9ce81c)" style="fill: none; stroke: #b0b0b0; stroke-opacity: 0.3; stroke-width: 0.8; stroke-linecap: square"/>
     </g>
     <g id="line2d_22">
      <g>
       <use xlink:href="#mafdd103b6f" x="37.340625" y="151.323258" style="stroke: #000000; stroke-width: 0.8"/>
      </g>
     </g>
     <g id="text_12">
      <!-- 20 -->
      <g transform="translate(20.340625 154.760758)scale(0.1 -0.1)">
       <use xlink:href="#SimHei-32"/>
       <use xlink:href="#SimHei-30" x="50"/>
      </g>
     </g>
    </g>
    <g id="ytick_6">
     <g id="line2d_23">
      <path d="M 37.340625 96.167765 
L 849.356875 96.167765 
" clip-path="url(#pebfb9ce81c)" style="fill: none; stroke: #b0b0b0; stroke-opacity: 0.3; stroke-width: 0.8; stroke-linecap: square"/>
     </g>
     <g id="line2d_24">
      <g>
       <use xlink:href="#mafdd103b6f" x="37.340625" y="96.167765" style="stroke: #000000; stroke-width: 0.8"/>
      </g>
     </g>
     <g id="text_13">
      <!-- 25 -->
      <g transform="translate(20.340625 99.605265)scale(0.1 -0.1)">
       <use xlink:href="#SimHei-32"/>
       <use xlink:href="#SimHei-35" x="50"/>
      </g>
     </g>
    </g>
    <g id="ytick_7">
     <g id="line2d_25">
      <path d="M 37.340625 41.012273 
L 849.356875 41.012273 
" clip-path="url(#pebfb9ce81c)" style="fill: none; stroke: #b0b0b0; stroke-opacity: 0.3; stroke-width: 0.8; stroke-linecap: square"/>
     </g>
     <g id="line2d_26">
      <g>
       <use xlink:href="#mafdd103b6f" x="37.340625" y="41.012273" style="stroke: #000000; stroke-width: 0.8"/>
      </g>
     </g>
     <g id="text_14">
      <!-- 30 -->
      <g transform="translate(20.340625 44.449773)scale(0.1 -0.1)">
       <use xlink:href="#SimHei-33"/>
       <use xlink:href="#SimHei-30" x="50"/>
      </g>
     </g>
    </g>
    <g id="text_15">
     <!-- 信噪比(dB) -->
     <g transform="translate(15.090625 231.47875)rotate(-90)scale(0.1 -0.1)">
      <defs>
       <path id="SimHei-4fe1" d="M 5650 1575 
Q 5625 1275 5625 575 
Q 5625 -100 5650 -450 
L 5175 -450 
L 5175 -25 
L 3025 -25 
L 3025 -550 
L 2525 -550 
Q 2550 -175 2550 500 
Q 2550 1200 2525 1575 
L 5650 1575 
z
M 2125 4975 
Q 1975 4825 1650 3975 
L 1650 550 
Q 1650 -200 1675 -625 
L 1125 -625 
Q 1200 -175 1200 575 
L 1200 3100 
Q 900 2500 625 2100 
Q 475 2350 250 2500 
Q 525 2800 925 3562 
Q 1325 4325 1525 5175 
Q 1800 5075 2125 4975 
z
M 5175 375 
L 5175 1225 
L 3025 1225 
L 3025 375 
L 5175 375 
z
M 6075 3900 
Q 5575 3925 4100 3925 
Q 2625 3925 2100 3900 
L 2100 4325 
L 6075 4325 
L 6075 3900 
z
M 5700 3000 
Q 5275 3025 4150 3025 
Q 3025 3025 2475 3000 
L 2475 3425 
Q 2950 3400 4100 3400 
Q 5275 3400 5700 3425 
L 5700 3000 
z
M 5700 2125 
Q 5350 2150 4175 2150 
Q 3025 2150 2475 2125 
L 2475 2550 
Q 3000 2525 4175 2525 
Q 5375 2525 5700 2550 
L 5700 2125 
z
M 4025 5200 
Q 4100 5050 4175 4875 
Q 4250 4700 4325 4500 
Q 4100 4425 3875 4375 
Q 3700 4900 3575 5025 
Q 3825 5125 4025 5200 
z
" transform="scale(0.015625)"/>
       <path id="SimHei-566a" d="M 1800 4800 
Q 1775 4250 1775 3675 
L 1775 1950 
Q 1775 1475 1800 875 
L 1350 875 
L 1350 1425 
L 825 1425 
L 825 350 
L 375 350 
Q 400 900 400 1450 
L 400 3675 
Q 400 4250 375 4800 
L 1800 4800 
z
M 5800 -475 
Q 5100 -125 4750 225 
Q 4400 575 4175 1000 
L 4175 225 
Q 4175 -250 4200 -650 
L 3725 -650 
Q 3750 -250 3750 225 
L 3750 1050 
Q 3375 425 2950 75 
Q 2525 -275 2150 -525 
Q 2075 -325 1700 -100 
Q 2100 0 2562 300 
Q 3025 600 3250 1050 
L 2950 1050 
Q 2500 1050 2100 1025 
L 2100 1425 
Q 2500 1400 2950 1400 
L 3750 1400 
Q 3750 1675 3725 1950 
L 4200 1950 
Q 4175 1575 4175 1400 
L 5225 1400 
Q 5575 1400 6025 1425 
L 6025 1025 
Q 5575 1050 5250 1050 
L 4575 1050 
Q 4775 700 5125 450 
Q 5475 200 6175 25 
Q 5900 -200 5800 -475 
z
M 5225 5050 
Q 5175 4725 5175 4375 
Q 5175 4050 5225 3700 
L 2725 3700 
Q 2750 4050 2750 4375 
Q 2750 4725 2725 5050 
L 5225 5050 
z
M 5825 3350 
Q 5800 3025 5800 2675 
Q 5800 2350 5825 2075 
L 4175 2075 
Q 4200 2375 4200 2700 
Q 4200 3050 4175 3350 
L 5825 3350 
z
M 3675 3350 
Q 3650 3050 3650 2700 
Q 3650 2375 3675 2075 
L 2075 2075 
Q 2100 2375 2100 2700 
Q 2100 3050 2075 3350 
L 3675 3350 
z
M 1350 1775 
L 1350 4375 
L 825 4375 
L 825 1775 
L 1350 1775 
z
M 4725 4100 
L 4725 4675 
L 3175 4675 
L 3175 4100 
L 4725 4100 
z
M 5375 2425 
L 5375 3000 
L 4650 3000 
L 4650 2425 
L 5375 2425 
z
M 3200 2450 
L 3200 2975 
L 2525 2975 
L 2525 2450 
L 3200 2450 
z
" transform="scale(0.015625)"/>
       <path id="SimHei-6bd4" d="M 3775 5100 
Q 3750 4575 3750 4100 
L 3750 3050 
Q 4925 3600 5475 4175 
Q 5675 3900 5900 3675 
Q 5600 3500 5037 3187 
Q 4475 2875 3750 2550 
L 3750 450 
Q 3750 100 4050 100 
L 5000 100 
Q 5175 100 5262 250 
Q 5350 400 5450 900 
Q 5650 775 6025 675 
Q 5850 0 5650 -175 
Q 5450 -350 5225 -350 
L 3900 -350 
Q 3250 -350 3250 275 
L 3250 4000 
Q 3250 4550 3225 5100 
L 3775 5100 
z
M 1275 4975 
Q 1250 4575 1250 4000 
L 1250 3150 
L 1850 3150 
Q 2325 3150 2875 3175 
L 2875 2650 
Q 2325 2675 1850 2675 
L 1250 2675 
L 1250 475 
Q 1650 650 1962 812 
Q 2275 975 2850 1275 
Q 2900 950 2950 750 
Q 2375 475 1762 175 
Q 1150 -125 925 -325 
Q 750 -100 575 200 
Q 700 300 750 600 
L 750 3950 
Q 750 4550 725 4975 
L 1275 4975 
z
" transform="scale(0.015625)"/>
       <path id="SimHei-28" d="M 2975 -200 
L 2700 -475 
Q 2075 125 1762 775 
Q 1450 1425 1450 2250 
Q 1450 3075 1762 3725 
Q 2075 4375 2700 5000 
L 2975 4725 
Q 2400 4175 2112 3587 
Q 1825 3000 1825 2250 
Q 1825 1500 2112 912 
Q 2400 325 2975 -200 
z
" transform="scale(0.015625)"/>
       <path id="SimHei-64" d="M 2750 125 
L 2250 125 
L 2250 500 
Q 2100 275 1900 175 
Q 1700 75 1425 75 
Q 925 75 575 437 
Q 225 800 225 1525 
Q 225 2250 575 2625 
Q 925 3000 1425 3000 
Q 1700 3000 1900 2887 
Q 2100 2775 2250 2550 
L 2250 4400 
L 2750 4400 
L 2750 125 
z
M 2250 1525 
Q 2250 2000 2037 2275 
Q 1825 2550 1525 2550 
Q 1150 2550 962 2275 
Q 775 2000 775 1525 
Q 775 1050 962 787 
Q 1150 525 1525 525 
Q 1825 525 2037 787 
Q 2250 1050 2250 1525 
z
" transform="scale(0.015625)"/>
       <path id="SimHei-42" d="M 2950 1400 
Q 2950 675 2550 400 
Q 2150 125 1525 125 
L 275 125 
L 275 4400 
L 1575 4400 
Q 2200 4400 2512 4075 
Q 2825 3750 2825 3300 
Q 2825 2850 2612 2637 
Q 2400 2425 2175 2350 
Q 2475 2275 2712 2037 
Q 2950 1800 2950 1400 
z
M 2250 3300 
Q 2250 3625 2062 3775 
Q 1875 3925 1600 3925 
L 850 3925 
L 850 2600 
L 1575 2600 
Q 1850 2600 2050 2762 
Q 2250 2925 2250 3300 
z
M 2350 1400 
Q 2350 1800 2087 1962 
Q 1825 2125 1500 2125 
L 850 2125 
L 850 600 
L 1425 600 
Q 1875 600 2112 775 
Q 2350 950 2350 1400 
z
" transform="scale(0.015625)"/>
       <path id="SimHei-29" d="M 1675 2250 
Q 1675 1425 1362 775 
Q 1050 125 425 -475 
L 150 -200 
Q 725 325 1012 912 
Q 1300 1500 1300 2250 
Q 1300 3000 1012 3587 
Q 725 4175 150 4725 
L 425 5000 
Q 1050 4375 1362 3725 
Q 1675 3075 1675 2250 
z
" transform="scale(0.015625)"/>
      </defs>
      <use xlink:href="#SimHei-4fe1"/>
      <use xlink:href="#SimHei-566a" x="100"/>
      <use xlink:href="#SimHei-6bd4" x="200"/>
      <use xlink:href="#SimHei-28" x="300"/>
      <use xlink:href="#SimHei-64" x="350"/>
      <use xlink:href="#SimHei-42" x="400"/>
      <use xlink:href="#SimHei-29" x="450"/>
     </g>
    </g>
   </g>
   <g id="line2d_27">
    <path d="M 74.250455 214.330481 
L 75.729806 226.685123 
L 77.209158 274.04603 
L 78.68851 311.843688 
L 80.167862 272.48126 
L 81.647214 291.414501 
L 83.126566 353.164739 
L 84.605918 336.249486 
L 86.08527 315.864745 
L 87.564622 343.025125 
L 89.043973 345.483431 
L 90.523325 339.561283 
L 92.002677 371.046966 
L 93.482029 312.346512 
L 94.961381 296.490352 
L 96.440733 330.670141 
L 97.920085 290.755929 
L 99.399437 335.31409 
L 100.878788 302.040379 
L 102.35814 240.710335 
L 103.837492 328.437521 
L 105.316844 263.637426 
L 106.796196 265.264938 
L 108.275548 206.111583 
L 109.7549 210.340483 
L 111.234252 197.201891 
L 112.713604 127.967946 
L 114.192955 163.873413 
L 115.672307 136.198174 
L 117.151659 136.482449 
L 118.631011 96.571584 
L 120.110363 184.497559 
L 121.589715 86.961258 
L 123.069067 46.707875 
L 124.548419 103.555715 
L 126.027771 58.603599 
L 127.507122 61.196144 
L 128.986474 46.888548 
L 130.465826 53.917741 
L 131.945178 98.67681 
L 133.42453 90.060124 
L 134.903882 58.515171 
L 136.383234 59.439886 
L 137.862586 87.846435 
L 139.341938 63.459124 
L 140.821289 91.323662 
L 142.300641 132.021823 
L 143.779993 184.954915 
L 145.259345 174.110885 
L 146.738697 117.75943 
L 148.218049 220.183649 
L 149.697401 216.542419 
L 151.176753 232.682779 
L 152.656104 292.506701 
L 154.135456 316.606866 
L 155.614808 322.438578 
L 157.09416 272.091827 
L 158.573512 321.201262 
L 160.052864 327.864576 
L 161.532216 371.945227 
L 163.011568 333.167318 
L 164.49092 355.270687 
L 165.970271 345.36236 
L 167.449623 305.599257 
L 168.928975 363.81703 
L 170.408327 371.945227 
L 171.887679 337.030966 
L 173.367031 358.370562 
L 174.846383 348.785486 
L 176.325735 291.006648 
L 177.805087 295.07248 
L 179.284438 340.61164 
L 180.76379 254.35648 
L 182.243142 307.599616 
L 183.722494 130.545726 
L 185.201846 231.258846 
L 186.681198 205.687364 
L 188.16055 143.910558 
L 189.639902 160.088686 
L 191.119254 75.316971 
L 192.598605 107.054411 
L 194.077957 101.490375 
L 195.557309 149.912451 
L 197.036661 61.269622 
L 198.516013 41.012273 
L 199.995365 41.012273 
L 201.474717 87.974034 
L 202.954069 72.611776 
L 204.43342 50.141502 
L 205.912772 76.894266 
L 207.392124 80.966355 
L 208.871476 137.501747 
L 210.350828 54.574907 
L 211.83018 73.173672 
L 213.309532 120.223818 
L 214.788884 84.558877 
L 216.268236 140.881303 
L 217.747587 140.998767 
L 219.226939 172.954448 
L 220.706291 191.770461 
L 222.185643 165.406884 
L 223.664995 199.807873 
L 225.144347 242.990214 
L 226.623699 247.138433 
L 228.103051 281.601983 
L 229.582403 321.054024 
L 231.061754 370.592039 
L 232.541106 311.594698 
L 234.020458 339.298674 
L 235.49981 343.235032 
L 236.979162 289.050744 
L 238.458514 369.849861 
L 239.937866 347.560855 
L 241.417218 371.945227 
L 244.375921 321.473702 
L 245.855273 334.871644 
L 247.334625 299.428254 
L 248.813977 360.875373 
L 250.293329 317.338175 
L 251.772681 315.259742 
L 253.252033 259.983373 
L 254.731385 293.303548 
L 256.210736 200.007142 
L 257.690088 219.277849 
L 259.16944 262.366973 
L 260.648792 155.290597 
L 262.128144 131.978743 
L 263.607496 149.772986 
L 266.5662 58.385545 
L 268.045552 112.616138 
L 269.524903 60.586482 
L 271.004255 82.45111 
L 272.483607 44.705212 
L 273.962959 119.110333 
L 275.442311 51.548324 
L 276.921663 42.287841 
L 278.401015 62.437471 
L 279.880367 52.788333 
L 281.359719 73.81794 
L 282.83907 101.747308 
L 284.318422 41.890805 
L 285.797774 96.346118 
L 287.277126 128.858725 
L 288.756478 144.550981 
L 290.23583 100.711229 
L 291.715182 102.247902 
L 293.194534 179.018979 
L 294.673885 174.632285 
L 296.153237 213.998452 
L 297.632589 238.617974 
L 299.111941 224.35791 
L 300.591293 278.174608 
L 302.070645 289.192124 
L 303.549997 278.264862 
L 305.029349 370.086918 
L 306.508701 326.032042 
L 307.988052 306.969672 
L 309.467404 352.809055 
L 310.946756 303.064045 
L 312.426108 371.945227 
L 313.90546 371.945227 
L 315.384812 334.141658 
L 316.864164 357.637953 
L 318.343516 359.988587 
L 319.822868 371.945227 
L 321.302219 371.945227 
L 322.781571 299.712254 
L 324.260923 272.735623 
L 325.740275 261.973875 
L 327.219627 249.585564 
L 328.698979 257.022744 
L 330.178331 258.661367 
L 331.657683 209.990747 
L 333.137035 230.847681 
L 334.616386 168.289882 
L 336.095738 194.373831 
L 337.57509 125.737324 
L 339.054442 223.708931 
L 340.533794 129.828214 
L 342.013146 71.596221 
L 343.492498 62.03481 
L 344.97185 89.587572 
L 346.451201 74.550643 
L 347.930553 73.385294 
L 349.409905 79.836778 
L 350.889257 52.948205 
L 352.368609 41.012273 
L 353.847961 43.868279 
L 355.327313 45.962204 
L 356.806665 108.516354 
L 358.286017 82.218952 
L 359.765368 70.10345 
L 361.24472 114.29628 
L 362.724072 116.328273 
L 364.203424 123.047141 
L 365.682776 171.155086 
L 367.162128 172.936531 
L 368.64148 155.433019 
L 370.120832 221.948635 
L 371.600184 245.756782 
L 373.079535 279.640127 
L 374.558887 290.936089 
L 376.038239 234.715673 
L 377.517591 271.73762 
L 378.996943 323.538384 
L 380.476295 322.058777 
L 381.955647 354.729018 
L 383.434999 371.945227 
L 384.914351 357.024794 
L 386.393702 371.945227 
L 387.873054 371.945227 
L 389.352406 362.597235 
L 390.831758 346.517272 
L 392.31111 371.527443 
L 393.790462 308.341345 
L 395.269814 317.731265 
L 396.749166 291.953576 
L 398.228517 309.795728 
L 399.707869 358.145437 
L 401.187221 211.920316 
L 402.666573 268.037963 
L 404.145925 175.200869 
L 405.625277 211.48487 
L 407.104629 222.102558 
L 408.583981 187.479645 
L 410.063333 116.683345 
L 411.542684 116.078925 
L 413.022036 129.546642 
L 414.501388 90.413134 
L 415.98074 109.413657 
L 417.460092 88.109349 
L 418.939444 58.059344 
L 420.418796 130.357573 
L 421.898148 101.181858 
L 423.3775 52.635547 
L 424.856851 75.509085 
L 426.336203 41.012273 
L 427.815555 71.47997 
L 429.294907 42.810904 
L 430.774259 73.89132 
L 432.253611 101.773907 
L 433.732963 113.58804 
L 435.212315 81.9028 
L 436.691667 112.841856 
L 438.171018 116.478022 
L 439.65037 133.222397 
L 441.129722 234.852106 
L 442.609074 199.468824 
L 444.088426 203.941034 
L 445.567778 257.336166 
L 447.04713 330.030982 
L 448.526482 324.366041 
L 450.005833 230.496339 
L 451.485185 270.384796 
L 452.964537 358.645831 
L 454.443889 293.192166 
L 455.923241 334.033709 
L 457.402593 356.201906 
L 458.881945 302.051619 
L 460.361297 344.121365 
L 461.840649 247.301508 
L 463.32 337.931074 
L 464.799352 344.93982 
L 466.278704 312.734543 
L 467.758056 347.997344 
L 469.237408 281.182616 
L 470.71676 298.638913 
L 472.196112 299.082349 
L 473.675464 332.839302 
L 475.154816 202.93955 
L 476.634167 297.055691 
L 478.113519 231.70927 
L 479.592871 190.62124 
L 481.072223 226.027591 
L 482.551575 190.934395 
L 484.030927 140.025659 
L 485.510279 149.151966 
L 486.989631 120.638489 
L 488.468983 129.94504 
L 489.948334 119.944444 
L 491.427686 154.372948 
L 492.907038 41.012273 
L 494.38639 137.225234 
L 495.865742 57.090667 
L 497.345094 56.955727 
L 498.824446 85.332027 
L 500.303798 64.699203 
L 501.783149 41.012273 
L 503.262501 82.380676 
L 504.741853 59.152314 
L 506.221205 69.206227 
L 507.700557 119.754618 
L 509.179909 122.308522 
L 510.659261 113.493843 
L 512.138613 177.944225 
L 513.617965 181.108026 
L 515.097316 195.3934 
L 516.576668 219.582795 
L 518.05602 169.312444 
L 519.535372 218.409238 
L 521.014724 286.910869 
L 522.494076 308.592453 
L 523.973428 307.191041 
L 525.45278 324.355751 
L 526.932132 355.811524 
L 528.411483 303.023407 
L 529.890835 371.945227 
L 531.370187 329.18229 
L 534.328891 370.325939 
L 535.808243 354.160663 
L 537.287595 362.052104 
L 538.766947 371.945227 
L 540.246299 354.543757 
L 541.72565 371.945227 
L 543.205002 323.117454 
L 544.684354 326.318746 
L 546.163706 305.963906 
L 547.643058 288.687002 
L 549.12241 286.29729 
L 550.601762 225.306905 
L 552.081114 308.085531 
L 553.560465 177.886711 
L 555.039817 149.247401 
L 556.519169 226.115179 
L 557.998521 168.339322 
L 559.477873 162.162278 
L 560.957225 144.768436 
L 562.436577 101.029523 
L 563.915929 63.585848 
L 565.395281 76.202099 
L 566.874632 48.922865 
L 568.353984 105.907236 
L 569.833336 52.619194 
L 571.312688 53.628829 
L 572.79204 45.761824 
L 574.271392 73.21766 
L 575.750744 46.749054 
L 577.230096 43.509782 
L 578.709448 106.490214 
L 580.188799 102.231392 
L 581.668151 82.550497 
L 583.147503 96.959396 
L 584.626855 148.745944 
L 586.106207 84.480713 
L 587.585559 126.928304 
L 589.064911 147.740883 
L 590.544263 189.078599 
L 592.023615 237.005238 
L 594.982318 297.687562 
L 596.46167 257.943729 
L 597.941022 277.888086 
L 599.420374 278.639198 
L 600.899726 301.758285 
L 602.379078 322.488286 
L 603.85843 346.384722 
L 605.337781 316.152358 
L 606.817133 370.363054 
L 608.296485 363.001121 
L 609.775837 342.986535 
L 611.255189 371.945227 
L 612.734541 357.556922 
L 614.213893 348.349417 
L 617.172597 312.302878 
L 618.651948 327.213563 
L 620.1313 276.858549 
L 621.610652 295.430517 
L 623.090004 284.585005 
L 624.569356 299.528162 
L 626.048708 252.966165 
L 627.52806 267.967564 
L 629.007412 151.646169 
L 630.486764 208.998145 
L 631.966115 164.312272 
L 633.445467 229.783254 
L 634.924819 104.766493 
L 636.404171 69.402113 
L 637.883523 56.947561 
L 639.362875 54.628497 
L 640.842227 62.778122 
L 642.321579 41.408592 
L 643.80093 62.94452 
L 645.280282 78.419659 
L 646.759634 115.059007 
L 648.238986 96.153545 
L 649.718338 44.695073 
L 651.19769 41.012273 
L 652.677042 94.826479 
L 654.156394 50.341118 
L 655.635746 163.493043 
L 657.115097 155.797413 
L 658.594449 119.898293 
L 660.073801 94.246571 
L 661.553153 192.920692 
L 663.032505 174.084631 
L 664.511857 246.951776 
L 665.991209 161.001412 
L 667.470561 223.789996 
L 668.949913 245.134154 
L 670.429264 272.523025 
L 671.908616 277.394041 
L 673.387968 321.496619 
L 674.86732 300.966425 
L 676.346672 338.051285 
L 677.826024 356.888396 
L 679.305376 362.478289 
L 680.784728 352.833684 
L 682.26408 293.029214 
L 683.743431 297.466604 
L 685.222783 366.420363 
L 686.702135 371.945227 
L 688.181487 323.752894 
L 689.660839 371.945227 
L 691.140191 333.83575 
L 692.619543 351.496066 
L 694.098895 303.863011 
L 695.578246 370.834089 
L 697.057598 313.848574 
L 698.53695 249.897938 
L 700.016302 257.480818 
L 701.495654 207.769488 
L 702.975006 246.00489 
L 704.454358 168.08104 
L 705.93371 180.035796 
L 707.413062 159.962709 
L 708.892413 41.277971 
L 710.371765 80.843105 
L 711.851117 41.012273 
L 713.330469 78.323098 
L 714.809821 97.719065 
L 716.289173 86.167732 
L 717.768525 79.696881 
L 719.247877 109.11706 
L 720.727229 41.012273 
L 722.20658 41.012273 
L 725.165284 80.11672 
L 726.644636 82.827865 
L 728.123988 41.012273 
L 729.60334 103.85187 
L 731.082692 67.25979 
L 732.562044 159.206997 
L 734.041396 157.786694 
L 735.520747 136.777335 
L 737.000099 156.491064 
L 738.479451 170.117731 
L 739.958803 240.803078 
L 741.438155 259.455797 
L 742.917507 237.027446 
L 744.396859 300.597231 
L 745.876211 281.663552 
L 747.355562 265.811935 
L 748.834914 340.20567 
L 750.314266 262.492524 
L 751.793618 310.592041 
L 753.27297 305.534891 
L 754.752322 371.945227 
L 756.231674 353.025446 
L 757.711026 326.280619 
L 759.190378 352.971631 
L 760.669729 338.663798 
L 762.149081 333.462616 
L 763.628433 355.376363 
L 765.107785 348.721816 
L 766.587137 293.85978 
L 768.066489 263.356878 
L 769.545841 263.522604 
L 771.025193 218.532318 
L 772.504545 187.11553 
L 773.983896 269.196547 
L 775.463248 262.060091 
L 776.9426 184.75181 
L 778.421952 176.959945 
L 779.901304 152.273697 
L 781.380656 245.843217 
L 782.860008 152.113973 
L 784.33936 111.54193 
L 785.818712 75.76224 
L 787.298063 47.925652 
L 788.777415 69.208773 
L 790.256767 41.012273 
L 794.694823 41.012273 
L 796.174175 123.029284 
L 797.653527 89.14392 
L 799.132878 62.495458 
L 800.61223 121.236642 
L 802.091582 81.012244 
L 803.570934 68.056097 
L 805.050286 165.322574 
L 808.00899 117.519778 
L 809.488342 172.800362 
L 810.967694 160.598654 
L 812.447045 168.934444 
L 812.447045 168.934444 
" clip-path="url(#pebfb9ce81c)" style="fill: none; stroke: #003366; stroke-width: 1.5; stroke-linecap: square"/>
   </g>
   <g id="line2d_28">
    <path d="M 74.250455 197.4888 
L 75.729806 193.946761 
L 77.209158 156.678364 
L 78.68851 104.54819 
L 80.167862 163.242213 
L 81.647214 124.189738 
L 83.126566 52.097545 
L 84.605918 75.183333 
L 86.08527 88.845326 
L 87.564622 43.291167 
L 89.043973 97.801305 
L 90.523325 83.946186 
L 92.002677 58.302357 
L 93.482029 131.569101 
L 96.440733 85.768483 
L 97.920085 108.424447 
L 99.399437 92.789667 
L 100.878788 115.205668 
L 102.35814 165.464868 
L 103.837492 70.389513 
L 105.316844 139.839125 
L 106.796196 135.181372 
L 108.275548 231.867312 
L 109.7549 240.031402 
L 111.234252 201.717453 
L 112.713604 244.338881 
L 114.192955 218.393477 
L 115.672307 279.839099 
L 117.151659 294.248949 
L 118.631011 305.928337 
L 120.110363 258.707054 
L 121.589715 317.176598 
L 123.069067 362.301953 
L 124.548419 302.8474 
L 126.027771 341.503146 
L 127.507122 341.767004 
L 128.986474 371.945227 
L 130.465826 371.945227 
L 131.945178 365.479748 
L 133.42453 330.864345 
L 134.903882 339.407282 
L 136.383234 340.97337 
L 137.862586 328.472697 
L 139.341938 365.213632 
L 140.821289 304.096543 
L 142.300641 291.94668 
L 143.779993 224.776082 
L 145.259345 234.012947 
L 146.738697 279.951725 
L 148.218049 184.776921 
L 149.697401 208.227225 
L 151.176753 197.219581 
L 152.656104 132.922629 
L 155.614808 95.503791 
L 157.09416 136.04107 
L 158.573512 90.970711 
L 161.532216 41.012273 
L 163.011568 70.639548 
L 164.49092 67.444741 
L 165.970271 90.029917 
L 167.449623 98.7449 
L 168.928975 41.012273 
L 170.408327 47.440741 
L 171.887679 102.090385 
L 173.367031 50.376808 
L 174.846383 65.714137 
L 176.325735 117.569711 
L 177.805087 98.474013 
L 179.284438 72.546171 
L 180.76379 154.384763 
L 182.243142 118.145862 
L 183.722494 284.079918 
L 185.201846 185.578449 
L 186.681198 218.294182 
L 188.16055 242.918419 
L 189.639902 262.510412 
L 191.119254 351.544585 
L 192.598605 303.684767 
L 194.077957 292.164422 
L 195.557309 290.177984 
L 197.036661 371.945227 
L 199.995365 371.945227 
L 201.474717 328.642467 
L 202.954069 346.024624 
L 204.43342 371.945227 
L 205.912772 319.09066 
L 207.392124 340.213662 
L 208.871476 304.366895 
L 210.350828 346.703231 
L 211.83018 342.375014 
L 213.309532 307.336878 
L 214.788884 340.372826 
L 216.268236 257.850108 
L 217.747587 261.08606 
L 219.226939 256.91334 
L 220.706291 220.19549 
L 222.185643 245.415954 
L 223.664995 207.933849 
L 225.144347 186.68632 
L 226.623699 162.22025 
L 228.103051 149.801229 
L 229.582403 84.299251 
L 231.061754 50.947109 
L 232.541106 76.39865 
L 234.020458 73.719929 
L 235.49981 65.852385 
L 236.979162 133.12793 
L 238.458514 62.147136 
L 239.937866 55.20359 
L 241.417218 52.067501 
L 242.89657 59.251732 
L 244.375921 61.921623 
L 245.855273 77.311991 
L 247.334625 132.791093 
L 248.813977 85.050674 
L 250.293329 85.057953 
L 251.772681 69.834463 
L 253.252033 160.184866 
L 254.731385 109.72631 
L 256.210736 223.220696 
L 257.690088 172.767295 
L 259.16944 132.641086 
L 260.648792 275.627018 
L 262.128144 254.555547 
L 263.607496 254.544552 
L 265.086848 291.161549 
L 266.5662 344.387951 
L 268.045552 309.461213 
L 269.524903 352.047681 
L 271.004255 312.616431 
L 272.483607 371.945227 
L 273.962959 304.627311 
L 275.442311 370.82164 
L 276.921663 348.909502 
L 278.401015 341.436826 
L 279.880367 371.945227 
L 281.359719 337.0549 
L 282.83907 295.070501 
L 284.318422 370.033078 
L 285.797774 308.930153 
L 287.277126 298.280309 
L 288.756478 247.246991 
L 290.23583 331.970407 
L 291.715182 308.975146 
L 293.194534 221.979362 
L 294.673885 227.885661 
L 296.153237 194.504925 
L 297.632589 152.417794 
L 299.111941 186.224917 
L 300.591293 136.133819 
L 302.070645 133.932529 
L 303.549997 144.750384 
L 305.029349 45.151101 
L 306.508701 75.895656 
L 307.988052 102.953159 
L 309.467404 41.422387 
L 310.946756 107.624831 
L 312.426108 41.012273 
L 313.90546 41.012273 
L 315.384812 72.94369 
L 316.864164 41.012273 
L 318.343516 64.418777 
L 319.822868 56.239642 
L 321.302219 54.884738 
L 322.781571 106.55378 
L 324.260923 129.04636 
L 325.740275 142.727924 
L 327.219627 168.256235 
L 328.698979 163.784548 
L 330.178331 162.797274 
L 331.657683 194.359928 
L 333.137035 162.615461 
L 334.616386 248.97529 
L 336.095738 199.763991 
L 337.57509 253.885111 
L 339.054442 193.934806 
L 340.533794 280.772039 
L 342.013146 345.571199 
L 343.492498 362.881433 
L 344.97185 304.647862 
L 346.451201 371.945227 
L 347.930553 309.555339 
L 349.409905 353.953773 
L 350.889257 360.731751 
L 352.368609 371.945227 
L 353.847961 365.452838 
L 355.327313 371.945227 
L 356.806665 304.581583 
L 358.286017 298.796823 
L 359.765368 371.945227 
L 361.24472 295.174447 
L 362.724072 282.543101 
L 364.203424 296.247109 
L 365.682776 249.067465 
L 367.162128 241.428306 
L 368.64148 250.161729 
L 370.120832 167.237088 
L 371.600184 163.910325 
L 373.079535 118.375977 
L 374.558887 124.046424 
L 376.038239 184.271621 
L 377.517591 138.670057 
L 378.996943 65.628459 
L 380.476295 66.018132 
L 381.955647 63.144952 
L 383.434999 41.020089 
L 384.914351 57.513761 
L 386.393702 41.012273 
L 387.873054 41.012273 
L 389.352406 45.999326 
L 390.831758 77.530567 
L 392.31111 41.012273 
L 393.790462 105.771546 
L 395.269814 93.85433 
L 396.749166 90.015654 
L 398.228517 110.69063 
L 399.707869 53.104828 
L 401.187221 211.043366 
L 402.666573 128.560391 
L 404.145925 232.967553 
L 405.625277 218.954844 
L 407.104629 164.299931 
L 408.583981 215.73034 
L 410.063333 293.983721 
L 411.542684 313.416979 
L 413.022036 252.01969 
L 414.501388 332.56166 
L 415.98074 298.675722 
L 417.460092 346.79478 
L 418.939444 348.396233 
L 420.418796 287.136246 
L 421.898148 321.544193 
L 423.3775 371.78778 
L 424.856851 359.750454 
L 426.336203 371.945227 
L 427.815555 315.036739 
L 429.294907 370.130654 
L 430.774259 334.481752 
L 432.253611 288.60853 
L 433.732963 303.807969 
L 435.212315 323.444793 
L 436.691667 296.335012 
L 438.171018 295.636553 
L 439.65037 288.882305 
L 441.129722 178.100306 
L 442.609074 192.279225 
L 444.088426 240.243094 
L 445.567778 131.473926 
L 447.04713 106.149753 
L 448.526482 108.918705 
L 450.005833 190.637311 
L 451.485185 123.408482 
L 452.964537 46.044535 
L 454.443889 113.895545 
L 455.923241 89.86593 
L 457.402593 41.012273 
L 458.881945 87.997565 
L 460.361297 56.189839 
L 461.840649 151.191841 
L 463.32 104.512767 
L 464.799352 63.228488 
L 466.278704 96.370226 
L 467.758056 60.632048 
L 469.237408 130.188987 
L 470.71676 118.52116 
L 472.196112 108.690946 
L 473.675464 75.801962 
L 475.154816 196.694341 
L 476.634167 130.224117 
L 478.113519 178.724757 
L 479.592871 242.520043 
L 481.072223 213.469051 
L 482.551575 221.277357 
L 484.030927 286.012857 
L 485.510279 261.19105 
L 486.989631 294.854285 
L 488.468983 317.563231 
L 489.948334 301.404084 
L 491.427686 262.010932 
L 492.907038 371.945227 
L 494.38639 279.945754 
L 495.865742 366.848188 
L 497.345094 350.771031 
L 498.824446 338.697334 
L 500.303798 351.328645 
L 501.783149 355.261338 
L 503.262501 332.080063 
L 504.741853 341.738442 
L 506.221205 344.576561 
L 507.700557 294.713322 
L 509.179909 297.457899 
L 510.659261 301.9948 
L 512.138613 233.917398 
L 513.617965 225.169342 
L 515.097316 198.51938 
L 516.576668 209.720241 
L 518.05602 211.068696 
L 519.535372 206.227122 
L 521.014724 138.096761 
L 522.494076 118.302996 
L 523.973428 103.642666 
L 525.45278 71.770691 
L 526.932132 47.506454 
L 528.411483 106.343158 
L 529.890835 50.935147 
L 531.370187 64.110139 
L 532.849539 72.431123 
L 534.328891 41.012273 
L 538.766947 41.012273 
L 540.246299 63.594009 
L 541.72565 45.376503 
L 543.205002 104.582078 
L 544.684354 95.126434 
L 546.163706 130.019178 
L 547.643058 120.870225 
L 549.12241 117.219924 
L 550.601762 185.081266 
L 552.081114 93.570721 
L 553.560465 233.272073 
L 555.039817 251.458053 
L 556.519169 210.91328 
L 557.998521 233.324179 
L 559.477873 244.210212 
L 560.957225 258.614603 
L 562.436577 307.358373 
L 563.915929 347.58884 
L 565.395281 342.985072 
L 566.874632 364.805764 
L 568.353984 303.984216 
L 569.833336 350.005382 
L 571.312688 366.422334 
L 572.79204 365.449085 
L 574.271392 340.028489 
L 575.750744 371.945227 
L 577.230096 363.156782 
L 578.709448 322.582354 
L 580.188799 311.351638 
L 581.668151 335.185564 
L 583.147503 337.98845 
L 584.626855 263.445142 
L 586.106207 319.796742 
L 587.585559 305.10142 
L 589.064911 246.872605 
L 590.544263 223.490808 
L 593.502966 119.213732 
L 594.982318 120.896543 
L 596.46167 159.942483 
L 597.941022 110.662819 
L 599.420374 138.8341 
L 600.899726 99.912326 
L 603.85843 82.981996 
L 605.337781 89.425617 
L 606.817133 55.431117 
L 608.296485 55.933712 
L 609.775837 78.011207 
L 611.255189 41.012273 
L 612.734541 47.953739 
L 614.213893 66.028494 
L 615.693245 76.634495 
L 617.172597 107.05986 
L 618.651948 110.094986 
L 620.1313 126.998325 
L 621.610652 131.443848 
L 623.090004 136.791521 
L 624.569356 115.062117 
L 626.048708 145.855608 
L 627.52806 118.209654 
L 629.007412 229.936868 
L 630.486764 214.129329 
L 631.966115 265.580938 
L 633.445467 206.305394 
L 634.924819 314.209459 
L 636.404171 343.543334 
L 637.883523 348.746711 
L 639.362875 368.152869 
L 640.842227 357.251599 
L 642.321579 371.478406 
L 643.80093 355.289531 
L 645.280282 346.01023 
L 646.759634 303.415941 
L 648.238986 312.211057 
L 649.718338 357.001914 
L 651.19769 371.945227 
L 652.677042 328.313702 
L 654.156394 371.945227 
L 655.635746 257.844052 
L 657.115097 259.05524 
L 658.594449 313.132015 
L 660.073801 331.73486 
L 661.553153 213.476727 
L 663.032505 230.398925 
L 664.511857 168.500253 
L 665.991209 252.229474 
L 667.470561 190.899371 
L 668.949913 160.912974 
L 671.908616 118.287105 
L 673.387968 71.735314 
L 674.86732 143.655373 
L 676.346672 78.182838 
L 677.826024 60.288813 
L 679.305376 61.568997 
L 680.784728 41.012273 
L 682.26408 78.349515 
L 683.743431 120.835394 
L 685.222783 51.133337 
L 686.702135 41.671747 
L 688.181487 92.196002 
L 689.660839 41.012273 
L 691.140191 82.213308 
L 692.619543 59.00644 
L 694.098895 128.934612 
L 695.578246 52.404197 
L 697.057598 77.956792 
L 698.53695 177.423527 
L 700.016302 153.317125 
L 701.495654 199.1984 
L 702.975006 171.421637 
L 704.454358 266.477889 
L 705.93371 236.76268 
L 707.413062 228.447144 
L 708.892413 353.762045 
L 710.371765 339.449454 
L 711.851117 371.945227 
L 713.330469 340.027094 
L 716.289173 295.134362 
L 717.768525 353.916321 
L 719.247877 302.4917 
L 720.727229 362.83302 
L 722.20658 371.945227 
L 723.685932 368.349634 
L 725.165284 310.142812 
L 726.644636 319.210993 
L 728.123988 371.945227 
L 729.60334 305.283183 
L 731.082692 344.389454 
L 732.562044 254.921158 
L 734.041396 247.765359 
L 735.520747 279.088741 
L 737.000099 252.690661 
L 738.479451 251.024125 
L 739.958803 201.819521 
L 741.438155 148.757236 
L 742.917507 186.662326 
L 744.396859 127.467649 
L 745.876211 130.340963 
L 747.355562 115.578044 
L 748.834914 102.709287 
L 750.314266 113.211269 
L 751.793618 85.203916 
L 753.27297 99.753335 
L 754.752322 41.012273 
L 756.231674 48.589476 
L 757.711026 75.608592 
L 759.190378 66.521208 
L 760.669729 58.577028 
L 762.149081 68.718918 
L 763.628433 68.177881 
L 765.107785 65.485898 
L 766.587137 113.709903 
L 768.066489 139.402853 
L 769.545841 131.051187 
L 771.025193 200.784788 
L 772.504545 227.276953 
L 773.983896 156.847238 
L 775.463248 147.752335 
L 776.9426 224.531848 
L 778.421952 226.144067 
L 779.901304 234.200484 
L 781.380656 190.406265 
L 782.860008 248.70964 
L 784.33936 318.817322 
L 785.818712 333.447337 
L 787.298063 349.965594 
L 788.777415 342.692644 
L 790.256767 371.945227 
L 791.736119 362.463029 
L 793.215471 371.945227 
L 794.694823 371.945227 
L 796.174175 296.7244 
L 797.653527 340.225103 
L 799.132878 341.785291 
L 800.61223 291.008651 
L 802.091582 324.269922 
L 803.570934 321.163187 
L 805.050286 257.618718 
L 806.529638 251.547988 
L 808.00899 298.807548 
L 809.488342 252.971246 
L 810.967694 245.438983 
L 812.447045 248.489011 
L 812.447045 248.489011 
" clip-path="url(#pebfb9ce81c)" style="fill: none; stroke: #990000; stroke-width: 1.5; stroke-linecap: square"/>
   </g>
   <g id="patch_3">
    <path d="M 37.340625 388.491875 
L 37.340625 24.465625 
" style="fill: none; stroke: #000000; stroke-width: 0.8; stroke-linejoin: miter; stroke-linecap: square"/>
   </g>
   <g id="patch_4">
    <path d="M 849.356875 388.491875 
L 849.356875 24.465625 
" style="fill: none; stroke: #000000; stroke-width: 0.8; stroke-linejoin: miter; stroke-linecap: square"/>
   </g>
   <g id="patch_5">
    <path d="M 37.340625 388.491875 
L 849.356875 388.491875 
" style="fill: none; stroke: #000000; stroke-width: 0.8; stroke-linejoin: miter; stroke-linecap: square"/>
   </g>
   <g id="patch_6">
    <path d="M 37.340625 24.465625 
L 849.356875 24.465625 
" style="fill: none; stroke: #000000; stroke-width: 0.8; stroke-linejoin: miter; stroke-linecap: square"/>
   </g>
   <g id="text_16">
    <!-- 小区A/B信噪比（SINR）时序变化 -->
    <g transform="translate(341.84875 18.465625)scale(0.14 -0.14)">
     <defs>
      <path id="SimHei-5c0f" d="M 3500 5150 
Q 3475 4800 3475 4200 
L 3475 175 
Q 3475 -300 3225 -425 
Q 2975 -550 2375 -600 
Q 2325 -300 2150 -25 
Q 2700 -25 2837 0 
Q 2975 25 2975 300 
L 2975 4200 
Q 2975 4650 2950 5150 
L 3500 5150 
z
M 2075 3400 
Q 1850 2775 1550 1962 
Q 1250 1150 1025 750 
Q 775 950 500 1000 
Q 925 1750 1175 2487 
Q 1425 3225 1500 3575 
Q 1800 3425 2075 3400 
z
M 4675 3600 
Q 5675 1800 5875 1150 
Q 5625 1100 5375 925 
Q 5000 2000 4225 3325 
Q 4425 3425 4675 3600 
z
" transform="scale(0.015625)"/>
      <path id="SimHei-533a" d="M 5850 4525 
Q 5475 4550 4850 4550 
L 1150 4550 
L 1150 -75 
L 5225 -75 
Q 5725 -75 6025 -50 
L 6025 -500 
Q 5700 -475 5175 -475 
L 625 -475 
Q 650 125 650 400 
L 650 4200 
Q 650 4625 625 4975 
L 5850 4975 
L 5850 4525 
z
M 2275 3875 
Q 3150 3275 3800 2700 
Q 4375 3375 4650 4050 
Q 4925 3875 5300 3700 
Q 5025 3525 4825 3225 
Q 4625 2925 4225 2375 
Q 5075 1675 5600 1000 
Q 5300 800 5175 575 
Q 4775 1175 3850 1950 
Q 3475 1525 3087 1175 
Q 2700 825 2125 400 
Q 1900 625 1625 775 
Q 2125 1000 2525 1312 
Q 2925 1625 3475 2300 
Q 2850 2875 1925 3450 
Q 2175 3650 2275 3875 
z
" transform="scale(0.015625)"/>
      <path id="SimHei-41" d="M 3075 125 
L 2475 125 
L 2125 1450 
L 1025 1450 
L 675 125 
L 75 125 
L 1325 4450 
L 1825 4450 
L 3075 125 
z
M 2000 1925 
L 1600 3450 
L 1550 3450 
L 1150 1925 
L 2000 1925 
z
" transform="scale(0.015625)"/>
      <path id="SimHei-2f" d="M 3000 4550 
L 350 -175 
L 100 -25 
L 2750 4700 
L 3000 4550 
z
" transform="scale(0.015625)"/>
      <path id="SimHei-ff08" d="M 5425 5100 
L 5700 4775 
Q 4275 3725 4325 2350 
Q 4350 1025 5675 50 
L 5400 -275 
Q 3875 825 3925 2500 
Q 3925 3875 5425 5100 
z
" transform="scale(0.015625)"/>
      <path id="SimHei-53" d="M 2900 1325 
Q 2900 750 2537 412 
Q 2175 75 1550 75 
Q 925 75 575 425 
Q 225 775 225 1300 
L 225 1475 
L 800 1475 
L 800 1325 
Q 800 950 1025 750 
Q 1250 550 1550 550 
Q 1950 550 2137 762 
Q 2325 975 2325 1275 
Q 2325 1525 2100 1737 
Q 1875 1950 1450 2125 
Q 850 2350 587 2625 
Q 325 2900 325 3275 
Q 325 3800 687 4125 
Q 1050 4450 1550 4450 
Q 2200 4450 2487 4062 
Q 2775 3675 2775 3225 
L 2200 3225 
Q 2225 3500 2050 3725 
Q 1875 3950 1550 3950 
Q 1250 3950 1075 3787 
Q 900 3625 900 3350 
Q 900 3125 1037 2962 
Q 1175 2800 1750 2575 
Q 2300 2350 2600 2037 
Q 2900 1725 2900 1325 
z
" transform="scale(0.015625)"/>
      <path id="SimHei-49" d="M 1850 125 
L 1275 125 
L 1275 4400 
L 1850 4400 
L 1850 125 
z
" transform="scale(0.015625)"/>
      <path id="SimHei-4e" d="M 2850 125 
L 2225 125 
L 850 3225 
L 825 3225 
L 825 125 
L 250 125 
L 250 4400 
L 875 4400 
L 2250 1300 
L 2275 1300 
L 2275 4400 
L 2850 4400 
L 2850 125 
z
" transform="scale(0.015625)"/>
      <path id="SimHei-52" d="M 3000 125 
L 2400 125 
L 1500 1975 
L 850 1975 
L 850 125 
L 275 125 
L 275 4400 
L 1525 4400 
Q 2125 4400 2500 4112 
Q 2875 3825 2875 3175 
Q 2875 2675 2625 2400 
Q 2375 2125 2050 2050 
L 3000 125 
z
M 2300 3175 
Q 2300 3525 2087 3725 
Q 1875 3925 1400 3925 
L 850 3925 
L 850 2450 
L 1550 2450 
Q 1850 2450 2075 2612 
Q 2300 2775 2300 3175 
z
" transform="scale(0.015625)"/>
      <path id="SimHei-ff09" d="M 1000 5100 
Q 2500 3875 2500 2500 
Q 2550 825 1025 -275 
L 750 50 
Q 2075 1025 2100 2350 
Q 2150 3725 725 4775 
L 1000 5100 
z
" transform="scale(0.015625)"/>
      <path id="SimHei-5e8f" d="M 4000 2075 
L 5975 2075 
Q 5750 1525 5575 1025 
Q 5325 1100 5050 1150 
Q 5175 1450 5275 1700 
L 4050 1700 
L 4050 150 
Q 4050 -375 3762 -462 
Q 3475 -550 2950 -575 
Q 2875 -300 2750 0 
Q 3350 -75 3475 25 
Q 3600 125 3575 375 
L 3575 1700 
L 2450 1700 
Q 2050 1700 1675 1675 
L 1675 2100 
Q 2100 2075 2425 2075 
L 3675 2075 
Q 3325 2400 2875 2775 
Q 2975 2875 3250 3100 
Q 3400 2975 3725 2725 
L 4575 3275 
L 3000 3275 
Q 2400 3275 1950 3250 
L 1950 3700 
Q 2400 3675 3000 3675 
L 5400 3675 
L 5400 3250 
Q 4700 2875 4025 2450 
L 4275 2250 
L 4000 2075 
z
M 3725 5275 
Q 3825 4925 3925 4525 
L 4850 4525 
Q 5425 4525 6000 4550 
L 6000 4125 
Q 5425 4150 4850 4150 
L 1400 4150 
Q 1400 2750 1362 2137 
Q 1325 1525 1200 887 
Q 1075 250 775 -350 
Q 625 -250 250 -125 
Q 475 300 600 700 
Q 725 1100 800 1637 
Q 875 2175 875 2825 
Q 875 3500 850 4525 
L 3350 4525 
Q 3275 4825 3150 5150 
Q 3425 5200 3725 5275 
z
" transform="scale(0.015625)"/>
      <path id="SimHei-53d8" d="M 5200 1975 
Q 4950 1600 4537 1137 
Q 4125 675 3675 375 
Q 3925 225 4600 87 
Q 5275 -50 6000 -75 
Q 5700 -400 5650 -625 
Q 4850 -525 4212 -312 
Q 3575 -100 3225 125 
Q 2800 -125 2150 -325 
Q 1500 -525 700 -675 
Q 600 -425 400 -175 
Q 950 -150 1687 12 
Q 2425 175 2825 375 
Q 2275 775 1675 1575 
Q 1350 1575 1000 1550 
L 1000 2000 
Q 1450 1975 2075 1975 
L 5200 1975 
z
M 3225 5275 
Q 3400 4900 3550 4475 
L 4675 4475 
Q 5400 4475 5975 4500 
L 5975 4025 
Q 5375 4050 4725 4050 
L 4125 4050 
L 4125 2950 
Q 4125 2550 4150 2150 
L 3600 2150 
Q 3625 2550 3625 2950 
L 3625 4050 
L 2750 4050 
L 2750 2950 
Q 2750 2675 2775 2150 
L 2225 2150 
Q 2250 2675 2250 2950 
L 2250 4050 
L 1700 4050 
Q 975 4050 425 4025 
L 425 4500 
Q 950 4475 1700 4475 
L 2975 4475 
Q 2925 4675 2700 5125 
Q 2950 5150 3225 5275 
z
M 2200 1575 
Q 2650 975 3250 600 
Q 3850 1000 4275 1575 
L 2200 1575 
z
M 4850 3750 
Q 5375 3275 5950 2675 
Q 5750 2525 5500 2300 
Q 5075 2800 4450 3400 
Q 4675 3575 4850 3750 
z
M 1825 3500 
Q 1700 3375 1425 3025 
Q 1150 2675 825 2300 
Q 575 2475 375 2600 
Q 975 3150 1300 3825 
Q 1525 3650 1825 3500 
z
" transform="scale(0.015625)"/>
      <path id="SimHei-5316" d="M 3925 5025 
Q 3900 4900 3900 4400 
L 3900 2625 
Q 4375 3025 4775 3450 
Q 5175 3875 5400 4300 
Q 5600 4100 5900 3925 
Q 5700 3700 5225 3212 
Q 4750 2725 4487 2512 
Q 4225 2300 3900 2025 
L 3900 450 
Q 3900 50 4225 50 
L 5200 50 
Q 5400 75 5462 262 
Q 5525 450 5575 850 
Q 5800 650 6150 600 
Q 6000 -100 5825 -250 
Q 5650 -400 5350 -400 
L 3950 -400 
Q 3425 -400 3400 200 
L 3400 1675 
Q 3225 1525 2962 1350 
Q 2700 1175 2375 975 
Q 2225 1225 2025 1400 
Q 2350 1550 2737 1787 
Q 3125 2025 3400 2250 
L 3400 4500 
Q 3400 4800 3375 5025 
L 3925 5025 
z
M 2400 4850 
Q 2175 4550 2075 4337 
Q 1975 4125 1825 3775 
L 1825 675 
Q 1825 -75 1850 -550 
L 1325 -550 
Q 1350 -125 1350 650 
L 1350 3050 
Q 1125 2725 962 2525 
Q 800 2325 675 2175 
Q 500 2375 275 2525 
Q 625 2850 875 3212 
Q 1125 3575 1312 3912 
Q 1500 4250 1625 4575 
Q 1750 4900 1825 5100 
Q 1975 4975 2400 4850 
z
" transform="scale(0.015625)"/>
     </defs>
     <use xlink:href="#SimHei-5c0f"/>
     <use xlink:href="#SimHei-533a" x="100"/>
     <use xlink:href="#SimHei-41" x="200"/>
     <use xlink:href="#SimHei-2f" x="250"/>
     <use xlink:href="#SimHei-42" x="300"/>
     <use xlink:href="#SimHei-4fe1" x="350"/>
     <use xlink:href="#SimHei-566a" x="450"/>
     <use xlink:href="#SimHei-6bd4" x="550"/>
     <use xlink:href="#SimHei-ff08" x="650"/>
     <use xlink:href="#SimHei-53" x="750"/>
     <use xlink:href="#SimHei-49" x="800"/>
     <use xlink:href="#SimHei-4e" x="850"/>
     <use xlink:href="#SimHei-52" x="900"/>
     <use xlink:href="#SimHei-ff09" x="950"/>
     <use xlink:href="#SimHei-65f6" x="1050"/>
     <use xlink:href="#SimHei-5e8f" x="1150"/>
     <use xlink:href="#SimHei-53d8" x="1250"/>
     <use xlink:href="#SimHei-5316" x="1350"/>
    </g>
   </g>
   <g id="legend_1">
    <g id="patch_7">
     <path d="M 735.356875 60.746875 
L 842.356875 60.746875 
Q 844.356875 60.746875 844.356875 58.746875 
L 844.356875 31.465625 
Q 844.356875 29.465625 842.356875 29.465625 
L 735.356875 29.465625 
Q 733.356875 29.465625 733.356875 31.465625 
L 733.356875 58.746875 
Q 733.356875 60.746875 735.356875 60.746875 
z
" style="fill: #ffffff; opacity: 0.8; stroke: #cccccc; stroke-linejoin: miter"/>
    </g>
    <g id="line2d_29">
     <path d="M 737.356875 37.85625 
L 747.356875 37.85625 
L 757.356875 37.85625 
" style="fill: none; stroke: #003366; stroke-width: 1.5; stroke-linecap: square"/>
    </g>
    <g id="text_17">
     <!-- 小区A信噪比(dB) -->
     <g transform="translate(765.356875 41.35625)scale(0.1 -0.1)">
      <use xlink:href="#SimHei-5c0f"/>
      <use xlink:href="#SimHei-533a" x="100"/>
      <use xlink:href="#SimHei-41" x="200"/>
      <use xlink:href="#SimHei-4fe1" x="250"/>
      <use xlink:href="#SimHei-566a" x="350"/>
      <use xlink:href="#SimHei-6bd4" x="450"/>
      <use xlink:href="#SimHei-28" x="550"/>
      <use xlink:href="#SimHei-64" x="600"/>
      <use xlink:href="#SimHei-42" x="650"/>
      <use xlink:href="#SimHei-29" x="700"/>
     </g>
    </g>
    <g id="line2d_30">
     <path d="M 737.356875 51.996875 
L 747.356875 51.996875 
L 757.356875 51.996875 
" style="fill: none; stroke: #990000; stroke-width: 1.5; stroke-linecap: square"/>
    </g>
    <g id="text_18">
     <!-- 小区B信噪比(dB) -->
     <g transform="translate(765.356875 55.496875)scale(0.1 -0.1)">
      <use xlink:href="#SimHei-5c0f"/>
      <use xlink:href="#SimHei-533a" x="100"/>
      <use xlink:href="#SimHei-42" x="200"/>
      <use xlink:href="#SimHei-4fe1" x="250"/>
      <use xlink:href="#SimHei-566a" x="350"/>
      <use xlink:href="#SimHei-6bd4" x="450"/>
      <use xlink:href="#SimHei-28" x="550"/>
      <use xlink:href="#SimHei-64" x="600"/>
      <use xlink:href="#SimHei-42" x="650"/>
      <use xlink:href="#SimHei-29" x="700"/>
     </g>
    </g>
   </g>
  </g>
 </g>
 <defs>
  <clipPath id="pebfb9ce81c">
   <rect x="37.340625" y="24.465625" width="812.01625" height="364.02625"/>
  </clipPath>
 </defs>
</svg>
