<?xml version="1.0" encoding="utf-8" standalone="no"?>
<!DOCTYPE svg PUBLIC "-//W3C//DTD SVG 1.1//EN"
  "http://www.w3.org/Graphics/SVG/1.1/DTD/svg11.dtd">
<svg xmlns:xlink="http://www.w3.org/1999/xlink" width="856.364062pt" height="567.63875pt" viewBox="0 0 856.364062 567.63875" xmlns="http://www.w3.org/2000/svg" version="1.1">
 <metadata>
  <rdf:RDF xmlns:dc="http://purl.org/dc/elements/1.1/" xmlns:cc="http://creativecommons.org/ns#" xmlns:rdf="http://www.w3.org/1999/02/22-rdf-syntax-ns#">
   <cc:Work>
    <dc:type rdf:resource="http://purl.org/dc/dcmitype/StillImage"/>
    <dc:date>2025-12-17T20:16:03.872616</dc:date>
    <dc:format>image/svg+xml</dc:format>
    <dc:creator>
     <cc:Agent>
      <dc:title>Matplotlib v3.5.0, https://matplotlib.org/</dc:title>
     </cc:Agent>
    </dc:creator>
   </cc:Work>
  </rdf:RDF>
 </metadata>
 <defs>
  <style type="text/css">*{stroke-linejoin: round; stroke-linecap: butt}</style>
 </defs>
 <g id="figure_1">
  <g id="patch_1">
   <path d="M 0 567.63875 
L 856.364062 567.63875 
L 856.364062 0 
L 0 0 
z
" style="fill: #ffffff"/>
  </g>
  <g id="axes_1">
   <g id="patch_2">
    <path d="M 42.457813 164.138542 
L 849.164062 164.138542 
L 849.164062 22.809375 
L 42.457813 22.809375 
z
" style="fill: #ffffff"/>
   </g>
   <g id="matplotlib.axis_1">
    <g id="xtick_1">
     <g id="line2d_1">
      <path d="M 79.126278 164.138542 
L 79.126278 22.809375 
" clip-path="url(#pb712a2cda4)" style="fill: none; stroke: #b0b0b0; stroke-opacity: 0.3; stroke-width: 0.8; stroke-linecap: square"/>
     </g>
     <g id="line2d_2">
      <defs>
       <path id="m69f7d8f57a" d="M 0 0 
L 0 3.5 
" style="stroke: #000000; stroke-width: 0.8"/>
      </defs>
      <g>
       <use xlink:href="#m69f7d8f57a" x="79.126278" y="164.138542" style="stroke: #000000; stroke-width: 0.8"/>
      </g>
     </g>
     <g id="text_1">
      <!-- 0 -->
      <g transform="translate(76.626278 178.013542)scale(0.1 -0.1)">
       <defs>
        <path id="SimHei-30" d="M 225 2537 
Q 250 3200 412 3587 
Q 575 3975 875 4225 
Q 1175 4475 1612 4475 
Q 2050 4475 2375 4112 
Q 2700 3750 2800 3200 
Q 2900 2650 2862 1937 
Q 2825 1225 2612 775 
Q 2400 325 1975 150 
Q 1550 -25 1125 187 
Q 700 400 525 750 
Q 350 1100 275 1487 
Q 200 1875 225 2537 
z
M 750 2687 
Q 675 2000 800 1462 
Q 925 925 1212 700 
Q 1500 475 1800 612 
Q 2100 750 2237 1162 
Q 2375 1575 2375 2062 
Q 2375 2550 2337 2950 
Q 2300 3350 2112 3675 
Q 1925 4000 1612 4012 
Q 1300 4025 1062 3700 
Q 825 3375 750 2687 
z
" transform="scale(0.015625)"/>
       </defs>
       <use xlink:href="#SimHei-30"/>
      </g>
     </g>
    </g>
    <g id="xtick_2">
     <g id="line2d_3">
      <path d="M 226.094078 164.138542 
L 226.094078 22.809375 
" clip-path="url(#pb712a2cda4)" style="fill: none; stroke: #b0b0b0; stroke-opacity: 0.3; stroke-width: 0.8; stroke-linecap: square"/>
     </g>
     <g id="line2d_4">
      <g>
       <use xlink:href="#m69f7d8f57a" x="226.094078" y="164.138542" style="stroke: #000000; stroke-width: 0.8"/>
      </g>
     </g>
     <g id="text_2">
      <!-- 100 -->
      <g transform="translate(218.594078 178.013542)scale(0.1 -0.1)">
       <defs>
        <path id="SimHei-31" d="M 1400 3600 
Q 1075 3275 575 2975 
L 575 3450 
Q 1200 3875 1600 4450 
L 1900 4450 
L 1900 150 
L 1400 150 
L 1400 3600 
z
" transform="scale(0.015625)"/>
       </defs>
       <use xlink:href="#SimHei-31"/>
       <use xlink:href="#SimHei-30" x="50"/>
       <use xlink:href="#SimHei-30" x="100"/>
      </g>
     </g>
    </g>
    <g id="xtick_3">
     <g id="line2d_5">
      <path d="M 373.061877 164.138542 
L 373.061877 22.809375 
" clip-path="url(#pb712a2cda4)" style="fill: none; stroke: #b0b0b0; stroke-opacity: 0.3; stroke-width: 0.8; stroke-linecap: square"/>
     </g>
     <g id="line2d_6">
      <g>
       <use xlink:href="#m69f7d8f57a" x="373.061877" y="164.138542" style="stroke: #000000; stroke-width: 0.8"/>
      </g>
     </g>
     <g id="text_3">
      <!-- 200 -->
      <g transform="translate(365.561877 178.013542)scale(0.1 -0.1)">
       <defs>
        <path id="SimHei-32" d="M 300 250 
Q 325 625 650 925 
Q 975 1225 1475 1862 
Q 1975 2500 2125 2850 
Q 2275 3200 2237 3450 
Q 2200 3700 2000 3862 
Q 1800 4025 1537 4000 
Q 1275 3975 1037 3800 
Q 800 3625 675 3275 
L 200 3350 
Q 400 3925 712 4187 
Q 1025 4450 1450 4475 
Q 1700 4500 1900 4462 
Q 2100 4425 2312 4287 
Q 2525 4150 2662 3875 
Q 2800 3600 2762 3212 
Q 2725 2825 2375 2287 
Q 2025 1750 1025 600 
L 2825 600 
L 2825 150 
L 300 150 
L 300 250 
z
" transform="scale(0.015625)"/>
       </defs>
       <use xlink:href="#SimHei-32"/>
       <use xlink:href="#SimHei-30" x="50"/>
       <use xlink:href="#SimHei-30" x="100"/>
      </g>
     </g>
    </g>
    <g id="xtick_4">
     <g id="line2d_7">
      <path d="M 520.029676 164.138542 
L 520.029676 22.809375 
" clip-path="url(#pb712a2cda4)" style="fill: none; stroke: #b0b0b0; stroke-opacity: 0.3; stroke-width: 0.8; stroke-linecap: square"/>
     </g>
     <g id="line2d_8">
      <g>
       <use xlink:href="#m69f7d8f57a" x="520.029676" y="164.138542" style="stroke: #000000; stroke-width: 0.8"/>
      </g>
     </g>
     <g id="text_4">
      <!-- 300 -->
      <g transform="translate(512.529676 178.013542)scale(0.1 -0.1)">
       <defs>
        <path id="SimHei-33" d="M 250 1225 
L 700 1300 
Q 800 975 1025 762 
Q 1250 550 1587 562 
Q 1925 575 2125 837 
Q 2325 1100 2300 1437 
Q 2275 1775 2037 1962 
Q 1800 2150 1275 2225 
L 1275 2550 
Q 1800 2600 2037 2825 
Q 2275 3050 2250 3412 
Q 2225 3775 1925 3937 
Q 1625 4100 1287 3975 
Q 950 3850 750 3275 
L 300 3350 
Q 450 3800 712 4100 
Q 975 4400 1425 4450 
Q 1875 4500 2212 4337 
Q 2550 4175 2687 3837 
Q 2825 3500 2725 3100 
Q 2625 2700 2150 2400 
Q 2500 2250 2687 1950 
Q 2875 1650 2812 1162 
Q 2750 675 2375 375 
Q 2000 75 1525 87 
Q 1050 100 700 387 
Q 350 675 250 1225 
z
" transform="scale(0.015625)"/>
       </defs>
       <use xlink:href="#SimHei-33"/>
       <use xlink:href="#SimHei-30" x="50"/>
       <use xlink:href="#SimHei-30" x="100"/>
      </g>
     </g>
    </g>
    <g id="xtick_5">
     <g id="line2d_9">
      <path d="M 666.997475 164.138542 
L 666.997475 22.809375 
" clip-path="url(#pb712a2cda4)" style="fill: none; stroke: #b0b0b0; stroke-opacity: 0.3; stroke-width: 0.8; stroke-linecap: square"/>
     </g>
     <g id="line2d_10">
      <g>
       <use xlink:href="#m69f7d8f57a" x="666.997475" y="164.138542" style="stroke: #000000; stroke-width: 0.8"/>
      </g>
     </g>
     <g id="text_5">
      <!-- 400 -->
      <g transform="translate(659.497475 178.013542)scale(0.1 -0.1)">
       <defs>
        <path id="SimHei-34" d="M 2000 1100 
L 75 1100 
L 75 1525 
L 2100 4450 
L 2475 4450 
L 2475 1525 
L 3075 1525 
L 3075 1100 
L 2475 1100 
L 2475 150 
L 2000 150 
L 2000 1100 
z
M 2000 1525 
L 2000 3500 
L 600 1525 
L 2000 1525 
z
" transform="scale(0.015625)"/>
       </defs>
       <use xlink:href="#SimHei-34"/>
       <use xlink:href="#SimHei-30" x="50"/>
       <use xlink:href="#SimHei-30" x="100"/>
      </g>
     </g>
    </g>
    <g id="xtick_6">
     <g id="line2d_11">
      <path d="M 813.965275 164.138542 
L 813.965275 22.809375 
" clip-path="url(#pb712a2cda4)" style="fill: none; stroke: #b0b0b0; stroke-opacity: 0.3; stroke-width: 0.8; stroke-linecap: square"/>
     </g>
     <g id="line2d_12">
      <g>
       <use xlink:href="#m69f7d8f57a" x="813.965275" y="164.138542" style="stroke: #000000; stroke-width: 0.8"/>
      </g>
     </g>
     <g id="text_6">
      <!-- 500 -->
      <g transform="translate(806.465275 178.013542)scale(0.1 -0.1)">
       <defs>
        <path id="SimHei-35" d="M 550 1325 
Q 725 650 1150 575 
Q 1575 500 1837 662 
Q 2100 825 2212 1087 
Q 2325 1350 2312 1675 
Q 2300 2000 2137 2225 
Q 1975 2450 1725 2525 
Q 1475 2600 1162 2525 
Q 850 2450 650 2175 
L 225 2225 
Q 275 2375 700 4375 
L 2675 4375 
L 2675 3925 
L 1075 3925 
Q 950 3250 825 2850 
Q 1200 3025 1525 3012 
Q 1850 3000 2150 2862 
Q 2450 2725 2587 2487 
Q 2725 2250 2787 2012 
Q 2850 1775 2837 1500 
Q 2825 1225 2725 937 
Q 2625 650 2425 462 
Q 2225 275 1937 162 
Q 1650 50 1275 75 
Q 900 100 562 350 
Q 225 600 100 1200 
L 550 1325 
z
" transform="scale(0.015625)"/>
       </defs>
       <use xlink:href="#SimHei-35"/>
       <use xlink:href="#SimHei-30" x="50"/>
       <use xlink:href="#SimHei-30" x="100"/>
      </g>
     </g>
    </g>
   </g>
   <g id="matplotlib.axis_2">
    <g id="ytick_1">
     <g id="line2d_13">
      <path d="M 42.457813 133.62429 
L 849.164062 133.62429 
" clip-path="url(#pb712a2cda4)" style="fill: none; stroke: #b0b0b0; stroke-opacity: 0.3; stroke-width: 0.8; stroke-linecap: square"/>
     </g>
     <g id="line2d_14">
      <defs>
       <path id="m1106e9b38d" d="M 0 0 
L -3.5 0 
" style="stroke: #000000; stroke-width: 0.8"/>
      </defs>
      <g>
       <use xlink:href="#m1106e9b38d" x="42.457813" y="133.62429" style="stroke: #000000; stroke-width: 0.8"/>
      </g>
     </g>
     <g id="text_7">
      <!-- -50 -->
      <g transform="translate(20.457813 137.06179)scale(0.1 -0.1)">
       <defs>
        <path id="SimHei-2d" d="M 2975 2125 
L 125 2125 
L 125 2525 
L 2975 2525 
L 2975 2125 
z
" transform="scale(0.015625)"/>
       </defs>
       <use xlink:href="#SimHei-2d"/>
       <use xlink:href="#SimHei-35" x="50"/>
       <use xlink:href="#SimHei-30" x="100"/>
      </g>
     </g>
    </g>
    <g id="ytick_2">
     <g id="line2d_15">
      <path d="M 42.457813 93.473958 
L 849.164062 93.473958 
" clip-path="url(#pb712a2cda4)" style="fill: none; stroke: #b0b0b0; stroke-opacity: 0.3; stroke-width: 0.8; stroke-linecap: square"/>
     </g>
     <g id="line2d_16">
      <g>
       <use xlink:href="#m1106e9b38d" x="42.457813" y="93.473958" style="stroke: #000000; stroke-width: 0.8"/>
      </g>
     </g>
     <g id="text_8">
      <!-- 0 -->
      <g transform="translate(30.457813 96.911458)scale(0.1 -0.1)">
       <use xlink:href="#SimHei-30"/>
      </g>
     </g>
    </g>
    <g id="ytick_3">
     <g id="line2d_17">
      <path d="M 42.457813 53.323627 
L 849.164062 53.323627 
" clip-path="url(#pb712a2cda4)" style="fill: none; stroke: #b0b0b0; stroke-opacity: 0.3; stroke-width: 0.8; stroke-linecap: square"/>
     </g>
     <g id="line2d_18">
      <g>
       <use xlink:href="#m1106e9b38d" x="42.457813" y="53.323627" style="stroke: #000000; stroke-width: 0.8"/>
      </g>
     </g>
     <g id="text_9">
      <!-- 50 -->
      <g transform="translate(25.457813 56.761127)scale(0.1 -0.1)">
       <use xlink:href="#SimHei-35"/>
       <use xlink:href="#SimHei-30" x="50"/>
      </g>
     </g>
    </g>
    <g id="text_10">
     <!-- 信号强度差(dBm) -->
     <g transform="translate(15.207813 130.973958)rotate(-90)scale(0.1 -0.1)">
      <defs>
       <path id="SimHei-4fe1" d="M 5650 1575 
Q 5625 1275 5625 575 
Q 5625 -100 5650 -450 
L 5175 -450 
L 5175 -25 
L 3025 -25 
L 3025 -550 
L 2525 -550 
Q 2550 -175 2550 500 
Q 2550 1200 2525 1575 
L 5650 1575 
z
M 2125 4975 
Q 1975 4825 1650 3975 
L 1650 550 
Q 1650 -200 1675 -625 
L 1125 -625 
Q 1200 -175 1200 575 
L 1200 3100 
Q 900 2500 625 2100 
Q 475 2350 250 2500 
Q 525 2800 925 3562 
Q 1325 4325 1525 5175 
Q 1800 5075 2125 4975 
z
M 5175 375 
L 5175 1225 
L 3025 1225 
L 3025 375 
L 5175 375 
z
M 6075 3900 
Q 5575 3925 4100 3925 
Q 2625 3925 2100 3900 
L 2100 4325 
L 6075 4325 
L 6075 3900 
z
M 5700 3000 
Q 5275 3025 4150 3025 
Q 3025 3025 2475 3000 
L 2475 3425 
Q 2950 3400 4100 3400 
Q 5275 3400 5700 3425 
L 5700 3000 
z
M 5700 2125 
Q 5350 2150 4175 2150 
Q 3025 2150 2475 2125 
L 2475 2550 
Q 3000 2525 4175 2525 
Q 5375 2525 5700 2550 
L 5700 2125 
z
M 4025 5200 
Q 4100 5050 4175 4875 
Q 4250 4700 4325 4500 
Q 4100 4425 3875 4375 
Q 3700 4900 3575 5025 
Q 3825 5125 4025 5200 
z
" transform="scale(0.015625)"/>
       <path id="SimHei-53f7" d="M 5025 4925 
Q 5000 4550 5000 4075 
Q 5000 3600 5025 3175 
L 1400 3175 
Q 1425 3525 1425 4000 
Q 1425 4500 1400 4925 
L 5025 4925 
z
M 5175 2625 
Q 5650 2625 6025 2650 
L 6025 2200 
Q 5650 2225 5175 2225 
L 2450 2225 
Q 2350 1875 2225 1450 
L 5175 1450 
Q 5100 1050 5062 775 
Q 5025 500 4950 112 
Q 4875 -275 4650 -412 
Q 4425 -550 3225 -625 
Q 3125 -350 2975 -50 
Q 3875 -75 4112 -50 
Q 4350 -25 4425 212 
Q 4500 450 4575 1025 
L 1600 1025 
Q 1825 1625 1950 2225 
L 1350 2225 
Q 825 2225 375 2200 
L 375 2650 
Q 825 2625 1350 2625 
L 5175 2625 
z
M 4525 3575 
L 4525 4525 
L 1900 4525 
L 1900 3575 
L 4525 3575 
z
" transform="scale(0.015625)"/>
       <path id="SimHei-5f3a" d="M 2350 25 
Q 3100 75 3950 225 
L 3950 1200 
L 3100 1200 
L 3100 975 
L 2625 975 
Q 2650 1725 2650 2050 
L 2650 2875 
L 3950 2875 
L 3950 3500 
L 2850 3500 
Q 2875 3900 2875 4275 
Q 2875 4675 2850 5025 
L 5525 5025 
Q 5500 4675 5500 4275 
Q 5500 3900 5525 3500 
L 4400 3500 
L 4400 2875 
L 5750 2875 
Q 5725 2575 5725 2075 
Q 5725 1575 5750 1200 
L 4400 1200 
L 4400 275 
L 5250 425 
Q 5150 575 5050 750 
Q 5300 825 5475 925 
Q 5925 200 6175 -250 
Q 5925 -350 5725 -500 
Q 5625 -250 5425 100 
Q 5125 50 4225 -137 
Q 3325 -325 2600 -525 
Q 2525 -200 2350 25 
z
M 600 -25 
Q 1250 -25 1400 50 
Q 1550 125 1575 325 
L 1675 1850 
L 500 1850 
Q 550 2350 562 2762 
Q 575 3175 575 3575 
L 1800 3575 
L 1800 4550 
L 1275 4550 
Q 825 4550 425 4525 
L 425 4950 
Q 850 4925 1275 4925 
L 2275 4925 
Q 2250 4525 2250 4075 
Q 2250 3650 2275 3200 
L 1075 3200 
L 1025 2225 
L 2175 2225 
Q 2125 1775 2100 1425 
L 2025 150 
Q 1975 -250 1637 -387 
Q 1300 -525 850 -600 
Q 775 -275 600 -25 
z
M 5050 3875 
L 5050 4650 
L 3325 4650 
L 3325 3875 
L 5050 3875 
z
M 3950 1575 
L 3950 2500 
L 3100 2500 
L 3100 1575 
L 3950 1575 
z
M 5250 1575 
L 5250 2500 
L 4400 2500 
L 4400 1575 
L 5250 1575 
z
" transform="scale(0.015625)"/>
       <path id="SimHei-5ea6" d="M 1750 1675 
Q 2450 1650 2875 1650 
L 5200 1650 
Q 4975 1250 4650 850 
Q 4325 450 4025 200 
Q 4350 50 4950 -50 
Q 5550 -150 6100 -150 
Q 5950 -300 5825 -650 
Q 5100 -550 4550 -412 
Q 4000 -275 3625 -100 
Q 3100 -325 2587 -462 
Q 2075 -600 1525 -675 
Q 1450 -475 1225 -250 
Q 1675 -250 2250 -125 
Q 2825 0 3250 200 
Q 2825 550 2400 1275 
L 1750 1250 
L 1750 1675 
z
M 2975 5075 
Q 3250 5150 3475 5250 
Q 3625 4975 3775 4525 
L 4700 4525 
Q 4975 4525 5700 4550 
L 5700 4100 
Q 5000 4125 4650 4125 
L 1375 4125 
Q 1375 3000 1350 2312 
Q 1325 1625 1212 950 
Q 1100 275 725 -525 
Q 500 -375 250 -300 
Q 650 400 762 1075 
Q 875 1750 887 2800 
Q 900 3850 875 4525 
L 3200 4525 
Q 3100 4850 2975 5075 
z
M 2475 3300 
Q 2475 3700 2450 3925 
L 2975 3925 
Q 2950 3725 2950 3300 
L 4300 3300 
Q 4300 3700 4275 3950 
L 4800 3950 
Q 4775 3650 4775 3300 
Q 5325 3300 5725 3325 
L 5725 2900 
Q 5350 2925 4775 2925 
Q 4775 2250 4800 1950 
L 2450 1950 
Q 2475 2350 2475 2925 
Q 2175 2925 1600 2900 
L 1600 3325 
Q 2175 3300 2475 3300 
z
M 4300 2350 
L 4300 2925 
L 2950 2925 
L 2950 2350 
L 4300 2350 
z
M 2875 1275 
Q 3200 775 3650 425 
Q 4025 700 4425 1275 
L 2900 1275 
L 2875 1275 
z
" transform="scale(0.015625)"/>
       <path id="SimHei-5dee" d="M 4725 4975 
Q 4500 4725 4250 4275 
L 4850 4275 
Q 5450 4275 5825 4300 
L 5825 3850 
Q 5425 3875 4850 3875 
L 3275 3875 
Q 3225 3600 3150 3275 
L 4525 3275 
Q 5075 3275 5525 3300 
L 5525 2850 
Q 5075 2875 4500 2875 
L 3050 2875 
Q 2975 2650 2850 2325 
L 5125 2325 
Q 5675 2325 6025 2350 
L 6025 1900 
Q 5700 1925 5150 1925 
L 2650 1925 
Q 2425 1550 2250 1300 
Q 2650 1275 3100 1275 
L 4525 1275 
Q 4975 1275 5350 1300 
L 5350 850 
Q 4975 875 4575 875 
L 3925 875 
L 3925 -50 
L 5000 -50 
Q 5200 -50 5900 -25 
L 5900 -500 
Q 5275 -475 5025 -475 
L 2100 -475 
Q 1700 -475 1400 -500 
L 1400 -25 
Q 1775 -50 2125 -50 
L 3425 -50 
L 3425 875 
L 3100 875 
Q 2625 875 2175 850 
L 2175 1200 
Q 1925 875 1487 475 
Q 1050 75 625 -250 
Q 425 -25 200 150 
Q 750 475 1262 925 
Q 1775 1375 2100 1925 
L 1325 1925 
Q 750 1925 375 1900 
L 375 2350 
Q 750 2325 1350 2325 
L 2325 2325 
Q 2450 2575 2550 2875 
L 1725 2875 
Q 1375 2875 1000 2850 
L 1000 3300 
Q 1500 3275 1700 3275 
L 2650 3275 
Q 2725 3575 2775 3875 
L 1500 3875 
Q 1100 3875 650 3850 
L 650 4300 
Q 1025 4275 1425 4275 
L 2275 4275 
Q 2075 4675 1850 4950 
Q 2025 5050 2250 5225 
Q 2450 4975 2725 4550 
Q 2525 4450 2325 4275 
L 3750 4275 
Q 4000 4700 4150 5250 
Q 4400 5100 4725 4975 
z
" transform="scale(0.015625)"/>
       <path id="SimHei-28" d="M 2975 -200 
L 2700 -475 
Q 2075 125 1762 775 
Q 1450 1425 1450 2250 
Q 1450 3075 1762 3725 
Q 2075 4375 2700 5000 
L 2975 4725 
Q 2400 4175 2112 3587 
Q 1825 3000 1825 2250 
Q 1825 1500 2112 912 
Q 2400 325 2975 -200 
z
" transform="scale(0.015625)"/>
       <path id="SimHei-64" d="M 2750 125 
L 2250 125 
L 2250 500 
Q 2100 275 1900 175 
Q 1700 75 1425 75 
Q 925 75 575 437 
Q 225 800 225 1525 
Q 225 2250 575 2625 
Q 925 3000 1425 3000 
Q 1700 3000 1900 2887 
Q 2100 2775 2250 2550 
L 2250 4400 
L 2750 4400 
L 2750 125 
z
M 2250 1525 
Q 2250 2000 2037 2275 
Q 1825 2550 1525 2550 
Q 1150 2550 962 2275 
Q 775 2000 775 1525 
Q 775 1050 962 787 
Q 1150 525 1525 525 
Q 1825 525 2037 787 
Q 2250 1050 2250 1525 
z
" transform="scale(0.015625)"/>
       <path id="SimHei-42" d="M 2950 1400 
Q 2950 675 2550 400 
Q 2150 125 1525 125 
L 275 125 
L 275 4400 
L 1575 4400 
Q 2200 4400 2512 4075 
Q 2825 3750 2825 3300 
Q 2825 2850 2612 2637 
Q 2400 2425 2175 2350 
Q 2475 2275 2712 2037 
Q 2950 1800 2950 1400 
z
M 2250 3300 
Q 2250 3625 2062 3775 
Q 1875 3925 1600 3925 
L 850 3925 
L 850 2600 
L 1575 2600 
Q 1850 2600 2050 2762 
Q 2250 2925 2250 3300 
z
M 2350 1400 
Q 2350 1800 2087 1962 
Q 1825 2125 1500 2125 
L 850 2125 
L 850 600 
L 1425 600 
Q 1875 600 2112 775 
Q 2350 950 2350 1400 
z
" transform="scale(0.015625)"/>
       <path id="SimHei-6d" d="M 3050 125 
L 2550 125 
L 2550 2150 
Q 2550 2300 2500 2400 
Q 2450 2500 2300 2500 
Q 2125 2500 1975 2312 
Q 1825 2125 1825 1825 
L 1825 125 
L 1325 125 
L 1325 2150 
Q 1325 2300 1275 2400 
Q 1225 2500 1075 2500 
Q 900 2500 750 2312 
Q 600 2125 600 1825 
L 600 125 
L 100 125 
L 100 2925 
L 600 2925 
L 600 2550 
Q 725 2750 900 2862 
Q 1075 2975 1275 2975 
Q 1475 2975 1612 2862 
Q 1750 2750 1800 2550 
Q 1925 2750 2087 2862 
Q 2250 2975 2450 2975 
Q 2750 2975 2900 2812 
Q 3050 2650 3050 2350 
L 3050 125 
z
" transform="scale(0.015625)"/>
       <path id="SimHei-29" d="M 1675 2250 
Q 1675 1425 1362 775 
Q 1050 125 425 -475 
L 150 -200 
Q 725 325 1012 912 
Q 1300 1500 1300 2250 
Q 1300 3000 1012 3587 
Q 725 4175 150 4725 
L 425 5000 
Q 1050 4375 1362 3725 
Q 1675 3075 1675 2250 
z
" transform="scale(0.015625)"/>
      </defs>
      <use xlink:href="#SimHei-4fe1"/>
      <use xlink:href="#SimHei-53f7" x="100"/>
      <use xlink:href="#SimHei-5f3a" x="200"/>
      <use xlink:href="#SimHei-5ea6" x="300"/>
      <use xlink:href="#SimHei-5dee" x="400"/>
      <use xlink:href="#SimHei-28" x="500"/>
      <use xlink:href="#SimHei-64" x="550"/>
      <use xlink:href="#SimHei-42" x="600"/>
      <use xlink:href="#SimHei-6d" x="650"/>
      <use xlink:href="#SimHei-29" x="700"/>
     </g>
    </g>
   </g>
   <g id="line2d_19">
    <path d="M 79.126278 85.952227 
L 80.595956 90.361983 
L 82.065634 67.232983 
L 83.535312 55.496326 
L 85.00499 65.328619 
L 86.474668 60.318224 
L 87.944346 29.960788 
L 89.414024 35.389105 
L 90.883702 48.215931 
L 92.35338 33.421134 
L 93.823058 41.874349 
L 95.292736 42.038476 
L 96.762414 30.367136 
L 98.232092 59.839719 
L 101.171448 47.122414 
L 102.641126 57.04862 
L 104.110804 39.564224 
L 105.580482 61.770516 
L 107.05016 73.03168 
L 108.519838 35.614339 
L 109.989516 71.480804 
L 111.459194 70.083232 
L 112.928872 93.939311 
L 114.39855 87.568341 
L 115.868228 87.013701 
L 117.337906 111.871455 
L 118.807584 103.232437 
L 120.277262 122.000911 
L 121.74694 125.729647 
L 123.216618 137.699234 
L 124.686296 109.598629 
L 126.155974 137.370348 
L 127.625652 151.658902 
L 129.09533 135.022304 
L 130.565008 153.922723 
L 132.034686 148.558869 
L 133.504364 156.788087 
L 134.974042 157.17378 
L 136.44372 143.715688 
L 137.913398 136.746624 
L 139.383076 141.713131 
L 140.852754 142.123238 
L 142.322432 145.054785 
L 143.79211 146.040464 
L 145.261788 132.125537 
L 146.731466 126.475544 
L 148.201144 103.846284 
L 149.670822 100.096613 
L 151.1405 117.883984 
L 152.610178 90.297703 
L 154.079856 89.110596 
L 155.549534 88.683753 
L 157.019212 63.600776 
L 158.48889 53.826864 
L 159.958568 47.506254 
L 161.428246 62.974703 
L 162.897924 48.506819 
L 165.83728 30.126245 
L 167.306958 43.219068 
L 168.776636 50.769097 
L 170.246314 49.267388 
L 171.715992 54.611022 
L 173.18567 33.000304 
L 174.655348 31.930735 
L 176.125026 40.710634 
L 177.594704 29.233428 
L 179.064382 41.536786 
L 180.53406 61.241174 
L 182.003738 55.834226 
L 183.473416 49.659465 
L 184.943094 74.231247 
L 186.412772 62.587672 
L 187.88245 120.554563 
L 189.352128 79.868802 
L 190.821806 105.015771 
L 192.291484 115.665503 
L 193.761162 107.453121 
L 195.23084 148.573264 
L 196.700518 132.870735 
L 198.170196 129.156194 
L 199.639874 122.08487 
L 201.109552 148.647137 
L 202.57923 156.202513 
L 204.048908 154.839126 
L 205.518586 135.137875 
L 206.988264 144.395662 
L 208.457942 157.714489 
L 209.92762 141.825461 
L 211.397298 147.139303 
L 212.866976 131.703773 
L 214.336654 149.980288 
L 215.806332 142.035557 
L 217.27601 137.815727 
L 218.745688 144.098185 
L 220.215366 115.450221 
L 221.685044 112.540041 
L 223.154722 103.122582 
L 224.6244 102.376335 
L 226.094078 109.622322 
L 229.033434 79.12922 
L 230.503112 84.71302 
L 231.97279 64.701979 
L 233.442468 60.10059 
L 234.912146 29.233428 
L 236.381824 45.245141 
L 237.851502 37.742138 
L 239.32118 40.45366 
L 240.790858 64.701773 
L 242.260536 36.083907 
L 243.730214 33.496734 
L 245.199892 29.233428 
L 246.66957 45.016929 
L 248.139248 34.585409 
L 249.608926 36.821025 
L 251.078604 62.494229 
L 252.548282 36.031448 
L 254.017959 43.523855 
L 255.487637 46.188335 
L 256.957315 77.137293 
L 258.426993 58.823527 
L 259.896671 104.842616 
L 261.366349 80.385123 
L 262.836027 68.68049 
L 264.305705 112.149907 
L 265.775383 118.425593 
L 267.245061 115.487492 
L 268.714739 131.270828 
L 270.184417 144.042205 
L 271.654095 136.208075 
L 273.123773 148.603044 
L 274.593451 135.094365 
L 276.063129 155.276309 
L 277.532807 122.813399 
L 279.002485 154.849031 
L 280.472163 156.736426 
L 281.941841 136.016523 
L 283.411519 152.905479 
L 284.881197 144.782251 
L 286.350875 128.793264 
L 287.820553 157.089128 
L 289.290231 130.370744 
L 290.759909 127.983923 
L 292.229587 114.987892 
L 293.699265 131.482607 
L 295.168943 133.057159 
L 296.638621 94.65217 
L 298.108299 98.465189 
L 299.577977 94.914577 
L 301.047655 87.502449 
L 302.517333 86.591596 
L 303.987011 67.673047 
L 305.456689 62.155408 
L 306.926367 64.578899 
L 308.396045 30.924752 
L 309.865723 35.931556 
L 311.335401 56.882288 
L 312.805079 32.215833 
L 314.274757 54.974129 
L 315.744435 29.233428 
L 317.214113 32.580936 
L 318.683791 49.168044 
L 320.153469 29.233428 
L 321.623147 31.859806 
L 323.092825 29.838781 
L 324.562503 32.856577 
L 326.032181 45.857942 
L 327.501859 65.98253 
L 328.971537 74.125435 
L 330.441215 72.63698 
L 333.380571 76.421022 
L 334.850249 83.617884 
L 336.319927 84.195769 
L 337.789605 104.490604 
L 339.259283 96.116373 
L 340.728961 125.18106 
L 342.198639 94.354802 
L 343.668317 122.80878 
L 345.137995 139.870962 
L 346.607673 149.947184 
L 348.077351 142.428812 
L 349.547029 149.182967 
L 351.016707 139.510835 
L 352.486385 146.419004 
L 353.956063 151.857183 
L 355.425741 156.389402 
L 356.895419 157.714489 
L 358.365097 152.156671 
L 359.834775 139.547189 
L 361.304453 136.829348 
L 362.774131 152.898031 
L 364.243809 133.987883 
L 365.713487 118.363213 
L 367.183165 130.982448 
L 368.652843 105.745643 
L 370.122521 105.982026 
L 371.592199 108.791129 
L 373.061877 84.405384 
L 374.531555 79.691184 
L 376.001233 60.360145 
L 377.470911 51.229989 
L 378.940589 76.888499 
L 380.410267 70.533262 
L 381.879945 43.752949 
L 383.349623 46.288938 
L 384.819301 36.238349 
L 386.288979 33.320225 
L 387.758657 33.789661 
L 389.228335 30.90265 
L 390.698013 30.964085 
L 392.167691 30.194955 
L 393.637369 42.018078 
L 395.107047 32.166268 
L 396.576725 54.402788 
L 398.046403 49.155524 
L 399.516081 58.38735 
L 400.985759 49.922452 
L 402.455437 35.996013 
L 403.925115 87.606698 
L 405.394793 61.635583 
L 406.864471 103.775502 
L 408.334149 96.394573 
L 409.803827 82.626771 
L 411.273505 103.084388 
L 412.743183 126.066823 
L 414.212861 123.375413 
L 415.682539 108.26946 
L 417.152217 141.306992 
L 418.621895 133.59739 
L 420.091573 140.7089 
L 421.561251 142.078452 
L 423.030929 124.016575 
L 425.970285 153.672874 
L 427.439963 152.595492 
L 428.909641 156.343797 
L 430.379319 137.080492 
L 431.848997 153.154299 
L 434.788353 133.720524 
L 436.258031 127.069194 
L 437.727709 148.621944 
L 439.197387 130.006749 
L 440.667065 124.607082 
L 442.136743 119.804039 
L 443.606421 79.610041 
L 445.076099 92.267812 
L 446.545776 103.015153 
L 448.015454 65.561768 
L 449.485132 50.759432 
L 450.95481 57.18271 
L 452.424488 76.715467 
L 453.894166 72.035682 
L 455.363844 33.297838 
L 456.833522 55.163404 
L 458.3032 36.677835 
L 459.772878 31.535621 
L 461.242556 46.613626 
L 462.712234 36.96825 
L 464.181912 82.171335 
L 465.65159 51.2863 
L 467.121268 43.13242 
L 468.590946 57.544396 
L 470.060624 29.501374 
L 471.530302 71.6677 
L 472.99998 57.427675 
L 474.469658 56.548239 
L 475.939336 43.305136 
L 477.409014 84.766196 
L 478.878692 65.12997 
L 480.34837 85.950179 
L 481.818048 101.385818 
L 483.287726 87.413499 
L 484.757404 94.789908 
L 486.227082 117.888466 
L 487.69676 116.92706 
L 489.166438 132.005802 
L 490.636116 129.316546 
L 492.105794 124.576294 
L 493.575472 119.357785 
L 495.04515 155.409774 
L 496.514828 123.249816 
L 497.984506 157.714489 
L 499.454184 157.290614 
L 500.923862 143.611508 
L 502.39354 149.640372 
L 503.863218 153.520326 
L 505.332896 149.783334 
L 506.802574 144.673834 
L 508.272252 148.123162 
L 509.74193 119.17284 
L 511.211608 122.437646 
L 512.681286 135.570074 
L 514.150964 103.609222 
L 515.620642 109.074029 
L 517.09032 92.593571 
L 518.559998 87.591893 
L 520.029676 103.63092 
L 522.969032 65.934011 
L 524.43871 61.019205 
L 525.908388 59.756662 
L 527.378066 55.913524 
L 528.847744 34.820372 
L 530.317422 52.681498 
L 531.7871 35.7842 
L 533.256778 38.703799 
L 534.726456 39.668238 
L 536.196134 29.233428 
L 537.665812 32.719227 
L 539.13549 29.706932 
L 540.605168 31.719162 
L 542.074846 39.387562 
L 543.544524 37.729934 
L 545.014202 54.148621 
L 546.48388 49.518163 
L 547.953558 62.094923 
L 549.423236 60.737019 
L 550.892914 64.275264 
L 552.362592 92.835051 
L 553.83227 54.763939 
L 555.301948 102.623659 
L 556.771626 122.060867 
L 558.241304 96.588285 
L 559.710982 101.326096 
L 561.18066 113.003502 
L 562.650338 115.227513 
L 564.120016 124.453966 
L 565.589694 142.80268 
L 567.059372 138.065621 
L 568.52905 147.972793 
L 569.998728 134.700924 
L 571.468406 153.036293 
L 572.938084 157.714489 
L 574.407762 153.7292 
L 575.87744 148.659795 
L 577.347118 155.45251 
L 578.816796 156.789361 
L 580.286474 141.971116 
L 581.756152 132.539615 
L 583.22583 139.243047 
L 584.695508 133.422511 
L 586.165186 125.052782 
L 587.634864 142.266758 
L 589.104542 131.73218 
L 590.57422 113.882899 
L 592.043898 97.662111 
L 593.513576 85.707653 
L 594.983254 65.239584 
L 596.452932 60.335264 
L 597.92261 70.59233 
L 599.392288 66.275725 
L 600.861966 73.197462 
L 602.331644 49.829971 
L 603.801322 49.697199 
L 605.271 40.153034 
L 606.740678 50.86254 
L 608.210356 30.948621 
L 609.680034 29.233428 
L 611.149712 40.517944 
L 612.61939 37.853116 
L 614.089068 29.233428 
L 615.558746 44.962118 
L 617.028424 41.523117 
L 618.498102 50.617542 
L 619.96778 53.926608 
L 621.437458 74.883305 
L 622.907136 63.665183 
L 624.376814 58.023857 
L 625.846492 58.649901 
L 627.31617 74.212956 
L 628.785848 60.366062 
L 630.255526 113.612194 
L 631.725204 95.268303 
L 633.194882 108.774621 
L 634.66456 93.055283 
L 636.134238 134.877888 
L 637.603916 147.014569 
L 639.073593 144.505244 
L 640.543271 151.338421 
L 642.012949 155.77607 
L 643.482627 155.906377 
L 644.952305 151.727442 
L 646.421983 144.929549 
L 647.891661 122.523282 
L 650.831017 157.714489 
L 652.300695 156.606407 
L 653.770373 139.648876 
L 655.240051 151.987744 
L 656.709729 113.12005 
L 658.179407 117.738575 
L 661.118763 140.99787 
L 662.588441 94.585269 
L 664.058119 103.663049 
L 665.527797 78.640665 
L 666.997475 111.555355 
L 668.467153 85.94234 
L 669.936831 70.655144 
L 672.876187 64.462287 
L 674.345865 48.837105 
L 675.815543 63.667008 
L 677.285221 45.398983 
L 678.754899 42.524628 
L 680.224577 38.112265 
L 681.694255 29.233428 
L 683.163933 49.503672 
L 684.633611 54.918875 
L 686.103289 33.033544 
L 687.572967 35.168482 
L 689.042645 48.704662 
L 690.512323 30.697863 
L 691.982001 46.490418 
L 693.451679 33.13512 
L 694.921357 56.931599 
L 696.391035 39.431201 
L 697.860713 43.529147 
L 699.330391 82.410682 
L 700.800069 72.983414 
L 702.269747 89.486023 
L 703.739425 83.133426 
L 705.209103 112.918015 
L 706.678781 108.531376 
L 708.148459 111.122598 
L 709.618137 149.732771 
L 711.087815 145.438367 
L 712.557493 155.749361 
L 714.027171 139.660567 
L 715.496849 132.260127 
L 716.966527 130.321049 
L 718.436205 147.242192 
L 719.905883 128.325798 
L 721.375561 153.842361 
L 722.845239 156.53172 
L 725.784595 136.532158 
L 727.254273 142.432207 
L 728.723951 157.278404 
L 730.193629 137.672678 
L 731.663307 148.347902 
L 733.132985 112.400901 
L 734.602663 108.36153 
L 736.072341 117.580703 
L 737.542019 104.965721 
L 739.011697 108.345792 
L 741.951053 64.249211 
L 743.420731 81.897784 
L 744.890409 56.943936 
L 746.360087 65.275102 
L 747.829765 71.485497 
L 749.299443 49.713234 
L 750.769121 58.471298 
L 752.238799 46.795888 
L 753.708477 53.517273 
L 755.178155 31.115303 
L 756.647833 41.507195 
L 758.117511 45.70736 
L 759.587189 37.593376 
L 761.056867 40.957404 
L 762.526545 45.841603 
L 763.996223 31.242895 
L 765.465901 42.285249 
L 766.935579 63.168138 
L 768.405257 62.018232 
L 769.874935 66.211183 
L 771.344613 101.215414 
L 772.814291 100.530464 
L 774.283969 66.682902 
L 775.753647 72.791212 
L 777.223325 97.45945 
L 778.693003 99.32182 
L 780.162681 103.610662 
L 781.632359 79.823477 
L 783.102037 115.722898 
L 784.571715 134.646222 
L 786.041393 152.05479 
L 787.511071 151.224734 
L 788.980749 143.921929 
L 790.450427 157.16454 
L 791.920105 152.677335 
L 793.389783 157.714489 
L 794.859461 157.714489 
L 796.329139 131.762595 
L 797.798817 134.201291 
L 799.268495 147.7774 
L 800.738173 112.256526 
L 802.207851 137.857009 
L 803.677529 142.094067 
L 805.147207 101.819345 
L 806.616885 108.944413 
L 808.086563 127.489338 
L 809.556241 108.958851 
L 811.025919 108.141797 
L 812.495597 111.19227 
L 812.495597 111.19227 
" clip-path="url(#pb712a2cda4)" style="fill: none; stroke: #666666; stroke-width: 1.2; stroke-linecap: square"/>
   </g>
   <g id="line2d_20">
    <path d="M 42.457813 93.473958 
L 849.164062 93.473958 
" clip-path="url(#pb712a2cda4)" style="fill: none; stroke-dasharray: 3.7,1.6; stroke-dashoffset: 0; stroke: #ff0000"/>
   </g>
   <g id="patch_3">
    <path d="M 42.457813 164.138542 
L 42.457813 22.809375 
" style="fill: none; stroke: #000000; stroke-width: 0.8; stroke-linejoin: miter; stroke-linecap: square"/>
   </g>
   <g id="patch_4">
    <path d="M 849.164062 164.138542 
L 849.164062 22.809375 
" style="fill: none; stroke: #000000; stroke-width: 0.8; stroke-linejoin: miter; stroke-linecap: square"/>
   </g>
   <g id="patch_5">
    <path d="M 42.457812 164.138542 
L 849.164062 164.138542 
" style="fill: none; stroke: #000000; stroke-width: 0.8; stroke-linejoin: miter; stroke-linecap: square"/>
   </g>
   <g id="patch_6">
    <path d="M 42.457812 22.809375 
L 849.164062 22.809375 
" style="fill: none; stroke: #000000; stroke-width: 0.8; stroke-linejoin: miter; stroke-linecap: square"/>
   </g>
   <g id="text_11">
    <!-- 小区B与A的信号强度差（B-A） -->
    <g transform="translate(364.810937 16.809375)scale(0.12 -0.12)">
     <defs>
      <path id="SimHei-5c0f" d="M 3500 5150 
Q 3475 4800 3475 4200 
L 3475 175 
Q 3475 -300 3225 -425 
Q 2975 -550 2375 -600 
Q 2325 -300 2150 -25 
Q 2700 -25 2837 0 
Q 2975 25 2975 300 
L 2975 4200 
Q 2975 4650 2950 5150 
L 3500 5150 
z
M 2075 3400 
Q 1850 2775 1550 1962 
Q 1250 1150 1025 750 
Q 775 950 500 1000 
Q 925 1750 1175 2487 
Q 1425 3225 1500 3575 
Q 1800 3425 2075 3400 
z
M 4675 3600 
Q 5675 1800 5875 1150 
Q 5625 1100 5375 925 
Q 5000 2000 4225 3325 
Q 4425 3425 4675 3600 
z
" transform="scale(0.015625)"/>
      <path id="SimHei-533a" d="M 5850 4525 
Q 5475 4550 4850 4550 
L 1150 4550 
L 1150 -75 
L 5225 -75 
Q 5725 -75 6025 -50 
L 6025 -500 
Q 5700 -475 5175 -475 
L 625 -475 
Q 650 125 650 400 
L 650 4200 
Q 650 4625 625 4975 
L 5850 4975 
L 5850 4525 
z
M 2275 3875 
Q 3150 3275 3800 2700 
Q 4375 3375 4650 4050 
Q 4925 3875 5300 3700 
Q 5025 3525 4825 3225 
Q 4625 2925 4225 2375 
Q 5075 1675 5600 1000 
Q 5300 800 5175 575 
Q 4775 1175 3850 1950 
Q 3475 1525 3087 1175 
Q 2700 825 2125 400 
Q 1900 625 1625 775 
Q 2125 1000 2525 1312 
Q 2925 1625 3475 2300 
Q 2850 2875 1925 3450 
Q 2175 3650 2275 3875 
z
" transform="scale(0.015625)"/>
      <path id="SimHei-4e0e" d="M 5350 100 
Q 5275 -300 4925 -425 
Q 4575 -550 3900 -600 
Q 3875 -375 3650 -25 
Q 4375 -50 4575 0 
Q 4775 50 4837 225 
Q 4900 400 5100 2350 
L 1125 2350 
Q 1450 4350 1475 5200 
Q 1800 5150 2075 5125 
Q 1975 4825 1900 4275 
L 4900 4275 
Q 5400 4275 5800 4300 
L 5800 3825 
Q 5400 3850 4950 3850 
L 1850 3850 
L 1700 2750 
L 5675 2750 
Q 5625 2450 5575 2050 
L 5350 100 
z
M 3675 1350 
Q 4125 1350 4500 1375 
L 4500 875 
Q 4125 900 3850 900 
L 1450 900 
Q 1000 900 500 875 
L 500 1375 
Q 1000 1350 1450 1350 
L 3675 1350 
z
" transform="scale(0.015625)"/>
      <path id="SimHei-41" d="M 3075 125 
L 2475 125 
L 2125 1450 
L 1025 1450 
L 675 125 
L 75 125 
L 1325 4450 
L 1825 4450 
L 3075 125 
z
M 2000 1925 
L 1600 3450 
L 1550 3450 
L 1150 1925 
L 2000 1925 
z
" transform="scale(0.015625)"/>
      <path id="SimHei-7684" d="M 2100 4975 
Q 1975 4750 1750 3950 
L 2875 3950 
Q 2850 3525 2850 2875 
L 2850 675 
Q 2850 300 2875 -400 
L 2375 -400 
L 2375 100 
L 1100 100 
L 1100 -450 
L 600 -450 
Q 625 350 625 550 
L 625 2850 
Q 625 3525 600 3950 
L 1325 3950 
Q 1450 4525 1525 5150 
Q 1875 5025 2100 4975 
z
M 5825 3075 
Q 5800 1550 5700 175 
Q 5650 -275 5225 -425 
Q 4800 -575 4275 -625 
Q 4250 -350 4050 -50 
Q 4550 -75 4837 -25 
Q 5125 25 5200 200 
Q 5275 375 5312 1225 
Q 5350 2075 5375 3600 
L 3925 3600 
Q 3725 3125 3350 2475 
Q 3175 2650 2925 2750 
Q 3150 3050 3350 3475 
Q 3550 3900 3700 4400 
Q 3850 4900 3875 5175 
Q 4225 5025 4475 4950 
Q 4350 4750 4262 4512 
Q 4175 4275 4075 4050 
L 5850 4050 
Q 5825 3525 5825 3075 
z
M 2375 525 
L 2375 1850 
L 1100 1850 
L 1100 525 
L 2375 525 
z
M 2375 2275 
L 2375 3525 
L 1100 3525 
L 1100 2275 
L 2375 2275 
z
M 4350 2050 
Q 4500 1750 4700 1275 
Q 4525 1200 4225 1025 
Q 4050 1500 3900 1837 
Q 3750 2175 3600 2400 
Q 3775 2500 4050 2650 
L 4350 2050 
z
" transform="scale(0.015625)"/>
      <path id="SimHei-ff08" d="M 5425 5100 
L 5700 4775 
Q 4275 3725 4325 2350 
Q 4350 1025 5675 50 
L 5400 -275 
Q 3875 825 3925 2500 
Q 3925 3875 5425 5100 
z
" transform="scale(0.015625)"/>
      <path id="SimHei-ff09" d="M 1000 5100 
Q 2500 3875 2500 2500 
Q 2550 825 1025 -275 
L 750 50 
Q 2075 1025 2100 2350 
Q 2150 3725 725 4775 
L 1000 5100 
z
" transform="scale(0.015625)"/>
     </defs>
     <use xlink:href="#SimHei-5c0f"/>
     <use xlink:href="#SimHei-533a" x="100"/>
     <use xlink:href="#SimHei-42" x="200"/>
     <use xlink:href="#SimHei-4e0e" x="250"/>
     <use xlink:href="#SimHei-41" x="350"/>
     <use xlink:href="#SimHei-7684" x="400"/>
     <use xlink:href="#SimHei-4fe1" x="500"/>
     <use xlink:href="#SimHei-53f7" x="600"/>
     <use xlink:href="#SimHei-5f3a" x="700"/>
     <use xlink:href="#SimHei-5ea6" x="800"/>
     <use xlink:href="#SimHei-5dee" x="900"/>
     <use xlink:href="#SimHei-ff08" x="1000"/>
     <use xlink:href="#SimHei-42" x="1100"/>
     <use xlink:href="#SimHei-2d" x="1150"/>
     <use xlink:href="#SimHei-41" x="1200"/>
     <use xlink:href="#SimHei-ff09" x="1250"/>
    </g>
   </g>
  </g>
  <g id="axes_2">
   <g id="patch_7">
    <path d="M 42.457813 348.077708 
L 849.164062 348.077708 
L 849.164062 206.748542 
L 42.457813 206.748542 
z
" style="fill: #ffffff"/>
   </g>
   <g id="matplotlib.axis_3">
    <g id="xtick_7">
     <g id="line2d_21">
      <path d="M 79.126278 348.077708 
L 79.126278 206.748542 
" clip-path="url(#p0ba3787ef8)" style="fill: none; stroke: #b0b0b0; stroke-opacity: 0.3; stroke-width: 0.8; stroke-linecap: square"/>
     </g>
     <g id="line2d_22">
      <g>
       <use xlink:href="#m69f7d8f57a" x="79.126278" y="348.077708" style="stroke: #000000; stroke-width: 0.8"/>
      </g>
     </g>
     <g id="text_12">
      <!-- 0 -->
      <g transform="translate(76.626278 361.952708)scale(0.1 -0.1)">
       <use xlink:href="#SimHei-30"/>
      </g>
     </g>
    </g>
    <g id="xtick_8">
     <g id="line2d_23">
      <path d="M 226.094078 348.077708 
L 226.094078 206.748542 
" clip-path="url(#p0ba3787ef8)" style="fill: none; stroke: #b0b0b0; stroke-opacity: 0.3; stroke-width: 0.8; stroke-linecap: square"/>
     </g>
     <g id="line2d_24">
      <g>
       <use xlink:href="#m69f7d8f57a" x="226.094078" y="348.077708" style="stroke: #000000; stroke-width: 0.8"/>
      </g>
     </g>
     <g id="text_13">
      <!-- 100 -->
      <g transform="translate(218.594078 361.952708)scale(0.1 -0.1)">
       <use xlink:href="#SimHei-31"/>
       <use xlink:href="#SimHei-30" x="50"/>
       <use xlink:href="#SimHei-30" x="100"/>
      </g>
     </g>
    </g>
    <g id="xtick_9">
     <g id="line2d_25">
      <path d="M 373.061877 348.077708 
L 373.061877 206.748542 
" clip-path="url(#p0ba3787ef8)" style="fill: none; stroke: #b0b0b0; stroke-opacity: 0.3; stroke-width: 0.8; stroke-linecap: square"/>
     </g>
     <g id="line2d_26">
      <g>
       <use xlink:href="#m69f7d8f57a" x="373.061877" y="348.077708" style="stroke: #000000; stroke-width: 0.8"/>
      </g>
     </g>
     <g id="text_14">
      <!-- 200 -->
      <g transform="translate(365.561877 361.952708)scale(0.1 -0.1)">
       <use xlink:href="#SimHei-32"/>
       <use xlink:href="#SimHei-30" x="50"/>
       <use xlink:href="#SimHei-30" x="100"/>
      </g>
     </g>
    </g>
    <g id="xtick_10">
     <g id="line2d_27">
      <path d="M 520.029676 348.077708 
L 520.029676 206.748542 
" clip-path="url(#p0ba3787ef8)" style="fill: none; stroke: #b0b0b0; stroke-opacity: 0.3; stroke-width: 0.8; stroke-linecap: square"/>
     </g>
     <g id="line2d_28">
      <g>
       <use xlink:href="#m69f7d8f57a" x="520.029676" y="348.077708" style="stroke: #000000; stroke-width: 0.8"/>
      </g>
     </g>
     <g id="text_15">
      <!-- 300 -->
      <g transform="translate(512.529676 361.952708)scale(0.1 -0.1)">
       <use xlink:href="#SimHei-33"/>
       <use xlink:href="#SimHei-30" x="50"/>
       <use xlink:href="#SimHei-30" x="100"/>
      </g>
     </g>
    </g>
    <g id="xtick_11">
     <g id="line2d_29">
      <path d="M 666.997475 348.077708 
L 666.997475 206.748542 
" clip-path="url(#p0ba3787ef8)" style="fill: none; stroke: #b0b0b0; stroke-opacity: 0.3; stroke-width: 0.8; stroke-linecap: square"/>
     </g>
     <g id="line2d_30">
      <g>
       <use xlink:href="#m69f7d8f57a" x="666.997475" y="348.077708" style="stroke: #000000; stroke-width: 0.8"/>
      </g>
     </g>
     <g id="text_16">
      <!-- 400 -->
      <g transform="translate(659.497475 361.952708)scale(0.1 -0.1)">
       <use xlink:href="#SimHei-34"/>
       <use xlink:href="#SimHei-30" x="50"/>
       <use xlink:href="#SimHei-30" x="100"/>
      </g>
     </g>
    </g>
    <g id="xtick_12">
     <g id="line2d_31">
      <path d="M 813.965275 348.077708 
L 813.965275 206.748542 
" clip-path="url(#p0ba3787ef8)" style="fill: none; stroke: #b0b0b0; stroke-opacity: 0.3; stroke-width: 0.8; stroke-linecap: square"/>
     </g>
     <g id="line2d_32">
      <g>
       <use xlink:href="#m69f7d8f57a" x="813.965275" y="348.077708" style="stroke: #000000; stroke-width: 0.8"/>
      </g>
     </g>
     <g id="text_17">
      <!-- 500 -->
      <g transform="translate(806.465275 361.952708)scale(0.1 -0.1)">
       <use xlink:href="#SimHei-35"/>
       <use xlink:href="#SimHei-30" x="50"/>
       <use xlink:href="#SimHei-30" x="100"/>
      </g>
     </g>
    </g>
   </g>
   <g id="matplotlib.axis_4">
    <g id="ytick_4">
     <g id="line2d_33">
      <path d="M 42.457813 341.653655 
L 849.164062 341.653655 
" clip-path="url(#p0ba3787ef8)" style="fill: none; stroke: #b0b0b0; stroke-opacity: 0.3; stroke-width: 0.8; stroke-linecap: square"/>
     </g>
     <g id="line2d_34">
      <g>
       <use xlink:href="#m1106e9b38d" x="42.457813" y="341.653655" style="stroke: #000000; stroke-width: 0.8"/>
      </g>
     </g>
     <g id="text_18">
      <!-- -30 -->
      <g transform="translate(20.457813 345.091155)scale(0.1 -0.1)">
       <use xlink:href="#SimHei-2d"/>
       <use xlink:href="#SimHei-33" x="50"/>
       <use xlink:href="#SimHei-30" x="100"/>
      </g>
     </g>
    </g>
    <g id="ytick_5">
     <g id="line2d_35">
      <path d="M 42.457813 320.240145 
L 849.164062 320.240145 
" clip-path="url(#p0ba3787ef8)" style="fill: none; stroke: #b0b0b0; stroke-opacity: 0.3; stroke-width: 0.8; stroke-linecap: square"/>
     </g>
     <g id="line2d_36">
      <g>
       <use xlink:href="#m1106e9b38d" x="42.457813" y="320.240145" style="stroke: #000000; stroke-width: 0.8"/>
      </g>
     </g>
     <g id="text_19">
      <!-- -20 -->
      <g transform="translate(20.457813 323.677645)scale(0.1 -0.1)">
       <use xlink:href="#SimHei-2d"/>
       <use xlink:href="#SimHei-32" x="50"/>
       <use xlink:href="#SimHei-30" x="100"/>
      </g>
     </g>
    </g>
    <g id="ytick_6">
     <g id="line2d_37">
      <path d="M 42.457813 298.826635 
L 849.164062 298.826635 
" clip-path="url(#p0ba3787ef8)" style="fill: none; stroke: #b0b0b0; stroke-opacity: 0.3; stroke-width: 0.8; stroke-linecap: square"/>
     </g>
     <g id="line2d_38">
      <g>
       <use xlink:href="#m1106e9b38d" x="42.457813" y="298.826635" style="stroke: #000000; stroke-width: 0.8"/>
      </g>
     </g>
     <g id="text_20">
      <!-- -10 -->
      <g transform="translate(20.457813 302.264135)scale(0.1 -0.1)">
       <use xlink:href="#SimHei-2d"/>
       <use xlink:href="#SimHei-31" x="50"/>
       <use xlink:href="#SimHei-30" x="100"/>
      </g>
     </g>
    </g>
    <g id="ytick_7">
     <g id="line2d_39">
      <path d="M 42.457813 277.413125 
L 849.164062 277.413125 
" clip-path="url(#p0ba3787ef8)" style="fill: none; stroke: #b0b0b0; stroke-opacity: 0.3; stroke-width: 0.8; stroke-linecap: square"/>
     </g>
     <g id="line2d_40">
      <g>
       <use xlink:href="#m1106e9b38d" x="42.457813" y="277.413125" style="stroke: #000000; stroke-width: 0.8"/>
      </g>
     </g>
     <g id="text_21">
      <!-- 0 -->
      <g transform="translate(30.457813 280.850625)scale(0.1 -0.1)">
       <use xlink:href="#SimHei-30"/>
      </g>
     </g>
    </g>
    <g id="ytick_8">
     <g id="line2d_41">
      <path d="M 42.457813 255.999615 
L 849.164062 255.999615 
" clip-path="url(#p0ba3787ef8)" style="fill: none; stroke: #b0b0b0; stroke-opacity: 0.3; stroke-width: 0.8; stroke-linecap: square"/>
     </g>
     <g id="line2d_42">
      <g>
       <use xlink:href="#m1106e9b38d" x="42.457813" y="255.999615" style="stroke: #000000; stroke-width: 0.8"/>
      </g>
     </g>
     <g id="text_22">
      <!-- 10 -->
      <g transform="translate(25.457813 259.437115)scale(0.1 -0.1)">
       <use xlink:href="#SimHei-31"/>
       <use xlink:href="#SimHei-30" x="50"/>
      </g>
     </g>
    </g>
    <g id="ytick_9">
     <g id="line2d_43">
      <path d="M 42.457813 234.586105 
L 849.164062 234.586105 
" clip-path="url(#p0ba3787ef8)" style="fill: none; stroke: #b0b0b0; stroke-opacity: 0.3; stroke-width: 0.8; stroke-linecap: square"/>
     </g>
     <g id="line2d_44">
      <g>
       <use xlink:href="#m1106e9b38d" x="42.457813" y="234.586105" style="stroke: #000000; stroke-width: 0.8"/>
      </g>
     </g>
     <g id="text_23">
      <!-- 20 -->
      <g transform="translate(25.457813 238.023605)scale(0.1 -0.1)">
       <use xlink:href="#SimHei-32"/>
       <use xlink:href="#SimHei-30" x="50"/>
      </g>
     </g>
    </g>
    <g id="ytick_10">
     <g id="line2d_45">
      <path d="M 42.457813 213.172595 
L 849.164062 213.172595 
" clip-path="url(#p0ba3787ef8)" style="fill: none; stroke: #b0b0b0; stroke-opacity: 0.3; stroke-width: 0.8; stroke-linecap: square"/>
     </g>
     <g id="line2d_46">
      <g>
       <use xlink:href="#m1106e9b38d" x="42.457813" y="213.172595" style="stroke: #000000; stroke-width: 0.8"/>
      </g>
     </g>
     <g id="text_24">
      <!-- 30 -->
      <g transform="translate(25.457813 216.610095)scale(0.1 -0.1)">
       <use xlink:href="#SimHei-33"/>
       <use xlink:href="#SimHei-30" x="50"/>
      </g>
     </g>
    </g>
    <g id="text_25">
     <!-- 信噪比差(dB) -->
     <g transform="translate(15.207813 307.413125)rotate(-90)scale(0.1 -0.1)">
      <defs>
       <path id="SimHei-566a" d="M 1800 4800 
Q 1775 4250 1775 3675 
L 1775 1950 
Q 1775 1475 1800 875 
L 1350 875 
L 1350 1425 
L 825 1425 
L 825 350 
L 375 350 
Q 400 900 400 1450 
L 400 3675 
Q 400 4250 375 4800 
L 1800 4800 
z
M 5800 -475 
Q 5100 -125 4750 225 
Q 4400 575 4175 1000 
L 4175 225 
Q 4175 -250 4200 -650 
L 3725 -650 
Q 3750 -250 3750 225 
L 3750 1050 
Q 3375 425 2950 75 
Q 2525 -275 2150 -525 
Q 2075 -325 1700 -100 
Q 2100 0 2562 300 
Q 3025 600 3250 1050 
L 2950 1050 
Q 2500 1050 2100 1025 
L 2100 1425 
Q 2500 1400 2950 1400 
L 3750 1400 
Q 3750 1675 3725 1950 
L 4200 1950 
Q 4175 1575 4175 1400 
L 5225 1400 
Q 5575 1400 6025 1425 
L 6025 1025 
Q 5575 1050 5250 1050 
L 4575 1050 
Q 4775 700 5125 450 
Q 5475 200 6175 25 
Q 5900 -200 5800 -475 
z
M 5225 5050 
Q 5175 4725 5175 4375 
Q 5175 4050 5225 3700 
L 2725 3700 
Q 2750 4050 2750 4375 
Q 2750 4725 2725 5050 
L 5225 5050 
z
M 5825 3350 
Q 5800 3025 5800 2675 
Q 5800 2350 5825 2075 
L 4175 2075 
Q 4200 2375 4200 2700 
Q 4200 3050 4175 3350 
L 5825 3350 
z
M 3675 3350 
Q 3650 3050 3650 2700 
Q 3650 2375 3675 2075 
L 2075 2075 
Q 2100 2375 2100 2700 
Q 2100 3050 2075 3350 
L 3675 3350 
z
M 1350 1775 
L 1350 4375 
L 825 4375 
L 825 1775 
L 1350 1775 
z
M 4725 4100 
L 4725 4675 
L 3175 4675 
L 3175 4100 
L 4725 4100 
z
M 5375 2425 
L 5375 3000 
L 4650 3000 
L 4650 2425 
L 5375 2425 
z
M 3200 2450 
L 3200 2975 
L 2525 2975 
L 2525 2450 
L 3200 2450 
z
" transform="scale(0.015625)"/>
       <path id="SimHei-6bd4" d="M 3775 5100 
Q 3750 4575 3750 4100 
L 3750 3050 
Q 4925 3600 5475 4175 
Q 5675 3900 5900 3675 
Q 5600 3500 5037 3187 
Q 4475 2875 3750 2550 
L 3750 450 
Q 3750 100 4050 100 
L 5000 100 
Q 5175 100 5262 250 
Q 5350 400 5450 900 
Q 5650 775 6025 675 
Q 5850 0 5650 -175 
Q 5450 -350 5225 -350 
L 3900 -350 
Q 3250 -350 3250 275 
L 3250 4000 
Q 3250 4550 3225 5100 
L 3775 5100 
z
M 1275 4975 
Q 1250 4575 1250 4000 
L 1250 3150 
L 1850 3150 
Q 2325 3150 2875 3175 
L 2875 2650 
Q 2325 2675 1850 2675 
L 1250 2675 
L 1250 475 
Q 1650 650 1962 812 
Q 2275 975 2850 1275 
Q 2900 950 2950 750 
Q 2375 475 1762 175 
Q 1150 -125 925 -325 
Q 750 -100 575 200 
Q 700 300 750 600 
L 750 3950 
Q 750 4550 725 4975 
L 1275 4975 
z
" transform="scale(0.015625)"/>
      </defs>
      <use xlink:href="#SimHei-4fe1"/>
      <use xlink:href="#SimHei-566a" x="100"/>
      <use xlink:href="#SimHei-6bd4" x="200"/>
      <use xlink:href="#SimHei-5dee" x="300"/>
      <use xlink:href="#SimHei-28" x="400"/>
      <use xlink:href="#SimHei-64" x="450"/>
      <use xlink:href="#SimHei-42" x="500"/>
      <use xlink:href="#SimHei-29" x="550"/>
     </g>
    </g>
   </g>
   <g id="line2d_47">
    <path d="M 79.126278 274.143827 
L 80.595956 271.057972 
L 83.535312 237.173032 
L 85.00499 256.207699 
L 86.474668 244.951542 
L 87.944346 218.97012 
L 89.414024 226.735101 
L 90.883702 233.344235 
L 92.35338 219.228927 
L 93.823058 229.333202 
L 95.292736 227.793257 
L 96.762414 216.703307 
L 98.232092 242.320709 
L 99.70177 240.867967 
L 101.171448 229.872944 
L 102.641126 242.019034 
L 104.110804 230.334412 
L 105.580482 241.14487 
L 107.05016 262.806515 
L 108.519838 227.320982 
L 109.989516 253.381464 
L 111.459194 252.161372 
L 112.928872 282.412813 
L 114.39855 283.17671 
L 115.868228 278.289684 
L 117.337906 300.00299 
L 118.807584 287.996531 
L 120.277262 305.296625 
L 121.74694 308.038675 
L 123.216618 318.053347 
L 124.686296 291.818633 
L 126.155974 322.102405 
L 127.625652 338.676081 
L 129.09533 316.099522 
L 130.565008 332.329435 
L 132.034686 331.877392 
L 133.504364 340.512956 
L 134.974042 339.148453 
L 136.44372 329.20477 
L 137.913398 324.157913 
L 139.383076 331.939753 
L 140.852754 332.064256 
L 142.322432 324.123368 
L 143.79211 335.989551 
L 145.261788 318.716484 
L 146.731466 308.457654 
L 148.201144 285.143189 
L 149.670822 289.041282 
L 151.1405 308.897808 
L 152.610178 270.53999 
L 154.079856 275.798984 
L 155.549534 270.529028 
L 157.019212 246.434749 
L 158.48889 238.024055 
L 159.958568 233.360664 
L 161.428246 251.003024 
L 162.897924 232.720892 
L 164.367602 226.527814 
L 165.83728 213.172595 
L 167.306958 226.451373 
L 168.776636 221.540504 
L 170.246314 227.848126 
L 171.715992 237.258666 
L 173.18567 214.750436 
L 174.655348 214.420486 
L 176.125026 231.806584 
L 177.594704 217.62554 
L 179.064382 222.463464 
L 180.53406 243.745638 
L 182.003738 239.249535 
L 183.473416 225.376398 
L 184.943094 258.006668 
L 186.412772 240.636462 
L 187.88245 307.217101 
L 189.352128 268.54567 
L 190.821806 279.860354 
L 192.291484 296.632479 
L 193.761162 297.295176 
L 195.23084 331.034283 
L 196.700518 315.582906 
L 198.170196 314.42667 
L 199.639874 304.641396 
L 201.109552 337.721309 
L 202.57923 341.653655 
L 204.048908 341.653655 
L 205.518586 324.131554 
L 206.988264 330.487883 
L 208.457942 339.881494 
L 209.92762 324.428161 
L 211.397298 327.738075 
L 212.866976 309.804899 
L 214.336654 334.120921 
L 215.806332 329.670347 
L 217.27601 313.735413 
L 218.745688 327.071594 
L 220.215366 300.119048 
L 221.685044 300.724407 
L 223.154722 293.711181 
L 224.6244 282.930977 
L 226.094078 292.944443 
L 227.563756 278.990535 
L 229.033434 266.483443 
L 230.503112 260.928852 
L 231.97279 251.828032 
L 233.442468 231.454414 
L 234.912146 215.36382 
L 236.381824 231.756993 
L 237.851502 225.859119 
L 239.32118 223.567752 
L 240.790858 247.145471 
L 242.260536 217.682035 
L 243.730214 220.660887 
L 245.199892 215.31863 
L 246.66957 221.453757 
L 248.139248 227.029013 
L 249.608926 227.415781 
L 251.078604 245.065607 
L 252.548282 223.87018 
L 254.017959 232.323011 
L 255.487637 229.771299 
L 256.957315 258.040292 
L 258.426993 241.777209 
L 259.896671 281.919328 
L 261.366349 268.384521 
L 262.836027 252.230804 
L 264.305705 300.772767 
L 265.775383 301.20767 
L 267.245061 297.751326 
L 268.714739 313.654261 
L 270.184417 332.931761 
L 271.654095 315.624587 
L 273.123773 333.991419 
L 274.593451 322.092695 
L 276.063129 340.936784 
L 277.532807 313.425583 
L 279.002485 339.390293 
L 280.472163 336.93436 
L 281.941841 331.572332 
L 283.411519 339.367693 
L 284.881197 328.512545 
L 286.350875 314.940921 
L 287.820553 341.11193 
L 289.290231 318.679826 
L 290.759909 310.301153 
L 292.229587 297.34842 
L 293.699265 322.305034 
L 295.168943 317.542908 
L 296.638621 285.752572 
L 298.108299 287.750642 
L 299.577977 273.629052 
L 301.047655 260.679992 
L 302.517333 270.010769 
L 303.987011 249.840242 
L 305.456689 247.274214 
L 306.926367 251.495365 
L 308.396045 214.336756 
L 309.865723 228.856782 
L 311.335401 237.809547 
L 312.805079 216.96691 
L 314.274757 239.474568 
L 315.744435 213.172595 
L 317.214113 213.172595 
L 318.683791 226.709514 
L 320.153469 215.949915 
L 321.623147 220.03727 
L 323.092825 216.128524 
L 324.562503 215.86551 
L 326.032181 239.917304 
L 327.501859 249.520241 
L 328.971537 254.265164 
L 330.441215 261.625519 
L 331.910893 259.313776 
L 333.380571 258.804038 
L 334.850249 274.378879 
L 336.319927 264.167923 
L 337.789605 293.075734 
L 339.259283 278.45946 
L 340.728961 302.289106 
L 342.198639 271.633388 
L 343.668317 306.714261 
L 345.137995 330.597003 
L 346.607673 335.813312 
L 348.077351 319.160515 
L 349.547029 335.143205 
L 351.016707 323.258329 
L 352.486385 330.624571 
L 353.956063 337.159904 
L 355.425741 341.653655 
L 356.895419 339.83895 
L 358.365097 340.692777 
L 359.834775 315.473204 
L 361.304453 319.455107 
L 362.774131 336.006491 
L 364.243809 312.525099 
L 365.713487 309.67866 
L 367.183165 311.034611 
L 368.652843 292.537435 
L 370.122521 290.708712 
L 371.592199 295.801812 
L 373.061877 266.792548 
L 374.531555 261.525134 
L 376.001233 246.108613 
L 377.470911 245.016591 
L 378.940589 267.620952 
L 380.410267 251.58212 
L 381.879945 227.347787 
L 383.349623 227.71065 
L 384.819301 220.81098 
L 386.288979 213.174112 
L 387.758657 219.272202 
L 389.228335 213.172595 
L 390.698013 213.172595 
L 392.167691 215.955306 
L 393.637369 225.197568 
L 395.107047 213.253695 
L 396.576725 238.090383 
L 398.046403 233.954253 
L 399.516081 238.213042 
L 400.985759 238.762949 
L 402.455437 218.198803 
L 403.925115 277.242892 
L 405.394793 250.337812 
L 406.864471 288.626763 
L 408.334149 278.863192 
L 409.803827 266.192509 
L 411.273505 282.897135 
L 412.743183 311.83058 
L 414.212861 315.720284 
L 415.682539 301.187528 
L 417.152217 324.418869 
L 418.621895 314.152577 
L 420.091573 327.629004 
L 421.561251 333.773169 
L 423.030929 307.846918 
L 424.500607 320.189745 
L 425.970285 339.366788 
L 427.439963 332.589909 
L 428.909641 341.653655 
L 430.379319 324.692236 
L 431.848997 340.952262 
L 433.318675 327.998802 
L 434.788353 313.681363 
L 436.258031 314.338517 
L 437.727709 324.301129 
L 439.197387 313.032719 
L 440.667065 312.191284 
L 442.136743 307.629744 
L 443.606421 266.396495 
L 445.076099 276.017484 
L 446.545776 284.460062 
L 448.015454 252.980813 
L 449.485132 233.953419 
L 450.95481 235.590602 
L 452.424488 269.675712 
L 453.894166 248.88216 
L 455.363844 216.731126 
L 456.833522 242.60816 
L 458.3032 230.015405 
L 459.772878 216.22868 
L 461.242556 235.861065 
L 462.712234 221.520009 
L 464.181912 258.756367 
L 465.65159 232.102087 
L 467.121268 222.72747 
L 468.590946 235.412598 
L 470.060624 221.629925 
L 471.530302 248.102322 
L 472.99998 242.448762 
L 474.469658 240.454446 
L 475.939336 227.517172 
L 477.409014 276.200808 
L 478.878692 245.027868 
L 480.34837 267.127799 
L 481.818048 287.487693 
L 483.287726 274.975268 
L 484.757404 283.303285 
L 486.227082 305.752083 
L 487.69676 299.162093 
L 489.166438 311.231803 
L 490.636116 313.833469 
L 492.105794 312.637975 
L 493.575472 298.307754 
L 495.04515 341.653655 
L 496.514828 305.117957 
L 497.984506 337.543091 
L 499.454184 334.448397 
L 500.923862 326.596264 
L 502.39354 333.053481 
L 503.863218 338.414988 
L 505.332896 325.884638 
L 506.802574 332.268595 
L 508.272252 330.867869 
L 509.74193 311.376016 
L 511.211608 311.413029 
L 512.681286 314.004831 
L 514.150964 288.278608 
L 515.620642 285.966284 
L 517.09032 278.019939 
L 518.559998 275.498611 
L 520.029676 285.518827 
L 521.499354 275.048339 
L 522.969032 248.525409 
L 524.43871 240.474236 
L 525.908388 237.900422 
L 527.378066 228.381446 
L 528.847744 217.565108 
L 530.317422 239.233659 
L 531.7871 215.098818 
L 533.256778 225.957459 
L 534.726456 223.649551 
L 536.196134 213.48693 
L 537.665812 216.624925 
L 539.13549 215.093042 
L 540.605168 213.172595 
L 542.074846 220.934114 
L 543.544524 214.019777 
L 545.014202 234.991153 
L 546.48388 232.534195 
L 547.953558 243.258827 
L 549.423236 244.836621 
L 550.892914 244.591916 
L 552.362592 269.604545 
L 553.83227 235.771623 
L 555.301948 288.164502 
L 556.771626 297.254203 
L 558.241304 274.46214 
L 559.710982 290.027951 
L 561.18066 293.340227 
L 562.650338 299.512883 
L 564.120016 317.465572 
L 565.589694 332.543636 
L 567.059372 329.200895 
L 568.52905 338.732146 
L 569.998728 315.863724 
L 571.468406 335.141575 
L 572.938084 338.132435 
L 574.407762 339.470647 
L 575.87744 329.206302 
L 577.347118 340.540034 
L 578.816796 339.462832 
L 580.286474 319.360817 
L 581.756152 318.007437 
L 583.22583 326.454511 
L 584.695508 324.201557 
L 586.165186 299.678473 
L 587.634864 323.092548 
L 589.104542 311.999996 
L 590.57422 296.656522 
L 592.043898 284.093205 
L 593.513576 264.675657 
L 594.983254 248.656237 
L 596.452932 243.094546 
L 597.92261 258.389175 
L 599.392288 244.951445 
L 600.861966 250.274233 
L 602.331644 238.230894 
L 603.801322 232.602098 
L 605.271 226.281527 
L 606.740678 233.40105 
L 608.210356 216.278704 
L 609.680034 217.805362 
L 611.149712 225.976254 
L 612.61939 213.172595 
L 614.089068 217.313119 
L 617.028424 228.066233 
L 618.498102 237.571459 
L 619.96778 235.266182 
L 621.437458 248.322337 
L 622.907136 245.580119 
L 624.376814 248.723532 
L 625.846492 241.604674 
L 627.31617 256.62088 
L 628.785848 248.342199 
L 630.255526 292.610874 
L 631.725204 278.409188 
L 633.194882 297.071345 
L 634.66456 272.855615 
L 636.134238 318.070083 
L 637.603916 330.629274 
L 639.073593 334.057022 
L 640.543271 338.274311 
L 642.012949 334.576161 
L 643.482627 341.486103 
L 644.952305 334.162984 
L 646.421983 329.357665 
L 647.891661 313.976874 
L 649.361339 319.354095 
L 650.831017 338.037964 
L 652.300695 341.653655 
L 653.770373 322.737541 
L 655.240051 339.842745 
L 656.709729 295.728493 
L 658.179407 297.45748 
L 659.649085 314.923553 
L 661.118763 323.514226 
L 662.588441 281.403452 
L 664.058119 288.344826 
L 665.527797 262.184157 
L 666.997475 295.122268 
L 668.467153 271.028414 
L 671.406509 251.562341 
L 672.876187 246.527371 
L 674.345865 228.929592 
L 675.815543 246.875987 
L 677.285221 226.967599 
L 678.754899 219.837371 
L 680.224577 219.000772 
L 681.694255 216.882517 
L 683.163933 235.739615 
L 684.633611 243.125568 
L 686.103289 216.209774 
L 687.572967 213.300611 
L 689.042645 232.463423 
L 690.512323 213.172595 
L 691.982001 228.56831 
L 693.451679 220.635193 
L 694.921357 243.456117 
L 696.391035 215.599683 
L 697.860713 231.621937 
L 699.330391 263.344431 
L 700.800069 257.192924 
L 702.269747 275.74931 
L 703.739425 262.935063 
L 705.209103 296.513869 
L 706.678781 288.424918 
L 708.148459 290.707287 
L 709.618137 338.072368 
L 711.087815 327.613653 
L 712.557493 341.653655 
L 714.027171 328.214966 
L 715.496849 320.238096 
L 716.966527 317.977617 
L 718.436205 330.644458 
L 719.905883 314.950908 
L 721.375561 339.884798 
L 722.845239 341.653655 
L 724.314917 337.027277 
L 725.784595 322.065668 
L 727.254273 323.299693 
L 728.723951 341.653655 
L 730.193629 316.514865 
L 731.663307 331.209389 
L 733.132985 295.993107 
L 734.602663 294.879736 
L 736.072341 305.03854 
L 737.542019 296.08734 
L 739.011697 293.118631 
L 740.481375 269.845658 
L 741.951053 255.924379 
L 743.420731 267.636274 
L 744.890409 243.805302 
L 746.360087 248.038464 
L 747.829765 248.249801 
L 749.299443 231.310453 
L 750.769121 248.434727 
L 752.238799 233.660901 
L 753.708477 237.466918 
L 755.178155 213.172595 
L 756.647833 218.316175 
L 758.117511 228.752804 
L 759.587189 221.80752 
L 761.056867 223.042829 
L 762.526545 226.021218 
L 763.996223 221.662307 
L 765.465901 222.431518 
L 766.935579 242.442526 
L 768.405257 253.351235 
L 769.874935 251.697843 
L 771.344613 273.967984 
L 772.814291 285.209239 
L 774.283969 255.603937 
L 775.753647 255.223764 
L 777.223325 285.135205 
L 778.693003 286.960721 
L 780.162681 293.31671 
L 781.632359 266.651733 
L 783.102037 296.164225 
L 784.571715 317.649315 
L 786.041393 327.43482 
L 787.511071 336.044959 
L 788.980749 330.501669 
L 790.450427 341.653655 
L 791.920105 339.812976 
L 793.389783 341.653655 
L 794.859461 341.653655 
L 796.329139 311.130729 
L 797.798817 326.152872 
L 799.268495 331.62872 
L 800.738173 310.369178 
L 802.207851 324.634177 
L 803.677529 326.54614 
L 805.147207 295.329604 
L 806.616885 298.943683 
L 808.086563 312.604611 
L 809.556241 292.975855 
L 811.025919 293.882285 
L 812.495597 292.856215 
L 812.495597 292.856215 
" clip-path="url(#p0ba3787ef8)" style="fill: none; stroke: #666666; stroke-width: 1.2; stroke-linecap: square"/>
   </g>
   <g id="line2d_48">
    <path d="M 42.457813 277.413125 
L 849.164062 277.413125 
" clip-path="url(#p0ba3787ef8)" style="fill: none; stroke-dasharray: 3.7,1.6; stroke-dashoffset: 0; stroke: #ff0000"/>
   </g>
   <g id="patch_8">
    <path d="M 42.457813 348.077708 
L 42.457813 206.748542 
" style="fill: none; stroke: #000000; stroke-width: 0.8; stroke-linejoin: miter; stroke-linecap: square"/>
   </g>
   <g id="patch_9">
    <path d="M 849.164062 348.077708 
L 849.164062 206.748542 
" style="fill: none; stroke: #000000; stroke-width: 0.8; stroke-linejoin: miter; stroke-linecap: square"/>
   </g>
   <g id="patch_10">
    <path d="M 42.457812 348.077708 
L 849.164062 348.077708 
" style="fill: none; stroke: #000000; stroke-width: 0.8; stroke-linejoin: miter; stroke-linecap: square"/>
   </g>
   <g id="patch_11">
    <path d="M 42.457812 206.748542 
L 849.164062 206.748542 
" style="fill: none; stroke: #000000; stroke-width: 0.8; stroke-linejoin: miter; stroke-linecap: square"/>
   </g>
   <g id="text_26">
    <!-- 小区B与A的信噪比差（B-A） -->
    <g transform="translate(370.810937 200.748542)scale(0.12 -0.12)">
     <use xlink:href="#SimHei-5c0f"/>
     <use xlink:href="#SimHei-533a" x="100"/>
     <use xlink:href="#SimHei-42" x="200"/>
     <use xlink:href="#SimHei-4e0e" x="250"/>
     <use xlink:href="#SimHei-41" x="350"/>
     <use xlink:href="#SimHei-7684" x="400"/>
     <use xlink:href="#SimHei-4fe1" x="500"/>
     <use xlink:href="#SimHei-566a" x="600"/>
     <use xlink:href="#SimHei-6bd4" x="700"/>
     <use xlink:href="#SimHei-5dee" x="800"/>
     <use xlink:href="#SimHei-ff08" x="900"/>
     <use xlink:href="#SimHei-42" x="1000"/>
     <use xlink:href="#SimHei-2d" x="1050"/>
     <use xlink:href="#SimHei-41" x="1100"/>
     <use xlink:href="#SimHei-ff09" x="1150"/>
    </g>
   </g>
  </g>
  <g id="axes_3">
   <g id="patch_12">
    <path d="M 42.457813 532.016875 
L 849.164062 532.016875 
L 849.164062 390.687708 
L 42.457813 390.687708 
z
" style="fill: #ffffff"/>
   </g>
   <g id="matplotlib.axis_5">
    <g id="xtick_13">
     <g id="line2d_49">
      <path d="M 79.126278 532.016875 
L 79.126278 390.687708 
" clip-path="url(#p5f5c18a644)" style="fill: none; stroke: #b0b0b0; stroke-opacity: 0.3; stroke-width: 0.8; stroke-linecap: square"/>
     </g>
     <g id="line2d_50">
      <g>
       <use xlink:href="#m69f7d8f57a" x="79.126278" y="532.016875" style="stroke: #000000; stroke-width: 0.8"/>
      </g>
     </g>
     <g id="text_27">
      <!-- 0 -->
      <g transform="translate(76.626278 545.891875)scale(0.1 -0.1)">
       <use xlink:href="#SimHei-30"/>
      </g>
     </g>
    </g>
    <g id="xtick_14">
     <g id="line2d_51">
      <path d="M 226.094078 532.016875 
L 226.094078 390.687708 
" clip-path="url(#p5f5c18a644)" style="fill: none; stroke: #b0b0b0; stroke-opacity: 0.3; stroke-width: 0.8; stroke-linecap: square"/>
     </g>
     <g id="line2d_52">
      <g>
       <use xlink:href="#m69f7d8f57a" x="226.094078" y="532.016875" style="stroke: #000000; stroke-width: 0.8"/>
      </g>
     </g>
     <g id="text_28">
      <!-- 100 -->
      <g transform="translate(218.594078 545.891875)scale(0.1 -0.1)">
       <use xlink:href="#SimHei-31"/>
       <use xlink:href="#SimHei-30" x="50"/>
       <use xlink:href="#SimHei-30" x="100"/>
      </g>
     </g>
    </g>
    <g id="xtick_15">
     <g id="line2d_53">
      <path d="M 373.061877 532.016875 
L 373.061877 390.687708 
" clip-path="url(#p5f5c18a644)" style="fill: none; stroke: #b0b0b0; stroke-opacity: 0.3; stroke-width: 0.8; stroke-linecap: square"/>
     </g>
     <g id="line2d_54">
      <g>
       <use xlink:href="#m69f7d8f57a" x="373.061877" y="532.016875" style="stroke: #000000; stroke-width: 0.8"/>
      </g>
     </g>
     <g id="text_29">
      <!-- 200 -->
      <g transform="translate(365.561877 545.891875)scale(0.1 -0.1)">
       <use xlink:href="#SimHei-32"/>
       <use xlink:href="#SimHei-30" x="50"/>
       <use xlink:href="#SimHei-30" x="100"/>
      </g>
     </g>
    </g>
    <g id="xtick_16">
     <g id="line2d_55">
      <path d="M 520.029676 532.016875 
L 520.029676 390.687708 
" clip-path="url(#p5f5c18a644)" style="fill: none; stroke: #b0b0b0; stroke-opacity: 0.3; stroke-width: 0.8; stroke-linecap: square"/>
     </g>
     <g id="line2d_56">
      <g>
       <use xlink:href="#m69f7d8f57a" x="520.029676" y="532.016875" style="stroke: #000000; stroke-width: 0.8"/>
      </g>
     </g>
     <g id="text_30">
      <!-- 300 -->
      <g transform="translate(512.529676 545.891875)scale(0.1 -0.1)">
       <use xlink:href="#SimHei-33"/>
       <use xlink:href="#SimHei-30" x="50"/>
       <use xlink:href="#SimHei-30" x="100"/>
      </g>
     </g>
    </g>
    <g id="xtick_17">
     <g id="line2d_57">
      <path d="M 666.997475 532.016875 
L 666.997475 390.687708 
" clip-path="url(#p5f5c18a644)" style="fill: none; stroke: #b0b0b0; stroke-opacity: 0.3; stroke-width: 0.8; stroke-linecap: square"/>
     </g>
     <g id="line2d_58">
      <g>
       <use xlink:href="#m69f7d8f57a" x="666.997475" y="532.016875" style="stroke: #000000; stroke-width: 0.8"/>
      </g>
     </g>
     <g id="text_31">
      <!-- 400 -->
      <g transform="translate(659.497475 545.891875)scale(0.1 -0.1)">
       <use xlink:href="#SimHei-34"/>
       <use xlink:href="#SimHei-30" x="50"/>
       <use xlink:href="#SimHei-30" x="100"/>
      </g>
     </g>
    </g>
    <g id="xtick_18">
     <g id="line2d_59">
      <path d="M 813.965275 532.016875 
L 813.965275 390.687708 
" clip-path="url(#p5f5c18a644)" style="fill: none; stroke: #b0b0b0; stroke-opacity: 0.3; stroke-width: 0.8; stroke-linecap: square"/>
     </g>
     <g id="line2d_60">
      <g>
       <use xlink:href="#m69f7d8f57a" x="813.965275" y="532.016875" style="stroke: #000000; stroke-width: 0.8"/>
      </g>
     </g>
     <g id="text_32">
      <!-- 500 -->
      <g transform="translate(806.465275 545.891875)scale(0.1 -0.1)">
       <use xlink:href="#SimHei-35"/>
       <use xlink:href="#SimHei-30" x="50"/>
       <use xlink:href="#SimHei-30" x="100"/>
      </g>
     </g>
    </g>
    <g id="text_33">
     <!-- 时间步 -->
     <g transform="translate(430.810937 559.18875)scale(0.1 -0.1)">
      <defs>
       <path id="SimHei-65f6" d="M 2525 4575 
Q 2500 3675 2500 2400 
Q 2500 1125 2525 400 
L 2000 400 
L 2000 875 
L 1000 875 
L 1000 50 
L 475 50 
Q 500 1200 500 2350 
Q 500 3525 475 4575 
L 2525 4575 
z
M 4875 3825 
Q 4875 4575 4850 5225 
L 5400 5225 
Q 5375 4575 5375 3825 
Q 5750 3825 6175 3850 
L 6175 3375 
Q 5750 3400 5375 3400 
L 5375 50 
Q 5375 -325 5075 -425 
Q 4775 -525 4300 -575 
Q 4300 -275 4025 0 
Q 4500 -50 4687 -25 
Q 4875 0 4875 300 
L 4875 3400 
Q 3625 3400 2775 3375 
L 2775 3850 
Q 3575 3825 4875 3825 
z
M 2000 1300 
L 2000 2550 
L 1000 2550 
L 1000 1300 
L 2000 1300 
z
M 2000 2975 
L 2000 4150 
L 1000 4150 
L 1000 2975 
L 2000 2975 
z
M 3550 2725 
Q 3875 2200 4175 1600 
Q 3925 1525 3650 1375 
Q 3450 1975 3075 2500 
Q 3300 2600 3550 2725 
z
" transform="scale(0.015625)"/>
       <path id="SimHei-95f4" d="M 4450 3550 
Q 4425 3075 4425 2725 
L 4425 1400 
Q 4425 1075 4450 625 
L 1925 625 
Q 1950 1075 1950 1425 
L 1950 2725 
Q 1950 3075 1925 3550 
L 4450 3550 
z
M 5800 4875 
Q 5775 4400 5775 3925 
L 5775 250 
Q 5800 -325 5462 -450 
Q 5125 -575 4725 -625 
Q 4700 -325 4525 -25 
Q 5000 -50 5137 25 
Q 5275 100 5275 350 
L 5275 4450 
L 3775 4450 
Q 3175 4450 2650 4425 
L 2650 4900 
Q 3175 4875 3775 4875 
L 5800 4875 
z
M 550 -525 
Q 600 -25 600 525 
L 600 3150 
Q 600 3675 550 4025 
L 1125 4025 
Q 1100 3650 1100 3300 
L 1100 500 
Q 1100 0 1125 -525 
L 550 -525 
z
M 3950 1025 
L 3950 1950 
L 2425 1950 
L 2425 1025 
L 3950 1025 
z
M 3950 2350 
L 3950 3150 
L 2425 3150 
L 2425 2350 
L 3950 2350 
z
M 1525 5300 
Q 1750 5000 2225 4350 
Q 1950 4225 1700 4075 
Q 1450 4575 1075 5025 
Q 1350 5225 1525 5300 
z
" transform="scale(0.015625)"/>
       <path id="SimHei-6b65" d="M 4800 4250 
Q 5150 4250 5550 4275 
L 5550 3825 
Q 5150 3850 4800 3850 
L 3700 3850 
L 3700 3000 
L 5125 3000 
Q 5675 3000 6100 3025 
L 6100 2550 
Q 5675 2575 5125 2575 
L 1475 2575 
Q 1050 2575 475 2525 
L 475 3025 
Q 1050 3000 1475 3000 
L 1725 3000 
L 1725 3775 
Q 1725 4225 1700 4500 
L 2225 4500 
Q 2200 4175 2200 3775 
L 2200 3000 
L 3225 3000 
Q 3225 4750 3200 5100 
L 3725 5100 
Q 3700 4750 3700 4250 
L 4800 4250 
z
M 3725 2400 
Q 3700 1975 3700 1600 
L 3700 450 
Q 4250 750 4725 1225 
Q 5200 1700 5400 2050 
Q 5650 1825 5900 1700 
Q 5675 1475 5362 1150 
Q 5050 825 4537 437 
Q 4025 50 3212 -225 
Q 2400 -500 800 -650 
Q 725 -400 500 -150 
Q 1275 -150 2100 -25 
Q 2925 100 3225 275 
L 3225 1600 
Q 3225 1975 3200 2400 
L 3725 2400 
z
M 2600 1875 
Q 2275 1600 1975 1275 
Q 1675 950 1075 400 
Q 875 600 700 725 
Q 1175 1075 1562 1512 
Q 1950 1950 2125 2200 
Q 2325 2025 2600 1875 
z
" transform="scale(0.015625)"/>
      </defs>
      <use xlink:href="#SimHei-65f6"/>
      <use xlink:href="#SimHei-95f4" x="100"/>
      <use xlink:href="#SimHei-6b65" x="200"/>
     </g>
    </g>
   </g>
   <g id="matplotlib.axis_6">
    <g id="ytick_11">
     <g id="line2d_61">
      <path d="M 42.457813 528.973903 
L 849.164062 528.973903 
" clip-path="url(#p5f5c18a644)" style="fill: none; stroke: #b0b0b0; stroke-opacity: 0.3; stroke-width: 0.8; stroke-linecap: square"/>
     </g>
     <g id="line2d_62">
      <g>
       <use xlink:href="#m1106e9b38d" x="42.457813" y="528.973903" style="stroke: #000000; stroke-width: 0.8"/>
      </g>
     </g>
     <g id="text_34">
      <!-- -20 -->
      <g transform="translate(20.457813 532.411403)scale(0.1 -0.1)">
       <use xlink:href="#SimHei-2d"/>
       <use xlink:href="#SimHei-32" x="50"/>
       <use xlink:href="#SimHei-30" x="100"/>
      </g>
     </g>
    </g>
    <g id="ytick_12">
     <g id="line2d_63">
      <path d="M 42.457813 495.163097 
L 849.164062 495.163097 
" clip-path="url(#p5f5c18a644)" style="fill: none; stroke: #b0b0b0; stroke-opacity: 0.3; stroke-width: 0.8; stroke-linecap: square"/>
     </g>
     <g id="line2d_64">
      <g>
       <use xlink:href="#m1106e9b38d" x="42.457813" y="495.163097" style="stroke: #000000; stroke-width: 0.8"/>
      </g>
     </g>
     <g id="text_35">
      <!-- -10 -->
      <g transform="translate(20.457813 498.600597)scale(0.1 -0.1)">
       <use xlink:href="#SimHei-2d"/>
       <use xlink:href="#SimHei-31" x="50"/>
       <use xlink:href="#SimHei-30" x="100"/>
      </g>
     </g>
    </g>
    <g id="ytick_13">
     <g id="line2d_65">
      <path d="M 42.457813 461.352292 
L 849.164062 461.352292 
" clip-path="url(#p5f5c18a644)" style="fill: none; stroke: #b0b0b0; stroke-opacity: 0.3; stroke-width: 0.8; stroke-linecap: square"/>
     </g>
     <g id="line2d_66">
      <g>
       <use xlink:href="#m1106e9b38d" x="42.457813" y="461.352292" style="stroke: #000000; stroke-width: 0.8"/>
      </g>
     </g>
     <g id="text_36">
      <!-- 0 -->
      <g transform="translate(30.457813 464.789792)scale(0.1 -0.1)">
       <use xlink:href="#SimHei-30"/>
      </g>
     </g>
    </g>
    <g id="ytick_14">
     <g id="line2d_67">
      <path d="M 42.457813 427.541486 
L 849.164062 427.541486 
" clip-path="url(#p5f5c18a644)" style="fill: none; stroke: #b0b0b0; stroke-opacity: 0.3; stroke-width: 0.8; stroke-linecap: square"/>
     </g>
     <g id="line2d_68">
      <g>
       <use xlink:href="#m1106e9b38d" x="42.457813" y="427.541486" style="stroke: #000000; stroke-width: 0.8"/>
      </g>
     </g>
     <g id="text_37">
      <!-- 10 -->
      <g transform="translate(25.457813 430.978986)scale(0.1 -0.1)">
       <use xlink:href="#SimHei-31"/>
       <use xlink:href="#SimHei-30" x="50"/>
      </g>
     </g>
    </g>
    <g id="ytick_15">
     <g id="line2d_69">
      <path d="M 42.457813 393.730681 
L 849.164062 393.730681 
" clip-path="url(#p5f5c18a644)" style="fill: none; stroke: #b0b0b0; stroke-opacity: 0.3; stroke-width: 0.8; stroke-linecap: square"/>
     </g>
     <g id="line2d_70">
      <g>
       <use xlink:href="#m1106e9b38d" x="42.457813" y="393.730681" style="stroke: #000000; stroke-width: 0.8"/>
      </g>
     </g>
     <g id="text_38">
      <!-- 20 -->
      <g transform="translate(25.457813 397.168181)scale(0.1 -0.1)">
       <use xlink:href="#SimHei-32"/>
       <use xlink:href="#SimHei-30" x="50"/>
      </g>
     </g>
    </g>
    <g id="text_39">
     <!-- 延迟差(ms) -->
     <g transform="translate(15.207813 486.352292)rotate(-90)scale(0.1 -0.1)">
      <defs>
       <path id="SimHei-5ef6" d="M 2100 4750 
Q 1500 3450 1275 2875 
L 2175 2875 
Q 2050 2200 1937 1712 
Q 1825 1225 1650 750 
Q 2025 425 2712 212 
Q 3400 0 4175 -25 
Q 4950 -50 6175 75 
Q 5950 -200 5925 -475 
Q 4825 -500 4112 -462 
Q 3400 -425 2900 -312 
Q 2400 -200 2075 -37 
Q 1750 125 1425 375 
Q 1050 -150 650 -525 
Q 500 -350 250 -200 
Q 725 200 1100 700 
Q 825 1025 687 1250 
Q 550 1475 400 1775 
Q 500 1825 800 2000 
Q 950 1700 1050 1537 
Q 1150 1375 1300 1175 
Q 1475 1625 1650 2500 
Q 1000 2500 725 2425 
L 600 2875 
Q 825 3000 1050 3500 
Q 1275 4000 1400 4350 
Q 800 4350 400 4325 
L 400 4775 
Q 1125 4750 1450 4750 
L 2100 4750 
z
M 5675 4625 
Q 5350 4625 4500 4400 
L 4500 3100 
Q 5200 3100 5600 3125 
L 5600 2675 
Q 5200 2700 4500 2700 
L 4500 1200 
Q 4975 1200 5675 1225 
L 5675 750 
Q 5000 775 4600 775 
L 2700 775 
Q 2725 1400 2725 1825 
L 2725 2400 
Q 2725 2850 2700 3525 
L 3275 3525 
Q 3225 2850 3225 2200 
L 3225 1200 
L 4000 1200 
L 4000 4325 
Q 3075 4175 2650 4100 
Q 2600 4275 2450 4575 
Q 3300 4650 3887 4762 
Q 4475 4875 5200 5175 
Q 5275 5050 5675 4625 
z
" transform="scale(0.015625)"/>
       <path id="SimHei-8fdf" d="M 5575 4825 
Q 5550 4100 5550 3700 
Q 5550 3300 5575 2550 
L 5075 2550 
L 5075 2825 
L 3175 2825 
Q 3150 2150 2987 1675 
Q 2825 1200 2400 475 
Q 2200 625 1900 750 
Q 2300 1200 2462 1625 
Q 2625 2050 2675 2425 
Q 2725 2800 2725 3400 
Q 2725 4000 2700 4825 
L 5575 4825 
z
M 1650 2975 
Q 1625 2500 1625 2000 
L 1625 600 
Q 2450 75 3800 50 
Q 5150 25 6150 150 
Q 5900 -175 5850 -450 
Q 4925 -450 4212 -437 
Q 3500 -425 3075 -362 
Q 2650 -300 2312 -175 
Q 1975 -50 1725 100 
Q 1475 250 1250 37 
Q 1025 -175 775 -550 
Q 575 -350 325 -175 
Q 900 325 1175 525 
L 1175 2550 
Q 725 2550 375 2525 
L 375 3000 
Q 750 2975 1175 2975 
L 1650 2975 
z
M 5075 3275 
L 5075 4375 
L 3175 4375 
L 3175 3275 
L 5075 3275 
z
M 4150 2450 
Q 4500 2175 5675 925 
Q 5475 775 5225 500 
Q 4650 1225 3800 2075 
Q 3975 2225 4150 2450 
z
M 1275 5100 
Q 1600 4450 1825 3900 
Q 1550 3800 1350 3700 
Q 1125 4325 825 4900 
Q 1075 4975 1275 5100 
z
" transform="scale(0.015625)"/>
       <path id="SimHei-73" d="M 2750 900 
Q 2750 500 2437 287 
Q 2125 75 1650 75 
Q 1050 75 725 312 
Q 400 550 400 1000 
L 900 1000 
Q 900 700 1112 600 
Q 1325 500 1625 500 
Q 1925 500 2075 612 
Q 2225 725 2225 900 
Q 2225 1025 2100 1150 
Q 1975 1275 1475 1350 
Q 900 1425 687 1637 
Q 475 1850 475 2200 
Q 475 2500 762 2737 
Q 1050 2975 1600 2975 
Q 2100 2975 2387 2750 
Q 2675 2525 2675 2150 
L 2175 2150 
Q 2175 2375 2012 2462 
Q 1850 2550 1600 2550 
Q 1275 2550 1137 2437 
Q 1000 2325 1000 2175 
Q 1000 2000 1125 1900 
Q 1250 1800 1650 1750 
Q 2300 1650 2525 1437 
Q 2750 1225 2750 900 
z
" transform="scale(0.015625)"/>
      </defs>
      <use xlink:href="#SimHei-5ef6"/>
      <use xlink:href="#SimHei-8fdf" x="100"/>
      <use xlink:href="#SimHei-5dee" x="200"/>
      <use xlink:href="#SimHei-28" x="300"/>
      <use xlink:href="#SimHei-6d" x="350"/>
      <use xlink:href="#SimHei-73" x="400"/>
      <use xlink:href="#SimHei-29" x="450"/>
     </g>
    </g>
   </g>
   <g id="line2d_71">
    <path d="M 79.126278 449.942612 
L 80.595956 452.15843 
L 83.535312 425.531439 
L 85.00499 439.786836 
L 86.474668 429.283211 
L 87.944346 400.252207 
L 89.414024 401.214998 
L 90.883702 423.443022 
L 92.35338 403.738906 
L 93.823058 411.107284 
L 95.292736 412.093223 
L 96.762414 397.707607 
L 98.232092 425.927078 
L 99.70177 425.830964 
L 101.171448 415.099119 
L 102.641126 418.894489 
L 104.110804 407.388549 
L 105.580482 428.188773 
L 107.05016 442.968223 
L 108.519838 410.85329 
L 109.989516 429.672484 
L 111.459194 437.919037 
L 112.928872 468.580733 
L 114.39855 455.784008 
L 115.868228 458.523768 
L 117.337906 483.296201 
L 118.807584 470.964311 
L 120.277262 485.525323 
L 121.74694 495.686613 
L 123.216618 497.410386 
L 124.686296 478.003892 
L 126.155974 506.162675 
L 127.625652 522.810535 
L 129.09533 504.273266 
L 130.565008 525.592822 
L 132.034686 512.88256 
L 133.504364 523.729601 
L 134.974042 523.639776 
L 136.44372 514.975663 
L 137.913398 509.345776 
L 139.383076 514.078996 
L 140.852754 510.574212 
L 142.322432 510.448243 
L 143.79211 515.983913 
L 145.261788 499.015428 
L 146.731466 499.681213 
L 148.201144 468.879783 
L 149.670822 469.429006 
L 151.1405 488.734074 
L 152.610178 456.895205 
L 154.079856 460.691957 
L 155.549534 450.558111 
L 157.019212 429.113822 
L 158.48889 424.847247 
L 159.958568 411.93619 
L 161.428246 436.186125 
L 164.367602 404.729074 
L 165.83728 397.111761 
L 167.306958 414.959205 
L 168.776636 405.936467 
L 170.246314 419.502476 
L 171.715992 417.491835 
L 173.18567 398.928104 
L 174.655348 398.592054 
L 176.125026 415.960237 
L 177.594704 398.888765 
L 179.064382 411.51068 
L 180.53406 432.682298 
L 182.003738 420.90256 
L 183.473416 421.040914 
L 184.943094 442.525464 
L 186.412772 431.31538 
L 187.88245 482.031134 
L 189.352128 457.828333 
L 190.821806 467.178884 
L 192.291484 479.755117 
L 193.761162 482.414199 
L 195.23084 511.672672 
L 196.700518 500.774299 
L 198.170196 496.68887 
L 199.639874 483.781264 
L 201.109552 512.715404 
L 202.57923 521.961451 
L 204.048908 525.003025 
L 205.518586 509.166281 
L 206.988264 517.781175 
L 208.457942 521.634722 
L 209.92762 511.713265 
L 211.397298 508.474376 
L 212.866976 503.112017 
L 214.336654 518.352874 
L 217.27601 501.485868 
L 218.745688 520.164443 
L 220.215366 487.512197 
L 221.685044 478.717717 
L 223.154722 471.581395 
L 224.6244 472.354665 
L 226.094078 480.454109 
L 227.563756 458.532445 
L 229.033434 454.578735 
L 230.503112 453.574628 
L 231.97279 434.040444 
L 233.442468 422.060056 
L 234.912146 398.338576 
L 236.381824 419.21967 
L 237.851502 407.497056 
L 239.32118 402.959459 
L 240.790858 426.865809 
L 242.260536 406.35352 
L 243.730214 402.595045 
L 245.199892 397.124991 
L 246.66957 406.940117 
L 248.139248 402.185968 
L 249.608926 411.320977 
L 251.078604 426.785796 
L 252.548282 404.435269 
L 254.017959 413.798782 
L 255.487637 416.223999 
L 256.957315 443.89684 
L 258.426993 424.533173 
L 259.896671 463.138643 
L 261.366349 447.246354 
L 262.836027 438.276124 
L 264.305705 476.420916 
L 265.775383 486.048456 
L 267.245061 484.123296 
L 268.714739 497.443175 
L 270.184417 515.989203 
L 271.654095 500.40225 
L 273.123773 516.837249 
L 274.593451 507.494804 
L 276.063129 522.144206 
L 277.532807 495.725731 
L 279.002485 525.206089 
L 280.472163 519.30228 
L 281.941841 511.496682 
L 283.411519 524.242618 
L 284.881197 510.800013 
L 286.350875 492.091938 
L 287.820553 525.391794 
L 289.290231 502.272643 
L 290.759909 499.124715 
L 292.229587 486.106312 
L 293.699265 502.532952 
L 295.168943 499.003829 
L 296.638621 466.671838 
L 298.108299 458.976625 
L 299.577977 459.500061 
L 301.047655 443.648221 
L 302.517333 446.644941 
L 303.987011 432.178606 
L 305.456689 427.017788 
L 306.926367 429.704428 
L 308.396045 399.326911 
L 309.865723 407.710122 
L 311.335401 428.995267 
L 312.805079 399.172397 
L 314.274757 419.367793 
L 315.744435 399.852413 
L 317.214113 397.111761 
L 318.683791 414.906464 
L 320.153469 397.111761 
L 321.623147 402.255188 
L 323.092825 397.540342 
L 324.562503 399.932753 
L 326.032181 420.238852 
L 327.501859 431.174261 
L 328.971537 440.325117 
L 330.441215 446.240738 
L 331.910893 440.206585 
L 333.380571 447.710784 
L 334.850249 453.083482 
L 336.319927 455.726777 
L 337.789605 467.281062 
L 339.259283 461.693815 
L 340.728961 490.208936 
L 342.198639 458.091838 
L 343.668317 489.989092 
L 345.137995 515.494553 
L 346.607673 519.730716 
L 348.077351 503.189102 
L 349.547029 515.358932 
L 351.016707 509.995777 
L 352.486385 509.129612 
L 353.956063 524.65807 
L 355.425741 524.057564 
L 356.895419 524.350338 
L 358.365097 522.389814 
L 359.834775 503.359184 
L 361.304453 510.571687 
L 362.774131 519.082793 
L 364.243809 492.808529 
L 365.713487 481.330743 
L 367.183165 497.27913 
L 368.652843 476.810675 
L 370.122521 470.156508 
L 371.592199 478.592353 
L 373.061877 453.435593 
L 374.531555 442.65785 
L 376.001233 426.598632 
L 377.470911 424.327772 
L 378.940589 446.196813 
L 380.410267 433.55599 
L 381.879945 411.16337 
L 383.349623 409.978672 
L 384.819301 406.903283 
L 386.288979 398.027139 
L 387.758657 402.224354 
L 389.228335 397.111761 
L 390.698013 400.493973 
L 392.167691 403.040577 
L 393.637369 410.023022 
L 395.107047 405.536547 
L 396.576725 415.753851 
L 398.046403 414.484135 
L 399.516081 424.839275 
L 400.985759 424.318669 
L 402.455437 397.111761 
L 403.925115 462.913898 
L 405.394793 439.21699 
L 406.864471 469.264696 
L 408.334149 460.009158 
L 409.803827 448.624038 
L 411.273505 467.25399 
L 412.743183 492.567348 
L 414.212861 497.963307 
L 415.682539 484.253297 
L 417.152217 504.025719 
L 418.621895 493.004808 
L 420.091573 504.076801 
L 421.561251 524.717702 
L 423.030929 480.850942 
L 424.500607 510.616364 
L 425.970285 525.592822 
L 427.439963 513.532618 
L 428.909641 522.439977 
L 430.379319 506.608312 
L 431.848997 524.525589 
L 433.318675 518.43004 
L 434.788353 498.2295 
L 436.258031 493.455623 
L 437.727709 518.470138 
L 439.197387 498.852584 
L 440.667065 492.523298 
L 442.136743 488.494911 
L 443.606421 449.205567 
L 445.076099 456.432407 
L 446.545776 471.577204 
L 448.015454 436.118079 
L 449.485132 418.426287 
L 450.95481 425.876456 
L 452.424488 450.734185 
L 453.894166 431.875185 
L 455.363844 400.680741 
L 456.833522 423.699331 
L 458.3032 409.62667 
L 459.772878 400.265973 
L 461.242556 415.463566 
L 462.712234 406.460755 
L 464.181912 441.528742 
L 465.65159 420.838483 
L 467.121268 409.486438 
L 468.590946 425.984887 
L 470.060624 397.179949 
L 471.530302 431.413254 
L 472.99998 426.561654 
L 474.469658 424.748182 
L 475.939336 412.087571 
L 477.409014 455.210562 
L 478.878692 431.000096 
L 480.34837 455.327907 
L 481.818048 469.826155 
L 483.287726 462.743562 
L 484.757404 472.900861 
L 486.227082 488.072941 
L 487.69676 485.734129 
L 489.166438 497.795627 
L 490.636116 493.566317 
L 492.105794 496.683264 
L 493.575472 486.100504 
L 495.04515 525.592822 
L 496.514828 485.706781 
L 497.984506 525.592822 
L 499.454184 521.619556 
L 500.923862 513.807396 
L 502.39354 514.681561 
L 503.863218 524.254692 
L 506.802574 514.141456 
L 508.272252 518.760973 
L 509.74193 494.712503 
L 511.211608 490.732551 
L 512.681286 500.212847 
L 514.150964 476.035056 
L 515.620642 476.31613 
L 517.09032 459.437658 
L 518.559998 457.86989 
L 520.029676 467.953335 
L 521.499354 449.614264 
L 522.969032 432.889141 
L 524.43871 428.146545 
L 525.908388 432.401011 
L 527.378066 428.128759 
L 528.847744 403.474231 
L 530.317422 424.114839 
L 531.7871 404.969162 
L 533.256778 410.995004 
L 534.726456 405.775729 
L 536.196134 399.312909 
L 537.665812 401.343617 
L 539.13549 397.76345 
L 540.605168 397.111761 
L 542.074846 406.877596 
L 543.544524 401.31176 
L 545.014202 416.407745 
L 546.48388 417.206925 
L 547.953558 435.573192 
L 550.892914 426.485927 
L 552.362592 451.962359 
L 553.83227 428.062328 
L 555.301948 474.076226 
L 556.771626 479.185947 
L 558.241304 455.864138 
L 559.710982 469.047259 
L 561.18066 474.834124 
L 562.650338 487.666842 
L 564.120016 504.568994 
L 565.589694 514.56976 
L 567.059372 507.903433 
L 568.52905 523.012379 
L 569.998728 506.353982 
L 571.468406 517.423912 
L 572.938084 518.959222 
L 574.407762 519.683227 
L 575.87744 509.750598 
L 577.347118 525.247499 
L 578.816796 524.783533 
L 580.286474 510.815553 
L 581.756152 499.096878 
L 583.22583 513.932691 
L 584.695508 500.790543 
L 586.165186 493.697273 
L 587.634864 503.913718 
L 589.104542 500.871684 
L 590.57422 482.615201 
L 593.513576 452.326891 
L 594.983254 427.732942 
L 596.452932 434.163752 
L 597.92261 437.144242 
L 599.392288 425.667765 
L 600.861966 436.913949 
L 602.331644 420.013362 
L 603.801322 413.532947 
L 605.271 404.33517 
L 606.740678 415.276559 
L 608.210356 398.784141 
L 609.680034 397.111761 
L 611.149712 403.553364 
L 612.61939 397.111761 
L 614.089068 397.111761 
L 615.558746 417.979443 
L 617.028424 409.281388 
L 618.498102 417.601258 
L 619.96778 418.878099 
L 621.437458 433.560224 
L 622.907136 432.688923 
L 624.376814 428.594108 
L 625.846492 433.723371 
L 627.31617 444.817163 
L 628.785848 428.517762 
L 630.255526 476.431171 
L 631.725204 464.113968 
L 633.194882 478.016977 
L 634.66456 459.94791 
L 636.134238 503.194869 
L 637.603916 519.37133 
L 639.073593 519.204422 
L 640.543271 525.592822 
L 642.012949 520.834728 
L 643.482627 525.592822 
L 644.952305 515.747748 
L 646.421983 513.948862 
L 647.891661 492.370945 
L 649.361339 508.743176 
L 650.831017 523.730065 
L 652.300695 522.10709 
L 653.770373 507.366068 
L 655.240051 522.131425 
L 656.709729 477.919981 
L 658.179407 484.377689 
L 659.649085 485.774206 
L 661.118763 511.287136 
L 662.588441 459.291612 
L 664.058119 476.717802 
L 665.527797 445.501272 
L 666.997475 477.112783 
L 668.467153 458.077511 
L 669.936831 442.873169 
L 671.406509 433.259285 
L 672.876187 438.24201 
L 674.345865 408.12074 
L 675.815543 433.624082 
L 677.285221 417.644803 
L 678.754899 408.532229 
L 680.224577 402.795751 
L 681.694255 398.197768 
L 683.163933 416.649161 
L 684.633611 428.817695 
L 686.103289 397.111761 
L 687.572967 399.219491 
L 689.042645 414.097572 
L 690.512323 399.173473 
L 691.982001 413.631343 
L 693.451679 402.949805 
L 694.921357 421.857302 
L 696.391035 406.246049 
L 697.860713 414.79606 
L 699.330391 450.34837 
L 700.800069 441.505287 
L 702.269747 448.179462 
L 703.739425 451.59081 
L 705.209103 487.844407 
L 706.678781 475.216498 
L 708.148459 472.396224 
L 709.618137 517.337715 
L 711.087815 514.577984 
L 712.557493 525.592822 
L 714.027171 515.963512 
L 715.496849 501.894178 
L 716.966527 499.56956 
L 718.436205 515.826738 
L 719.905883 500.45439 
L 721.375561 523.003649 
L 722.845239 522.979299 
L 724.314917 518.706384 
L 725.784595 507.365184 
L 727.254273 510.736211 
L 728.723951 524.293514 
L 730.193629 506.275063 
L 731.663307 513.493836 
L 733.132985 481.301515 
L 734.602663 478.242363 
L 736.072341 492.973388 
L 737.542019 475.52956 
L 739.011697 478.157735 
L 740.481375 452.204107 
L 741.951053 431.256791 
L 743.420731 452.165402 
L 744.890409 423.388856 
L 746.360087 430.69586 
L 747.829765 433.050503 
L 749.299443 418.898392 
L 750.769121 425.884027 
L 752.238799 414.143084 
L 753.708477 421.80618 
L 755.178155 402.224436 
L 758.117511 413.999715 
L 759.587189 405.934552 
L 761.056867 405.52781 
L 762.526545 409.481941 
L 763.996223 402.839028 
L 765.465901 408.20053 
L 766.935579 431.033553 
L 768.405257 433.422966 
L 769.874935 440.357495 
L 771.344613 469.240596 
L 772.814291 468.942664 
L 774.283969 429.985725 
L 775.753647 436.550167 
L 777.223325 468.630938 
L 778.693003 467.418429 
L 780.162681 475.784091 
L 781.632359 450.617178 
L 783.102037 483.122602 
L 784.571715 501.223157 
L 786.041393 510.148017 
L 787.511071 523.373881 
L 788.980749 510.236542 
L 790.450427 523.542674 
L 793.389783 525.592822 
L 794.859461 525.403402 
L 796.329139 496.915069 
L 797.798817 496.923036 
L 799.268495 510.084664 
L 800.738173 489.561678 
L 802.207851 505.83199 
L 803.677529 511.40443 
L 805.147207 478.794335 
L 806.616885 486.101207 
L 808.086563 497.134687 
L 809.556241 480.625901 
L 811.025919 478.813625 
L 812.495597 478.710051 
L 812.495597 478.710051 
" clip-path="url(#p5f5c18a644)" style="fill: none; stroke: #666666; stroke-width: 1.2; stroke-linecap: square"/>
   </g>
   <g id="line2d_72">
    <path d="M 42.457813 461.352292 
L 849.164062 461.352292 
" clip-path="url(#p5f5c18a644)" style="fill: none; stroke-dasharray: 3.7,1.6; stroke-dashoffset: 0; stroke: #ff0000"/>
   </g>
   <g id="patch_13">
    <path d="M 42.457813 532.016875 
L 42.457813 390.687708 
" style="fill: none; stroke: #000000; stroke-width: 0.8; stroke-linejoin: miter; stroke-linecap: square"/>
   </g>
   <g id="patch_14">
    <path d="M 849.164062 532.016875 
L 849.164062 390.687708 
" style="fill: none; stroke: #000000; stroke-width: 0.8; stroke-linejoin: miter; stroke-linecap: square"/>
   </g>
   <g id="patch_15">
    <path d="M 42.457812 532.016875 
L 849.164062 532.016875 
" style="fill: none; stroke: #000000; stroke-width: 0.8; stroke-linejoin: miter; stroke-linecap: square"/>
   </g>
   <g id="patch_16">
    <path d="M 42.457812 390.687708 
L 849.164062 390.687708 
" style="fill: none; stroke: #000000; stroke-width: 0.8; stroke-linejoin: miter; stroke-linecap: square"/>
   </g>
   <g id="text_40">
    <!-- 小区A与B的传输延迟差（A-B） -->
    <g transform="translate(364.810937 384.687708)scale(0.12 -0.12)">
     <defs>
      <path id="SimHei-4f20" d="M 5500 1975 
Q 5025 925 4700 250 
Q 4975 100 5450 -200 
Q 5300 -375 5125 -675 
Q 4700 -375 4012 12 
Q 3325 400 3050 525 
Q 3175 750 3275 950 
Q 3600 800 4275 475 
Q 4525 975 4750 1550 
L 2800 1550 
Q 2950 2000 3125 2650 
L 2575 2650 
Q 2200 2650 1925 2625 
L 1925 3075 
Q 2250 3050 2600 3050 
L 3200 3050 
Q 3300 3525 3350 3825 
L 2975 3825 
Q 2525 3825 2250 3800 
L 2250 4250 
Q 2550 4225 2950 4225 
L 3425 4225 
Q 3525 4950 3525 5225 
Q 3850 5150 4100 5125 
Q 4025 5000 3875 4225 
L 4950 4225 
Q 5350 4225 5700 4250 
L 5700 3800 
Q 5375 3825 4925 3825 
L 3825 3825 
Q 3775 3550 3675 3050 
L 5250 3050 
Q 5750 3050 6025 3075 
L 6025 2625 
Q 5725 2650 5250 2650 
L 3600 2650 
Q 3500 2250 3425 1975 
L 5500 1975 
z
M 2225 4875 
Q 2025 4675 1650 3750 
L 1650 550 
Q 1650 -25 1675 -525 
L 1125 -525 
Q 1175 -125 1175 525 
L 1175 3000 
Q 800 2400 550 2050 
Q 450 2250 200 2450 
Q 500 2800 925 3525 
Q 1350 4250 1625 5175 
Q 1850 5050 2225 4875 
z
" transform="scale(0.015625)"/>
      <path id="SimHei-8f93" d="M 3225 3650 
Q 2725 3100 2550 2950 
L 4100 2950 
Q 4075 2675 4075 2275 
L 4075 -100 
Q 4100 -325 3962 -425 
Q 3825 -525 3475 -600 
Q 3400 -350 3225 -100 
Q 3650 -100 3650 25 
L 3650 675 
L 2975 675 
L 2975 -575 
L 2525 -575 
Q 2550 -125 2550 325 
L 2550 2075 
Q 2550 2500 2525 2925 
L 2375 2800 
Q 2200 3000 1950 3100 
Q 2575 3525 3025 4087 
Q 3475 4650 3775 5300 
Q 4075 5150 4325 5100 
L 4225 4975 
Q 4700 4325 5225 3975 
Q 5750 3625 6200 3475 
Q 5975 3275 5825 3025 
Q 5275 3300 4875 3650 
L 4875 3350 
L 3225 3350 
L 3225 3650 
z
M 2225 825 
Q 1975 775 1725 675 
Q 1725 -100 1750 -650 
L 1275 -650 
Q 1300 -100 1300 575 
Q 725 425 475 325 
Q 400 575 250 825 
Q 650 875 1300 1025 
L 1300 1975 
Q 700 1925 400 1800 
L 225 2225 
Q 425 2350 600 2850 
Q 775 3350 875 3825 
Q 625 3825 350 3800 
L 350 4250 
Q 675 4225 950 4225 
Q 1050 4700 1075 5175 
Q 1400 5075 1675 5025 
Q 1525 4850 1400 4225 
Q 1925 4225 2300 4250 
L 2300 3800 
Q 1850 3825 1325 3825 
Q 1075 2900 825 2325 
L 1300 2375 
Q 1300 2700 1275 3125 
L 1750 3125 
Q 1725 2900 1725 2425 
L 2150 2475 
L 2150 2075 
L 1725 2025 
L 1725 1125 
L 2225 1250 
L 2225 825 
z
M 5775 2925 
Q 5750 2525 5750 2150 
L 5750 -100 
Q 5750 -375 5625 -475 
Q 5500 -575 5000 -675 
Q 4950 -450 4750 -175 
Q 5300 -200 5325 0 
L 5325 2100 
Q 5325 2500 5300 2925 
L 5775 2925 
z
M 4975 2700 
Q 4950 2400 4950 2000 
L 4950 900 
Q 4950 425 4975 125 
L 4475 125 
Q 4500 500 4500 875 
L 4500 2000 
Q 4500 2350 4475 2700 
L 4975 2700 
z
M 4750 3750 
Q 4450 4025 3975 4675 
Q 3575 4075 3300 3750 
L 4750 3750 
z
M 3650 2000 
L 3650 2575 
L 2975 2575 
L 2975 2000 
L 3650 2000 
z
M 3650 1075 
L 3650 1625 
L 2975 1625 
L 2975 1075 
L 3650 1075 
z
" transform="scale(0.015625)"/>
     </defs>
     <use xlink:href="#SimHei-5c0f"/>
     <use xlink:href="#SimHei-533a" x="100"/>
     <use xlink:href="#SimHei-41" x="200"/>
     <use xlink:href="#SimHei-4e0e" x="250"/>
     <use xlink:href="#SimHei-42" x="350"/>
     <use xlink:href="#SimHei-7684" x="400"/>
     <use xlink:href="#SimHei-4f20" x="500"/>
     <use xlink:href="#SimHei-8f93" x="600"/>
     <use xlink:href="#SimHei-5ef6" x="700"/>
     <use xlink:href="#SimHei-8fdf" x="800"/>
     <use xlink:href="#SimHei-5dee" x="900"/>
     <use xlink:href="#SimHei-ff08" x="1000"/>
     <use xlink:href="#SimHei-41" x="1100"/>
     <use xlink:href="#SimHei-2d" x="1150"/>
     <use xlink:href="#SimHei-42" x="1200"/>
     <use xlink:href="#SimHei-ff09" x="1250"/>
    </g>
   </g>
  </g>
 </g>
 <defs>
  <clipPath id="pb712a2cda4">
   <rect x="42.457813" y="22.809375" width="806.70625" height="141.329167"/>
  </clipPath>
  <clipPath id="p0ba3787ef8">
   <rect x="42.457813" y="206.748542" width="806.70625" height="141.329167"/>
  </clipPath>
  <clipPath id="p5f5c18a644">
   <rect x="42.457813" y="390.687708" width="806.70625" height="141.329167"/>
  </clipPath>
 </defs>
</svg>
