<?xml version="1.0" encoding="utf-8" standalone="no"?>
<!DOCTYPE svg PUBLIC "-//W3C//DTD SVG 1.1//EN"
  "http://www.w3.org/Graphics/SVG/1.1/DTD/svg11.dtd">
<svg xmlns:xlink="http://www.w3.org/1999/xlink" width="856.165pt" height="424.112187pt" viewBox="0 0 856.165 424.112187" xmlns="http://www.w3.org/2000/svg" version="1.1">
 <metadata>
  <rdf:RDF xmlns:dc="http://purl.org/dc/elements/1.1/" xmlns:cc="http://creativecommons.org/ns#" xmlns:rdf="http://www.w3.org/1999/02/22-rdf-syntax-ns#">
   <cc:Work>
    <dc:type rdf:resource="http://purl.org/dc/dcmitype/StillImage"/>
    <dc:date>2025-12-17T20:16:04.088104</dc:date>
    <dc:format>image/svg+xml</dc:format>
    <dc:creator>
     <cc:Agent>
      <dc:title>Matplotlib v3.5.0, https://matplotlib.org/</dc:title>
     </cc:Agent>
    </dc:creator>
   </cc:Work>
  </rdf:RDF>
 </metadata>
 <defs>
  <style type="text/css">*{stroke-linejoin: round; stroke-linecap: butt}</style>
 </defs>
 <g id="figure_1">
  <g id="patch_1">
   <path d="M 0 424.112187 
L 856.165 424.112187 
L 856.165 0 
L 0 0 
z
" style="fill: #ffffff"/>
  </g>
  <g id="axes_1">
   <g id="patch_2">
    <path d="M 42.73125 388.490312 
L 848.965 388.490312 
L 848.965 24.520312 
L 42.73125 24.520312 
z
" style="fill: #ffffff"/>
   </g>
   <g id="matplotlib.axis_1">
    <g id="xtick_1">
     <g id="line2d_1">
      <path d="M 79.378239 388.490312 
L 79.378239 24.520312 
" clip-path="url(#p52470fb123)" style="fill: none; stroke: #b0b0b0; stroke-opacity: 0.3; stroke-width: 0.8; stroke-linecap: square"/>
     </g>
     <g id="line2d_2">
      <defs>
       <path id="m0783ff9a6f" d="M 0 0 
L 0 3.5 
" style="stroke: #000000; stroke-width: 0.8"/>
      </defs>
      <g>
       <use xlink:href="#m0783ff9a6f" x="79.378239" y="388.490312" style="stroke: #000000; stroke-width: 0.8"/>
      </g>
     </g>
     <g id="text_1">
      <!-- 0 -->
      <g transform="translate(76.878239 402.365312)scale(0.1 -0.1)">
       <defs>
        <path id="SimHei-30" d="M 225 2537 
Q 250 3200 412 3587 
Q 575 3975 875 4225 
Q 1175 4475 1612 4475 
Q 2050 4475 2375 4112 
Q 2700 3750 2800 3200 
Q 2900 2650 2862 1937 
Q 2825 1225 2612 775 
Q 2400 325 1975 150 
Q 1550 -25 1125 187 
Q 700 400 525 750 
Q 350 1100 275 1487 
Q 200 1875 225 2537 
z
M 750 2687 
Q 675 2000 800 1462 
Q 925 925 1212 700 
Q 1500 475 1800 612 
Q 2100 750 2237 1162 
Q 2375 1575 2375 2062 
Q 2375 2550 2337 2950 
Q 2300 3350 2112 3675 
Q 1925 4000 1612 4012 
Q 1300 4025 1062 3700 
Q 825 3375 750 2687 
z
" transform="scale(0.015625)"/>
       </defs>
       <use xlink:href="#SimHei-30"/>
      </g>
     </g>
    </g>
    <g id="xtick_2">
     <g id="line2d_3">
      <path d="M 226.259957 388.490312 
L 226.259957 24.520312 
" clip-path="url(#p52470fb123)" style="fill: none; stroke: #b0b0b0; stroke-opacity: 0.3; stroke-width: 0.8; stroke-linecap: square"/>
     </g>
     <g id="line2d_4">
      <g>
       <use xlink:href="#m0783ff9a6f" x="226.259957" y="388.490312" style="stroke: #000000; stroke-width: 0.8"/>
      </g>
     </g>
     <g id="text_2">
      <!-- 100 -->
      <g transform="translate(218.759957 402.365312)scale(0.1 -0.1)">
       <defs>
        <path id="SimHei-31" d="M 1400 3600 
Q 1075 3275 575 2975 
L 575 3450 
Q 1200 3875 1600 4450 
L 1900 4450 
L 1900 150 
L 1400 150 
L 1400 3600 
z
" transform="scale(0.015625)"/>
       </defs>
       <use xlink:href="#SimHei-31"/>
       <use xlink:href="#SimHei-30" x="50"/>
       <use xlink:href="#SimHei-30" x="100"/>
      </g>
     </g>
    </g>
    <g id="xtick_3">
     <g id="line2d_5">
      <path d="M 373.141675 388.490312 
L 373.141675 24.520312 
" clip-path="url(#p52470fb123)" style="fill: none; stroke: #b0b0b0; stroke-opacity: 0.3; stroke-width: 0.8; stroke-linecap: square"/>
     </g>
     <g id="line2d_6">
      <g>
       <use xlink:href="#m0783ff9a6f" x="373.141675" y="388.490312" style="stroke: #000000; stroke-width: 0.8"/>
      </g>
     </g>
     <g id="text_3">
      <!-- 200 -->
      <g transform="translate(365.641675 402.365312)scale(0.1 -0.1)">
       <defs>
        <path id="SimHei-32" d="M 300 250 
Q 325 625 650 925 
Q 975 1225 1475 1862 
Q 1975 2500 2125 2850 
Q 2275 3200 2237 3450 
Q 2200 3700 2000 3862 
Q 1800 4025 1537 4000 
Q 1275 3975 1037 3800 
Q 800 3625 675 3275 
L 200 3350 
Q 400 3925 712 4187 
Q 1025 4450 1450 4475 
Q 1700 4500 1900 4462 
Q 2100 4425 2312 4287 
Q 2525 4150 2662 3875 
Q 2800 3600 2762 3212 
Q 2725 2825 2375 2287 
Q 2025 1750 1025 600 
L 2825 600 
L 2825 150 
L 300 150 
L 300 250 
z
" transform="scale(0.015625)"/>
       </defs>
       <use xlink:href="#SimHei-32"/>
       <use xlink:href="#SimHei-30" x="50"/>
       <use xlink:href="#SimHei-30" x="100"/>
      </g>
     </g>
    </g>
    <g id="xtick_4">
     <g id="line2d_7">
      <path d="M 520.023393 388.490312 
L 520.023393 24.520312 
" clip-path="url(#p52470fb123)" style="fill: none; stroke: #b0b0b0; stroke-opacity: 0.3; stroke-width: 0.8; stroke-linecap: square"/>
     </g>
     <g id="line2d_8">
      <g>
       <use xlink:href="#m0783ff9a6f" x="520.023393" y="388.490312" style="stroke: #000000; stroke-width: 0.8"/>
      </g>
     </g>
     <g id="text_4">
      <!-- 300 -->
      <g transform="translate(512.523393 402.365312)scale(0.1 -0.1)">
       <defs>
        <path id="SimHei-33" d="M 250 1225 
L 700 1300 
Q 800 975 1025 762 
Q 1250 550 1587 562 
Q 1925 575 2125 837 
Q 2325 1100 2300 1437 
Q 2275 1775 2037 1962 
Q 1800 2150 1275 2225 
L 1275 2550 
Q 1800 2600 2037 2825 
Q 2275 3050 2250 3412 
Q 2225 3775 1925 3937 
Q 1625 4100 1287 3975 
Q 950 3850 750 3275 
L 300 3350 
Q 450 3800 712 4100 
Q 975 4400 1425 4450 
Q 1875 4500 2212 4337 
Q 2550 4175 2687 3837 
Q 2825 3500 2725 3100 
Q 2625 2700 2150 2400 
Q 2500 2250 2687 1950 
Q 2875 1650 2812 1162 
Q 2750 675 2375 375 
Q 2000 75 1525 87 
Q 1050 100 700 387 
Q 350 675 250 1225 
z
" transform="scale(0.015625)"/>
       </defs>
       <use xlink:href="#SimHei-33"/>
       <use xlink:href="#SimHei-30" x="50"/>
       <use xlink:href="#SimHei-30" x="100"/>
      </g>
     </g>
    </g>
    <g id="xtick_5">
     <g id="line2d_9">
      <path d="M 666.905111 388.490312 
L 666.905111 24.520312 
" clip-path="url(#p52470fb123)" style="fill: none; stroke: #b0b0b0; stroke-opacity: 0.3; stroke-width: 0.8; stroke-linecap: square"/>
     </g>
     <g id="line2d_10">
      <g>
       <use xlink:href="#m0783ff9a6f" x="666.905111" y="388.490312" style="stroke: #000000; stroke-width: 0.8"/>
      </g>
     </g>
     <g id="text_5">
      <!-- 400 -->
      <g transform="translate(659.405111 402.365312)scale(0.1 -0.1)">
       <defs>
        <path id="SimHei-34" d="M 2000 1100 
L 75 1100 
L 75 1525 
L 2100 4450 
L 2475 4450 
L 2475 1525 
L 3075 1525 
L 3075 1100 
L 2475 1100 
L 2475 150 
L 2000 150 
L 2000 1100 
z
M 2000 1525 
L 2000 3500 
L 600 1525 
L 2000 1525 
z
" transform="scale(0.015625)"/>
       </defs>
       <use xlink:href="#SimHei-34"/>
       <use xlink:href="#SimHei-30" x="50"/>
       <use xlink:href="#SimHei-30" x="100"/>
      </g>
     </g>
    </g>
    <g id="xtick_6">
     <g id="line2d_11">
      <path d="M 813.786829 388.490312 
L 813.786829 24.520312 
" clip-path="url(#p52470fb123)" style="fill: none; stroke: #b0b0b0; stroke-opacity: 0.3; stroke-width: 0.8; stroke-linecap: square"/>
     </g>
     <g id="line2d_12">
      <g>
       <use xlink:href="#m0783ff9a6f" x="813.786829" y="388.490312" style="stroke: #000000; stroke-width: 0.8"/>
      </g>
     </g>
     <g id="text_6">
      <!-- 500 -->
      <g transform="translate(806.286829 402.365312)scale(0.1 -0.1)">
       <defs>
        <path id="SimHei-35" d="M 550 1325 
Q 725 650 1150 575 
Q 1575 500 1837 662 
Q 2100 825 2212 1087 
Q 2325 1350 2312 1675 
Q 2300 2000 2137 2225 
Q 1975 2450 1725 2525 
Q 1475 2600 1162 2525 
Q 850 2450 650 2175 
L 225 2225 
Q 275 2375 700 4375 
L 2675 4375 
L 2675 3925 
L 1075 3925 
Q 950 3250 825 2850 
Q 1200 3025 1525 3012 
Q 1850 3000 2150 2862 
Q 2450 2725 2587 2487 
Q 2725 2250 2787 2012 
Q 2850 1775 2837 1500 
Q 2825 1225 2725 937 
Q 2625 650 2425 462 
Q 2225 275 1937 162 
Q 1650 50 1275 75 
Q 900 100 562 350 
Q 225 600 100 1200 
L 550 1325 
z
" transform="scale(0.015625)"/>
       </defs>
       <use xlink:href="#SimHei-35"/>
       <use xlink:href="#SimHei-30" x="50"/>
       <use xlink:href="#SimHei-30" x="100"/>
      </g>
     </g>
    </g>
    <g id="text_7">
     <!-- 时间步 -->
     <g transform="translate(430.848125 415.662187)scale(0.1 -0.1)">
      <defs>
       <path id="SimHei-65f6" d="M 2525 4575 
Q 2500 3675 2500 2400 
Q 2500 1125 2525 400 
L 2000 400 
L 2000 875 
L 1000 875 
L 1000 50 
L 475 50 
Q 500 1200 500 2350 
Q 500 3525 475 4575 
L 2525 4575 
z
M 4875 3825 
Q 4875 4575 4850 5225 
L 5400 5225 
Q 5375 4575 5375 3825 
Q 5750 3825 6175 3850 
L 6175 3375 
Q 5750 3400 5375 3400 
L 5375 50 
Q 5375 -325 5075 -425 
Q 4775 -525 4300 -575 
Q 4300 -275 4025 0 
Q 4500 -50 4687 -25 
Q 4875 0 4875 300 
L 4875 3400 
Q 3625 3400 2775 3375 
L 2775 3850 
Q 3575 3825 4875 3825 
z
M 2000 1300 
L 2000 2550 
L 1000 2550 
L 1000 1300 
L 2000 1300 
z
M 2000 2975 
L 2000 4150 
L 1000 4150 
L 1000 2975 
L 2000 2975 
z
M 3550 2725 
Q 3875 2200 4175 1600 
Q 3925 1525 3650 1375 
Q 3450 1975 3075 2500 
Q 3300 2600 3550 2725 
z
" transform="scale(0.015625)"/>
       <path id="SimHei-95f4" d="M 4450 3550 
Q 4425 3075 4425 2725 
L 4425 1400 
Q 4425 1075 4450 625 
L 1925 625 
Q 1950 1075 1950 1425 
L 1950 2725 
Q 1950 3075 1925 3550 
L 4450 3550 
z
M 5800 4875 
Q 5775 4400 5775 3925 
L 5775 250 
Q 5800 -325 5462 -450 
Q 5125 -575 4725 -625 
Q 4700 -325 4525 -25 
Q 5000 -50 5137 25 
Q 5275 100 5275 350 
L 5275 4450 
L 3775 4450 
Q 3175 4450 2650 4425 
L 2650 4900 
Q 3175 4875 3775 4875 
L 5800 4875 
z
M 550 -525 
Q 600 -25 600 525 
L 600 3150 
Q 600 3675 550 4025 
L 1125 4025 
Q 1100 3650 1100 3300 
L 1100 500 
Q 1100 0 1125 -525 
L 550 -525 
z
M 3950 1025 
L 3950 1950 
L 2425 1950 
L 2425 1025 
L 3950 1025 
z
M 3950 2350 
L 3950 3150 
L 2425 3150 
L 2425 2350 
L 3950 2350 
z
M 1525 5300 
Q 1750 5000 2225 4350 
Q 1950 4225 1700 4075 
Q 1450 4575 1075 5025 
Q 1350 5225 1525 5300 
z
" transform="scale(0.015625)"/>
       <path id="SimHei-6b65" d="M 4800 4250 
Q 5150 4250 5550 4275 
L 5550 3825 
Q 5150 3850 4800 3850 
L 3700 3850 
L 3700 3000 
L 5125 3000 
Q 5675 3000 6100 3025 
L 6100 2550 
Q 5675 2575 5125 2575 
L 1475 2575 
Q 1050 2575 475 2525 
L 475 3025 
Q 1050 3000 1475 3000 
L 1725 3000 
L 1725 3775 
Q 1725 4225 1700 4500 
L 2225 4500 
Q 2200 4175 2200 3775 
L 2200 3000 
L 3225 3000 
Q 3225 4750 3200 5100 
L 3725 5100 
Q 3700 4750 3700 4250 
L 4800 4250 
z
M 3725 2400 
Q 3700 1975 3700 1600 
L 3700 450 
Q 4250 750 4725 1225 
Q 5200 1700 5400 2050 
Q 5650 1825 5900 1700 
Q 5675 1475 5362 1150 
Q 5050 825 4537 437 
Q 4025 50 3212 -225 
Q 2400 -500 800 -650 
Q 725 -400 500 -150 
Q 1275 -150 2100 -25 
Q 2925 100 3225 275 
L 3225 1600 
Q 3225 1975 3200 2400 
L 3725 2400 
z
M 2600 1875 
Q 2275 1600 1975 1275 
Q 1675 950 1075 400 
Q 875 600 700 725 
Q 1175 1075 1562 1512 
Q 1950 1950 2125 2200 
Q 2325 2025 2600 1875 
z
" transform="scale(0.015625)"/>
      </defs>
      <use xlink:href="#SimHei-65f6"/>
      <use xlink:href="#SimHei-95f4" x="100"/>
      <use xlink:href="#SimHei-6b65" x="200"/>
     </g>
    </g>
   </g>
   <g id="matplotlib.axis_2">
    <g id="ytick_1">
     <g id="line2d_13">
      <path d="M 42.73125 371.946222 
L 848.965 371.946222 
" clip-path="url(#p52470fb123)" style="fill: none; stroke: #b0b0b0; stroke-opacity: 0.3; stroke-width: 0.8; stroke-linecap: square"/>
     </g>
     <g id="line2d_14">
      <defs>
       <path id="m110125bfc4" d="M 0 0 
L -3.5 0 
" style="stroke: #000000; stroke-width: 0.8"/>
      </defs>
      <g>
       <use xlink:href="#m110125bfc4" x="42.73125" y="371.946222" style="stroke: #000000; stroke-width: 0.8"/>
      </g>
     </g>
     <g id="text_8">
      <!-- 0.0 -->
      <g transform="translate(20.73125 375.383722)scale(0.1 -0.1)">
       <defs>
        <path id="SimHei-2e" d="M 1075 125 
L 500 125 
L 500 675 
L 1075 675 
L 1075 125 
z
" transform="scale(0.015625)"/>
       </defs>
       <use xlink:href="#SimHei-30"/>
       <use xlink:href="#SimHei-2e" x="50"/>
       <use xlink:href="#SimHei-30" x="100"/>
      </g>
     </g>
    </g>
    <g id="ytick_2">
     <g id="line2d_15">
      <path d="M 42.73125 305.769858 
L 848.965 305.769858 
" clip-path="url(#p52470fb123)" style="fill: none; stroke: #b0b0b0; stroke-opacity: 0.3; stroke-width: 0.8; stroke-linecap: square"/>
     </g>
     <g id="line2d_16">
      <g>
       <use xlink:href="#m110125bfc4" x="42.73125" y="305.769858" style="stroke: #000000; stroke-width: 0.8"/>
      </g>
     </g>
     <g id="text_9">
      <!-- 0.2 -->
      <g transform="translate(20.73125 309.207358)scale(0.1 -0.1)">
       <use xlink:href="#SimHei-30"/>
       <use xlink:href="#SimHei-2e" x="50"/>
       <use xlink:href="#SimHei-32" x="100"/>
      </g>
     </g>
    </g>
    <g id="ytick_3">
     <g id="line2d_17">
      <path d="M 42.73125 239.593494 
L 848.965 239.593494 
" clip-path="url(#p52470fb123)" style="fill: none; stroke: #b0b0b0; stroke-opacity: 0.3; stroke-width: 0.8; stroke-linecap: square"/>
     </g>
     <g id="line2d_18">
      <g>
       <use xlink:href="#m110125bfc4" x="42.73125" y="239.593494" style="stroke: #000000; stroke-width: 0.8"/>
      </g>
     </g>
     <g id="text_10">
      <!-- 0.4 -->
      <g transform="translate(20.73125 243.030994)scale(0.1 -0.1)">
       <use xlink:href="#SimHei-30"/>
       <use xlink:href="#SimHei-2e" x="50"/>
       <use xlink:href="#SimHei-34" x="100"/>
      </g>
     </g>
    </g>
    <g id="ytick_4">
     <g id="line2d_19">
      <path d="M 42.73125 173.417131 
L 848.965 173.417131 
" clip-path="url(#p52470fb123)" style="fill: none; stroke: #b0b0b0; stroke-opacity: 0.3; stroke-width: 0.8; stroke-linecap: square"/>
     </g>
     <g id="line2d_20">
      <g>
       <use xlink:href="#m110125bfc4" x="42.73125" y="173.417131" style="stroke: #000000; stroke-width: 0.8"/>
      </g>
     </g>
     <g id="text_11">
      <!-- 0.6 -->
      <g transform="translate(20.73125 176.854631)scale(0.1 -0.1)">
       <defs>
        <path id="SimHei-36" d="M 250 1612 
Q 275 1975 387 2225 
Q 500 2475 725 2850 
L 1750 4450 
L 2325 4450 
L 1275 2800 
Q 1950 2975 2350 2750 
Q 2750 2525 2887 2237 
Q 3025 1950 3037 1612 
Q 3050 1275 2937 950 
Q 2825 625 2537 362 
Q 2250 100 1737 75 
Q 1225 50 862 262 
Q 500 475 362 862 
Q 225 1250 250 1612 
z
M 1025 787 
Q 1250 550 1625 525 
Q 2000 500 2250 775 
Q 2500 1050 2500 1575 
Q 2500 2100 2187 2300 
Q 1875 2500 1487 2450 
Q 1100 2400 925 2075 
Q 750 1750 775 1387 
Q 800 1025 1025 787 
z
" transform="scale(0.015625)"/>
       </defs>
       <use xlink:href="#SimHei-30"/>
       <use xlink:href="#SimHei-2e" x="50"/>
       <use xlink:href="#SimHei-36" x="100"/>
      </g>
     </g>
    </g>
    <g id="ytick_5">
     <g id="line2d_21">
      <path d="M 42.73125 107.240767 
L 848.965 107.240767 
" clip-path="url(#p52470fb123)" style="fill: none; stroke: #b0b0b0; stroke-opacity: 0.3; stroke-width: 0.8; stroke-linecap: square"/>
     </g>
     <g id="line2d_22">
      <g>
       <use xlink:href="#m110125bfc4" x="42.73125" y="107.240767" style="stroke: #000000; stroke-width: 0.8"/>
      </g>
     </g>
     <g id="text_12">
      <!-- 0.8 -->
      <g transform="translate(20.73125 110.678267)scale(0.1 -0.1)">
       <defs>
        <path id="SimHei-38" d="M 175 1375 
Q 175 1675 325 1962 
Q 475 2250 825 2425 
Q 525 2600 425 2812 
Q 325 3025 312 3300 
Q 300 3575 387 3775 
Q 475 3975 650 4150 
Q 825 4325 1037 4387 
Q 1250 4450 1500 4450 
Q 1750 4450 1950 4400 
Q 2150 4350 2375 4187 
Q 2600 4025 2700 3725 
Q 2800 3425 2687 3025 
Q 2575 2625 2100 2400 
Q 2525 2275 2700 2012 
Q 2875 1750 2875 1375 
Q 2875 1000 2762 775 
Q 2650 550 2512 400 
Q 2375 250 2137 162 
Q 1900 75 1537 75 
Q 1175 75 912 162 
Q 650 250 475 425 
Q 300 600 237 837 
Q 175 1075 175 1375 
z
M 687 1400 
Q 675 1100 787 875 
Q 900 650 1200 587 
Q 1500 525 1825 600 
Q 2150 675 2275 950 
Q 2400 1225 2362 1500 
Q 2325 1775 2050 1962 
Q 1775 2150 1450 2125 
Q 1125 2100 912 1900 
Q 700 1700 687 1400 
z
M 775 3350 
Q 775 3100 950 2875 
Q 1125 2650 1500 2650 
Q 1875 2650 2062 2875 
Q 2250 3100 2237 3412 
Q 2225 3725 2012 3875 
Q 1800 4025 1437 4000 
Q 1075 3975 925 3787 
Q 775 3600 775 3350 
z
" transform="scale(0.015625)"/>
       </defs>
       <use xlink:href="#SimHei-30"/>
       <use xlink:href="#SimHei-2e" x="50"/>
       <use xlink:href="#SimHei-38" x="100"/>
      </g>
     </g>
    </g>
    <g id="ytick_6">
     <g id="line2d_23">
      <path d="M 42.73125 41.064403 
L 848.965 41.064403 
" clip-path="url(#p52470fb123)" style="fill: none; stroke: #b0b0b0; stroke-opacity: 0.3; stroke-width: 0.8; stroke-linecap: square"/>
     </g>
     <g id="line2d_24">
      <g>
       <use xlink:href="#m110125bfc4" x="42.73125" y="41.064403" style="stroke: #000000; stroke-width: 0.8"/>
      </g>
     </g>
     <g id="text_13">
      <!-- 1.0 -->
      <g transform="translate(20.73125 44.501903)scale(0.1 -0.1)">
       <use xlink:href="#SimHei-31"/>
       <use xlink:href="#SimHei-2e" x="50"/>
       <use xlink:href="#SimHei-30" x="100"/>
      </g>
     </g>
    </g>
    <g id="text_14">
     <!-- 综合质量得分（0~1） -->
     <g transform="translate(15.48125 254.005312)rotate(-90)scale(0.1 -0.1)">
      <defs>
       <path id="SimHei-7efc" d="M 1775 4775 
Q 1600 4525 1350 4062 
Q 1100 3600 825 3050 
L 1525 3050 
Q 1825 3600 1900 3925 
Q 2150 3725 2425 3575 
Q 2250 3425 1950 2887 
Q 1650 2350 1125 1525 
Q 1350 1550 2225 1700 
Q 2150 1450 2125 1225 
Q 1825 1225 1425 1150 
Q 1025 1075 575 950 
Q 500 1225 425 1475 
Q 675 1550 887 1900 
Q 1100 2250 1325 2700 
Q 725 2675 350 2525 
L 200 3025 
Q 500 3200 775 3812 
Q 1050 4425 1200 5025 
Q 1400 4925 1775 4775 
z
M 5250 2025 
Q 5725 2025 6125 2050 
L 6125 1575 
Q 5725 1600 5325 1600 
L 4525 1600 
L 4525 -50 
Q 4525 -475 4287 -562 
Q 4050 -650 3600 -675 
Q 3600 -450 3500 -150 
Q 3800 -175 3925 -150 
Q 4050 -125 4050 100 
L 4050 1600 
L 3350 1600 
Q 2950 1600 2550 1575 
L 2550 2050 
Q 2950 2025 3350 2025 
L 5250 2025 
z
M 4400 5200 
Q 4450 5000 4600 4375 
L 6025 4375 
Q 6000 4150 6000 3850 
Q 6000 3575 6025 3325 
L 5475 3325 
L 5475 3975 
L 3050 3975 
L 3050 3275 
L 2550 3275 
Q 2575 3600 2575 3875 
Q 2575 4150 2550 4375 
L 4025 4375 
Q 3975 4725 3850 5100 
L 4400 5200 
z
M 4750 3050 
Q 5100 3050 5500 3075 
L 5500 2600 
Q 5100 2650 4750 2650 
L 3875 2650 
Q 3475 2650 3075 2600 
L 3075 3075 
Q 3450 3050 3850 3050 
L 4750 3050 
z
M 2200 -275 
Q 2425 -75 2712 325 
Q 3000 725 3175 1100 
Q 3350 950 3625 800 
Q 3425 500 3237 212 
Q 3050 -75 2575 -600 
Q 2375 -425 2200 -275 
z
M 300 125 
Q 875 250 1300 325 
Q 1725 400 2175 525 
Q 2200 300 2225 100 
Q 1975 50 1437 -87 
Q 900 -225 525 -400 
Q 375 -125 300 125 
z
M 5225 1100 
Q 5450 850 6200 25 
Q 5975 -175 5800 -350 
Q 5600 -100 5362 200 
Q 5125 500 4875 775 
Q 5025 950 5225 1100 
z
" transform="scale(0.015625)"/>
       <path id="SimHei-5408" d="M 5050 1800 
Q 5025 1550 5025 650 
Q 5025 -250 5050 -525 
L 4525 -525 
L 4525 -50 
L 1750 -50 
L 1750 -600 
L 1250 -600 
Q 1275 -300 1275 550 
Q 1275 1425 1250 1800 
L 5050 1800 
z
M 3375 4800 
Q 4100 3925 4550 3600 
Q 5000 3275 5375 3100 
Q 5750 2925 6100 2825 
Q 5850 2550 5775 2300 
Q 5275 2525 4875 2775 
Q 4475 3025 4062 3412 
Q 3650 3800 3125 4475 
Q 2650 3800 2187 3362 
Q 1725 2925 1400 2675 
Q 1075 2425 675 2175 
Q 625 2275 275 2575 
Q 800 2825 1275 3175 
Q 1750 3525 2225 4062 
Q 2700 4600 3000 5225 
Q 3275 5050 3500 4950 
L 3375 4800 
z
M 4525 350 
L 4525 1400 
L 1750 1400 
L 1750 350 
L 4525 350 
z
M 3925 2825 
Q 4325 2825 4625 2850 
L 4625 2375 
Q 4300 2400 3950 2400 
L 2550 2400 
Q 2025 2400 1700 2375 
L 1700 2850 
Q 2175 2825 2550 2825 
L 3925 2825 
z
" transform="scale(0.015625)"/>
       <path id="SimHei-8d28" d="M 1700 3700 
Q 2125 3675 2550 3675 
L 3400 3675 
L 3400 4325 
Q 1875 4250 1575 4250 
L 1575 3675 
Q 1550 2525 1525 1962 
Q 1500 1400 1387 837 
Q 1275 275 875 -450 
Q 650 -300 300 -225 
Q 700 300 850 862 
Q 1000 1425 1037 2325 
Q 1075 3225 1075 3725 
Q 1075 4250 1050 4650 
Q 1775 4650 2437 4675 
Q 3100 4700 3900 4775 
Q 4700 4850 5275 5075 
Q 5325 4825 5600 4500 
Q 5300 4500 4912 4462 
Q 4525 4425 3875 4375 
L 3875 3675 
L 5125 3675 
Q 5475 3675 5900 3700 
L 5900 3225 
Q 5525 3250 5125 3250 
L 3875 3250 
L 3875 2600 
L 5425 2600 
Q 5400 2175 5400 1750 
Q 5400 1325 5425 900 
L 4900 900 
L 4900 2200 
L 2575 2200 
L 2575 750 
L 2075 750 
Q 2100 1225 2100 1700 
Q 2100 2175 2075 2600 
L 3400 2600 
L 3400 3250 
L 2550 3250 
Q 2125 3250 1700 3225 
L 1700 3700 
z
M 4000 1800 
Q 3900 1400 3837 912 
Q 3775 425 3262 25 
Q 2750 -375 1875 -650 
Q 1825 -450 1525 -250 
Q 2225 -75 2637 150 
Q 3050 375 3225 687 
Q 3400 1000 3425 1350 
Q 3450 1700 3425 1875 
Q 3725 1850 4000 1800 
z
M 4250 850 
Q 4650 650 5137 375 
Q 5625 100 6000 -175 
Q 5850 -300 5675 -575 
Q 5125 -125 4000 425 
Q 4150 675 4250 850 
z
" transform="scale(0.015625)"/>
       <path id="SimHei-91cf" d="M 5250 2500 
Q 5225 2200 5225 1700 
Q 5225 1225 5250 950 
L 3425 950 
L 3425 625 
L 4575 625 
Q 5000 625 5375 650 
L 5375 275 
Q 5025 300 4575 300 
L 3425 300 
L 3425 -75 
L 5125 -75 
Q 5525 -75 5925 -50 
L 5925 -425 
Q 5525 -400 5125 -400 
L 1275 -400 
Q 900 -400 475 -425 
L 475 -50 
Q 925 -50 1275 -75 
L 2975 -75 
L 2975 300 
L 1725 300 
Q 1350 300 975 250 
L 975 650 
Q 1375 625 1725 625 
L 2975 625 
L 2975 950 
L 1150 950 
Q 1175 1375 1175 1775 
Q 1175 2175 1150 2500 
L 5250 2500 
z
M 5200 4950 
Q 5175 4575 5175 4250 
Q 5175 3925 5200 3400 
L 1200 3400 
Q 1225 3925 1225 4250 
Q 1225 4575 1200 4950 
L 5200 4950 
z
M 4900 3100 
Q 5500 3125 6000 3150 
L 6000 2750 
Q 5500 2775 4925 2775 
L 1650 2775 
Q 975 2775 325 2750 
L 325 3150 
Q 975 3125 1650 3100 
L 4900 3100 
z
M 4725 3700 
L 4725 4025 
L 1675 4025 
L 1675 3700 
L 4725 3700 
z
M 4725 4350 
L 4725 4650 
L 1675 4650 
L 1675 4350 
L 4725 4350 
z
M 4750 1875 
L 4750 2175 
L 3425 2175 
L 3425 1875 
L 4750 1875 
z
M 2975 1875 
L 2975 2175 
L 1650 2175 
L 1650 1875 
L 2975 1875 
z
M 2975 1275 
L 2975 1550 
L 1650 1550 
L 1650 1275 
L 2975 1275 
z
M 4750 1275 
L 4750 1550 
L 3425 1550 
L 3425 1275 
L 4750 1275 
z
" transform="scale(0.015625)"/>
       <path id="SimHei-5f97" d="M 5575 4975 
Q 5550 4625 5550 3950 
Q 5550 3300 5575 2900 
L 2675 2900 
Q 2700 3300 2700 3950 
Q 2700 4600 2675 4975 
L 5575 4975 
z
M 1950 1625 
Q 2400 1600 2950 1600 
L 4775 1600 
L 4775 2100 
L 3125 2100 
Q 2700 2100 2325 2075 
L 2325 2500 
Q 2700 2475 3125 2475 
L 5000 2475 
Q 5525 2475 5900 2500 
L 5900 2075 
Q 5575 2100 5225 2100 
L 5225 1600 
Q 5675 1600 6075 1625 
L 6075 1175 
Q 5700 1200 5225 1200 
L 5225 250 
Q 5250 -275 4950 -400 
Q 4650 -525 4175 -600 
Q 4125 -350 3975 -25 
Q 4550 -25 4675 62 
Q 4800 150 4775 425 
L 4775 1200 
L 2950 1200 
Q 2400 1200 1950 1175 
L 1950 1625 
z
M 1150 -550 
Q 1175 125 1175 575 
L 1175 2075 
Q 950 1825 625 1500 
Q 475 1750 275 1925 
Q 775 2300 1150 2775 
Q 1525 3250 1800 3775 
Q 2000 3600 2275 3450 
Q 2050 3150 1625 2575 
L 1625 575 
Q 1625 125 1650 -550 
L 1150 -550 
z
M 2150 4875 
Q 1450 4000 825 3375 
Q 675 3575 475 3750 
Q 1175 4325 1700 5200 
Q 1900 5025 2150 4875 
z
M 5100 3300 
L 5100 3775 
L 3150 3775 
L 3150 3300 
L 5100 3300 
z
M 5100 4150 
L 5100 4600 
L 3150 4600 
L 3150 4150 
L 5100 4150 
z
M 2950 1050 
Q 3325 525 3550 175 
Q 3375 75 3100 -125 
Q 2950 275 2575 750 
Q 2800 900 2950 1050 
z
" transform="scale(0.015625)"/>
       <path id="SimHei-5206" d="M 1000 -650 
Q 825 -375 575 -225 
Q 975 -75 1300 137 
Q 1625 350 1875 662 
Q 2125 975 2250 1350 
Q 2375 1725 2425 2275 
Q 1850 2275 1500 2250 
L 1500 2775 
Q 1900 2750 2525 2750 
L 5025 2750 
Q 4975 2375 4950 2100 
L 4750 250 
Q 4700 -200 4350 -350 
Q 4000 -500 3575 -525 
Q 3550 -275 3325 50 
Q 3850 25 4037 87 
Q 4225 150 4275 525 
L 4450 2275 
L 2950 2275 
Q 2875 1625 2737 1187 
Q 2600 750 2350 425 
Q 2100 100 1750 -175 
Q 1400 -450 1000 -650 
z
M 3950 5175 
Q 4125 4650 4662 3975 
Q 5200 3300 6175 2800 
Q 5975 2625 5775 2275 
Q 5325 2600 4987 2887 
Q 4650 3175 4425 3425 
Q 4200 3675 3925 4137 
Q 3650 4600 3475 5000 
Q 3750 5075 3950 5175 
z
M 2700 4825 
Q 2475 4425 2325 4125 
Q 2175 3825 2025 3587 
Q 1875 3350 1575 2950 
Q 1275 2550 850 2125 
Q 625 2350 400 2475 
Q 900 2925 1187 3300 
Q 1475 3675 1737 4112 
Q 2000 4550 2200 5075 
Q 2400 4925 2700 4825 
z
" transform="scale(0.015625)"/>
       <path id="SimHei-ff08" d="M 5425 5100 
L 5700 4775 
Q 4275 3725 4325 2350 
Q 4350 1025 5675 50 
L 5400 -275 
Q 3875 825 3925 2500 
Q 3925 3875 5425 5100 
z
" transform="scale(0.015625)"/>
       <path id="SimHei-7e" d="M 2900 5075 
Q 2750 4725 2562 4487 
Q 2375 4250 2125 4250 
Q 1950 4250 1625 4575 
Q 1300 4900 1075 4900 
Q 900 4900 800 4762 
Q 700 4625 600 4325 
L 350 4600 
Q 500 4950 662 5187 
Q 825 5425 1050 5425 
Q 1325 5425 1662 5112 
Q 2000 4800 2175 4800 
Q 2275 4800 2425 4950 
Q 2575 5100 2650 5400 
L 2900 5075 
z
" transform="scale(0.015625)"/>
       <path id="SimHei-ff09" d="M 1000 5100 
Q 2500 3875 2500 2500 
Q 2550 825 1025 -275 
L 750 50 
Q 2075 1025 2100 2350 
Q 2150 3725 725 4775 
L 1000 5100 
z
" transform="scale(0.015625)"/>
      </defs>
      <use xlink:href="#SimHei-7efc"/>
      <use xlink:href="#SimHei-5408" x="100"/>
      <use xlink:href="#SimHei-8d28" x="200"/>
      <use xlink:href="#SimHei-91cf" x="300"/>
      <use xlink:href="#SimHei-5f97" x="400"/>
      <use xlink:href="#SimHei-5206" x="500"/>
      <use xlink:href="#SimHei-ff08" x="600"/>
      <use xlink:href="#SimHei-30" x="700"/>
      <use xlink:href="#SimHei-7e" x="750"/>
      <use xlink:href="#SimHei-31" x="800"/>
      <use xlink:href="#SimHei-ff09" x="850"/>
     </g>
    </g>
   </g>
   <g id="line2d_25">
    <path d="M 79.378239 215.811644 
L 80.847056 212.630299 
L 82.315873 275.729585 
L 83.78469 307.055796 
L 85.253507 272.952584 
L 86.722325 289.225974 
L 88.191142 364.439751 
L 89.659959 351.592837 
L 91.128776 313.432479 
L 92.597593 356.829568 
L 94.06641 336.003088 
L 95.535228 339.527461 
L 97.004045 368.143306 
L 98.472862 303.043733 
L 99.941679 299.180801 
L 101.410496 325.736276 
L 102.879314 299.525962 
L 104.348131 341.617911 
L 105.816948 293.048371 
L 107.285765 248.605387 
L 108.754582 348.595522 
L 110.223399 271.016795 
L 111.692217 268.412725 
L 113.161034 194.535558 
L 114.629851 214.154447 
L 116.098668 217.841915 
L 117.567485 153.531965 
L 119.036302 176.791151 
L 120.50512 135.147793 
L 121.973937 131.122839 
L 123.442754 94.73079 
L 124.911571 179.246342 
L 126.380388 91.07219 
L 127.849206 52.319383 
L 129.318023 103.17192 
L 130.78684 46.340986 
L 132.255657 72.58772 
L 133.724474 47.132177 
L 135.193291 44.935446 
L 136.662109 80.238369 
L 138.130926 83.224717 
L 139.599743 76.626142 
L 141.06856 68.574606 
L 142.537377 74.774081 
L 144.006195 79.263832 
L 145.475012 100.835982 
L 146.943829 117.892688 
L 148.412646 187.394257 
L 149.881463 179.888894 
L 151.35028 135.383863 
L 152.819098 215.583284 
L 154.287915 212.032146 
L 155.756732 222.591707 
L 157.225549 285.371751 
L 158.694366 310.958824 
L 160.163184 328.956051 
L 161.632001 276.678643 
L 163.100818 317.699753 
L 164.569635 337.634677 
L 166.038452 371.946222 
L 167.507269 329.092744 
L 168.976087 336.808563 
L 170.444904 319.31251 
L 171.913721 314.9922 
L 173.382538 360.18469 
L 174.851355 371.093381 
L 176.320173 348.118121 
L 177.78899 367.658769 
L 179.257807 350.126736 
L 180.726624 288.626054 
L 182.195441 301.183174 
L 183.664258 317.505728 
L 185.133076 253.987554 
L 186.601893 298.391351 
L 188.07071 134.51635 
L 189.539527 242.400599 
L 192.477161 150.239989 
L 193.945979 164.210614 
L 195.414796 65.687427 
L 196.883613 107.322422 
L 198.35243 113.79102 
L 199.821247 138.068214 
L 201.290065 53.884561 
L 202.758882 44.084304 
L 204.227699 42.662934 
L 205.696516 89.474093 
L 207.165333 74.673636 
L 208.63415 43.802749 
L 210.102968 82.784354 
L 211.571785 74.876756 
L 213.040602 116.992204 
L 214.509419 54.934336 
L 215.978236 78.250934 
L 217.447054 97.35661 
L 218.915871 75.277231 
L 220.384688 146.104672 
L 221.853505 163.434318 
L 223.322322 178.411042 
L 224.791139 182.809941 
L 226.259957 155.409762 
L 227.728774 217.46651 
L 229.197591 231.301087 
L 230.666408 230.091926 
L 232.135225 274.02017 
L 233.604043 301.673314 
L 235.07286 370.276545 
L 236.541677 327.261203 
L 238.010494 354.708983 
L 239.479311 334.674846 
L 240.948128 284.113427 
L 242.416946 355.749782 
L 243.885763 352.225726 
L 245.35458 371.932593 
L 246.823397 332.213733 
L 248.292214 346.730116 
L 249.761031 334.971961 
L 251.229849 289.304866 
L 252.698666 355.55777 
L 254.167483 327.867634 
L 255.6363 322.520402 
L 257.105117 247.621282 
L 258.573935 288.912706 
L 260.042752 189.476765 
L 261.511569 224.737501 
L 262.980386 272.095607 
L 264.449203 160.943763 
L 265.91802 144.145851 
L 267.386838 149.06061 
L 268.855655 103.302336 
L 270.324472 73.297293 
L 271.793289 97.601415 
L 273.262106 57.059596 
L 274.730924 93.747679 
L 276.199741 52.003781 
L 277.668558 128.540074 
L 279.137375 44.623117 
L 280.606192 47.122468 
L 282.075009 84.255384 
L 283.543827 53.462969 
L 285.012644 79.916261 
L 286.481461 101.882875 
L 287.950278 42.938436 
L 289.419095 107.845097 
L 290.887913 119.942497 
L 292.35673 147.945897 
L 293.825547 115.26657 
L 295.294364 107.300495 
L 296.763181 189.682453 
L 298.231998 192.222963 
L 299.700816 205.130957 
L 301.169633 237.340626 
L 302.63845 228.618106 
L 304.107267 284.482056 
L 305.576084 274.479254 
L 307.044902 277.418039 
L 308.513719 369.020496 
L 309.982536 338.222837 
L 311.451353 298.3398 
L 312.92017 363.665315 
L 314.388987 314.346855 
L 315.857805 370.075723 
L 317.326622 371.946222 
L 318.795439 330.845345 
L 320.264256 367.654702 
L 321.733073 356.29756 
L 323.20189 370.387234 
L 324.670708 360.039695 
L 326.139525 323.815373 
L 327.608342 271.50873 
L 329.077159 250.960314 
L 330.545976 260.853061 
L 333.483611 252.736699 
L 334.952428 229.112991 
L 336.421245 229.106123 
L 337.890062 185.340252 
L 339.358879 192.00646 
L 340.827697 127.878165 
L 342.296514 211.961153 
L 343.765331 129.92563 
L 345.234148 77.830289 
L 346.702965 57.672262 
L 348.171783 90.62979 
L 349.6406 73.777045 
L 351.109417 78.839221 
L 352.578234 78.767449 
L 354.047051 54.04641 
L 355.515868 42.645925 
L 356.984686 43.200998 
L 358.453503 50.657986 
L 359.92232 97.188928 
L 361.391137 95.616442 
L 362.859954 55.656994 
L 364.328772 112.330883 
L 365.797589 136.250092 
L 367.266406 115.600776 
L 368.735223 170.974227 
L 370.20404 172.503235 
L 371.672857 160.778262 
L 373.141675 228.731209 
L 374.610492 245.325902 
L 376.079309 293.130774 
L 377.548126 310.394593 
L 379.016943 248.080289 
L 380.48576 268.315749 
L 381.954578 336.986125 
L 383.423395 325.898812 
L 384.892212 362.312495 
L 386.361029 361.421348 
L 387.829846 362.555898 
L 389.298664 371.946222 
L 390.767481 371.946222 
L 392.236298 363.741761 
L 393.705115 343.390947 
L 395.173932 359.596017 
L 396.642749 311.513749 
L 398.111567 320.128865 
L 399.580384 298.462276 
L 401.049201 307.0556 
L 402.518018 361.828106 
L 403.986835 219.495232 
L 405.455653 279.91036 
L 406.92447 178.468371 
L 408.393287 207.329854 
L 409.862104 231.660276 
L 411.330921 185.370567 
L 412.799738 123.609435 
L 414.268556 120.752185 
L 415.737373 147.591375 
L 417.20619 90.089572 
L 418.675007 116.349458 
L 420.143824 86.647755 
L 421.612642 64.492386 
L 423.081459 134.339514 
L 424.550276 84.704219 
L 426.019093 44.550847 
L 427.48791 61.930594 
L 428.956727 44.312257 
L 430.425545 80.225748 
L 431.894362 54.344172 
L 433.363179 81.541679 
L 434.831996 106.324823 
L 436.300813 123.603845 
L 437.769631 66.291114 
L 439.238448 118.605928 
L 440.707265 123.393181 
L 442.176082 139.41007 
L 443.644899 240.939172 
L 445.113716 215.524795 
L 446.582534 192.493807 
L 448.051351 274.26162 
L 449.520168 330.069532 
L 450.988985 303.388801 
L 452.457802 240.201537 
L 453.926619 263.731662 
L 455.395437 354.934697 
L 456.864254 297.830698 
L 458.333071 349.450822 
L 459.801888 362.260119 
L 461.270705 319.611739 
L 462.739523 347.418514 
L 464.20834 233.892398 
L 465.677157 324.845326 
L 467.145974 336.444172 
L 468.614791 312.311206 
L 470.083608 364.692724 
L 471.552426 269.803896 
L 473.021243 302.412947 
L 474.49006 291.697322 
L 475.958877 328.361857 
L 477.427694 217.982808 
L 478.896512 287.968148 
L 480.365329 223.964383 
L 481.834146 180.033819 
L 483.302963 225.006199 
L 484.77178 190.215974 
L 486.240597 140.807482 
L 487.709415 146.20564 
L 489.178232 112.483684 
L 490.647049 119.850933 
L 492.115866 126.269411 
L 493.584683 137.917069 
L 495.053501 41.064403 
L 496.522318 133.407874 
L 497.991135 45.887176 
L 499.459952 47.835318 
L 500.928769 74.012862 
L 502.397586 66.694003 
L 503.866404 52.443607 
L 505.335221 66.527117 
L 506.804038 57.636316 
L 508.272855 65.469725 
L 509.741672 130.96211 
L 511.21049 130.635302 
L 512.679307 99.422313 
L 514.148124 176.955029 
L 515.616941 167.032609 
L 517.085758 202.801835 
L 518.554575 220.216511 
L 520.023393 178.586065 
L 521.49221 226.795027 
L 522.961027 281.590363 
L 524.429844 297.686209 
L 525.898661 295.776895 
L 527.367478 310.339808 
L 528.836296 356.330822 
L 530.305113 308.19197 
L 531.77393 354.996802 
L 533.242747 340.50186 
L 534.711564 346.5827 
L 536.180382 370.132334 
L 537.649199 357.634577 
L 539.118016 367.087984 
L 540.586833 365.544623 
L 542.05565 358.584788 
L 543.524467 361.765253 
L 544.993285 312.824987 
L 546.462102 325.009201 
L 547.930919 287.714814 
L 549.399736 290.313952 
L 550.868553 279.927415 
L 552.337371 209.229913 
L 553.806188 302.392524 
L 555.275005 181.874202 
L 556.743822 147.239202 
L 558.212639 210.526208 
L 559.681456 182.379255 
L 561.150274 166.029704 
L 562.619091 145.932347 
L 564.087908 111.320503 
L 565.556725 69.202471 
L 567.025542 93.103373 
L 568.49436 55.381395 
L 569.963177 100.927537 
L 571.431994 53.380875 
L 572.900811 48.828012 
L 574.369628 56.243083 
L 575.838445 71.538252 
L 577.307263 46.188741 
L 578.77608 43.493808 
L 580.244897 84.647217 
L 581.713714 108.089464 
L 583.182531 78.50014 
L 584.651348 97.657404 
L 586.120166 135.498879 
L 587.588983 91.273506 
L 589.0578 103.297331 
L 590.526617 157.947525 
L 591.995434 194.573712 
L 593.464252 234.758061 
L 594.933069 286.265147 
L 596.401886 290.129918 
L 597.870703 258.142923 
L 599.33952 279.361095 
L 600.808337 275.945498 
L 602.277155 316.184428 
L 603.745972 317.159995 
L 605.214789 354.509924 
L 606.683606 314.650719 
L 608.152423 366.95829 
L 609.621241 369.263404 
L 611.090058 337.213871 
L 612.558875 358.294562 
L 614.027692 367.630397 
L 615.496509 337.280724 
L 616.965326 335.296583 
L 618.434144 317.083952 
L 619.902961 315.8306 
L 621.371778 263.799434 
L 622.840595 286.672612 
L 624.309412 288.850775 
L 625.77823 301.358061 
L 627.247047 262.317965 
L 628.715864 278.241578 
L 630.184681 149.422151 
L 631.653498 205.938244 
L 633.122315 159.946136 
L 634.591133 217.52161 
L 636.05995 90.822683 
L 637.528767 56.544481 
L 638.997584 68.332191 
L 640.466401 48.185138 
L 641.935219 52.731178 
L 643.404036 41.183281 
L 644.872853 52.654906 
L 646.34167 67.492952 
L 647.810487 123.504072 
L 649.279304 88.069789 
L 650.748122 43.674002 
L 652.216939 41.3596 
L 653.685756 87.320318 
L 655.154573 46.370875 
L 656.62339 155.875778 
L 658.092207 147.636802 
L 659.561025 121.26189 
L 661.029842 88.97389 
L 662.498659 207.985846 
L 663.967476 170.360895 
L 665.436293 250.359557 
L 666.905111 164.033518 
L 668.373928 222.790332 
L 669.842745 252.842782 
L 671.311562 268.150274 
L 672.780379 272.225067 
L 674.249196 326.242492 
L 675.718014 296.417158 
L 677.186831 322.366844 
L 678.655648 342.728894 
L 680.124465 351.741223 
L 681.593282 365.094912 
L 683.0621 309.658798 
L 684.530917 299.330506 
L 685.999734 360.502444 
L 687.468551 365.651506 
L 688.937368 321.703708 
L 690.406185 367.807921 
L 691.875003 329.288944 
L 693.34382 353.176682 
L 694.812637 301.73366 
L 696.281454 347.390871 
L 697.750271 327.558277 
L 699.219089 240.403775 
L 700.687906 263.556057 
L 702.156723 216.586596 
L 703.62554 248.904197 
L 705.094357 151.802936 
L 706.563174 175.966795 
L 708.031992 162.081857 
L 709.500809 58.91692 
L 710.969626 76.657069 
L 712.438443 41.064403 
L 713.90726 81.902209 
L 715.376077 112.582286 
L 716.844895 105.729619 
L 718.313712 74.331556 
L 719.782529 116.19126 
L 721.251346 41.064403 
L 722.720163 41.064403 
L 724.188981 64.734189 
L 725.657798 92.566801 
L 727.126615 73.462154 
L 728.595432 42.402865 
L 730.064249 101.461829 
L 731.533066 61.327366 
L 733.001884 160.627679 
L 734.470701 170.374692 
L 735.939518 134.630548 
L 737.408335 165.111352 
L 738.877152 164.836106 
L 740.34597 231.152405 
L 741.814787 268.65738 
L 743.283604 238.796347 
L 744.752421 289.783201 
L 746.221238 275.606291 
L 747.690055 273.160646 
L 749.158873 323.54473 
L 750.62769 283.407595 
L 752.096507 317.594223 
L 753.565324 302.180171 
L 755.034141 366.235695 
L 756.502959 345.716079 
L 757.971776 327.987364 
L 759.440593 351.350337 
L 760.90941 346.072219 
L 762.378227 324.685686 
L 763.847044 358.78937 
L 765.315862 335.193478 
L 766.784679 288.812517 
L 768.253496 281.568948 
L 769.722313 263.331996 
L 771.19113 199.937363 
L 772.659948 184.134158 
L 774.128765 278.918764 
L 775.597582 266.606307 
L 777.066399 193.725921 
L 778.535216 191.116858 
L 780.004033 172.893301 
L 781.472851 250.858976 
L 782.941668 150.991535 
L 784.410485 99.758026 
L 785.879302 65.17694 
L 787.348119 50.667997 
L 788.816936 76.814093 
L 790.285754 41.086754 
L 791.754571 48.250937 
L 793.223388 41.064403 
L 794.692205 41.259531 
L 796.161022 117.125127 
L 797.62984 97.396377 
L 799.098657 70.600007 
L 800.567474 141.025227 
L 802.036291 91.921327 
L 803.505108 77.360145 
L 804.973925 172.293663 
L 806.442743 150.838819 
L 807.91156 106.741065 
L 809.380377 159.452731 
L 810.849194 163.615304 
L 812.318011 159.338951 
L 812.318011 159.338951 
" clip-path="url(#p52470fb123)" style="fill: none; stroke: #003366; stroke-width: 1.5; stroke-linecap: square"/>
   </g>
   <g id="line2d_26">
    <path d="M 79.378239 179.63544 
L 80.847056 185.325018 
L 82.315873 149.360391 
L 83.78469 110.171332 
L 85.253507 145.486933 
L 86.722325 120.643707 
L 88.191142 47.624551 
L 89.659959 61.747636 
L 91.128776 89.730947 
L 92.597593 52.917597 
L 94.06641 77.064536 
L 95.535228 79.647716 
L 97.004045 46.250627 
L 98.472862 125.706721 
L 99.941679 102.685383 
L 101.410496 85.259386 
L 102.879314 107.290275 
L 104.348131 74.446288 
L 105.816948 121.19675 
L 107.285765 154.451457 
L 108.754582 70.164412 
L 110.223399 144.608843 
L 111.692217 145.015325 
L 113.161034 210.905785 
L 114.629851 202.115322 
L 116.098668 199.645286 
L 117.567485 258.422745 
L 119.036302 228.177667 
L 120.50512 276.601347 
L 121.973937 296.883648 
L 123.442754 308.5677 
L 124.911571 260.185567 
L 126.380388 319.334751 
L 127.849206 360.138954 
L 129.318023 314.165471 
L 130.78684 353.049941 
L 132.255657 351.691178 
L 133.724474 371.946222 
L 135.193291 368.541816 
L 136.662109 344.895451 
L 138.130926 316.336174 
L 139.599743 339.42838 
L 141.06856 329.014992 
L 142.537377 330.364147 
L 144.006195 361.430474 
L 145.475012 302.996841 
L 146.943829 290.336811 
L 148.412646 233.805306 
L 149.881463 223.232393 
L 151.35028 275.104944 
L 152.819098 192.191587 
L 154.287915 197.620619 
L 155.756732 188.498553 
L 157.225549 127.360516 
L 158.694366 110.385129 
L 160.163184 91.598668 
L 161.632001 131.399386 
L 163.100818 90.917387 
L 164.569635 61.921283 
L 166.038452 43.363707 
L 167.507269 73.132285 
L 168.976087 83.409048 
L 170.444904 85.766947 
L 171.913721 107.678234 
L 173.382538 43.312999 
L 174.851355 50.611175 
L 176.320173 95.003677 
L 177.78899 45.4882 
L 179.257807 80.119272 
L 180.726624 124.058844 
L 183.664258 82.735373 
L 185.133076 155.050079 
L 186.601893 131.079414 
L 188.07071 271.61311 
L 189.539527 190.030609 
L 191.008344 234.350018 
L 192.477161 256.045805 
L 193.945979 252.630005 
L 195.414796 342.278837 
L 196.883613 308.372281 
L 198.35243 299.279535 
L 199.821247 276.928915 
L 201.290065 342.073175 
L 202.758882 367.331479 
L 204.227699 365.532159 
L 205.696516 318.216846 
L 207.165333 345.954599 
L 208.63415 367.868848 
L 210.102968 331.831935 
L 211.571785 339.387258 
L 213.040602 308.516727 
L 214.509419 346.800286 
L 215.978236 334.142749 
L 217.447054 309.019748 
L 218.915871 342.968323 
L 220.384688 264.734349 
L 221.853505 266.445214 
L 223.322322 238.980606 
L 224.791139 225.59666 
L 226.259957 240.673659 
L 227.728774 220.752219 
L 229.197591 170.492345 
L 230.666408 174.046016 
L 232.135225 132.253692 
L 233.604043 104.233968 
L 235.07286 44.044394 
L 236.541677 89.105662 
L 238.010494 76.041428 
L 239.479311 54.775411 
L 240.948128 127.720081 
L 242.416946 58.998487 
L 243.885763 49.542787 
L 245.35458 44.380459 
L 246.823397 64.90031 
L 248.292214 56.269513 
L 249.761031 60.276738 
L 251.229849 123.930123 
L 252.698666 66.257251 
L 254.167483 80.569574 
L 255.6363 80.639662 
L 257.105117 157.632508 
L 258.573935 106.682934 
L 260.042752 227.558042 
L 261.511569 162.547342 
L 262.980386 145.560811 
L 264.449203 260.658646 
L 265.91802 270.612401 
L 267.386838 260.636645 
L 268.855655 293.82025 
L 270.324472 345.598298 
L 271.793289 306.927189 
L 273.262106 343.617277 
L 274.730924 317.506088 
L 276.199741 371.946222 
L 277.668558 295.154718 
L 279.137375 364.229682 
L 280.606192 361.713084 
L 282.075009 329.159076 
L 283.543827 367.036811 
L 285.012644 341.948993 
L 286.481461 282.495887 
L 287.950278 371.16558 
L 289.419095 308.7855 
L 290.887913 298.546514 
L 292.35673 259.655493 
L 293.825547 324.940224 
L 295.294364 310.035235 
L 296.763181 211.082713 
L 298.231998 218.603345 
L 299.700816 201.085833 
L 301.169633 177.86836 
L 302.63845 184.30504 
L 304.107267 145.377594 
L 305.576084 111.883658 
L 307.044902 130.353873 
L 308.513719 46.575168 
L 309.982536 59.743904 
L 311.451353 109.576407 
L 312.92017 48.449902 
L 314.388987 113.324513 
L 315.857805 42.017143 
L 317.326622 49.685358 
L 318.795439 90.550042 
L 320.264256 41.064403 
L 321.733073 48.08527 
L 323.20189 46.073404 
L 324.670708 45.555797 
L 326.139525 100.897217 
L 327.608342 126.521544 
L 329.077159 143.702309 
L 330.545976 167.228898 
L 332.014794 157.949318 
L 333.483611 166.012302 
L 334.952428 190.523788 
L 336.421245 178.950137 
L 337.890062 244.02112 
L 339.358879 200.780177 
L 340.827697 277.699195 
L 342.296514 201.94006 
L 343.765331 280.248528 
L 345.234148 335.271717 
L 346.702965 353.487405 
L 348.171783 324.310598 
L 349.6406 362.085098 
L 351.109417 318.348998 
L 352.578234 346.558139 
L 354.047051 361.937032 
L 355.515868 368.53368 
L 356.984686 369.998806 
L 358.453503 362.442283 
L 359.92232 317.926162 
L 361.391137 322.937011 
L 362.859954 358.702609 
L 364.328772 303.327036 
L 365.797589 270.785499 
L 367.266406 301.159139 
L 368.735223 241.872242 
L 370.20404 234.329584 
L 371.672857 246.398911 
L 373.141675 180.8104 
L 374.610492 166.022711 
L 376.079309 123.678898 
L 377.548126 113.402821 
L 379.016943 174.624114 
L 380.48576 140.687743 
L 381.954578 79.875509 
L 383.423395 74.659517 
L 384.892212 71.360121 
L 386.361029 42.00971 
L 387.829846 58.099686 
L 389.298664 45.363211 
L 390.767481 49.005558 
L 392.236298 45.743522 
L 393.705115 77.315225 
L 395.173932 45.07122 
L 396.642749 103.158323 
L 398.111567 90.560843 
L 399.580384 109.917173 
L 401.049201 97.023968 
L 402.518018 56.128716 
L 403.986835 205.730688 
L 405.455653 133.27673 
L 406.92447 230.476465 
L 408.393287 215.708453 
L 409.862104 173.275213 
L 411.330921 224.674085 
L 412.799738 292.88458 
L 414.268556 294.664983 
L 415.737373 246.022099 
L 417.20619 329.868362 
L 418.675007 309.056935 
L 420.143824 329.899184 
L 421.612642 342.027737 
L 423.081459 280.109554 
L 424.550276 317.42173 
L 426.019093 361.490482 
L 427.48791 353.200339 
L 428.956727 368.416231 
L 430.425545 312.202709 
L 431.894362 371.298786 
L 433.363179 346.25789 
L 434.831996 304.003424 
L 436.300813 300.250741 
L 437.769631 339.606116 
L 439.238448 306.359888 
L 440.707265 289.420988 
L 442.176082 281.870152 
L 443.644899 175.699271 
L 445.113716 205.193876 
L 446.582534 238.487549 
L 448.051351 138.630908 
L 449.520168 108.69177 
L 450.988985 108.757583 
L 452.457802 174.148867 
L 453.926619 134.069456 
L 455.395437 43.695273 
L 456.864254 106.599898 
L 459.801888 45.278747 
L 461.270705 87.45283 
L 462.739523 58.985608 
L 464.20834 155.534991 
L 465.677157 104.448629 
L 467.145974 68.8687 
L 468.614791 118.448097 
L 470.083608 47.639477 
L 471.552426 137.513155 
L 474.49006 101.785473 
L 475.958877 71.311756 
L 477.427694 187.35732 
L 478.896512 133.664301 
L 480.365329 182.489308 
L 481.834146 224.705961 
L 483.302963 207.064699 
L 484.77178 214.603043 
L 486.240597 274.998272 
L 487.709415 265.328337 
L 489.178232 301.51429 
L 490.647049 301.619145 
L 492.115866 297.193477 
L 493.584683 262.356987 
L 495.053501 366.010808 
L 496.522318 277.988624 
L 497.991135 370.417346 
L 499.459952 362.398946 
L 500.928769 333.167508 
L 502.397586 352.253201 
L 503.866404 366.141204 
L 505.335221 346.066187 
L 506.804038 328.635826 
L 508.272855 347.94673 
L 509.741672 283.990343 
L 511.21049 288.028812 
L 512.679307 304.407061 
L 514.148124 234.971307 
L 515.616941 235.839136 
L 517.085758 199.499862 
L 518.554575 198.52257 
L 520.023393 224.068548 
L 521.49221 190.433399 
L 522.961027 136.707565 
L 524.429844 122.819945 
L 525.898661 118.06477 
L 527.367478 103.620588 
L 528.836296 53.178771 
L 530.305113 105.783176 
L 531.77393 52.055998 
L 533.242747 68.066212 
L 534.711564 67.688072 
L 536.180382 42.003705 
L 537.649199 45.423783 
L 539.118016 41.064403 
L 540.586833 41.064403 
L 542.05565 75.906499 
L 543.524467 58.400415 
L 544.993285 99.699662 
L 546.462102 96.985662 
L 547.930919 127.572082 
L 549.399736 124.361632 
L 550.868553 118.098581 
L 552.337371 185.845796 
L 553.806188 104.063616 
L 555.275005 235.15815 
L 556.743822 269.889593 
L 558.212639 208.333244 
L 559.681456 230.020436 
L 561.150274 254.823502 
L 562.619091 263.211135 
L 564.087908 297.512504 
L 565.556725 336.249335 
L 567.025542 335.918302 
L 568.49436 354.002557 
L 569.963177 312.87249 
L 571.431994 353.737221 
L 572.900811 367.435338 
L 574.369628 367.400584 
L 575.838445 343.547917 
L 577.307263 369.168707 
L 578.77608 367.774173 
L 580.244897 325.315081 
L 581.713714 310.304999 
L 583.182531 326.314567 
L 584.651348 313.462556 
L 586.120166 284.549051 
L 587.588983 331.359206 
L 590.526617 262.145961 
L 591.995434 221.59634 
L 593.464252 185.777897 
L 594.933069 134.484546 
L 596.401886 123.749713 
L 597.870703 144.881687 
L 599.33952 122.396847 
L 600.808337 156.616901 
L 602.277155 100.657451 
L 603.745972 85.917767 
L 605.214789 79.446771 
L 606.683606 89.440329 
L 608.152423 47.016007 
L 609.621241 45.540143 
L 611.090058 61.81341 
L 612.558875 49.61133 
L 614.027692 43.146522 
L 615.496509 82.983425 
L 616.965326 71.614851 
L 618.434144 100.081484 
L 619.902961 105.103287 
L 621.371778 142.341589 
L 624.309412 119.478359 
L 625.77823 127.881679 
L 627.247047 163.552823 
L 628.715864 114.233241 
L 630.184681 240.30171 
L 631.653498 214.943296 
L 633.122315 246.89324 
L 634.591133 207.95441 
L 636.05995 303.378335 
L 637.528767 336.426558 
L 640.466401 357.424676 
L 641.935219 362.783291 
L 643.404036 367.149702 
L 644.872853 346.401731 
L 646.34167 334.454644 
L 647.810487 286.767546 
L 649.279304 320.696201 
L 650.748122 367.04996 
L 652.216939 365.796963 
L 653.685756 323.671922 
L 655.154573 356.140479 
L 656.62339 251.838924 
L 658.092207 264.818135 
L 659.561025 297.907828 
L 661.029842 334.038967 
L 662.498659 214.890924 
L 663.967476 229.321436 
L 665.436293 172.298355 
L 666.905111 254.198788 
L 668.373928 190.154762 
L 669.842745 149.778257 
L 671.311562 132.626195 
L 672.780379 125.978888 
L 674.249196 81.535174 
L 675.718014 143.904465 
L 677.186831 75.584596 
L 678.655648 68.139407 
L 680.124465 58.586366 
L 681.593282 41.064403 
L 683.0621 85.976387 
L 684.530917 113.542062 
L 685.999734 44.100253 
L 687.468551 52.423497 
L 688.937368 88.272722 
L 690.406185 42.821353 
L 691.875003 83.656523 
L 693.34382 49.888215 
L 694.812637 114.469282 
L 696.281454 55.931619 
L 697.750271 80.217875 
L 699.219089 178.83765 
L 700.687906 159.096679 
L 702.156723 190.175614 
L 703.62554 189.846705 
L 705.094357 258.682827 
L 706.563174 246.042122 
L 708.031992 239.451909 
L 709.500809 355.205462 
L 710.969626 342.882368 
L 712.438443 366.88536 
L 713.90726 335.604166 
L 715.376077 320.406455 
L 716.844895 302.672449 
L 718.313712 351.171897 
L 719.782529 304.23027 
L 721.251346 356.57376 
L 722.720163 366.207917 
L 724.188981 351.999988 
L 725.657798 319.85272 
L 727.126615 321.322104 
L 728.595432 370.823158 
L 730.064249 321.98489 
L 731.533066 339.485012 
L 733.001884 258.631092 
L 734.470701 253.103649 
L 735.939518 271.974296 
L 737.408335 238.166403 
L 738.877152 244.716094 
L 740.34597 191.85909 
L 741.814787 129.187015 
L 743.283604 184.412885 
L 744.752421 104.667864 
L 746.221238 126.014781 
L 747.690055 142.315141 
L 749.158873 95.875071 
L 750.62769 111.949478 
L 752.096507 81.144733 
L 753.565324 96.815579 
L 755.034141 45.467077 
L 756.502959 65.934876 
L 757.971776 81.002859 
L 759.440593 64.429542 
L 760.90941 69.304728 
L 762.378227 69.172141 
L 763.847044 52.100772 
L 765.315862 63.654294 
L 766.784679 125.495888 
L 768.253496 134.60849 
L 769.722313 131.758465 
L 771.19113 222.676783 
L 772.659948 222.172693 
L 774.128765 143.911453 
L 775.597582 153.504756 
L 777.066399 223.420047 
L 778.535216 227.178955 
L 780.004033 238.439639 
L 781.472851 188.017285 
L 782.941668 259.690578 
L 784.410485 309.035762 
L 785.879302 343.601953 
L 787.348119 353.884148 
L 788.816936 339.124354 
L 790.285754 368.440342 
L 791.754571 362.239483 
L 793.223388 371.946222 
L 794.692205 371.946222 
L 796.161022 304.466119 
L 797.62984 314.238272 
L 799.098657 344.424463 
L 800.567474 269.379823 
L 802.036291 325.00865 
L 803.505108 330.054042 
L 804.973925 239.43804 
L 806.442743 249.444176 
L 807.91156 285.580669 
L 809.380377 243.233475 
L 810.849194 244.825589 
L 812.318011 246.713048 
L 812.318011 246.713048 
" clip-path="url(#p52470fb123)" style="fill: none; stroke: #990000; stroke-width: 1.5; stroke-linecap: square"/>
   </g>
   <g id="line2d_27">
    <path d="M 42.73125 322.313949 
L 848.965 322.313949 
" clip-path="url(#p52470fb123)" style="fill: none; stroke-dasharray: 4.44,1.92; stroke-dashoffset: 0; stroke: #800080; stroke-width: 1.2"/>
   </g>
   <g id="patch_3">
    <path d="M 42.73125 388.490312 
L 42.73125 24.520312 
" style="fill: none; stroke: #000000; stroke-width: 0.8; stroke-linejoin: miter; stroke-linecap: square"/>
   </g>
   <g id="patch_4">
    <path d="M 848.965 388.490312 
L 848.965 24.520312 
" style="fill: none; stroke: #000000; stroke-width: 0.8; stroke-linejoin: miter; stroke-linecap: square"/>
   </g>
   <g id="patch_5">
    <path d="M 42.73125 388.490312 
L 848.965 388.490312 
" style="fill: none; stroke: #000000; stroke-width: 0.8; stroke-linejoin: miter; stroke-linecap: square"/>
   </g>
   <g id="patch_6">
    <path d="M 42.73125 24.520312 
L 848.965 24.520312 
" style="fill: none; stroke: #000000; stroke-width: 0.8; stroke-linejoin: miter; stroke-linecap: square"/>
   </g>
   <g id="text_15">
    <!-- 改进规则-小区A/B综合质量得分对比 -->
    <g transform="translate(333.848125 18.520312)scale(0.14 -0.14)">
     <defs>
      <path id="SimHei-6539" d="M 4600 900 
Q 4850 575 5337 250 
Q 5825 -75 6175 -200 
Q 6000 -325 5775 -675 
Q 5450 -475 5087 -200 
Q 4725 75 4275 525 
Q 3850 125 3387 -150 
Q 2925 -425 2350 -675 
Q 2250 -450 2000 -225 
Q 2525 -75 3087 225 
Q 3650 525 4025 950 
Q 3825 1250 3600 1675 
Q 3375 2100 3175 2500 
L 3050 2325 
Q 2800 2500 2650 2600 
Q 2900 2900 3237 3562 
Q 3575 4225 3800 5125 
Q 4100 4975 4350 4950 
Q 4200 4700 4075 4387 
Q 3950 4075 3825 3775 
L 5075 3775 
Q 5600 3775 5950 3800 
L 5950 3350 
Q 5700 3375 5300 3375 
Q 5150 1850 4600 900 
z
M 2600 4500 
Q 2575 3925 2575 3350 
Q 2575 2775 2600 2275 
L 1125 2275 
L 1125 325 
Q 2050 825 2500 1175 
Q 2550 875 2650 700 
Q 2175 425 1725 150 
Q 1275 -125 800 -450 
Q 650 -225 450 -25 
Q 675 175 650 500 
L 650 1875 
Q 650 2225 625 2675 
L 2125 2675 
L 2125 4100 
L 1300 4100 
Q 875 4100 425 4075 
L 425 4525 
Q 875 4500 1300 4500 
L 2600 4500 
z
M 3200 2575 
Q 3425 2650 3575 2750 
Q 3750 2325 3950 1937 
Q 4150 1550 4325 1300 
Q 4725 2050 4825 3375 
L 3675 3375 
Q 3450 2975 3200 2575 
z
" transform="scale(0.015625)"/>
      <path id="SimHei-8fdb" d="M 4400 4100 
Q 4400 4600 4375 5200 
L 4900 5200 
Q 4875 4900 4875 4100 
Q 5400 4100 5900 4125 
L 5900 3650 
Q 5400 3675 4875 3675 
L 4875 2575 
Q 5475 2575 6025 2600 
L 6025 2125 
Q 5475 2150 4875 2150 
L 4875 1125 
Q 4875 700 4900 250 
L 4375 250 
Q 4375 700 4400 1125 
L 4400 2150 
L 3450 2150 
Q 3350 1475 3162 1050 
Q 2975 625 2600 200 
Q 2350 400 2125 525 
Q 2600 950 2750 1312 
Q 2900 1675 2975 2150 
Q 2400 2150 1975 2125 
L 1975 2600 
Q 2425 2575 3025 2575 
Q 3075 3150 3075 3675 
Q 2575 3675 2100 3625 
L 2100 4125 
Q 2575 4100 3100 4100 
Q 3100 4675 3075 5200 
Q 3325 5175 3600 5150 
Q 3575 4825 3550 4100 
L 4400 4100 
z
M 1600 3125 
Q 1550 2575 1550 2200 
L 1550 625 
Q 2275 125 3100 37 
Q 3925 -50 4712 -25 
Q 5500 0 6125 100 
Q 6000 -200 5975 -525 
Q 4775 -525 4012 -500 
Q 3250 -475 2612 -312 
Q 1975 -150 1650 37 
Q 1325 225 1087 37 
Q 850 -150 575 -450 
Q 425 -225 200 -50 
Q 800 400 1075 575 
L 1075 2700 
Q 800 2700 375 2650 
L 375 3150 
Q 875 3125 1125 3125 
L 1600 3125 
z
M 4400 2575 
L 4400 3675 
L 3550 3675 
Q 3525 3150 3475 2575 
L 4400 2575 
z
M 1200 5050 
Q 1600 4250 1700 3925 
Q 1425 3875 1200 3725 
Q 1125 4175 700 4850 
L 1200 5050 
z
" transform="scale(0.015625)"/>
      <path id="SimHei-89c4" d="M 1875 1725 
Q 2475 1275 3000 825 
Q 2800 600 2625 375 
Q 2275 850 1750 1250 
Q 1575 850 1312 387 
Q 1050 -75 700 -525 
Q 500 -275 200 -150 
Q 525 75 787 450 
Q 1050 825 1237 1287 
Q 1425 1750 1450 2250 
L 1225 2250 
Q 850 2250 400 2225 
L 400 2675 
Q 850 2650 1250 2650 
L 1475 2650 
L 1475 3725 
Q 975 3725 650 3700 
L 650 4150 
Q 1000 4125 1475 4125 
Q 1475 4975 1450 5300 
Q 1725 5275 2050 5225 
Q 1950 5075 1937 4737 
Q 1925 4400 1925 4125 
Q 2475 4125 2700 4150 
L 2700 3700 
Q 2400 3725 1925 3725 
L 1925 2650 
Q 2600 2650 2825 2675 
L 2825 2225 
Q 2600 2250 1900 2250 
Q 1900 2050 1875 1725 
z
M 4675 3700 
Q 4600 3400 4550 2775 
Q 4500 2150 4425 1675 
L 4850 1675 
Q 4825 1425 4825 1000 
L 4825 300 
Q 4825 -25 4987 -75 
Q 5150 -125 5325 -112 
Q 5500 -100 5562 25 
Q 5625 150 5700 675 
Q 5900 500 6200 400 
Q 6000 -275 5862 -412 
Q 5725 -550 5400 -550 
L 4925 -550 
Q 4375 -550 4375 25 
L 4375 1550 
Q 4275 1175 4112 875 
Q 3950 575 3562 200 
Q 3175 -175 2375 -625 
Q 2225 -400 1950 -225 
Q 2725 100 3187 525 
Q 3650 950 3837 1375 
Q 4025 1800 4075 2462 
Q 4125 3125 4125 3800 
Q 4450 3725 4675 3700 
z
M 5700 4875 
Q 5675 4475 5675 3275 
Q 5675 2075 5700 1575 
L 5225 1575 
L 5225 4450 
L 3450 4450 
L 3450 1550 
L 3000 1550 
Q 3025 2125 3025 3275 
Q 3025 4425 3000 4875 
L 5700 4875 
z
" transform="scale(0.015625)"/>
      <path id="SimHei-5219" d="M 3350 4875 
Q 3325 4475 3325 4025 
L 3325 2275 
Q 3325 1750 3350 1325 
L 2825 1325 
L 2825 4450 
L 1150 4450 
L 1150 1300 
L 600 1300 
Q 625 1725 625 2175 
L 625 4000 
Q 625 4525 600 4875 
L 3350 4875 
z
M 5775 5225 
Q 5750 4875 5750 4475 
L 5750 -25 
Q 5750 -425 5537 -512 
Q 5325 -600 4775 -675 
Q 4700 -375 4575 -75 
Q 5025 -75 5137 -50 
Q 5250 -25 5250 300 
L 5250 4475 
Q 5250 4875 5225 5225 
L 5775 5225 
z
M 2300 3825 
Q 2225 3525 2212 3187 
Q 2200 2850 2187 2237 
Q 2175 1625 2000 1137 
Q 1825 650 1600 325 
Q 1375 0 725 -525 
Q 500 -300 225 -100 
Q 825 175 1137 575 
Q 1450 975 1575 1487 
Q 1700 2000 1700 2575 
Q 1700 3150 1675 3875 
Q 1950 3825 2300 3825 
z
M 4600 4450 
Q 4575 4175 4575 3825 
L 4575 1675 
Q 4575 1175 4600 775 
L 4050 775 
Q 4075 1200 4075 1675 
L 4075 3825 
Q 4075 4125 4050 4450 
L 4600 4450 
z
M 2450 1025 
Q 2775 775 3062 537 
Q 3350 300 3575 100 
Q 3400 -25 3200 -300 
Q 2900 0 2650 225 
Q 2400 450 2125 650 
Q 2300 825 2450 1025 
z
" transform="scale(0.015625)"/>
      <path id="SimHei-2d" d="M 2975 2125 
L 125 2125 
L 125 2525 
L 2975 2525 
L 2975 2125 
z
" transform="scale(0.015625)"/>
      <path id="SimHei-5c0f" d="M 3500 5150 
Q 3475 4800 3475 4200 
L 3475 175 
Q 3475 -300 3225 -425 
Q 2975 -550 2375 -600 
Q 2325 -300 2150 -25 
Q 2700 -25 2837 0 
Q 2975 25 2975 300 
L 2975 4200 
Q 2975 4650 2950 5150 
L 3500 5150 
z
M 2075 3400 
Q 1850 2775 1550 1962 
Q 1250 1150 1025 750 
Q 775 950 500 1000 
Q 925 1750 1175 2487 
Q 1425 3225 1500 3575 
Q 1800 3425 2075 3400 
z
M 4675 3600 
Q 5675 1800 5875 1150 
Q 5625 1100 5375 925 
Q 5000 2000 4225 3325 
Q 4425 3425 4675 3600 
z
" transform="scale(0.015625)"/>
      <path id="SimHei-533a" d="M 5850 4525 
Q 5475 4550 4850 4550 
L 1150 4550 
L 1150 -75 
L 5225 -75 
Q 5725 -75 6025 -50 
L 6025 -500 
Q 5700 -475 5175 -475 
L 625 -475 
Q 650 125 650 400 
L 650 4200 
Q 650 4625 625 4975 
L 5850 4975 
L 5850 4525 
z
M 2275 3875 
Q 3150 3275 3800 2700 
Q 4375 3375 4650 4050 
Q 4925 3875 5300 3700 
Q 5025 3525 4825 3225 
Q 4625 2925 4225 2375 
Q 5075 1675 5600 1000 
Q 5300 800 5175 575 
Q 4775 1175 3850 1950 
Q 3475 1525 3087 1175 
Q 2700 825 2125 400 
Q 1900 625 1625 775 
Q 2125 1000 2525 1312 
Q 2925 1625 3475 2300 
Q 2850 2875 1925 3450 
Q 2175 3650 2275 3875 
z
" transform="scale(0.015625)"/>
      <path id="SimHei-41" d="M 3075 125 
L 2475 125 
L 2125 1450 
L 1025 1450 
L 675 125 
L 75 125 
L 1325 4450 
L 1825 4450 
L 3075 125 
z
M 2000 1925 
L 1600 3450 
L 1550 3450 
L 1150 1925 
L 2000 1925 
z
" transform="scale(0.015625)"/>
      <path id="SimHei-2f" d="M 3000 4550 
L 350 -175 
L 100 -25 
L 2750 4700 
L 3000 4550 
z
" transform="scale(0.015625)"/>
      <path id="SimHei-42" d="M 2950 1400 
Q 2950 675 2550 400 
Q 2150 125 1525 125 
L 275 125 
L 275 4400 
L 1575 4400 
Q 2200 4400 2512 4075 
Q 2825 3750 2825 3300 
Q 2825 2850 2612 2637 
Q 2400 2425 2175 2350 
Q 2475 2275 2712 2037 
Q 2950 1800 2950 1400 
z
M 2250 3300 
Q 2250 3625 2062 3775 
Q 1875 3925 1600 3925 
L 850 3925 
L 850 2600 
L 1575 2600 
Q 1850 2600 2050 2762 
Q 2250 2925 2250 3300 
z
M 2350 1400 
Q 2350 1800 2087 1962 
Q 1825 2125 1500 2125 
L 850 2125 
L 850 600 
L 1425 600 
Q 1875 600 2112 775 
Q 2350 950 2350 1400 
z
" transform="scale(0.015625)"/>
      <path id="SimHei-5bf9" d="M 525 4250 
Q 900 4225 1400 4225 
L 2825 4225 
Q 2575 2625 2200 1750 
Q 2825 875 3125 400 
Q 2950 275 2725 75 
Q 2200 975 1950 1300 
Q 1650 775 1350 425 
Q 1050 75 600 -350 
Q 425 -125 200 -25 
Q 625 275 975 675 
Q 1325 1075 1650 1700 
Q 1050 2425 550 2900 
Q 700 3025 900 3225 
Q 1625 2425 1875 2150 
Q 2200 3050 2300 3825 
L 1400 3825 
Q 900 3825 525 3800 
L 525 4250 
z
M 2925 3700 
Q 3525 3675 3750 3675 
L 4825 3675 
L 4825 4425 
Q 4825 4750 4775 5125 
L 5350 5125 
Q 5325 4825 5325 4375 
L 5325 3675 
Q 5575 3675 6150 3700 
L 6150 3250 
Q 5575 3275 5325 3275 
L 5325 125 
Q 5350 -350 5012 -475 
Q 4675 -600 4250 -650 
Q 4175 -350 4025 -100 
Q 4575 -100 4712 -37 
Q 4850 25 4825 325 
L 4825 3275 
L 3775 3275 
Q 3550 3275 2925 3225 
L 2925 3700 
z
M 3450 2725 
Q 3875 1975 4175 1325 
Q 3850 1200 3700 1075 
Q 3475 1750 3050 2475 
Q 3225 2550 3450 2725 
z
" transform="scale(0.015625)"/>
      <path id="SimHei-6bd4" d="M 3775 5100 
Q 3750 4575 3750 4100 
L 3750 3050 
Q 4925 3600 5475 4175 
Q 5675 3900 5900 3675 
Q 5600 3500 5037 3187 
Q 4475 2875 3750 2550 
L 3750 450 
Q 3750 100 4050 100 
L 5000 100 
Q 5175 100 5262 250 
Q 5350 400 5450 900 
Q 5650 775 6025 675 
Q 5850 0 5650 -175 
Q 5450 -350 5225 -350 
L 3900 -350 
Q 3250 -350 3250 275 
L 3250 4000 
Q 3250 4550 3225 5100 
L 3775 5100 
z
M 1275 4975 
Q 1250 4575 1250 4000 
L 1250 3150 
L 1850 3150 
Q 2325 3150 2875 3175 
L 2875 2650 
Q 2325 2675 1850 2675 
L 1250 2675 
L 1250 475 
Q 1650 650 1962 812 
Q 2275 975 2850 1275 
Q 2900 950 2950 750 
Q 2375 475 1762 175 
Q 1150 -125 925 -325 
Q 750 -100 575 200 
Q 700 300 750 600 
L 750 3950 
Q 750 4550 725 4975 
L 1275 4975 
z
" transform="scale(0.015625)"/>
     </defs>
     <use xlink:href="#SimHei-6539"/>
     <use xlink:href="#SimHei-8fdb" x="100"/>
     <use xlink:href="#SimHei-89c4" x="200"/>
     <use xlink:href="#SimHei-5219" x="300"/>
     <use xlink:href="#SimHei-2d" x="400"/>
     <use xlink:href="#SimHei-5c0f" x="450"/>
     <use xlink:href="#SimHei-533a" x="550"/>
     <use xlink:href="#SimHei-41" x="650"/>
     <use xlink:href="#SimHei-2f" x="700"/>
     <use xlink:href="#SimHei-42" x="750"/>
     <use xlink:href="#SimHei-7efc" x="800"/>
     <use xlink:href="#SimHei-5408" x="900"/>
     <use xlink:href="#SimHei-8d28" x="1000"/>
     <use xlink:href="#SimHei-91cf" x="1100"/>
     <use xlink:href="#SimHei-5f97" x="1200"/>
     <use xlink:href="#SimHei-5206" x="1300"/>
     <use xlink:href="#SimHei-5bf9" x="1400"/>
     <use xlink:href="#SimHei-6bd4" x="1500"/>
    </g>
   </g>
   <g id="legend_1">
    <g id="patch_7">
     <path d="M 724.965 75.176562 
L 841.965 75.176562 
Q 843.965 75.176562 843.965 73.176562 
L 843.965 31.520312 
Q 843.965 29.520312 841.965 29.520312 
L 724.965 29.520312 
Q 722.965 29.520312 722.965 31.520312 
L 722.965 73.176562 
Q 722.965 75.176562 724.965 75.176562 
z
" style="fill: #ffffff; opacity: 0.8; stroke: #cccccc; stroke-linejoin: miter"/>
    </g>
    <g id="line2d_28">
     <path d="M 726.965 37.989062 
L 736.965 37.989062 
L 746.965 37.989062 
" style="fill: none; stroke: #003366; stroke-width: 1.5; stroke-linecap: square"/>
    </g>
    <g id="text_16">
     <!-- 小区A综合质量得分 -->
     <g transform="translate(754.965 41.489062)scale(0.1 -0.1)">
      <use xlink:href="#SimHei-5c0f"/>
      <use xlink:href="#SimHei-533a" x="100"/>
      <use xlink:href="#SimHei-41" x="200"/>
      <use xlink:href="#SimHei-7efc" x="250"/>
      <use xlink:href="#SimHei-5408" x="350"/>
      <use xlink:href="#SimHei-8d28" x="450"/>
      <use xlink:href="#SimHei-91cf" x="550"/>
      <use xlink:href="#SimHei-5f97" x="650"/>
      <use xlink:href="#SimHei-5206" x="750"/>
     </g>
    </g>
    <g id="line2d_29">
     <path d="M 726.965 52.207812 
L 736.965 52.207812 
L 746.965 52.207812 
" style="fill: none; stroke: #990000; stroke-width: 1.5; stroke-linecap: square"/>
    </g>
    <g id="text_17">
     <!-- 小区B综合质量得分 -->
     <g transform="translate(754.965 55.707812)scale(0.1 -0.1)">
      <use xlink:href="#SimHei-5c0f"/>
      <use xlink:href="#SimHei-533a" x="100"/>
      <use xlink:href="#SimHei-42" x="200"/>
      <use xlink:href="#SimHei-7efc" x="250"/>
      <use xlink:href="#SimHei-5408" x="350"/>
      <use xlink:href="#SimHei-8d28" x="450"/>
      <use xlink:href="#SimHei-91cf" x="550"/>
      <use xlink:href="#SimHei-5f97" x="650"/>
      <use xlink:href="#SimHei-5206" x="750"/>
     </g>
    </g>
    <g id="line2d_30">
     <path d="M 726.965 66.426562 
L 736.965 66.426562 
L 746.965 66.426562 
" style="fill: none; stroke-dasharray: 4.44,1.92; stroke-dashoffset: 0; stroke: #800080; stroke-width: 1.2"/>
    </g>
    <g id="text_18">
     <!-- 滞回阈值 -->
     <g transform="translate(754.965 69.926562)scale(0.1 -0.1)">
      <defs>
       <path id="SimHei-6ede" d="M 6075 2975 
Q 6050 2750 6050 2525 
Q 6050 2300 6075 2075 
L 5525 2075 
L 5525 2575 
L 4200 2575 
L 4200 1825 
L 5575 1825 
Q 5550 1450 5550 1150 
L 5550 525 
Q 5550 125 5337 25 
Q 5125 -75 4700 -150 
Q 4675 75 4525 325 
Q 4875 300 4975 362 
Q 5075 425 5075 650 
L 5075 1425 
L 4200 1425 
L 4200 225 
Q 4200 -200 4225 -625 
L 3675 -625 
Q 3700 -200 3700 225 
L 3700 1425 
L 2875 1425 
L 2875 -100 
L 2375 -100 
L 2375 1825 
L 3700 1825 
L 3700 2575 
L 2300 2575 
L 2300 2000 
L 1750 2000 
Q 1775 2225 1775 2475 
Q 1775 2725 1750 2975 
L 6075 2975 
z
M 2500 4375 
Q 2500 4750 2475 5075 
L 3025 5075 
Q 3000 4725 3000 4375 
L 3625 4375 
L 3625 4600 
Q 3625 4875 3600 5200 
L 4100 5200 
Q 4075 4875 4075 4600 
L 4075 4375 
L 4725 4375 
Q 4725 4800 4700 5125 
L 5225 5125 
Q 5200 4675 5200 4375 
Q 5625 4375 6025 4400 
L 6025 3950 
Q 5625 3975 5200 3975 
Q 5200 3725 5225 3375 
L 4700 3375 
Q 4725 3750 4725 3975 
L 4075 3975 
Q 4075 3575 4100 3275 
L 3600 3275 
Q 3625 3575 3625 3975 
L 3000 3975 
Q 3000 3600 3025 3325 
L 2475 3325 
Q 2500 3575 2500 3975 
Q 2275 3975 1875 3950 
L 1875 4400 
Q 2250 4375 2500 4375 
z
M 275 -250 
Q 500 200 650 712 
Q 800 1225 950 1725 
Q 1175 1625 1425 1550 
Q 1325 1300 1162 762 
Q 1000 225 825 -475 
Q 625 -350 275 -250 
z
M 1225 2325 
Q 1025 2500 787 2650 
Q 550 2800 225 2950 
Q 375 3150 475 3375 
Q 675 3275 950 3100 
L 1500 2750 
Q 1350 2575 1225 2325 
z
M 1325 3875 
Q 1125 4075 925 4250 
Q 725 4425 500 4575 
L 800 4925 
Q 925 4850 1175 4650 
Q 1425 4450 1625 4250 
Q 1450 4075 1325 3875 
z
" transform="scale(0.015625)"/>
       <path id="SimHei-56de" d="M 5650 4850 
Q 5625 4125 5625 3450 
L 5625 950 
Q 5625 300 5650 -375 
L 5150 -375 
L 5150 100 
L 1175 100 
L 1175 -375 
L 700 -375 
Q 725 250 725 950 
L 725 3450 
Q 725 4100 700 4850 
L 5650 4850 
z
M 5150 500 
L 5150 4425 
L 1200 4425 
L 1200 500 
L 5150 500 
z
M 4325 3500 
Q 4300 3125 4300 2750 
L 4300 2175 
Q 4300 1850 4325 1400 
L 2025 1400 
Q 2050 1850 2050 2175 
L 2050 2800 
Q 2050 3150 2025 3500 
L 4325 3500 
z
M 3825 1825 
L 3825 3100 
L 2500 3100 
L 2500 1825 
L 3825 1825 
z
" transform="scale(0.015625)"/>
       <path id="SimHei-9608" d="M 5225 825 
Q 4925 75 4612 150 
Q 4300 225 3975 800 
Q 3850 600 3687 362 
Q 3525 125 3325 -100 
Q 3150 50 2875 175 
Q 3150 425 3337 687 
Q 3525 950 3700 1250 
Q 3525 1750 3437 2087 
Q 3350 2425 3300 3175 
L 1900 3175 
Q 1675 3175 1350 3150 
L 1350 3550 
Q 1675 3525 1900 3525 
L 3300 3525 
Q 3250 4025 3225 4300 
Q 3425 4275 3775 4275 
Q 3750 3850 3750 3525 
L 4425 3525 
Q 4675 3525 5075 3550 
L 5075 3150 
Q 4675 3175 4425 3175 
L 3750 3175 
Q 3750 2900 3812 2475 
Q 3875 2050 4000 1775 
Q 4075 1975 4137 2237 
Q 4200 2500 4250 2925 
Q 4675 2800 4850 2725 
Q 4700 2550 4562 2112 
Q 4425 1675 4225 1200 
Q 4350 950 4537 787 
Q 4725 625 4850 1100 
Q 5075 925 5225 825 
z
M 5900 4875 
Q 5875 4400 5875 3825 
L 5875 100 
Q 5875 -400 5550 -475 
Q 5225 -550 4850 -625 
Q 4750 -350 4575 -50 
Q 5150 -75 5300 -50 
Q 5450 -25 5450 300 
L 5450 4500 
L 3600 4500 
Q 3050 4500 2400 4475 
L 2400 4900 
Q 3050 4875 3550 4875 
L 5900 4875 
z
M 3050 2725 
Q 2975 2450 2975 2200 
L 2975 1300 
L 1450 1300 
Q 1475 1550 1475 1725 
L 1475 2200 
Q 1475 2425 1450 2725 
L 3050 2725 
z
M 1075 3850 
Q 1050 3475 1050 3100 
L 1050 -575 
L 550 -575 
Q 600 100 600 625 
L 600 2975 
Q 600 3500 550 3850 
L 1075 3850 
z
M 3100 1050 
Q 3075 775 3100 650 
Q 2775 575 2200 450 
Q 1625 325 1325 200 
Q 1200 475 1125 725 
Q 1425 750 1987 850 
Q 2550 950 3100 1050 
z
M 1375 5275 
Q 1650 4900 1975 4375 
Q 1725 4225 1475 4100 
Q 1200 4625 900 5000 
Q 1150 5200 1375 5275 
z
M 2550 1675 
L 2550 2350 
L 1900 2350 
L 1900 1675 
L 2550 1675 
z
M 4500 4400 
Q 4625 4150 4800 3875 
Q 4625 3800 4350 3650 
Q 4225 3925 4075 4175 
Q 4325 4350 4500 4400 
z
" transform="scale(0.015625)"/>
       <path id="SimHei-503c" d="M 3675 4450 
L 3675 5100 
Q 3975 5075 4350 5050 
Q 4225 4875 4200 4450 
L 5125 4450 
Q 5550 4450 5875 4475 
L 5875 4025 
Q 5525 4050 5125 4050 
L 4175 4050 
L 4125 3500 
L 5400 3500 
Q 5375 3200 5375 2700 
L 5375 150 
Q 5875 150 6100 175 
L 6100 -275 
Q 5775 -250 5200 -250 
L 2850 -250 
Q 2275 -250 1900 -275 
L 1900 175 
Q 2125 150 2600 150 
L 2600 2700 
Q 2600 3175 2575 3500 
L 3600 3500 
L 3650 4050 
L 3200 4050 
Q 2575 4050 2225 4025 
L 2225 4475 
Q 2550 4450 3200 4450 
L 3675 4450 
z
M 2225 4900 
Q 2025 4675 1650 3750 
L 1650 450 
Q 1650 -75 1675 -550 
L 1150 -550 
Q 1175 -125 1175 375 
L 1175 2950 
Q 875 2450 625 2150 
Q 425 2425 250 2575 
Q 500 2825 937 3537 
Q 1375 4250 1625 5150 
Q 1975 4975 2225 4900 
z
M 4925 2650 
L 4925 3150 
L 3075 3150 
L 3075 2650 
L 4925 2650 
z
M 4925 150 
L 4925 625 
L 3075 625 
L 3075 150 
L 4925 150 
z
M 4925 1000 
L 4925 1450 
L 3075 1450 
L 3075 1000 
L 4925 1000 
z
M 4925 1825 
L 4925 2275 
L 3075 2275 
L 3075 1825 
L 4925 1825 
z
" transform="scale(0.015625)"/>
      </defs>
      <use xlink:href="#SimHei-6ede"/>
      <use xlink:href="#SimHei-56de" x="100"/>
      <use xlink:href="#SimHei-9608" x="200"/>
      <use xlink:href="#SimHei-503c" x="300"/>
     </g>
    </g>
   </g>
  </g>
 </g>
 <defs>
  <clipPath id="p52470fb123">
   <rect x="42.73125" y="24.520312" width="806.23375" height="363.97"/>
  </clipPath>
 </defs>
</svg>
